<svg xmlns="http://www.w3.org/2000/svg" xmlns:xlink="http://www.w3.org/1999/xlink" width="400" height="249.437" viewBox="0 0 400 249.437">
  <defs>
    <linearGradient id="linear-gradient" x1="1.3" y1="0.615" x2="0.5" y2="1" gradientUnits="objectBoundingBox">
      <stop offset="0" stop-color="#035159"/>
      <stop offset="1" stop-color="#043f45"/>
    </linearGradient>
    <clipPath id="clip-path">
      <path id="Rectángulo_5143" data-name="Rectángulo 5143" d="M0,0H241.982a115.15,115.15,0,0,1,115.15,115.15v0A115.15,115.15,0,0,1,241.982,230.3H115.15A115.15,115.15,0,0,1,0,115.15V0A0,0,0,0,1,0,0Z" stroke="#707070" stroke-width="1" fill="url(#linear-gradient)"/>
    </clipPath>
    <clipPath id="clip-path-2">
      <path id="Trazado_101792" data-name="Trazado 101792" d="M244.762,389.653a11.321,11.321,0,1,1-2.871-15.754A11.327,11.327,0,0,1,244.762,389.653Z" transform="translate(-224.121 -371.887)" fill="#77cfd9" stroke="#263238" stroke-linecap="round" stroke-linejoin="round" stroke-width="1"/>
    </clipPath>
    <clipPath id="clip-path-3">
      <path id="Trazado_101804" data-name="Trazado 101804" d="M367.07,88.487l-8.686,84.753-5.342,52.138L278.4,217.732l-14.525-1.488-9.3-.953,8.243-80.463L268.6,78.4Z" transform="translate(-254.57 -78.4)" fill="#fff" stroke="#263238" stroke-linecap="round" stroke-linejoin="round" stroke-width="1"/>
    </clipPath>
    <clipPath id="clip-path-4">
      <path id="Trazado_101829" data-name="Trazado 101829" d="M362.511,200.659l-2.037,4.626-54.831,73.107-6.107-3.893,8.291-10.4,49.248-61.776,4.344-2.759A1.542,1.542,0,0,1,362.511,200.659Z" transform="translate(-299.536 -199.562)" fill="#77cfd9" stroke="#263238" stroke-linecap="round" stroke-linejoin="round" stroke-width="1"/>
    </clipPath>
    <clipPath id="clip-path-5">
      <path id="Trazado_101833" data-name="Trazado 101833" d="M316.858,292.12a216.491,216.491,0,0,1-12.008,20.74l-4.207,1.088s-9.649,9.589-15.537,14.375a13.2,13.2,0,0,1-2.878-2.416s8.361-16.054,17.61-26.216a11.8,11.8,0,0,1,3.035,1.611,14.9,14.9,0,0,1,3.168,3.04l10.31-12.971Z" transform="translate(-282.228 -291.371)" fill="#77cfd9" stroke="#263238" stroke-linecap="round" stroke-linejoin="round" stroke-width="1"/>
    </clipPath>
    <clipPath id="clip-path-6">
      <path id="Trazado_101850" data-name="Trazado 101850" d="M207.718,194.135l-82.713,34.81-8.526,3.59-16.068-38.178L63.1,105.7l91.238-38.4Z" transform="translate(-63.1 -67.3)" fill="#fff" stroke="#263238" stroke-linecap="round" stroke-linejoin="round" stroke-width="1"/>
    </clipPath>
  </defs>
  <g id="Grupo_79534" data-name="Grupo 79534" transform="translate(2706 8667.137)">
    <g id="Enmascarar_grupo_44" data-name="Enmascarar grupo 44" transform="translate(-2677.236 -8664.326)" clip-path="url(#clip-path)">
      <g id="Rectángulo_33349" data-name="Rectángulo 33349" transform="translate(-31.764 -24.674)" fill="#f6f6f6" stroke="#707070" stroke-width="1">
        <rect width="424" height="269" stroke="none"/>
        <rect x="0.5" y="0.5" width="423" height="268" fill="none"/>
      </g>
      <g id="Grupo_78687" data-name="Grupo 78687" transform="translate(15.693 -50.162)">
        <g id="Grupo_78652" data-name="Grupo 78652" transform="translate(25.059 50.162)">
          <path id="Trazado_101783" data-name="Trazado 101783" d="M149.96,50.874c76.243-6.79,76.372,36.226,110.725,76.3s41.7,58.244,28.755,104.441-56.591,82.411-110.578,61.892S93.949,292.693,59.9,274.472s-46.7-53.424-21.772-94.914S55.949,59.246,149.96,50.874Z" transform="translate(-25.059 -50.162)" fill="#77cfd9"/>
          <path id="Trazado_101784" data-name="Trazado 101784" d="M149.96,50.874c76.243-6.79,76.372,36.226,110.725,76.3s41.7,58.244,28.755,104.441-56.591,82.411-110.578,61.892S93.949,292.693,59.9,274.472s-46.7-53.424-21.772-94.914S55.949,59.246,149.96,50.874Z" transform="translate(-25.059 -50.162)" fill="#fff" opacity="0.7"/>
        </g>
        <g id="Grupo_78658" data-name="Grupo 78658" transform="translate(26.76 53.048)">
          <g id="Grupo_78653" data-name="Grupo 78653" transform="translate(124.906)">
            <rect id="Rectángulo_33345" data-name="Rectángulo 33345" width="19.075" height="19.075" rx="5.09" transform="translate(0 3.931) rotate(-11.893)" fill="none" stroke="#263238" stroke-linecap="round" stroke-linejoin="round" stroke-width="1"/>
            <line id="Línea_192" data-name="Línea 192" x2="1.603" y2="7.612" transform="translate(10.497 7.493)" fill="none" stroke="#263238" stroke-linecap="round" stroke-linejoin="round" stroke-width="1"/>
            <line id="Línea_193" data-name="Línea 193" x1="7.611" y2="1.603" transform="translate(7.493 10.497)" fill="none" stroke="#263238" stroke-linecap="round" stroke-linejoin="round" stroke-width="1"/>
          </g>
          <g id="Grupo_78654" data-name="Grupo 78654" transform="translate(251.331 134.084)">
            <rect id="Rectángulo_33346" data-name="Rectángulo 33346" width="19.075" height="19.075" rx="5.09" transform="translate(0 3.931) rotate(-11.893)" fill="none" stroke="#263238" stroke-linecap="round" stroke-linejoin="round" stroke-width="1"/>
            <line id="Línea_194" data-name="Línea 194" x1="4.249" y2="6.516" transform="translate(9.174 8.041)" fill="none" stroke="#263238" stroke-linecap="round" stroke-linejoin="round" stroke-width="1"/>
            <line id="Línea_195" data-name="Línea 195" x1="6.516" y1="4.249" transform="translate(8.041 9.174)" fill="none" stroke="#263238" stroke-linecap="round" stroke-linejoin="round" stroke-width="1"/>
          </g>
          <g id="Grupo_78655" data-name="Grupo 78655" transform="translate(80.984 214.773)">
            <rect id="Rectángulo_33347" data-name="Rectángulo 33347" width="19.075" height="19.075" rx="5.09" transform="translate(1.099 0) rotate(3.304)" fill="none" stroke="#263238" stroke-linecap="round" stroke-linejoin="round" stroke-width="1"/>
            <line id="Línea_196" data-name="Línea 196" x1="7.765" y1="0.448" transform="translate(6.189 9.847)" fill="none" stroke="#263238" stroke-linecap="round" stroke-linejoin="round" stroke-width="1"/>
          </g>
          <g id="Grupo_78657" data-name="Grupo 78657" transform="translate(0 122.156)">
            <rect id="Rectángulo_33348" data-name="Rectángulo 33348" width="19.075" height="19.075" rx="5.09" transform="translate(5.999 0) rotate(18.329)" fill="none" stroke="#263238" stroke-linecap="round" stroke-linejoin="round" stroke-width="1"/>
            <line id="Línea_197" data-name="Línea 197" x1="9.731" y2="4.888" transform="translate(7.187 9.609)" fill="none" stroke="#263238" stroke-linecap="round" stroke-linejoin="round" stroke-width="1"/>
            <g id="Grupo_78656" data-name="Grupo 78656" transform="translate(8.764 6.85)">
              <path id="Trazado_101785" data-name="Trazado 101785" d="M44.655,265.478a1.358,1.358,0,1,1-1.823-.6A1.358,1.358,0,0,1,44.655,265.478Z" transform="translate(-42.084 -264.729)" fill="none" stroke="#263238" stroke-linecap="round" stroke-linejoin="round" stroke-width="1"/>
              <path id="Trazado_101786" data-name="Trazado 101786" d="M50.939,277.989a1.358,1.358,0,1,1-1.823-.6A1.357,1.357,0,0,1,50.939,277.989Z" transform="translate(-44.506 -269.55)" fill="none" stroke="#263238" stroke-linecap="round" stroke-linejoin="round" stroke-width="1"/>
            </g>
          </g>
        </g>
        <g id="Grupo_78661" data-name="Grupo 78661" transform="translate(147.42 247.923)">
          <path id="Trazado_101787" data-name="Trazado 101787" d="M244.762,389.653a11.321,11.321,0,1,1-2.871-15.754A11.327,11.327,0,0,1,244.762,389.653Z" transform="translate(-224.121 -371.887)" fill="#77cfd9"/>
          <g id="Grupo_78660" data-name="Grupo 78660" clip-path="url(#clip-path-2)">
            <path id="Trazado_101788" data-name="Trazado 101788" d="M244.412,389.756a9.528,9.528,0,1,1-2.418-13.256A9.529,9.529,0,0,1,244.412,389.756Z" transform="translate(-225.248 -373.012)" fill="rgba(0,0,0,0.7)" opacity="0.3"/>
            <path id="Trazado_101789" data-name="Trazado 101789" d="M244.412,389.756a9.528,9.528,0,1,1-2.418-13.256A9.529,9.529,0,0,1,244.412,389.756Z" transform="translate(-225.248 -373.012)" fill="none" stroke="#263238" stroke-linecap="round" stroke-linejoin="round" stroke-width="1"/>
            <g id="Grupo_78659" data-name="Grupo 78659" transform="translate(7.093 5.908)">
              <path id="Trazado_101790" data-name="Trazado 101790" d="M242.336,382.159l.457-.661,1.144.79-.457.661c.851.889.833,2,0,3.211l-.194.28-1.322-.915.254-.368c.44-.636.353-1.053-.092-1.361s-.867-.242-1.306.393-.492,1.256-.071,2.657c.512,1.707.422,2.678-.281,3.7-.835,1.208-1.893,1.623-3.025,1.14l-.448.649-1.144-.791.448-.648c-.864-.9-.836-2.025,0-3.232l.422-.61,1.322.914-.483.7c-.439.636-.318,1.058.127,1.365s.883.272,1.322-.363.5-1.269.071-2.657c-.52-1.693-.422-2.678.282-3.695C240.186,382.118,241.209,381.7,242.336,382.159Z" transform="translate(-235.661 -381.498)" fill="#77cfd9" stroke="#263238" stroke-linecap="round" stroke-linejoin="round" stroke-width="1"/>
            </g>
            <path id="Trazado_101791" data-name="Trazado 101791" d="M232.29,374.336a15.255,15.255,0,0,1-7.462,13.124,11.317,11.317,0,0,1,7.37-14.789A14.879,14.879,0,0,1,232.29,374.336Z" transform="translate(-224.121 -372.189)" fill="rgba(0,0,0,0.7)" opacity="0.2"/>
          </g>
          <path id="Trazado_101793" data-name="Trazado 101793" d="M244.762,389.653a11.321,11.321,0,1,1-2.871-15.754A11.327,11.327,0,0,1,244.762,389.653Z" transform="translate(-224.121 -371.887)" fill="none" stroke="#263238" stroke-linecap="round" stroke-linejoin="round" stroke-width="1"/>
        </g>
        <g id="Grupo_78663" data-name="Grupo 78663" transform="translate(131.25 238.393)">
          <circle id="Elipse_4606" data-name="Elipse 4606" cx="11.326" cy="11.326" r="11.326" fill="#77cfd9" stroke="#263238" stroke-linecap="round" stroke-linejoin="round" stroke-width="1"/>
          <circle id="Elipse_4607" data-name="Elipse 4607" cx="9.528" cy="9.528" r="9.528" transform="translate(1.797 1.797)" fill="rgba(0,0,0,0.7)" opacity="0.3"/>
          <circle id="Elipse_4608" data-name="Elipse 4608" cx="9.528" cy="9.528" r="9.528" transform="translate(1.797 1.797)" fill="none" stroke="#263238" stroke-linecap="round" stroke-linejoin="round" stroke-width="1"/>
          <g id="Grupo_78662" data-name="Grupo 78662" transform="translate(8.791 5.221)">
            <path id="Trazado_101794" data-name="Trazado 101794" d="M213.956,365.681v-.8h1.391v.8c1.206.247,1.824,1.174,1.824,2.642v.341h-1.607v-.448c0-.773-.309-1.066-.85-1.066s-.851.293-.851,1.066.31,1.314,1.453,2.225c1.391,1.113,1.871,1.963,1.871,3.2,0,1.469-.634,2.411-1.84,2.658v.789h-1.391V376.3c-1.221-.247-1.839-1.189-1.839-2.658V372.9h1.607v.85c0,.773.34,1.051.881,1.051s.881-.278.881-1.051-.309-1.329-1.453-2.225c-1.39-1.1-1.87-1.963-1.87-3.2C212.163,366.87,212.766,365.942,213.956,365.681Z" transform="translate(-212.117 -364.876)" fill="#77cfd9" stroke="#263238" stroke-linecap="round" stroke-linejoin="round" stroke-width="1"/>
          </g>
        </g>
        <g id="Grupo_78665" data-name="Grupo 78665" transform="translate(180.969 237.482)">
          <circle id="Elipse_4609" data-name="Elipse 4609" cx="11.326" cy="11.326" r="11.326" transform="translate(0 19.072) rotate(-57.348)" fill="#77cfd9" stroke="#263238" stroke-linecap="round" stroke-linejoin="round" stroke-width="1"/>
          <path id="Trazado_101795" data-name="Trazado 101795" d="M305.164,367.9a9.528,9.528,0,1,1-13.466-.5A9.528,9.528,0,0,1,305.164,367.9Z" transform="translate(-282.536 -358.737)" fill="rgba(0,0,0,0.7)" opacity="0.3"/>
          <path id="Trazado_101796" data-name="Trazado 101796" d="M305.164,367.9a9.528,9.528,0,1,1-13.466-.5A9.528,9.528,0,0,1,305.164,367.9Z" transform="translate(-282.536 -358.737)" fill="none" stroke="#263238" stroke-linecap="round" stroke-linejoin="round" stroke-width="1"/>
          <g id="Grupo_78664" data-name="Grupo 78664" transform="translate(10.982 10.7)">
            <path id="Trazado_101797" data-name="Trazado 101797" d="M297.114,373.844l-.548-.589,1.019-.947.548.589c1.051-.639,2.135-.381,3.134.7l.232.25-1.178,1.094-.3-.328c-.526-.567-.952-.571-1.349-.2s-.424.794.1,1.36,1.121.752,2.579.642c1.777-.132,2.706.165,3.548,1.071,1,1.076,1.177,2.2.461,3.2l.537.578-1.019.947-.537-.578c-1.063.65-2.157.38-3.156-.7l-.5-.544,1.178-1.094.578.623c.526.567.964.539,1.36.171s.456-.8-.07-1.37-1.13-.763-2.579-.642c-1.766.143-2.706-.165-3.547-1.072C296.61,375.936,296.42,374.846,297.114,373.844Z" transform="translate(-296.566 -372.309)" fill="#77cfd9" stroke="#263238" stroke-linecap="round" stroke-linejoin="round" stroke-width="1"/>
          </g>
        </g>
        <g id="Grupo_78679" data-name="Grupo 78679" transform="translate(166.137 67.52)">
          <path id="Trazado_101798" data-name="Trazado 101798" d="M294.133,300.254s-.047,23.5,0,24.876,1.826,9.626,1.826,9.626l-5.707,10.52,4.913,3.96,9.559-9.4s8.14,5.028,9.627,12.219,10.343,12.428,19.534,32.344,19.672-44.562,19.672-44.562l-28.354-35.7Z" transform="translate(-268.319 -163.883)" fill="rgba(0,0,0,0.7)" opacity="0.2"/>
          <g id="Grupo_78667" data-name="Grupo 78667">
            <path id="Trazado_101799" data-name="Trazado 101799" d="M367.07,88.487l-8.686,84.753-5.342,52.138L278.4,217.732l-14.525-1.488-9.3-.953,8.243-80.463L268.6,78.4Z" transform="translate(-254.57 -78.4)" fill="#fff"/>
            <g id="Grupo_78666" data-name="Grupo 78666" clip-path="url(#clip-path-3)">
              <path id="Trazado_101800" data-name="Trazado 101800" d="M363.414,97.222l-42.508-4.356a1.452,1.452,0,0,0-.3,2.89l42.508,4.356a1.452,1.452,0,1,0,.3-2.889Z" transform="translate(-279.514 -83.971)" fill="#263238"/>
              <path id="Trazado_101801" data-name="Trazado 101801" d="M358.961,106.478,337.707,104.3a.726.726,0,0,0-.148,1.445l21.254,2.178a.726.726,0,1,0,.148-1.445Z" transform="translate(-286.295 -88.378)" fill="#263238"/>
              <path id="Trazado_101802" data-name="Trazado 101802" d="M353.941,196.81c-2.379-.191-3.2,3.6-3.2,3.6s-3.762-4.93-3.166-16.523c0,0-1.838-5.139-6.762-2.035S330.785,195.9,332,207.819l-9.571-31.773c-3.307.7-10.026,5.145-8.255,26.6l-10.444-11.04a3.935,3.935,0,0,0-4.426,1.592c-1.6,2.508-.836,20.42.486,27.12s-2.047,20.162-2.047,20.162-3.6-15.244-10.118-19.1L262.813,170.2l-8.243,80.463,9.3.953,14.935-7.27c-.083,3.362-.165,6.453-.41,8.757l74.648,7.647,5.342-52.138C356.571,202.115,354.838,196.878,353.941,196.81Z" transform="translate(-254.57 -113.772)" fill="rgba(0,0,0,0.7)" opacity="0.2"/>
              <path id="Trazado_141241" data-name="Trazado 141241" d="M1.6,0H3.423V-5.67a6.289,6.289,0,0,0,1.47.126A5.864,5.864,0,0,0,9.219-7.1a4.166,4.166,0,0,0,1.092-3.024,3.805,3.805,0,0,0-1.239-2.961A5.815,5.815,0,0,0,5.1-14.259a21.175,21.175,0,0,0-3.507.273ZM3.423-12.663a7.667,7.667,0,0,1,1.722-.147c2.016,0,3.339.9,3.339,2.772,0,1.953-1.344,3.024-3.549,3.024a6.127,6.127,0,0,1-1.512-.147ZM12.6,0h1.848V-14.91H12.6ZM24.864,0A14.311,14.311,0,0,1,24.7-2.436v-3.8c0-2.037-.756-4.158-3.864-4.158a6.308,6.308,0,0,0-3.339.9l.42,1.218a5.064,5.064,0,0,1,2.646-.756,2.1,2.1,0,0,1,2.31,2.352v.21c-3.927-.021-6.111,1.323-6.111,3.78A2.9,2.9,0,0,0,19.866.231a3.786,3.786,0,0,0,3.108-1.512h.063L23.184,0ZM22.911-3.423a1.929,1.929,0,0,1-.1.588,2.529,2.529,0,0,1-2.457,1.7A1.635,1.635,0,0,1,18.606-2.9c0-1.974,2.289-2.331,4.305-2.289ZM27.678,0h1.848V-6.111a2.657,2.657,0,0,1,.126-.861,2.626,2.626,0,0,1,2.478-1.89c1.743,0,2.352,1.365,2.352,3V0H36.33V-6.069c0-3.486-2.184-4.326-3.591-4.326a3.738,3.738,0,0,0-3.36,1.911h-.042l-.1-1.68H27.594c.063.84.084,1.7.084,2.751ZM53.361-1.911a7.313,7.313,0,0,1-2.982.588c-3.444,0-5.439-2.226-5.439-5.691,0-3.717,2.205-5.838,5.523-5.838a6.655,6.655,0,0,1,2.856.588l.441-1.491a7.587,7.587,0,0,0-3.36-.63,7.044,7.044,0,0,0-7.392,7.434c0,4.641,3,7.161,6.993,7.161a9.069,9.069,0,0,0,3.738-.672Z" transform="matrix(0.994, 0.109, -0.109, 0.994, 30.533, 40.356)"/>
              <path id="Trazado_141242" data-name="Trazado 141242" d="M1.6,0H3.423V-5.67a6.289,6.289,0,0,0,1.47.126A5.864,5.864,0,0,0,9.219-7.1a4.166,4.166,0,0,0,1.092-3.024,3.805,3.805,0,0,0-1.239-2.961A5.815,5.815,0,0,0,5.1-14.259a21.175,21.175,0,0,0-3.507.273ZM3.423-12.663a7.667,7.667,0,0,1,1.722-.147c2.016,0,3.339.9,3.339,2.772,0,1.953-1.344,3.024-3.549,3.024a6.127,6.127,0,0,1-1.512-.147ZM12.6,0h1.848V-14.91H12.6ZM24.864,0A14.311,14.311,0,0,1,24.7-2.436v-3.8c0-2.037-.756-4.158-3.864-4.158a6.308,6.308,0,0,0-3.339.9l.42,1.218a5.064,5.064,0,0,1,2.646-.756,2.1,2.1,0,0,1,2.31,2.352v.21c-3.927-.021-6.111,1.323-6.111,3.78A2.9,2.9,0,0,0,19.866.231a3.786,3.786,0,0,0,3.108-1.512h.063L23.184,0ZM22.911-3.423a1.929,1.929,0,0,1-.1.588,2.529,2.529,0,0,1-2.457,1.7A1.635,1.635,0,0,1,18.606-2.9c0-1.974,2.289-2.331,4.305-2.289ZM27.678,0h1.848V-6.111a2.657,2.657,0,0,1,.126-.861,2.626,2.626,0,0,1,2.478-1.89c1.743,0,2.352,1.365,2.352,3V0H36.33V-6.069c0-3.486-2.184-4.326-3.591-4.326a3.738,3.738,0,0,0-3.36,1.911h-.042l-.1-1.68H27.594c.063.84.084,1.7.084,2.751Zm15.2,0H53.214V-1.533H45.3V-1.6l7.812-11.445v-1.113H43.554v1.533h7.182v.063L42.882-1.071Z" transform="matrix(0.994, 0.109, -0.109, 0.994, 21.987, 103.535)"/>
              <path id="Trazado_101803" data-name="Trazado 101803" d="M332.2,117.254q-13.892-1.943-27.888-3.006a12.512,12.512,0,0,0-4.145.153,8.876,8.876,0,0,0-4.424,3.1,14.946,14.946,0,0,0,.5,18.94,21.417,21.417,0,0,0,8.571,5.291c6.96,2.557,14.478,3.156,21.892,3.287a186.072,186.072,0,0,0,36.682-3c2.737-.5,5.8-1.3,7.151-3.727,1.628-2.927-.13-6.609-2.384-9.086-4.09-4.495-9.783-7.283-15.656-8.845s-11.98-1.99-18.042-2.41" transform="translate(-269.223 -92.175)" fill="none" stroke="#000" stroke-miterlimit="10" stroke-width="1"/>
            </g>
            <path id="Trazado_101805" data-name="Trazado 101805" d="M367.07,88.487l-8.686,84.753-5.342,52.138L278.4,217.732l-14.525-1.488-9.3-.953,8.243-80.463L268.6,78.4Z" transform="translate(-254.57 -78.4)" fill="none" stroke="#263238" stroke-linecap="round" stroke-linejoin="round" stroke-width="1"/>
          </g>
          <g id="Grupo_78678" data-name="Grupo 78678" transform="translate(17.001 62.262)">
            <g id="Grupo_78671" data-name="Grupo 78671" transform="translate(6.573)">
              <g id="Grupo_78668" data-name="Grupo 78668" transform="translate(0.005)">
                <path id="Trazado_101806" data-name="Trazado 101806" d="M380.621,345.705l-43.643,7.425s-7.6-40.354-12.128-46.71-3.7-8.974-5.9-13.259c-1.328-2.588-7.985-7.413-13.21-12.177h-.006c-.455-.412-.9-.824-1.322-1.236-.184-.166-.357-.344-.529-.51-.695-.688-1.34-1.358-1.912-2.016q-.314-.35-.59-.7a9.956,9.956,0,0,1-2.115-3.743.95.95,0,0,1-.037-.191,1.587,1.587,0,0,1-.037-.227c-.117-.953-.24-2.041-.363-3.221-.025-.234-.049-.479-.08-.725-.012-.1-.025-.191-.037-.3-.1-.983-.221-2.028-.357-3.1-.135-1.125-.283-2.293-.455-3.467-.055-.406-.111-.811-.178-1.223,0-.006,0-.012-.006-.012-.068-.455-.141-.91-.215-1.371l-.2-1.18c-.012-.068-.031-.129-.037-.184-.086-.461-.172-.91-.258-1.365a.619.619,0,0,1-.031-.154c-.086-.4-.166-.793-.258-1.193-.191-.891-.406-1.764-.639-2.612a32.409,32.409,0,0,0-1.629-4.672c-3.147-7.026.947-4.487-1.518-22.565,0,0,1.813-4.192,6.983-.842a13.849,13.849,0,0,1,1.156.842h.006a14.531,14.531,0,0,1,2.748,2.938,16.976,16.976,0,0,1,2.373,4.893,21.276,21.276,0,0,1,.7,8.79s3.885,13.314,5.932,16.345,10.511-14.378,9.964-16.406a27.4,27.4,0,0,1-.436-2.754c-.037-.3-.074-.621-.117-.959s-.08-.688-.117-1.051c-.025-.172-.043-.357-.068-.535-.006-.074-.012-.148-.025-.215-.074-.695-.16-1.432-.24-2.194-.018-.215-.043-.418-.068-.627-.037-.363-.074-.738-.111-1.106a1.567,1.567,0,0,1-.018-.184c-.025-.209-.049-.424-.068-.645-.049-.43-.092-.867-.135-1.3-.043-.375-.074-.75-.111-1.125-.074-.707-.141-1.414-.209-2.1-.049-.51-.1-1.014-.141-1.506-.012-.111-.025-.221-.031-.326-.258-2.7-.461-4.93-.535-5.876,0,0-6.153-9.11-6.786-13.4s-.578-8.808,2-10.646c6.1-4.34,4.315,2.655,7.044,5.551s6.915,7.641,9.288,9.122c2.188,1.389,4.143,6.786,4.42,7.573-.314-1.18-3.442-12.786-3.51-15.121-.08-2.465-1.961-15.466,1.236-20.131s7.444-1.045,7.837-.123.51,13.517,1.635,17.027,5.833,18.115,5.833,18.115.2-14.212,1.26-20.574,3.823-11.335,6.528-11.618,5.206,2.7,5.206,2.7-1.07,10.142-.762,12.484-.443,10.8.842,15.349c0,0-.148-12.116,1.733-13.665s3.5-2.293,4.555-1.248,1.285,8.218,2.36,12.534.94,10.179,1.647,16.91,3.491,16.074,2.938,21.416-2.256,18.588-3.627,26.364a165.444,165.444,0,0,1-4.868,18.428,38.2,38.2,0,0,1,1.285,10.757C368.143,311.947,380.621,345.705,380.621,345.705Z" transform="translate(-292.93 -179.69)" fill="#fff"/>
              </g>
              <g id="Grupo_78669" data-name="Grupo 78669" transform="translate(3.15 13.533)">
                <path id="Trazado_101807" data-name="Trazado 101807" d="M368.369,208.894c.837,2.6,3.63,11.275,5.021,15.608,0,0-6.1,4.485-5.95,8.651s-1.117,12.578-3.857,12.337-2.492-17.737-3.386-20.677c.556,1.261.917,2.29.99,2.493-.2-.754-3.463-12.8-3.531-15.183-.016-.561-.129-1.676-.255-3.121l0-.028s6.063-5.8,10.517-2.25v.006A14.92,14.92,0,0,0,368.369,208.894Z" transform="translate(-320.917 -203.195)" fill="#77cfd9" opacity="0.4"/>
                <path id="Trazado_101808" data-name="Trazado 101808" d="M397.024,212.408c-2.84,2.693-7.125,7.453-7.668,12.047,0,0,1.583,12.817.907,18.41l-5.537-17.342s.2-14.213,1.263-20.573c.028-.174.061-.353.095-.526a25.281,25.281,0,0,1,11.117-2.718,49.715,49.715,0,0,0-.242,6.806A37.134,37.134,0,0,1,397.024,212.408Z" transform="translate(-331.445 -201.706)" fill="#77cfd9" opacity="0.4"/>
                <path id="Trazado_101809" data-name="Trazado 101809" d="M408.5,215.272l-.006.006-.018.016c-.065.047-.232.178-.476.384a8.125,8.125,0,0,1,.485-.8Z" transform="translate(-340.415 -206.781)" fill="#77cfd9" opacity="0.4"/>
                <path id="Trazado_101810" data-name="Trazado 101810" d="M408.84,250.07s-3.651-13.7-3.715-24.725c-.026-4.08.445-7.8,1.764-10.316l.006,0a8.127,8.127,0,0,1,.485-.8l.015.4a10.061,10.061,0,0,1,2.175-1.439c-1.025,1.6-2.207,4.729-.839,9.813C410.872,230.958,409.008,240.685,408.84,250.07Z" transform="translate(-339.305 -206.127)" fill="#77cfd9" opacity="0.4"/>
                <path id="Trazado_101811" data-name="Trazado 101811" d="M317.219,291.632s.981,13.052-9.509,17.725H307.7q-.682-.619-1.321-1.235c-.182-.17-.358-.344-.529-.513-.693-.687-1.342-1.361-1.912-2.018-.211-.239-.406-.471-.591-.7a9.96,9.96,0,0,1-2.112-3.744,1.232,1.232,0,0,1-.039-.189,1.908,1.908,0,0,1-.037-.228c-.117-.952-.237-2.04-.362-3.224-.025-.233-.05-.478-.08-.723-.011-.1-.022-.194-.033-.3-.109-.985-.227-2.027-.358-3.1-.135-1.122-.283-2.291-.455-3.467-.06-.405-.119-.816-.179-1.221,0-.006,0-.011,0-.012-.068-.456-.142-.913-.216-1.371-.066-.394-.138-.789-.2-1.183-.013-.063-.026-.126-.034-.183-.085-.457-.17-.91-.261-1.362a1.372,1.372,0,0,1-.03-.154c-.083-.4-.166-.8-.255-1.192q-.3-1.334-.643-2.613c4.15-3.993,13.728-1.488,9.092-10.738,0,0,2.335-7.917-4.1-16.5h.006c4.4,3.551,6.656,9.786,5.824,16.625,0,0,3.884,13.309,5.932,16.342s10.509-14.378,9.96-16.408c-.105-.4-.259-1.4-.431-2.753-.037-.3-.075-.621-.116-.958s-.082-.689-.122-1.054c-.023-.171-.041-.353-.063-.53-.007-.074-.013-.148-.026-.216-.076-.7-.155-1.435-.238-2.2-.021-.211-.042-.416-.069-.626-.034-.365-.074-.735-.113-1.1-.008-.057-.01-.119-.017-.182-.022-.211-.047-.427-.068-.649-.047-.433-.089-.865-.135-1.3-.039-.376-.073-.751-.112-1.127-.07-.705-.14-1.411-.205-2.094-.048-.512-.1-1.019-.145-1.5-.01-.114-.02-.222-.031-.33.171.808,3.288,15.643,5.067,19.1C329.758,275.975,322.008,294.708,317.219,291.632Z" transform="translate(-298.047 -221.593)" fill="#77cfd9" opacity="0.4"/>
                <path id="Trazado_101812" data-name="Trazado 101812" d="M409.016,316.348a165.962,165.962,0,0,1-4.863,18.429,38.141,38.141,0,0,1,1.28,10.758c-.084,1.363.763,4.809,2.032,9.112-.366-.944-4.285-11.1-4.22-14.643.075-3.717-.982-4.744-3.054-9.311s-5.232-4.066-5.232-4.066-1.22,11.4-4.08,3.907-3.412-16.2,3.8-46.442c0,0,1.09,3.794.179,15.062s1.78,14.679,1.78,14.679a104.973,104.973,0,0,0,9.584-22.348s-.931,13.15-1.762,19.14,2.954-6.94,5.6-14.928c2.485-7.495,2.575-10.346,1.63-15.681.7,3.759,1.229,7.344.961,9.963C412.093,295.316,410.386,308.571,409.016,316.348Z" transform="translate(-333.053 -231.881)" fill="#77cfd9" opacity="0.4"/>
                <path id="Trazado_101813" data-name="Trazado 101813" d="M341.4,380.356c2.127,3.383,7.336,7.85,10.437,20.213s1.153,25.893,1.153,25.893Z" transform="translate(-314.751 -270.542)" fill="#77cfd9" opacity="0.4"/>
              </g>
              <path id="Trazado_101814" data-name="Trazado 101814" d="M306.195,259.92s-10.886,5.514-11.747,14.734c-3.147-7.026.947-4.487-1.518-22.565,0,0,1.813-4.192,6.983-.842a13.849,13.849,0,0,1,1.156.842h.006a14.531,14.531,0,0,1,2.748,2.938Z" transform="translate(-292.925 -206.761)" fill="rgba(0,0,0,0.7)" opacity="0.2"/>
              <g id="Grupo_78670" data-name="Grupo 78670" transform="translate(0 0.002)">
                <path id="Trazado_101815" data-name="Trazado 101815" d="M336.974,353.134s-7.593-40.356-12.126-46.713-3.7-8.974-5.9-13.258-19.012-14.713-19.757-20.8-1.6-17.75-4.745-24.781.947-4.488-1.524-22.567c0,0,1.823-4.187,6.988-.839s7.886,10.048,6.983,17.466c0,0,3.883,13.307,5.934,16.341s10.5-14.379,9.957-16.41-2.17-19.344-2.424-22.5c0,0-6.154-9.113-6.786-13.4s-.578-8.809,2-10.641c6.1-4.342,4.312,2.653,7.043,5.554s6.916,7.633,9.286,9.121,4.452,7.663,4.452,7.663-3.469-12.749-3.542-15.215-1.96-15.466,1.235-20.127,7.448-1.047,7.84-.127.513,13.515,1.641,17.024,5.825,18.119,5.825,18.119.2-14.21,1.262-20.571,3.828-11.338,6.531-11.62,5.2,2.7,5.2,2.7-1.07,10.142-.766,12.482-.439,10.8.848,15.352c0,0-.152-12.118,1.733-13.668s3.5-2.29,4.552-1.247S370,208.686,371.08,213s.942,10.18,1.647,16.909,3.489,16.075,2.938,21.411-2.26,18.59-3.632,26.371a166.674,166.674,0,0,1-4.859,18.428,38.126,38.126,0,0,1,1.279,10.755c-.312,5.071,12.162,38.828,12.162,38.828" transform="translate(-292.922 -179.693)" fill="none" stroke="#263238" stroke-linecap="round" stroke-linejoin="round" stroke-width="1"/>
                <path id="Trazado_101816" data-name="Trazado 101816" d="M384.723,240.451c1.271,2.987,4.414,15.6,5.537,17.345a5.951,5.951,0,0,0,2.4,2.272" transform="translate(-328.294 -203.104)" fill="none" stroke="#263238" stroke-linecap="round" stroke-linejoin="round" stroke-width="1"/>
                <path id="Trazado_101817" data-name="Trazado 101817" d="M405.989,237.752s-.27,2.584,1.126,10.823,2.076,11.749,2.858,13.587" transform="translate(-336.48 -202.064)" fill="none" stroke="#263238" stroke-linecap="round" stroke-linejoin="round" stroke-width="1"/>
                <path id="Trazado_101818" data-name="Trazado 101818" d="M363.577,240.983c1.706,5.021,2.67,13.024,3.64,15.433s1.835,2.91,1.835,2.91" transform="translate(-320.146 -203.309)" fill="none" stroke="#263238" stroke-linecap="round" stroke-linejoin="round" stroke-width="1"/>
                <path id="Trazado_101819" data-name="Trazado 101819" d="M368.07,260.585a7.6,7.6,0,0,1,2.358,2.979" transform="translate(-321.877 -210.862)" fill="none" stroke="#263238" stroke-linecap="round" stroke-linejoin="round" stroke-width="1"/>
                <path id="Trazado_101820" data-name="Trazado 101820" d="M325.3,307.061s.934,6.658,5.106,6.131" transform="translate(-305.4 -228.769)" fill="none" stroke="#263238" stroke-linecap="round" stroke-linejoin="round" stroke-width="1"/>
                <path id="Trazado_101821" data-name="Trazado 101821" d="M341.07,280.364s1.081,7.913-.691,11.273" transform="translate(-311.208 -218.483)" fill="none" stroke="#263238" stroke-linecap="round" stroke-linejoin="round" stroke-width="1"/>
                <path id="Trazado_101822" data-name="Trazado 101822" d="M393.1,280.477s2.8,1.716.929,6.747-5.135,25.342-5.135,25.342" transform="translate(-329.901 -218.526)" fill="none" stroke="#263238" stroke-linecap="round" stroke-linejoin="round" stroke-width="1"/>
                <path id="Trazado_101823" data-name="Trazado 101823" d="M412.071,289.121c1.175,4.547,1.28,4.665-.629,10.254s-4.986,19.273-4.986,19.273" transform="translate(-336.667 -221.857)" fill="none" stroke="#263238" stroke-linecap="round" stroke-linejoin="round" stroke-width="1"/>
                <path id="Trazado_101824" data-name="Trazado 101824" d="M413.143,364.879s-1.833-3.7-.318-6.741" transform="translate(-338.891 -248.45)" fill="none" stroke="#263238" stroke-linecap="round" stroke-linejoin="round" stroke-width="1"/>
                <path id="Trazado_101825" data-name="Trazado 101825" d="M344.86,385.859a50.623,50.623,0,0,1,6.65,13.8" transform="translate(-312.934 -259.131)" fill="none" stroke="#263238" stroke-linecap="round" stroke-linejoin="round" stroke-width="1"/>
              </g>
            </g>
            <g id="Grupo_78676" data-name="Grupo 78676" transform="translate(0 11.226)">
              <path id="Trazado_101826" data-name="Trazado 101826" d="M400.341,199.352l1.251-1.238.569-.161-.038.613-1.153,1.468Z" transform="translate(-327.738 -197.953)" fill="#757575" stroke="#263238" stroke-linecap="round" stroke-linejoin="round" stroke-width="1"/>
              <g id="Grupo_78673" data-name="Grupo 78673" transform="translate(10.639 0.989)">
                <path id="Trazado_101827" data-name="Trazado 101827" d="M362.511,200.659l-2.037,4.626-54.831,73.107-6.107-3.893,8.291-10.4,49.248-61.776,4.344-2.759A1.542,1.542,0,0,1,362.511,200.659Z" transform="translate(-299.536 -199.562)" fill="#77cfd9"/>
                <g id="Grupo_78672" data-name="Grupo 78672" clip-path="url(#clip-path-4)">
                  <path id="Trazado_101828" data-name="Trazado 101828" d="M362.511,200.659l-2.037,4.626-54.831,73.107-6.107-3.893,8.291-10.4c3.808-.395,4.445,1.856,4.445,1.856L359.511,204.3a3.156,3.156,0,0,0-2.435-1.976l4.344-2.759A1.542,1.542,0,0,1,362.511,200.659Z" transform="translate(-299.536 -199.562)" fill="rgba(0,0,0,0.7)" opacity="0.3"/>
                </g>
                <path id="Trazado_101830" data-name="Trazado 101830" d="M362.511,200.659l-2.037,4.626-54.831,73.107-6.107-3.893,8.291-10.4,49.248-61.776,4.344-2.759A1.542,1.542,0,0,1,362.511,200.659Z" transform="translate(-299.536 -199.562)" fill="none" stroke="#263238" stroke-linecap="round" stroke-linejoin="round" stroke-width="1"/>
              </g>
              <g id="Grupo_78675" data-name="Grupo 78675" transform="translate(0 57.423)">
                <path id="Trazado_101831" data-name="Trazado 101831" d="M316.858,292.12a216.491,216.491,0,0,1-12.008,20.74l-4.207,1.088s-9.649,9.589-15.537,14.375a13.2,13.2,0,0,1-2.878-2.416s8.361-16.054,17.61-26.216a11.8,11.8,0,0,1,3.035,1.611,14.9,14.9,0,0,1,3.168,3.04l10.31-12.971Z" transform="translate(-282.228 -291.371)" fill="#77cfd9"/>
                <g id="Grupo_78674" data-name="Grupo 78674" clip-path="url(#clip-path-5)">
                  <path id="Trazado_101832" data-name="Trazado 101832" d="M318.662,292.12a216.5,216.5,0,0,1-12.008,20.74l-4.207,1.088s-9.649,9.589-15.537,14.375l.16-2.6c6.385-9.756,14.5-20.395,17.607-24.418a14.9,14.9,0,0,1,3.168,3.04l-5.729,7.646,3.282-.59,12.756-20.027Z" transform="translate(-284.032 -291.371)" fill="rgba(0,0,0,0.7)" opacity="0.3"/>
                </g>
                <path id="Trazado_101834" data-name="Trazado 101834" d="M316.858,292.12a216.491,216.491,0,0,1-12.008,20.74l-4.207,1.088s-9.649,9.589-15.537,14.375a13.2,13.2,0,0,1-2.878-2.416s8.361-16.054,17.61-26.216a11.8,11.8,0,0,1,3.035,1.611,14.9,14.9,0,0,1,3.168,3.04l10.31-12.971Z" transform="translate(-282.228 -291.371)" fill="none" stroke="#263238" stroke-linecap="round" stroke-linejoin="round" stroke-width="1"/>
              </g>
            </g>
            <g id="Grupo_78677" data-name="Grupo 78677" transform="translate(26.89 13.953)">
              <path id="Trazado_101835" data-name="Trazado 101835" d="M354.563,244.453l-17.128,16.608-2.737,2.655c1.874-4.817.968-12.266.848-13.172v-.011c-.008-.052-.012-.08-.012-.08a.788.788,0,0,0-.015-.131c-.105-.4-.259-1.4-.431-2.753-.037-.3-.075-.621-.116-.958s-.082-.689-.122-1.054c-.023-.171-.041-.353-.063-.53-.007-.074-.013-.148-.026-.216-.076-.695-.161-1.435-.238-2.2-.021-.211-.042-.416-.069-.626-.034-.365-.074-.735-.113-1.1-.008-.057-.01-.119-.017-.182-.022-.211-.047-.427-.068-.649-.047-.433-.089-.865-.135-1.3-.039-.376-.073-.751-.112-1.127-.07-.705-.14-1.411-.205-2.094q-.08-.769-.145-1.5c-.01-.114-.02-.222-.031-.33-.259-2.7-.462-4.926-.534-5.875,0,0-6.149-9.11-6.785-13.4s-.58-8.808,2-10.641c6.1-4.343,4.311,2.652,7.041,5.551s6.918,7.636,9.288,9.122,4.45,7.665,4.45,7.665c1.706,5.02,2.668,13.02,3.64,15.433S354.563,244.453,354.563,244.453Z" transform="translate(-325.974 -202.39)" fill="#fff"/>
              <path id="Trazado_101836" data-name="Trazado 101836" d="M368.07,260.585a7.6,7.6,0,0,1,2.358,2.979" transform="translate(-342.194 -224.813)" fill="none" stroke="#263238" stroke-linecap="round" stroke-linejoin="round" stroke-width="1"/>
              <path id="Trazado_101837" data-name="Trazado 101837" d="M335.349,209.327c2.718,2.9,6.892,7.606,9.266,9.109-.334-.168-4.7-2.3-7.142.071-2.539,2.469-4.378,9.313-4.378,9.313s-6.149-9.11-6.785-13.4-.58-8.808,2-10.641C334.406,199.433,332.62,206.427,335.349,209.327Z" transform="translate(-325.974 -202.39)" fill="#77cfd9" opacity="0.4"/>
              <path id="Trazado_101838" data-name="Trazado 101838" d="M342.233,280.684l-2.737,2.655c1.874-4.817.968-12.266.848-13.172v-.011a.887.887,0,0,0-.026-.211c-.105-.4-.259-1.4-.431-2.753-.037-.3-.075-.621-.116-.958s-.082-.689-.122-1.054c-.023-.171-.041-.353-.063-.53-.007-.074-.013-.148-.026-.216-.076-.7-.155-1.435-.238-2.2-.021-.211-.042-.416-.069-.626-.034-.365-.074-.735-.113-1.1-.008-.057-.01-.119-.017-.182-.022-.211-.047-.427-.068-.649-.047-.433-.089-.865-.135-1.3-.039-.376-.073-.751-.112-1.127-.07-.705-.14-1.411-.205-2.094-.048-.512-.1-1.019-.145-1.5-.01-.114-.02-.222-.031-.33.171.808,3.288,15.643,5.067,19.1C344.165,273.727,343.539,277.1,342.233,280.684Z" transform="translate(-330.772 -222.013)" fill="#77cfd9" opacity="0.4"/>
              <path id="Trazado_101839" data-name="Trazado 101839" d="M354.564,244.456s-.864-.5-1.835-2.91-1.934-10.412-3.64-15.433c0,0-2.083-6.175-4.452-7.663s-6.555-6.22-9.286-9.121-.944-9.9-7.043-5.554c-2.574,1.832-2.628,6.352-2,10.641s6.786,13.4,6.786,13.4c.254,3.156,1.877,20.469,2.424,22.5" transform="translate(-325.975 -202.39)" fill="none" stroke="#263238" stroke-linecap="round" stroke-linejoin="round" stroke-width="1"/>
              <path id="Trazado_101840" data-name="Trazado 101840" d="M341.07,280.364s1.081,7.913-.691,11.273" transform="translate(-331.524 -232.434)" fill="none" stroke="#263238" stroke-linecap="round" stroke-linejoin="round" stroke-width="1"/>
            </g>
          </g>
        </g>
        <g id="Grupo_78686" data-name="Grupo 78686" transform="translate(31.68 60.696)">
          <path id="Trazado_101841" data-name="Trazado 101841" d="M139.1,289.377s3.891,18.066-4.539,31.211-14.915,16.649-17.833,20.571S102.4,367.008,102.4,367.008L89.058,327.5,102.4,278.628Z" transform="translate(-56.339 -148.727)" fill="rgba(0,0,0,0.7)" opacity="0.2"/>
          <g id="Grupo_78683" data-name="Grupo 78683" transform="translate(16.763)">
            <path id="Trazado_101842" data-name="Trazado 101842" d="M207.718,194.135l-82.713,34.81-8.526,3.59-16.068-38.178L63.1,105.7l91.238-38.4Z" transform="translate(-63.1 -67.3)" fill="#fff"/>
            <g id="Grupo_78682" data-name="Grupo 78682" clip-path="url(#clip-path-6)">
              <path id="Trazado_101843" data-name="Trazado 101843" d="M147.935,94.074l-39.384,16.575a1.452,1.452,0,1,0,1.127,2.677l39.384-16.574a1.453,1.453,0,1,0-1.127-2.678Z" transform="translate(-80.27 -77.572)" fill="#263238"/>
              <path id="Trazado_101844" data-name="Trazado 101844" d="M148.306,109.8l-19.692,8.288a.726.726,0,1,0,.563,1.338l19.692-8.287a.726.726,0,0,0-.563-1.339Z" transform="translate(-88.172 -83.654)" fill="#263238"/>
              <path id="Trazado_101845" data-name="Trazado 101845" d="M148.394,290.665l-8.526,3.59L123.8,256.076a9.459,9.459,0,0,0,2.686-5.268c.959-5.114.283-21.557,13.087-23.254s2,27.1,2.594,32.585C142.708,265.137,150,279.662,148.394,290.665Z" transform="translate(-86.488 -129.02)" fill="rgba(0,0,0,0.7)" opacity="0.2"/>
              <path id="Trazado_141243" data-name="Trazado 141243" d="M1.6,0H3.423V-5.67a6.289,6.289,0,0,0,1.47.126A5.864,5.864,0,0,0,9.219-7.1a4.166,4.166,0,0,0,1.092-3.024,3.805,3.805,0,0,0-1.239-2.961A5.815,5.815,0,0,0,5.1-14.259a21.175,21.175,0,0,0-3.507.273ZM3.423-12.663a7.667,7.667,0,0,1,1.722-.147c2.016,0,3.339.9,3.339,2.772,0,1.953-1.344,3.024-3.549,3.024a6.127,6.127,0,0,1-1.512-.147ZM12.6,0h1.848V-14.91H12.6ZM24.864,0A14.311,14.311,0,0,1,24.7-2.436v-3.8c0-2.037-.756-4.158-3.864-4.158a6.308,6.308,0,0,0-3.339.9l.42,1.218a5.064,5.064,0,0,1,2.646-.756,2.1,2.1,0,0,1,2.31,2.352v.21c-3.927-.021-6.111,1.323-6.111,3.78A2.9,2.9,0,0,0,19.866.231a3.786,3.786,0,0,0,3.108-1.512h.063L23.184,0ZM22.911-3.423a1.929,1.929,0,0,1-.1.588,2.529,2.529,0,0,1-2.457,1.7A1.635,1.635,0,0,1,18.606-2.9c0-1.974,2.289-2.331,4.305-2.289ZM27.678,0h1.848V-6.111a2.657,2.657,0,0,1,.126-.861,2.626,2.626,0,0,1,2.478-1.89c1.743,0,2.352,1.365,2.352,3V0H36.33V-6.069c0-3.486-2.184-4.326-3.591-4.326a3.738,3.738,0,0,0-3.36,1.911h-.042l-.1-1.68H27.594c.063.84.084,1.7.084,2.751ZM51.156-4.452,52.668,0h1.953l-4.83-14.154H47.586L42.777,0h1.89l1.47-4.452ZM46.515-5.88l1.386-4.1c.273-.861.5-1.722.714-2.562h.042c.21.819.42,1.659.735,2.583L50.778-5.88Z" transform="matrix(0.927, -0.375, 0.375, 0.927, 32.539, 64.33)"/>
              <path id="Trazado_141244" data-name="Trazado 141244" d="M1.6,0H3.423V-5.67a6.289,6.289,0,0,0,1.47.126A5.864,5.864,0,0,0,9.219-7.1a4.166,4.166,0,0,0,1.092-3.024,3.805,3.805,0,0,0-1.239-2.961A5.815,5.815,0,0,0,5.1-14.259a21.175,21.175,0,0,0-3.507.273ZM3.423-12.663a7.667,7.667,0,0,1,1.722-.147c2.016,0,3.339.9,3.339,2.772,0,1.953-1.344,3.024-3.549,3.024a6.127,6.127,0,0,1-1.512-.147ZM12.6,0h1.848V-14.91H12.6ZM24.864,0A14.311,14.311,0,0,1,24.7-2.436v-3.8c0-2.037-.756-4.158-3.864-4.158a6.308,6.308,0,0,0-3.339.9l.42,1.218a5.064,5.064,0,0,1,2.646-.756,2.1,2.1,0,0,1,2.31,2.352v.21c-3.927-.021-6.111,1.323-6.111,3.78A2.9,2.9,0,0,0,19.866.231a3.786,3.786,0,0,0,3.108-1.512h.063L23.184,0ZM22.911-3.423a1.929,1.929,0,0,1-.1.588,2.529,2.529,0,0,1-2.457,1.7A1.635,1.635,0,0,1,18.606-2.9c0-1.974,2.289-2.331,4.305-2.289ZM27.678,0h1.848V-6.111a2.657,2.657,0,0,1,.126-.861,2.626,2.626,0,0,1,2.478-1.89c1.743,0,2.352,1.365,2.352,3V0H36.33V-6.069c0-3.486-2.184-4.326-3.591-4.326a3.738,3.738,0,0,0-3.36,1.911h-.042l-.1-1.68H27.594c.063.84.084,1.7.084,2.751Zm16.17-.042a21.358,21.358,0,0,0,2.835.168c2.31,0,3.906-.42,4.893-1.323a3.815,3.815,0,0,0,1.2-2.835,3.648,3.648,0,0,0-2.919-3.549v-.042a3.361,3.361,0,0,0,2.394-3.108,2.968,2.968,0,0,0-1.176-2.5,5.85,5.85,0,0,0-3.885-1.029,17.7,17.7,0,0,0-3.339.294Zm1.827-12.684a7.837,7.837,0,0,1,1.617-.126c1.848,0,3.108.651,3.108,2.31,0,1.365-1.134,2.373-3.066,2.373H45.675Zm0,5.943h1.512c1.995,0,3.654.8,3.654,2.73C50.841-2,49.1-1.3,47.208-1.3a9.763,9.763,0,0,1-1.533-.084Z" transform="matrix(0.927, -0.375, 0.375, 0.927, 57.349, 127.647)"/>
              <line id="Línea_198" data-name="Línea 198" y1="31.6" x2="72.104" transform="translate(36.114 65.68)" fill="none" stroke="#000" stroke-miterlimit="10" stroke-width="1"/>
              <g id="Grupo_78680" data-name="Grupo 78680" transform="translate(21.354 29.822)">
                <path id="Trazado_101846" data-name="Trazado 101846" d="M97.839,148.869a520.272,520.272,0,0,0,54.444-9.446c3.963-.907,8.08-1.942,11.158-4.6" transform="translate(-97.839 -123.14)" fill="none" stroke="#000" stroke-miterlimit="10" stroke-width="1"/>
                <path id="Trazado_101847" data-name="Trazado 101847" d="M156.554,115.815c-11.81,16.8-32.269,25.28-46.344,40.231" transform="translate(-102.606 -115.815)" fill="none" stroke="#000" stroke-miterlimit="10" stroke-width="1"/>
              </g>
              <g id="Grupo_78681" data-name="Grupo 78681" transform="translate(51.804 90.831)">
                <path id="Trazado_101848" data-name="Trazado 101848" d="M147.377,248.122a520.156,520.156,0,0,0,54.445-9.446c3.962-.907,8.079-1.942,11.158-4.6" transform="translate(-147.377 -222.393)" fill="none" stroke="#000" stroke-miterlimit="10" stroke-width="1"/>
                <path id="Trazado_101849" data-name="Trazado 101849" d="M206.092,215.068c-11.81,16.8-32.269,25.28-46.344,40.231" transform="translate(-152.144 -215.068)" fill="none" stroke="#000" stroke-miterlimit="10" stroke-width="1"/>
              </g>
            </g>
            <path id="Trazado_101851" data-name="Trazado 101851" d="M207.718,194.135l-82.713,34.81-8.526,3.59-16.068-38.178L63.1,105.7l91.238-38.4Z" transform="translate(-63.1 -67.3)" fill="none" stroke="#263238" stroke-linecap="round" stroke-linejoin="round" stroke-width="1"/>
          </g>
          <g id="Grupo_78685" data-name="Grupo 78685" transform="translate(0 88.04)">
            <path id="Trazado_101852" data-name="Trazado 101852" d="M109.347,255.688c1.435-4.908,7.041-20.662,6.305-27.627a6.808,6.808,0,0,0-.392-1.7c-1.968-5.2-10.01-4.7-13.1-.388-3.391,4.74-6.162,13.269-6.4,18.46a16.051,16.051,0,0,1-2.432,7.288c0,.012,0,.017-.01.023a18,18,0,0,1-1.627,2.311L73.349,210.527a24.846,24.846,0,0,0-4.8,5.358,8.765,8.765,0,0,0-1.41,3.731c-.376,4.287-5.232,21.9-7.251,29.338-.039.16-.084.309-.122.457-1.941,7.143,3.184,33.674,1.719,41.38s-2.377,7.535-2.59,13.007c-.156,4-5.873,16.144-12.277,28.615-3.672,7.147-7.572,14.394-10.787,20.266l46.913-1.948c.813-5.7,1.646-11.717,2.408-17.54a65.517,65.517,0,0,1,1.4-7.2v-.006c1.036-4.179,2.3-7.961,3.064-10.174a95.854,95.854,0,0,0,2.448-9.894c5.455-5.775,12.61-14.853,14.683-21,.006-.011.01-.028.015-.04a7.635,7.635,0,0,0,.467-3.992,18.494,18.494,0,0,1-.371-3.358c.006-.006.006-.006,0-.011A93.178,93.178,0,0,1,109.347,255.688Z" transform="translate(-35.83 -210.527)" fill="#fff"/>
            <path id="Trazado_101853" data-name="Trazado 101853" d="M113.832,251.747a73.393,73.393,0,0,0-4.326,9.029c-1.118,3.273-2.32,3.736-5.6,6.3s-5.68-1.657-5.68-1.657,4.344-4.514,2.9-7.025-6.851-8.767-6.53-12.216-3.279-11.181-3.279-11.181,8.191-4.81,6.6-10.428c-.868-3.077-5.157-6.352-8.858-8.678a24.845,24.845,0,0,1,4.8-5.358l18.347,43.532A18,18,0,0,0,113.832,251.747Z" transform="translate(-56.339 -210.527)" fill="#77cfd9" opacity="0.4"/>
            <path id="Trazado_101854" data-name="Trazado 101854" d="M70.331,302.538c.111.369,2.777,9.18.528,12.85-2.3,3.751-4.562,8.535-3.462,13.518.878,3.981-6.5,18.368-14.019,27.6,6.4-12.471,12.12-24.619,12.277-28.615.213-5.473,1.119-5.307,2.59-13.007s-3.66-34.236-1.719-41.38c.039-.149.084-.3.122-.457,1.432,8.094,4.769,24.218,5.685,29.4C73.5,309.045,70.455,302.8,70.331,302.538Z" transform="translate(-42.591 -234.615)" fill="#77cfd9" opacity="0.4"/>
            <path id="Trazado_101855" data-name="Trazado 101855" d="M108.44,378.233c5.45-23.473,23.8-41.474,26.285-46.685-2.073,6.149-9.228,15.227-14.683,21a95.854,95.854,0,0,1-2.448,9.894c-.767,2.213-2.028,5.994-3.064,10.174v.006C109.2,378.9,108.44,378.233,108.44,378.233Z" transform="translate(-63.807 -257.158)" fill="#77cfd9" opacity="0.4"/>
            <path id="Trazado_101856" data-name="Trazado 101856" d="M150.09,265.427a93.178,93.178,0,0,0-2.49,21.829c-.964-4.181-2.823-9.488-3.131-16.883-.521-12.54,6.582-8.043,4.1-14.218s-9.539,1.741-6.059-11.337c2.542-9.547,9.772-9.458,13.488-8.714a6.808,6.808,0,0,1,.392,1.7C157.132,244.765,151.525,260.519,150.09,265.427Z" transform="translate(-76.573 -220.266)" fill="#77cfd9" opacity="0.4"/>
            <g id="Grupo_78684" data-name="Grupo 78684" transform="translate(7.134)">
              <path id="Trazado_101857" data-name="Trazado 101857" d="M47.436,339.734c5.884-10.748,11.6-21.806,15.726-33.734.494-1.716-.164-3.949.33-5.664,5.572-15.487-.747-31.611.288-47.475.87-6.251,2.869-12.549,4.868-18.848.941-4.559,1.294-9.659,2.8-14.242,1.552-3.455,3.08-7.473,6.374-9.243,6.269,14.368,12.519,28.8,18.347,43.532,2.632-1.522,3.056-4.93,3.5-7.773,1.411-6.839,2.845-13.114,5.431-18.872,2.633-4.63,9.332-6.6,13.444-2.818a6.408,6.408,0,0,1,1.88,4.442c-.8,7.944-3.292,15.958-5.808,23.407a61.682,61.682,0,0,0-2.422,9.707c.047,1.128.071,1.692.117,2.82-1.458,5.711-.119,10.741-.449,16.4-1.271,10.224-9.45,17.344-15.351,24.934-1.458,5.711-2.916,11.422-4.938,17.157-2.469,8.578-3.246,17.086-4.088,25.355" transform="translate(-47.436 -210.527)" fill="none" stroke="#263238" stroke-linecap="round" stroke-linejoin="round" stroke-width="1"/>
              <path id="Trazado_101858" data-name="Trazado 101858" d="M120.843,281.346a38.383,38.383,0,0,0-2.7,6.717c-.769,3.013-4.661,2.578-6.67,4.45" transform="translate(-72.109 -237.814)" fill="none" stroke="#263238" stroke-linecap="round" stroke-linejoin="round" stroke-width="1"/>
              <path id="Trazado_101859" data-name="Trazado 101859" d="M102.843,272.719a36.1,36.1,0,0,1,8.373,4.271,16.486,16.486,0,0,0,5.361,2.993" transform="translate(-68.785 -234.49)" fill="none" stroke="#263238" stroke-linecap="round" stroke-linejoin="round" stroke-width="1"/>
              <path id="Trazado_101860" data-name="Trazado 101860" d="M97.35,248.33s4.271,1.2,7.438-.309a28.411,28.411,0,0,1,.8-4.541" transform="translate(-66.668 -223.225)" fill="none" stroke="#263238" stroke-linecap="round" stroke-linejoin="round" stroke-width="1"/>
              <path id="Trazado_101861" data-name="Trazado 101861" d="M111.106,251.877s.044.6,2.222.62" transform="translate(-71.969 -226.46)" fill="none" stroke="#263238" stroke-linecap="round" stroke-linejoin="round" stroke-width="1"/>
              <path id="Trazado_101862" data-name="Trazado 101862" d="M123.1,365.72a29.114,29.114,0,0,0-6.713,10.59" transform="translate(-74.005 -270.325)" fill="none" stroke="#263238" stroke-linecap="round" stroke-linejoin="round" stroke-width="1"/>
              <path id="Trazado_101863" data-name="Trazado 101863" d="M74.351,275.924c-.191,3.681,4.133,16.766,5.446,23.268s1.8,11.1,1.8,11.1" transform="translate(-57.804 -235.725)" fill="none" stroke="#263238" stroke-linecap="round" stroke-linejoin="round" stroke-width="1"/>
            </g>
          </g>
        </g>
      </g>
    </g>
    <path id="Rectángulo_5165" data-name="Rectángulo 5165" d="M0,0H49.893A19.949,19.949,0,0,1,69.842,19.949v0A19.949,19.949,0,0,1,49.893,39.9H19.949A19.949,19.949,0,0,1,0,19.949V0A0,0,0,0,1,0,0Z" transform="translate(-2375.842 -8462.185)" fill="#419ca6"/>
    <path id="Rectángulo_5166" data-name="Rectángulo 5166" d="M10,0h0A10,10,0,0,1,20,10V41.983a0,0,0,0,1,0,0H10a10,10,0,0,1-10-10V10A10,10,0,0,1,10,0Z" transform="translate(-2706 -8667.137)" fill="#fad9c5"/>
    <g id="Grupo_53320" data-name="Grupo 53320" transform="translate(-2705.035 -8496.798)">
      <path id="Trazado_99297" data-name="Trazado 99297" d="M656.1,71.783a.909.909,0,1,0,.919-.859A.887.887,0,0,0,656.1,71.783Z" transform="translate(-574.378 -69.981)" fill="#f2884b"/>
      <path id="Trazado_99298" data-name="Trazado 99298" d="M646.707,71.669a.909.909,0,1,0,.919-.858A.888.888,0,0,0,646.707,71.669Z" transform="translate(-573.156 -69.962)" fill="#f2884b"/>
      <path id="Trazado_99299" data-name="Trazado 99299" d="M637.313,71.556a.909.909,0,1,0,.919-.858A.888.888,0,0,0,637.313,71.556Z" transform="translate(-571.934 -69.943)" fill="#f2884b"/>
      <path id="Trazado_99300" data-name="Trazado 99300" d="M627.919,71.443a.909.909,0,1,0,.919-.859A.887.887,0,0,0,627.919,71.443Z" transform="translate(-570.712 -69.924)" fill="#f2884b"/>
      <path id="Trazado_99301" data-name="Trazado 99301" d="M618.524,71.329a.909.909,0,1,0,.92-.858A.888.888,0,0,0,618.524,71.329Z" transform="translate(-569.49 -69.905)" fill="#f2884b"/>
      <path id="Trazado_99302" data-name="Trazado 99302" d="M609.13,71.216a.909.909,0,1,0,.919-.858A.887.887,0,0,0,609.13,71.216Z" transform="translate(-568.268 -69.886)" fill="#f2884b"/>
      <path id="Trazado_99303" data-name="Trazado 99303" d="M599.735,71.1a.909.909,0,1,0,.919-.858A.888.888,0,0,0,599.735,71.1Z" transform="translate(-567.046 -69.867)" fill="#f2884b"/>
      <path id="Trazado_99304" data-name="Trazado 99304" d="M590.341,70.989a.909.909,0,1,0,.919-.858A.888.888,0,0,0,590.341,70.989Z" transform="translate(-565.824 -69.848)" fill="#f2884b"/>
      <path id="Trazado_99305" data-name="Trazado 99305" d="M580.947,70.876a.909.909,0,1,0,.919-.859A.887.887,0,0,0,580.947,70.876Z" transform="translate(-564.602 -69.829)" fill="#f2884b"/>
      <path id="Trazado_99306" data-name="Trazado 99306" d="M571.552,70.762a.909.909,0,1,0,.919-.858A.888.888,0,0,0,571.552,70.762Z" transform="translate(-563.38 -69.81)" fill="#f2884b"/>
      <path id="Trazado_99307" data-name="Trazado 99307" d="M562.158,70.649a.909.909,0,1,0,.919-.858A.887.887,0,0,0,562.158,70.649Z" transform="translate(-562.158 -69.791)" fill="#f2884b"/>
    </g>
    <g id="Grupo_53321" data-name="Grupo 53321" transform="translate(-2705.123 -8489.852)">
      <path id="Trazado_99308" data-name="Trazado 99308" d="M656,80.133a.909.909,0,1,0,.919-.858A.888.888,0,0,0,656,80.133Z" transform="translate(-574.277 -78.332)" fill="#f2884b"/>
      <path id="Trazado_99309" data-name="Trazado 99309" d="M646.606,80.02a.909.909,0,1,0,.919-.858A.889.889,0,0,0,646.606,80.02Z" transform="translate(-573.055 -78.313)" fill="#f2884b"/>
      <path id="Trazado_99310" data-name="Trazado 99310" d="M637.212,79.906a.909.909,0,1,0,.919-.858A.888.888,0,0,0,637.212,79.906Z" transform="translate(-571.833 -78.293)" fill="#f2884b"/>
      <path id="Trazado_99311" data-name="Trazado 99311" d="M627.818,79.793a.909.909,0,1,0,.919-.858A.887.887,0,0,0,627.818,79.793Z" transform="translate(-570.611 -78.274)" fill="#f2884b"/>
      <path id="Trazado_99312" data-name="Trazado 99312" d="M618.423,79.68a.909.909,0,1,0,.92-.859A.888.888,0,0,0,618.423,79.68Z" transform="translate(-569.389 -78.255)" fill="#f2884b"/>
      <path id="Trazado_99313" data-name="Trazado 99313" d="M609.029,79.566a.909.909,0,1,0,.919-.858A.888.888,0,0,0,609.029,79.566Z" transform="translate(-568.167 -78.236)" fill="#f2884b"/>
      <path id="Trazado_99314" data-name="Trazado 99314" d="M599.635,79.453a.909.909,0,1,0,.919-.858A.887.887,0,0,0,599.635,79.453Z" transform="translate(-566.945 -78.217)" fill="#f2884b"/>
      <path id="Trazado_99315" data-name="Trazado 99315" d="M590.24,79.339a.909.909,0,1,0,.919-.858A.888.888,0,0,0,590.24,79.339Z" transform="translate(-565.723 -78.198)" fill="#f2884b"/>
      <path id="Trazado_99316" data-name="Trazado 99316" d="M580.846,79.226a.909.909,0,1,0,.919-.858A.888.888,0,0,0,580.846,79.226Z" transform="translate(-564.501 -78.179)" fill="#f2884b"/>
      <path id="Trazado_99317" data-name="Trazado 99317" d="M571.451,79.113a.909.909,0,1,0,.92-.859A.888.888,0,0,0,571.451,79.113Z" transform="translate(-563.279 -78.16)" fill="#f2884b"/>
      <path id="Trazado_99318" data-name="Trazado 99318" d="M562.057,79a.909.909,0,1,0,.919-.858A.888.888,0,0,0,562.057,79Z" transform="translate(-562.057 -78.141)" fill="#f2884b"/>
    </g>
    <g id="Grupo_53322" data-name="Grupo 53322" transform="translate(-2705.211 -8482.903)">
      <path id="Trazado_99319" data-name="Trazado 99319" d="M655.9,88.484a.909.909,0,1,0,.919-.858A.888.888,0,0,0,655.9,88.484Z" transform="translate(-574.176 -86.683)" fill="#f2884b"/>
      <path id="Trazado_99320" data-name="Trazado 99320" d="M646.506,88.37a.909.909,0,1,0,.919-.858A.888.888,0,0,0,646.506,88.37Z" transform="translate(-572.954 -86.663)" fill="#f2884b"/>
      <path id="Trazado_99321" data-name="Trazado 99321" d="M637.111,88.257a.909.909,0,1,0,.92-.858A.888.888,0,0,0,637.111,88.257Z" transform="translate(-571.732 -86.644)" fill="#f2884b"/>
      <path id="Trazado_99322" data-name="Trazado 99322" d="M627.717,88.144a.909.909,0,1,0,.919-.859A.888.888,0,0,0,627.717,88.144Z" transform="translate(-570.51 -86.625)" fill="#f2884b"/>
      <path id="Trazado_99323" data-name="Trazado 99323" d="M618.323,88.03a.909.909,0,1,0,.919-.858A.887.887,0,0,0,618.323,88.03Z" transform="translate(-569.288 -86.606)" fill="#f2884b"/>
      <path id="Trazado_99324" data-name="Trazado 99324" d="M608.928,87.917a.909.909,0,1,0,.92-.858A.888.888,0,0,0,608.928,87.917Z" transform="translate(-568.066 -86.587)" fill="#f2884b"/>
      <path id="Trazado_99325" data-name="Trazado 99325" d="M599.534,87.8a.909.909,0,1,0,.919-.858A.888.888,0,0,0,599.534,87.8Z" transform="translate(-566.844 -86.568)" fill="#f2884b"/>
      <path id="Trazado_99326" data-name="Trazado 99326" d="M590.139,87.69a.909.909,0,1,0,.919-.858A.887.887,0,0,0,590.139,87.69Z" transform="translate(-565.622 -86.549)" fill="#f2884b"/>
      <path id="Trazado_99327" data-name="Trazado 99327" d="M580.745,87.577a.909.909,0,1,0,.919-.859A.888.888,0,0,0,580.745,87.577Z" transform="translate(-564.4 -86.53)" fill="#f2884b"/>
      <path id="Trazado_99328" data-name="Trazado 99328" d="M571.351,87.463a.909.909,0,1,0,.919-.858A.887.887,0,0,0,571.351,87.463Z" transform="translate(-563.178 -86.511)" fill="#f2884b"/>
      <path id="Trazado_99329" data-name="Trazado 99329" d="M561.956,87.35a.909.909,0,1,0,.919-.858A.888.888,0,0,0,561.956,87.35Z" transform="translate(-561.956 -86.492)" fill="#f2884b"/>
    </g>
    <g id="Grupo_53323" data-name="Grupo 53323" transform="translate(-2705.299 -8475.957)">
      <path id="Trazado_99330" data-name="Trazado 99330" d="M655.8,96.834a.909.909,0,1,0,.919-.858A.888.888,0,0,0,655.8,96.834Z" transform="translate(-574.075 -95.033)" fill="#f2884b"/>
      <path id="Trazado_99331" data-name="Trazado 99331" d="M646.4,96.721a.909.909,0,1,0,.919-.858A.888.888,0,0,0,646.4,96.721Z" transform="translate(-572.853 -95.014)" fill="#f2884b"/>
      <path id="Trazado_99332" data-name="Trazado 99332" d="M637.01,96.608a.909.909,0,1,0,.919-.859A.889.889,0,0,0,637.01,96.608Z" transform="translate(-571.631 -94.994)" fill="#f2884b"/>
      <path id="Trazado_99333" data-name="Trazado 99333" d="M627.616,96.494a.909.909,0,1,0,.919-.858A.888.888,0,0,0,627.616,96.494Z" transform="translate(-570.409 -94.975)" fill="#f2884b"/>
      <path id="Trazado_99334" data-name="Trazado 99334" d="M618.222,96.381a.909.909,0,1,0,.919-.858A.888.888,0,0,0,618.222,96.381Z" transform="translate(-569.187 -94.956)" fill="#f2884b"/>
      <path id="Trazado_99335" data-name="Trazado 99335" d="M608.827,96.267a.909.909,0,1,0,.919-.858A.888.888,0,0,0,608.827,96.267Z" transform="translate(-567.965 -94.937)" fill="#f2884b"/>
      <path id="Trazado_99336" data-name="Trazado 99336" d="M599.433,96.154a.909.909,0,1,0,.919-.858A.888.888,0,0,0,599.433,96.154Z" transform="translate(-566.743 -94.918)" fill="#f2884b"/>
      <path id="Trazado_99337" data-name="Trazado 99337" d="M590.039,96.041a.909.909,0,1,0,.919-.859A.887.887,0,0,0,590.039,96.041Z" transform="translate(-565.521 -94.899)" fill="#f2884b"/>
      <path id="Trazado_99338" data-name="Trazado 99338" d="M580.644,95.927a.909.909,0,1,0,.92-.858A.888.888,0,0,0,580.644,95.927Z" transform="translate(-564.299 -94.88)" fill="#f2884b"/>
      <path id="Trazado_99339" data-name="Trazado 99339" d="M571.25,95.814a.909.909,0,1,0,.919-.858A.888.888,0,0,0,571.25,95.814Z" transform="translate(-563.077 -94.861)" fill="#f2884b"/>
      <path id="Trazado_99340" data-name="Trazado 99340" d="M561.855,95.7a.909.909,0,1,0,.919-.858A.888.888,0,0,0,561.855,95.7Z" transform="translate(-561.855 -94.842)" fill="#f2884b"/>
    </g>
    <g id="Grupo_53324" data-name="Grupo 53324" transform="translate(-2705.386 -8469.01)">
      <path id="Trazado_99341" data-name="Trazado 99341" d="M655.7,105.185a.909.909,0,1,0,.919-.858A.887.887,0,0,0,655.7,105.185Z" transform="translate(-573.975 -103.384)" fill="#f2884b"/>
      <path id="Trazado_99342" data-name="Trazado 99342" d="M646.3,105.072a.909.909,0,1,0,.92-.859A.888.888,0,0,0,646.3,105.072Z" transform="translate(-572.752 -103.364)" fill="#f2884b"/>
      <path id="Trazado_99343" data-name="Trazado 99343" d="M636.91,104.958a.909.909,0,1,0,.919-.858A.886.886,0,0,0,636.91,104.958Z" transform="translate(-571.531 -103.345)" fill="#f2884b"/>
      <path id="Trazado_99344" data-name="Trazado 99344" d="M627.515,104.845a.909.909,0,1,0,.919-.859A.888.888,0,0,0,627.515,104.845Z" transform="translate(-570.309 -103.326)" fill="#f2884b"/>
      <path id="Trazado_99345" data-name="Trazado 99345" d="M618.121,104.731a.909.909,0,1,0,.919-.858A.888.888,0,0,0,618.121,104.731Z" transform="translate(-569.087 -103.307)" fill="#f2884b"/>
      <path id="Trazado_99346" data-name="Trazado 99346" d="M608.727,104.618a.909.909,0,1,0,.919-.858A.887.887,0,0,0,608.727,104.618Z" transform="translate(-567.865 -103.288)" fill="#f2884b"/>
      <path id="Trazado_99347" data-name="Trazado 99347" d="M599.332,104.5a.909.909,0,1,0,.919-.859A.888.888,0,0,0,599.332,104.5Z" transform="translate(-566.643 -103.269)" fill="#f2884b"/>
      <path id="Trazado_99348" data-name="Trazado 99348" d="M589.938,104.391a.909.909,0,1,0,.919-.858A.888.888,0,0,0,589.938,104.391Z" transform="translate(-565.421 -103.25)" fill="#f2884b"/>
      <path id="Trazado_99349" data-name="Trazado 99349" d="M580.543,104.278a.909.909,0,1,0,.919-.858A.888.888,0,0,0,580.543,104.278Z" transform="translate(-564.199 -103.231)" fill="#f2884b"/>
      <path id="Trazado_99350" data-name="Trazado 99350" d="M571.149,104.165a.909.909,0,1,0,.919-.859A.888.888,0,0,0,571.149,104.165Z" transform="translate(-562.977 -103.212)" fill="#f2884b"/>
      <path id="Trazado_99351" data-name="Trazado 99351" d="M561.755,104.051a.909.909,0,1,0,.919-.858A.887.887,0,0,0,561.755,104.051Z" transform="translate(-561.755 -103.193)" fill="#f2884b"/>
    </g>
    <g id="Grupo_53325" data-name="Grupo 53325" transform="translate(-2705.474 -8462.063)">
      <path id="Trazado_99352" data-name="Trazado 99352" d="M655.6,113.535a.909.909,0,1,0,.919-.858A.888.888,0,0,0,655.6,113.535Z" transform="translate(-573.874 -111.733)" fill="#f2884b"/>
      <path id="Trazado_99353" data-name="Trazado 99353" d="M646.2,113.422a.909.909,0,1,0,.919-.858A.888.888,0,0,0,646.2,113.422Z" transform="translate(-572.652 -111.715)" fill="#f2884b"/>
      <path id="Trazado_99354" data-name="Trazado 99354" d="M636.809,113.309a.909.909,0,1,0,.919-.859A.888.888,0,0,0,636.809,113.309Z" transform="translate(-571.43 -111.695)" fill="#f2884b"/>
      <path id="Trazado_99355" data-name="Trazado 99355" d="M627.415,113.195a.909.909,0,1,0,.919-.858A.888.888,0,0,0,627.415,113.195Z" transform="translate(-570.208 -111.676)" fill="#f2884b"/>
      <path id="Trazado_99356" data-name="Trazado 99356" d="M618.02,113.082a.909.909,0,1,0,.92-.858A.888.888,0,0,0,618.02,113.082Z" transform="translate(-568.986 -111.657)" fill="#f2884b"/>
      <path id="Trazado_99357" data-name="Trazado 99357" d="M608.626,112.969a.909.909,0,1,0,.919-.859A.888.888,0,0,0,608.626,112.969Z" transform="translate(-567.764 -111.638)" fill="#f2884b"/>
      <path id="Trazado_99358" data-name="Trazado 99358" d="M599.231,112.855a.909.909,0,1,0,.919-.858A.889.889,0,0,0,599.231,112.855Z" transform="translate(-566.542 -111.619)" fill="#f2884b"/>
      <path id="Trazado_99359" data-name="Trazado 99359" d="M589.837,112.742a.909.909,0,1,0,.919-.858A.888.888,0,0,0,589.837,112.742Z" transform="translate(-565.32 -111.6)" fill="#f2884b"/>
      <path id="Trazado_99360" data-name="Trazado 99360" d="M580.443,112.628a.909.909,0,1,0,.919-.858A.887.887,0,0,0,580.443,112.628Z" transform="translate(-564.098 -111.581)" fill="#f2884b"/>
      <path id="Trazado_99361" data-name="Trazado 99361" d="M571.048,112.515a.909.909,0,1,0,.919-.858A.888.888,0,0,0,571.048,112.515Z" transform="translate(-562.876 -111.562)" fill="#f2884b"/>
      <path id="Trazado_99362" data-name="Trazado 99362" d="M561.654,112.4a.909.909,0,1,0,.919-.859A.888.888,0,0,0,561.654,112.4Z" transform="translate(-561.654 -111.543)" fill="#f2884b"/>
    </g>
    <g id="Grupo_53326" data-name="Grupo 53326" transform="translate(-2705.562 -8455.115)">
      <path id="Trazado_99363" data-name="Trazado 99363" d="M655.5,121.886a.909.909,0,1,0,.919-.858A.888.888,0,0,0,655.5,121.886Z" transform="translate(-573.773 -120.085)" fill="#f2884b"/>
      <path id="Trazado_99364" data-name="Trazado 99364" d="M646.1,121.773a.909.909,0,1,0,.919-.859A.887.887,0,0,0,646.1,121.773Z" transform="translate(-572.551 -120.065)" fill="#f2884b"/>
      <path id="Trazado_99365" data-name="Trazado 99365" d="M636.708,121.659a.909.909,0,1,0,.92-.858A.888.888,0,0,0,636.708,121.659Z" transform="translate(-571.328 -120.046)" fill="#f2884b"/>
      <path id="Trazado_99366" data-name="Trazado 99366" d="M627.314,121.546a.909.909,0,1,0,.919-.858A.887.887,0,0,0,627.314,121.546Z" transform="translate(-570.107 -120.027)" fill="#f2884b"/>
      <path id="Trazado_99367" data-name="Trazado 99367" d="M617.919,121.432a.909.909,0,1,0,.919-.858A.888.888,0,0,0,617.919,121.432Z" transform="translate(-568.885 -120.008)" fill="#f2884b"/>
      <path id="Trazado_99368" data-name="Trazado 99368" d="M608.525,121.319a.909.909,0,1,0,.919-.858A.887.887,0,0,0,608.525,121.319Z" transform="translate(-567.663 -119.989)" fill="#f2884b"/>
      <path id="Trazado_99369" data-name="Trazado 99369" d="M599.131,121.206a.909.909,0,1,0,.919-.858A.887.887,0,0,0,599.131,121.206Z" transform="translate(-566.441 -119.97)" fill="#f2884b"/>
      <path id="Trazado_99370" data-name="Trazado 99370" d="M589.736,121.092a.909.909,0,1,0,.919-.858A.888.888,0,0,0,589.736,121.092Z" transform="translate(-565.219 -119.951)" fill="#f2884b"/>
      <path id="Trazado_99371" data-name="Trazado 99371" d="M580.342,120.979a.909.909,0,1,0,.919-.858A.888.888,0,0,0,580.342,120.979Z" transform="translate(-563.997 -119.932)" fill="#f2884b"/>
      <path id="Trazado_99372" data-name="Trazado 99372" d="M570.947,120.866a.909.909,0,1,0,.92-.859A.888.888,0,0,0,570.947,120.866Z" transform="translate(-562.775 -119.913)" fill="#f2884b"/>
      <path id="Trazado_99373" data-name="Trazado 99373" d="M561.553,120.752a.909.909,0,1,0,.919-.858A.888.888,0,0,0,561.553,120.752Z" transform="translate(-561.553 -119.894)" fill="#f2884b"/>
    </g>
    <g id="Grupo_53327" data-name="Grupo 53327" transform="translate(-2705.649 -8448.168)">
      <path id="Trazado_99374" data-name="Trazado 99374" d="M655.4,130.237a.909.909,0,1,0,.92-.859A.888.888,0,0,0,655.4,130.237Z" transform="translate(-573.672 -128.435)" fill="#f2884b"/>
      <path id="Trazado_99375" data-name="Trazado 99375" d="M646,130.123a.909.909,0,1,0,.919-.858A.888.888,0,0,0,646,130.123Z" transform="translate(-572.45 -128.416)" fill="#f2884b"/>
      <path id="Trazado_99376" data-name="Trazado 99376" d="M636.607,130.01a.909.909,0,1,0,.92-.858A.888.888,0,0,0,636.607,130.01Z" transform="translate(-571.228 -128.397)" fill="#f2884b"/>
      <path id="Trazado_99377" data-name="Trazado 99377" d="M627.213,129.9a.909.909,0,1,0,.919-.858A.888.888,0,0,0,627.213,129.9Z" transform="translate(-570.006 -128.378)" fill="#f2884b"/>
      <path id="Trazado_99378" data-name="Trazado 99378" d="M617.819,129.783a.909.909,0,1,0,.919-.858A.888.888,0,0,0,617.819,129.783Z" transform="translate(-568.784 -128.359)" fill="#f2884b"/>
      <path id="Trazado_99379" data-name="Trazado 99379" d="M608.424,129.67a.909.909,0,1,0,.919-.859A.888.888,0,0,0,608.424,129.67Z" transform="translate(-567.562 -128.34)" fill="#f2884b"/>
      <path id="Trazado_99380" data-name="Trazado 99380" d="M599.03,129.556a.909.909,0,1,0,.919-.858A.888.888,0,0,0,599.03,129.556Z" transform="translate(-566.34 -128.321)" fill="#f2884b"/>
      <path id="Trazado_99381" data-name="Trazado 99381" d="M589.635,129.443a.909.909,0,1,0,.919-.858A.889.889,0,0,0,589.635,129.443Z" transform="translate(-565.118 -128.302)" fill="#f2884b"/>
      <path id="Trazado_99382" data-name="Trazado 99382" d="M580.241,129.329a.909.909,0,1,0,.919-.858A.888.888,0,0,0,580.241,129.329Z" transform="translate(-563.896 -128.283)" fill="#f2884b"/>
      <path id="Trazado_99383" data-name="Trazado 99383" d="M570.847,129.216a.909.909,0,1,0,.919-.858A.888.888,0,0,0,570.847,129.216Z" transform="translate(-562.674 -128.264)" fill="#f2884b"/>
      <path id="Trazado_99384" data-name="Trazado 99384" d="M561.452,129.1a.909.909,0,1,0,.919-.858A.888.888,0,0,0,561.452,129.1Z" transform="translate(-561.452 -128.245)" fill="#f2884b"/>
    </g>
    <g id="Grupo_53328" data-name="Grupo 53328" transform="translate(-2705.737 -8441.222)">
      <path id="Trazado_99385" data-name="Trazado 99385" d="M655.295,138.587a.909.909,0,1,0,.92-.858A.887.887,0,0,0,655.295,138.587Z" transform="translate(-573.571 -136.785)" fill="#f2884b"/>
      <path id="Trazado_99386" data-name="Trazado 99386" d="M645.9,138.474a.909.909,0,1,0,.919-.858A.888.888,0,0,0,645.9,138.474Z" transform="translate(-572.349 -136.767)" fill="#f2884b"/>
      <path id="Trazado_99387" data-name="Trazado 99387" d="M636.507,138.36a.909.909,0,1,0,.919-.858A.887.887,0,0,0,636.507,138.36Z" transform="translate(-571.127 -136.747)" fill="#f2884b"/>
      <path id="Trazado_99388" data-name="Trazado 99388" d="M627.112,138.247a.909.909,0,1,0,.919-.858A.887.887,0,0,0,627.112,138.247Z" transform="translate(-569.905 -136.728)" fill="#f2884b"/>
      <path id="Trazado_99389" data-name="Trazado 99389" d="M617.718,138.134a.909.909,0,1,0,.919-.859A.888.888,0,0,0,617.718,138.134Z" transform="translate(-568.683 -136.709)" fill="#f2884b"/>
      <path id="Trazado_99390" data-name="Trazado 99390" d="M608.323,138.02a.909.909,0,1,0,.92-.858A.888.888,0,0,0,608.323,138.02Z" transform="translate(-567.461 -136.69)" fill="#f2884b"/>
      <path id="Trazado_99391" data-name="Trazado 99391" d="M598.929,137.907a.909.909,0,1,0,.92-.858A.888.888,0,0,0,598.929,137.907Z" transform="translate(-566.239 -136.671)" fill="#f2884b"/>
      <path id="Trazado_99392" data-name="Trazado 99392" d="M589.535,137.794a.909.909,0,1,0,.919-.859A.887.887,0,0,0,589.535,137.794Z" transform="translate(-565.017 -136.652)" fill="#f2884b"/>
      <path id="Trazado_99393" data-name="Trazado 99393" d="M580.14,137.68a.909.909,0,1,0,.919-.858A.887.887,0,0,0,580.14,137.68Z" transform="translate(-563.795 -136.633)" fill="#f2884b"/>
      <path id="Trazado_99394" data-name="Trazado 99394" d="M570.746,137.567a.909.909,0,1,0,.919-.858A.888.888,0,0,0,570.746,137.567Z" transform="translate(-562.573 -136.614)" fill="#f2884b"/>
      <path id="Trazado_99395" data-name="Trazado 99395" d="M561.351,137.453a.909.909,0,1,0,.919-.858A.888.888,0,0,0,561.351,137.453Z" transform="translate(-561.351 -136.595)" fill="#f2884b"/>
    </g>
    <g id="Grupo_53329" data-name="Grupo 53329" transform="translate(-2705.824 -8434.274)">
      <path id="Trazado_99396" data-name="Trazado 99396" d="M655.195,146.938a.909.909,0,1,0,.919-.859A.887.887,0,0,0,655.195,146.938Z" transform="translate(-573.471 -145.136)" fill="#f2884b"/>
      <path id="Trazado_99397" data-name="Trazado 99397" d="M645.8,146.824a.909.909,0,1,0,.92-.858A.888.888,0,0,0,645.8,146.824Z" transform="translate(-572.249 -145.117)" fill="#f2884b"/>
      <path id="Trazado_99398" data-name="Trazado 99398" d="M636.406,146.711a.909.909,0,1,0,.919-.858A.888.888,0,0,0,636.406,146.711Z" transform="translate(-571.027 -145.098)" fill="#f2884b"/>
      <path id="Trazado_99399" data-name="Trazado 99399" d="M627.011,146.6a.909.909,0,1,0,.919-.859A.889.889,0,0,0,627.011,146.6Z" transform="translate(-569.805 -145.079)" fill="#f2884b"/>
      <path id="Trazado_99400" data-name="Trazado 99400" d="M617.617,146.484a.909.909,0,1,0,.919-.858A.888.888,0,0,0,617.617,146.484Z" transform="translate(-568.583 -145.06)" fill="#f2884b"/>
      <path id="Trazado_99401" data-name="Trazado 99401" d="M608.223,146.371a.909.909,0,1,0,.919-.858A.887.887,0,0,0,608.223,146.371Z" transform="translate(-567.361 -145.041)" fill="#f2884b"/>
      <path id="Trazado_99402" data-name="Trazado 99402" d="M598.828,146.258a.909.909,0,1,0,.92-.859A.888.888,0,0,0,598.828,146.258Z" transform="translate(-566.139 -145.022)" fill="#f2884b"/>
      <path id="Trazado_99403" data-name="Trazado 99403" d="M589.434,146.144a.909.909,0,1,0,.919-.858A.888.888,0,0,0,589.434,146.144Z" transform="translate(-564.917 -145.003)" fill="#f2884b"/>
      <path id="Trazado_99404" data-name="Trazado 99404" d="M580.039,146.031a.909.909,0,1,0,.919-.859A.889.889,0,0,0,580.039,146.031Z" transform="translate(-563.695 -144.984)" fill="#f2884b"/>
      <path id="Trazado_99405" data-name="Trazado 99405" d="M570.645,145.917a.909.909,0,1,0,.919-.858A.888.888,0,0,0,570.645,145.917Z" transform="translate(-562.473 -144.965)" fill="#f2884b"/>
      <path id="Trazado_99406" data-name="Trazado 99406" d="M561.251,145.8a.909.909,0,1,0,.919-.858A.887.887,0,0,0,561.251,145.8Z" transform="translate(-561.251 -144.946)" fill="#f2884b"/>
    </g>
    <g id="Grupo_53330" data-name="Grupo 53330" transform="translate(-2705.912 -8427.327)">
      <path id="Trazado_99407" data-name="Trazado 99407" d="M655.094,155.288a.909.909,0,1,0,.919-.858A.888.888,0,0,0,655.094,155.288Z" transform="translate(-573.37 -153.487)" fill="#f2884b"/>
      <path id="Trazado_99408" data-name="Trazado 99408" d="M645.7,155.175a.909.909,0,1,0,.919-.858A.888.888,0,0,0,645.7,155.175Z" transform="translate(-572.148 -153.468)" fill="#f2884b"/>
      <path id="Trazado_99409" data-name="Trazado 99409" d="M636.305,155.062a.909.909,0,1,0,.919-.859A.888.888,0,0,0,636.305,155.062Z" transform="translate(-570.926 -153.448)" fill="#f2884b"/>
      <path id="Trazado_99410" data-name="Trazado 99410" d="M626.911,154.948a.909.909,0,1,0,.919-.858A.888.888,0,0,0,626.911,154.948Z" transform="translate(-569.704 -153.429)" fill="#f2884b"/>
      <path id="Trazado_99411" data-name="Trazado 99411" d="M617.516,154.835a.909.909,0,1,0,.92-.858A.888.888,0,0,0,617.516,154.835Z" transform="translate(-568.482 -153.41)" fill="#f2884b"/>
      <path id="Trazado_99412" data-name="Trazado 99412" d="M608.122,154.721a.909.909,0,1,0,.919-.858A.888.888,0,0,0,608.122,154.721Z" transform="translate(-567.26 -153.391)" fill="#f2884b"/>
      <path id="Trazado_99413" data-name="Trazado 99413" d="M598.728,154.608a.909.909,0,1,0,.919-.858A.887.887,0,0,0,598.728,154.608Z" transform="translate(-566.038 -153.372)" fill="#f2884b"/>
      <path id="Trazado_99414" data-name="Trazado 99414" d="M589.333,154.495a.909.909,0,1,0,.92-.859A.888.888,0,0,0,589.333,154.495Z" transform="translate(-564.816 -153.353)" fill="#f2884b"/>
      <path id="Trazado_99415" data-name="Trazado 99415" d="M579.939,154.381a.909.909,0,1,0,.919-.858A.887.887,0,0,0,579.939,154.381Z" transform="translate(-563.594 -153.334)" fill="#f2884b"/>
      <path id="Trazado_99416" data-name="Trazado 99416" d="M570.544,154.268a.909.909,0,1,0,.92-.858A.888.888,0,0,0,570.544,154.268Z" transform="translate(-562.372 -153.315)" fill="#f2884b"/>
      <path id="Trazado_99417" data-name="Trazado 99417" d="M561.15,154.154a.909.909,0,1,0,.919-.858A.888.888,0,0,0,561.15,154.154Z" transform="translate(-561.15 -153.296)" fill="#f2884b"/>
    </g>
    <g id="Grupo_53331" data-name="Grupo 53331" transform="translate(-2706 -8420.38)">
      <path id="Trazado_99418" data-name="Trazado 99418" d="M654.993,163.639a.909.909,0,1,0,.919-.858A.888.888,0,0,0,654.993,163.639Z" transform="translate(-573.269 -161.838)" fill="#f2884b"/>
      <path id="Trazado_99419" data-name="Trazado 99419" d="M645.6,163.525a.909.909,0,1,0,.919-.858A.888.888,0,0,0,645.6,163.525Z" transform="translate(-572.047 -161.818)" fill="#f2884b"/>
      <path id="Trazado_99420" data-name="Trazado 99420" d="M636.2,163.412a.909.909,0,1,0,.919-.858A.888.888,0,0,0,636.2,163.412Z" transform="translate(-570.825 -161.799)" fill="#f2884b"/>
      <path id="Trazado_99421" data-name="Trazado 99421" d="M626.81,163.3a.909.909,0,1,0,.919-.859A.888.888,0,0,0,626.81,163.3Z" transform="translate(-569.603 -161.78)" fill="#f2884b"/>
      <path id="Trazado_99422" data-name="Trazado 99422" d="M617.415,163.185a.909.909,0,1,0,.919-.858A.889.889,0,0,0,617.415,163.185Z" transform="translate(-568.381 -161.761)" fill="#f2884b"/>
      <path id="Trazado_99423" data-name="Trazado 99423" d="M608.021,163.072a.909.909,0,1,0,.919-.858A.888.888,0,0,0,608.021,163.072Z" transform="translate(-567.159 -161.742)" fill="#f2884b"/>
      <path id="Trazado_99424" data-name="Trazado 99424" d="M598.627,162.959a.909.909,0,1,0,.919-.859A.888.888,0,0,0,598.627,162.959Z" transform="translate(-565.937 -161.723)" fill="#f2884b"/>
      <path id="Trazado_99425" data-name="Trazado 99425" d="M589.232,162.845a.909.909,0,1,0,.919-.858A.888.888,0,0,0,589.232,162.845Z" transform="translate(-564.715 -161.704)" fill="#f2884b"/>
      <path id="Trazado_99426" data-name="Trazado 99426" d="M579.838,162.732a.909.909,0,1,0,.919-.859A.888.888,0,0,0,579.838,162.732Z" transform="translate(-563.493 -161.685)" fill="#f2884b"/>
      <path id="Trazado_99427" data-name="Trazado 99427" d="M570.444,162.618a.909.909,0,1,0,.919-.858A.888.888,0,0,0,570.444,162.618Z" transform="translate(-562.271 -161.666)" fill="#f2884b"/>
      <path id="Trazado_99428" data-name="Trazado 99428" d="M561.049,162.5a.909.909,0,1,0,.92-.858A.887.887,0,0,0,561.049,162.5Z" transform="translate(-561.049 -161.647)" fill="#f2884b"/>
    </g>
  </g>
</svg>
