<svg xmlns="http://www.w3.org/2000/svg" width="91" height="92" viewBox="0 0 91 92">
  <g id="Grupo_79531" data-name="Grupo 79531" transform="translate(-180 -4112)">
    <path id="Rectángulo_32941" data-name="Rectángulo 32941" d="M45.5,0H91a0,0,0,0,1,0,0V46.5A45.5,45.5,0,0,1,45.5,92h0A45.5,45.5,0,0,1,0,46.5v-1A45.5,45.5,0,0,1,45.5,0Z" transform="translate(180 4112)" fill="#419ca6"/>
    <g id="Grupo_74304" data-name="Grupo 74304" transform="translate(201.204 4127.863)">
      <path id="Trazado_100476" data-name="Trazado 100476" d="M201.525,208.8c.083.19.271.107.407.147a5.117,5.117,0,0,1,3.635,3.465c.143.431.334.508.732.507q11.374-.014,22.748-.007a5.111,5.111,0,0,1,5.464,4.162.685.685,0,0,0,.445.473c1.423.71,2.849,1.413,4.268,2.131a5.353,5.353,0,0,1,3,6.187q-3.759,18.753-7.487,37.511a9.96,9.96,0,0,1-1.028,3.236.826.826,0,0,0-.068.268c-.061-.2-.073-.215-.243-.034a5.213,5.213,0,0,1-2.511,1.511,6.1,6.1,0,0,1-1.556.19q-18.345,0-36.69,0a5.091,5.091,0,0,1-5.353-5.343q-.005-22.457,0-44.914a5.136,5.136,0,0,1,3.874-5.176c.2-.059.352-.118.411-.346a5.144,5.144,0,0,1,3.891-3.849c.044-.012.075-.075.112-.114Zm33.158,13.907c-.006.135-.017.271-.017.407q0,14.486,0,28.973c0,.145-.06.309.077.472.948-4.745,1.894-9.458,2.83-14.172Q238.844,232,240.1,225.6a2.987,2.987,0,0,0-1.032-3.585,35.719,35.719,0,0,0-4.383-2.284Zm-2.088,18.037q0-11.23,0-22.461a3.027,3.027,0,0,0-3.3-3.3q-11.464-.007-22.928-.012c-.433,0-.546.1-.544.54.021,3.17.011,6.34.011,9.509s.025,6.34-.007,9.509a5.16,5.16,0,1,1-10.311-.291c.04-5.27.011-10.54.012-15.81a3.911,3.911,0,0,1,.025-.524.931.931,0,0,1,1.06-.846.919.919,0,0,1,.954.9c.019.212.011.427.011.641q0,7.876,0,15.752a3.065,3.065,0,0,0,1.344,2.755,3.023,3.023,0,0,0,3.21.175,2.855,2.855,0,0,0,1.621-2.7q.015-7.876.006-15.752c0-1.148-.006-2.3,0-3.442,0-.274-.03-.416-.367-.414-3.714.014-7.429,0-11.143.022a2.938,2.938,0,0,0-2.763,2.132,4.5,4.5,0,0,0-.132,1.386q0,22.228,0,44.455c0,.194,0,.389.009.583a2.964,2.964,0,0,0,2.969,2.909c.913.025,1.829-.008,2.742.015.357.009.469-.1.459-.459-.023-.836-.018-1.672,0-2.509.013-.757.374-1.147,1.023-1.148s1.013.4,1.021,1.144c.009.836.018,1.673-.005,2.508-.01.355.093.464.454.463q4.7-.019,9.393,0c.4,0,.484-.137.474-.5q-.034-1.253,0-2.508c.019-.736.417-1.129,1.065-1.106.625.021.971.41.982,1.125.008.486,0,.972,0,1.458s-.156,1.122.088,1.407c.287.335.95.06,1.443.121.434.053.558-.094.553-.539-.024-2.2-.017-4.395-.007-6.592a.99.99,0,0,1,1.3-1.063c.6.145.754.606.753,1.158,0,1.828-.008,3.656,0,5.484,0,.5-.22,1.148.1,1.453s.965.051,1.464.1c.371.035.508-.075.491-.472-.032-.777-.011-1.555-.009-2.333,0-.881.352-1.314,1.049-1.307s1.024.439,1.027,1.333c0,.758.026,1.518-.009,2.275-.019.418.119.51.52.508,3.559-.016,7.118-.007,10.676-.013a3.832,3.832,0,0,0,.924-.093,3,3,0,0,0,2.289-3.226Q232.6,251.949,232.594,240.747Zm-38.846-27.883c.015.009.03.027.044.027q4.717.014,9.435.026c.332,0,.289-.139.18-.352a2.7,2.7,0,0,0-2.306-1.646c-1.666-.076-3.34-.065-5.007,0A2.664,2.664,0,0,0,193.748,212.864Z" transform="translate(-187.284 -208.803)" fill="#fff"/>
      <path id="Trazado_100477" data-name="Trazado 100477" d="M287.957,239.655q-1.26,6.393-2.521,12.785c-.936,4.714-1.882,9.427-2.83,14.172-.137-.163-.077-.327-.077-.472q-.007-14.486,0-28.973c0-.136.011-.272.017-.407q2.14,1.049,4.278,2.1A3.608,3.608,0,0,1,287.957,239.655Z" transform="translate(-235.145 -222.853)" fill="#77cfd9"/>
      <path id="Trazado_100478" data-name="Trazado 100478" d="M215.214,283.365q5.07,0,10.14,0c.877,0,1.344.577,1.115,1.339a.867.867,0,0,1-.781.677,6.392,6.392,0,0,1-.7.03q-9.79,0-19.58,0a5.714,5.714,0,0,1-.64-.021.937.937,0,0,1-.894-1.073.909.909,0,0,1,.965-.947c1.515-.017,3.03-.008,4.546-.008Z" transform="translate(-195.622 -246.275)" fill="#fff"/>
      <path id="Trazado_100479" data-name="Trazado 100479" d="M244.225,291.623c2,0,4,0,6.005,0,.759,0,1.142.35,1.152,1.01s-.372,1.047-1.11,1.055c-1.244.014-2.488,0-3.732,0q-4.169,0-8.338,0c-.7,0-1.092-.266-1.2-.784a1.011,1.011,0,0,1,1.1-1.283C240.143,291.616,242.184,291.623,244.225,291.623Z" transform="translate(-212.258 -250.424)" fill="#fff"/>
      <path id="Trazado_100480" data-name="Trazado 100480" d="M244.186,233.657q3,0,6,0c.808,0,1.2.336,1.2,1.012s-.381,1.049-1.178,1.051q-6,.013-12.01,0c-.83,0-1.228-.382-1.2-1.084.021-.668.408-.978,1.237-.979Q241.213,233.655,244.186,233.657Z" transform="translate(-212.27 -221.294)" fill="#fff"/>
      <path id="Trazado_100481" data-name="Trazado 100481" d="M211.027,291.623q3,0,6.006,0c.839,0,1.244.35,1.238,1.046-.006.669-.409,1.022-1.208,1.023q-6.006.006-12.012,0c-.79,0-1.183-.368-1.176-1.051s.4-1.016,1.2-1.018Q208.053,291.619,211.027,291.623Z" transform="translate(-195.622 -250.425)" fill="#fff"/>
      <path id="Trazado_100482" data-name="Trazado 100482" d="M244.175,258.51c2.04,0,4.081-.006,6.121,0a.981.981,0,0,1,1.082,1.229.85.85,0,0,1-.691.766,3.622,3.622,0,0,1-.752.061q-5.742.005-11.485,0a4.176,4.176,0,0,1-.523-.021A.949.949,0,0,1,237,259.5a.929.929,0,0,1,.995-.98c.855-.019,1.71-.007,2.565-.007Z" transform="translate(-212.27 -233.782)" fill="#fff"/>
      <path id="Trazado_100483" data-name="Trazado 100483" d="M244.211,277.11q-3,0-6,0c-.811,0-1.2-.333-1.205-1.01s.375-1.044,1.181-1.046q6.033-.013,12.067,0c.789,0,1.167.389,1.145,1.078-.021.651-.4.974-1.179.976C248.213,277.113,246.212,277.11,244.211,277.11Z" transform="translate(-212.27 -242.095)" fill="#fff"/>
      <path id="Trazado_100484" data-name="Trazado 100484" d="M244.186,252.268c-2.04,0-4.08.007-6.12,0a1.01,1.01,0,0,1-1.034-1.406c.206-.552.669-.642,1.186-.641q2.827.006,5.654,0c2.1,0,4.2,0,6.295,0,.822,0,1.2.336,1.2,1.013s-.375,1.028-1.123,1.03C248.227,252.273,246.206,252.269,244.186,252.268Z" transform="translate(-212.246 -229.617)" fill="#fff"/>
      <path id="Trazado_100485" data-name="Trazado 100485" d="M240.038,243.982c-.66,0-1.319.013-1.978,0a1.03,1.03,0,1,1-.032-2.059q2.065-.034,4.13,0a1.029,1.029,0,1,1-.025,2.057C241.435,244,240.736,243.982,240.038,243.982Z" transform="translate(-212.271 -225.438)" fill="#fff"/>
      <path id="Trazado_100486" data-name="Trazado 100486" d="M256.633,243.984c-.659,0-1.318.009-1.977,0a1.035,1.035,0,1,1,0-2.065q1.977-.022,3.955,0a.969.969,0,0,1,1.1,1.063c-.013.635-.39.989-1.1,1C257.952,243.993,257.293,243.984,256.633,243.984Z" transform="translate(-220.585 -225.439)" fill="#fff"/>
      <path id="Trazado_100487" data-name="Trazado 100487" d="M240.057,268.837c-.659,0-1.319.013-1.978,0a1.033,1.033,0,1,1-.01-2.064q2.006-.024,4.014,0a1.033,1.033,0,1,1,.01,2.064C241.415,268.85,240.736,268.836,240.057,268.837Z" transform="translate(-212.271 -237.929)" fill="#fff"/>
      <path id="Trazado_100488" data-name="Trazado 100488" d="M256.588,266.767c.659,0,1.318-.007,1.977,0,.75.01,1.137.361,1.144,1.016s-.375,1.044-1.109,1.051q-1.977.019-3.955,0a.985.985,0,0,1-1.1-1.015c-.01-.644.4-1.037,1.122-1.051C255.308,266.758,255.948,266.767,256.588,266.767Z" transform="translate(-220.586 -237.932)" fill="#fff"/>
      <path id="Trazado_100489" data-name="Trazado 100489" d="M256.647,283.367c.68,0,1.361-.012,2.042,0a1.013,1.013,0,0,1,.063,2.024q-2.128.041-4.258,0a.928.928,0,0,1-.947-1.032.952.952,0,0,1,1-.987C255.246,283.353,255.947,283.368,256.647,283.367Z" transform="translate(-220.586 -246.274)" fill="#fff"/>
    </g>
  </g>
</svg>
