<svg xmlns="http://www.w3.org/2000/svg" xmlns:xlink="http://www.w3.org/1999/xlink" width="560.795" height="483.083" viewBox="0 0 560.795 483.083">
  <defs>
    <linearGradient id="linear-gradient" x1="1.3" y1="0.615" x2="0.5" y2="1" gradientUnits="objectBoundingBox">
      <stop offset="0" stop-color="#035159"/>
      <stop offset="1" stop-color="#043f45"/>
    </linearGradient>
    <clipPath id="clip-path">
      <path id="Rectángulo_5143" data-name="Rectángulo 5143" d="M0,0H261.63A224.095,224.095,0,0,1,485.724,224.095v0A224.095,224.095,0,0,1,261.63,448.19H224.095A224.095,224.095,0,0,1,0,224.095V0A0,0,0,0,1,0,0Z" stroke="#707070" stroke-width="1" fill="url(#linear-gradient)"/>
    </clipPath>
  </defs>
  <g id="Grupo_74325" data-name="Grupo 74325" transform="translate(0 3)">
    <g id="Grupo_53767" data-name="Grupo 53767" transform="translate(50.371 1.921)">
      <g id="Enmascarar_grupo_44" data-name="Enmascarar grupo 44" transform="translate(0 0)" clip-path="url(#clip-path)">
        <rect id="Rectángulo_33350" data-name="Rectángulo 33350" width="578" height="514" transform="translate(-60.371 -40.921)" fill="#419ca6"/>
        <g id="Grupo_68414" data-name="Grupo 68414" transform="translate(-95.43 -4334.176)">
          <rect id="Rectángulo_31400" data-name="Rectángulo 31400" width="316.585" height="472.515" transform="translate(180 4363.079)" fill="none"/>
          <g id="Grupo_63545" data-name="Grupo 63545" transform="translate(377.39 4699.905)">
            <g id="Grupo_63544" data-name="Grupo 63544">
              <path id="Trazado_140317" data-name="Trazado 140317" d="M1641.11,4355.057v18.474h4.267a25.667,25.667,0,0,1,0-5.9c.405-2.21,5.04-7.8,4.9-12.615Z" transform="translate(-1638.207 -4237.479)" fill="#aed3f2"/>
              <path id="Trazado_140318" data-name="Trazado 140318" d="M1687.43,4355.057v18.474h4.267a25.66,25.66,0,0,1,0-5.9c.405-2.21,5.033-7.8,4.9-12.615Z" transform="translate(-1650.394 -4237.479)" fill="#839eb6"/>
              <path id="Trazado_140319" data-name="Trazado 140319" d="M1729.491,4355.057v18.474h-4.244a26.115,26.115,0,0,0,0-5.9c-.412-2.21-5.04-7.8-4.907-12.615Z" transform="translate(-1659.052 -4237.479)" fill="#aed3f2"/>
              <path id="Trazado_140320" data-name="Trazado 140320" d="M1769.576,4355.057v18.474h-4.267a26.115,26.115,0,0,0,0-5.9c-.4-2.21-5.04-7.8-4.9-12.615Z" transform="translate(-1669.594 -4237.479)" fill="#839eb6"/>
              <rect id="Rectángulo_15044" data-name="Rectángulo 15044" width="102.222" height="91.795" transform="translate(0 26.381)" fill="#aed3f2"/>
              <path id="Trazado_140321" data-name="Trazado 140321" d="M2109.51,4443.967l.767,91.795h26.779v-91.8Z" transform="translate(-2034.833 -4417.586)" fill="#839eb6"/>
              <rect id="Rectángulo_15045" data-name="Rectángulo 15045" width="65.628" height="23.359" transform="translate(4.598 33.131)" fill="#aed3f2"/>
              <rect id="Rectángulo_15046" data-name="Rectángulo 15046" width="65.628" height="23.359" transform="translate(4.598 61.147)" fill="#aed3f2"/>
              <rect id="Rectángulo_15047" data-name="Rectángulo 15047" width="65.628" height="23.359" transform="translate(4.598 89.157)" fill="#aed3f2"/>
              <g id="Grupo_63543" data-name="Grupo 63543" transform="translate(26.926)">
                <path id="Trazado_140322" data-name="Trazado 140322" d="M2047.54,4408.17l-2.83,26.27h36.27l3.006-26.27Z" transform="translate(-2044.71 -4408.17)" fill="#839eb6"/>
                <path id="Trazado_140323" data-name="Trazado 140323" d="M2049.588,4410.73l-2.748,22.991h32.733l2.646-22.991Z" transform="translate(-2045.27 -4408.843)" fill="#fff"/>
                <path id="Trazado_140324" data-name="Trazado 140324" d="M2057.445,4415.979l-1.695,15.255H2076.4l1.061-15.255Z" transform="translate(-2047.615 -4410.224)" fill="#aed3f2"/>
              </g>
              <path id="Trazado_140325" data-name="Trazado 140325" d="M2095.64,4423.52l7.494,15.062-9.2-.1,1.71-14.958" transform="translate(-2030.734 -4412.208)" fill="#aed3f2"/>
            </g>
            <path id="Trazado_140326" data-name="Trazado 140326" d="M1689.484,4257.143a2.4,2.4,0,1,1-2.4-2.4,2.4,2.4,0,0,1,2.4,2.4Z" transform="translate(-1649.67 -4211.094)" fill="#839eb6"/>
            <path id="Trazado_140327" data-name="Trazado 140327" d="M1689.484,4295.513a2.4,2.4,0,1,1-2.4-2.4,2.4,2.4,0,0,1,2.4,2.4Z" transform="translate(-1649.67 -4221.189)" fill="#839eb6"/>
            <path id="Trazado_140328" data-name="Trazado 140328" d="M1689.484,4333.913a2.4,2.4,0,1,1-2.4-2.4,2.4,2.4,0,0,1,2.4,2.4Z" transform="translate(-1649.67 -4231.293)" fill="#839eb6"/>
          </g>
          <g id="Grupo_63546" data-name="Grupo 63546" transform="translate(189.147 4530.834)">
            <path id="Trazado_140329" data-name="Trazado 140329" d="M2082.75,4241.261l-58.07-.561,1.617,75.678,58.069.214Z" transform="translate(-2024.68 -4240.7)" fill="#839eb6"/>
            <path id="Trazado_140330" data-name="Trazado 140330" d="M2080.244,4245.572l-50.834-1.322,1.469,68.635,50.819.628Z" transform="translate(-2025.918 -4241.629)" fill="#fafafa"/>
            <path id="Trazado_140331" data-name="Trazado 140331" d="M2074.554,4259.721l-33.734-.561,1.034,47.977,33.7-.723Z" transform="translate(-2028.903 -4245.53)" fill="#aed3f2"/>
            <path id="Trazado_140332" data-name="Trazado 140332" d="M2041.854,4307.137l33.166-25.369-34.2-22.608Z" transform="translate(-2028.903 -4245.53)" fill="#aed3f2"/>
          </g>
          <g id="Grupo_63547" data-name="Grupo 63547" transform="translate(438.127 4372.179)">
            <path id="Trazado_140333" data-name="Trazado 140333" d="M2423.722,4187.865l-50.952-.5,1.425,66.391,50.937.185Z" transform="translate(-2372.77 -4187.37)" fill="#839eb6"/>
            <path id="Trazado_140334" data-name="Trazado 140334" d="M2421.515,4191.639l-44.595-1.159,1.292,60.21,44.58.554Z" transform="translate(-2373.856 -4188.184)" fill="#fafafa"/>
            <path id="Trazado_140335" data-name="Trazado 140335" d="M2416.525,4204.055l-29.585-.495.9,42.092,29.563-.635Z" transform="translate(-2376.478 -4191.606)" fill="#aed3f2"/>
            <path id="Trazado_140336" data-name="Trazado 140336" d="M2387.841,4245.652l29.1-22.253-30-19.839Z" transform="translate(-2376.478 -4191.606)" fill="#aed3f2"/>
          </g>
          <g id="Grupo_63548" data-name="Grupo 63548" transform="translate(261.809 4770.424)">
            <path id="Trazado_140337" data-name="Trazado 140337" d="M1993.479,4313.48c-.214.65,7.383,29.533,7.383,29.533l5.213-1.085-7.169-28.447Z" transform="translate(-1993.474 -4297.164)" fill="#aed3f2"/>
            <path id="Trazado_140338" data-name="Trazado 140338" d="M2415.5,4520.55l-10.425,33.661h6.084l9.99-31.276Z" transform="translate(-2375.097 -4508.361)" fill="#aed3f2"/>
            <path id="Trazado_140339" data-name="Trazado 140339" d="M2427.9,4513.48l-11.946,38.88h6.084l11.511-36.488Z" transform="translate(-2377.944 -4506.511)" fill="#aed3f2"/>
            <path id="Trazado_140340" data-name="Trazado 140340" d="M2369.48,4562.9l6.084,21.065h30.619l5.648-21.065Z" transform="translate(-2365.784 -4519.443)" fill="#839eb6"/>
            <path id="Trazado_140341" data-name="Trazado 140341" d="M2014.469,4334.838a2.021,2.021,0,0,1-.066-.213l-.162-.643c-.14-.6-.332-1.425-.583-2.488l-2.1-9.2c-1.75-7.819-4.172-18.62-6.874-30.677l.185.148h-5.36l.185-.229c2.724,12.064,5.168,22.888,6.918,30.7.857,3.884,1.551,7.029,2.031,9.222.229,1.071.406,1.913.539,2.5.052.273.1.487.126.657a.73.73,0,0,1,0,.221,2.051,2.051,0,0,1-.066-.214c-.044-.163-.1-.376-.163-.643-.147-.6-.347-1.424-.605-2.488-.509-2.215-1.24-5.323-2.149-9.2-1.794-7.818-4.267-18.62-7.029-30.677l-.059-.236h5.759v.155c2.651,12.064,5.035,22.888,6.756,30.7.834,3.883,1.477,7.029,1.986,9.222.222,1.071.391,1.912.517,2.5l.126.657A.748.748,0,0,1,2014.469,4334.838Z" transform="translate(-1994.98 -4291.381)" fill="#839eb6"/>
          </g>
          <g id="Grupo_63559" data-name="Grupo 63559" transform="translate(231.779 4367.305)">
            <rect id="Rectángulo_15048" data-name="Rectángulo 15048" width="229.6" height="314.609" transform="translate(0 24.966)" fill="#5e6178"/>
            <path id="Trazado_140358" data-name="Trazado 140358" d="M2336.1,4515.637H2134.7V4232.451h201.4v283.186Z" transform="translate(-2115.575 -4194.77)" fill="#839eb6"/>
            <path id="Trazado_140359" data-name="Trazado 140359" d="M2332.837,4510.171H2133.25V4228.5h199.587v281.67Z" transform="translate(-2115.498 -4194.559)" fill="#aed3f2"/>
            <g id="Grupo_63552" data-name="Grupo 63552" transform="translate(13.889 34.443)">
              <path id="Trazado_140360" data-name="Trazado 140360" d="M2311.184,4488.294l-22.987,18.718H2129.32V4229.25h201.405v243.2Z" transform="translate(-2129.178 -4229.042)" fill="#fafafa"/>
              <path id="Trazado_140361" data-name="Trazado 140361" d="M1940.176,4275.623l1.231-1.022,3.683-3.011,14.57-11.862v.065c0-39.954-.076-128.759-.142-243.2l.218.217h-201.4l.246-.246c0,104.418,0,200.714-.057,277.751l-.189-.189,158.877.114h-.057l17.269-14.014,4.327-3.493c.947-.776,1.448-1.156,1.448-1.156s-.473.409-1.42,1.193l-4.3,3.532-17.241,14.069h0l-158.876.114h-.2V4016.369h201.869v.228c-.066,114.482-.124,203.251-.142,243.2h0l-14.76,11.844-3.711,2.982C1940.6,4275.3,1940.176,4275.623,1940.176,4275.623Z" transform="translate(-1758.17 -4016.369)" fill="#344154"/>
            </g>
            <path id="Trazado_140362" data-name="Trazado 140362" d="M2206.214,4208.75h55.054a13.4,13.4,0,0,1,13.4,13.4V4237h-82.425v-14.288a13.973,13.973,0,0,1,13.975-13.963Z" transform="translate(-2118.638 -4193.507)" fill="#f2884b"/>
            <path id="Trazado_140363" data-name="Trazado 140363" d="M2213.381,4207.893l-3.011-15.243h47.452l-2.632,15.243Z" transform="translate(-2119.604 -4192.65)" fill="#f2884b"/>
            <g id="Grupo_63553" data-name="Grupo 63553" transform="translate(35.097 78.913)">
              <path id="Trazado_140364" data-name="Trazado 140364" d="M1814.493,4097.272H1780.57v-33.932h33.923Zm-32.976-.947h32.029v-32.038h-32.029Z" transform="translate(-1780.57 -4063.341)" fill="#f2884b"/>
              <path id="Trazado_140365" data-name="Trazado 140365" d="M1937.118,4071.986c0,.143-23.669.247-52.754.247s-52.744-.1-52.744-.247,23.612-.246,52.744-.246S1937.118,4071.844,1937.118,4071.986Z" transform="translate(-1783.288 -4063.787)" fill="#344154"/>
              <path id="Trazado_140366" data-name="Trazado 140366" d="M1937.118,4079.427c0,.132-23.669.246-52.754.246s-52.744-.114-52.744-.246,23.612-.247,52.744-.247S1937.118,4079.285,1937.118,4079.427Z" transform="translate(-1783.288 -4064.183)" fill="#344154"/>
              <path id="Trazado_140367" data-name="Trazado 140367" d="M1937.118,4086.876c0,.132-23.669.247-52.754.247s-52.744-.114-52.744-.247,23.612-.246,52.744-.246S1937.118,4086.735,1937.118,4086.876Z" transform="translate(-1783.288 -4064.581)" fill="#344154"/>
              <path id="Trazado_140368" data-name="Trazado 140368" d="M1937.118,4094.317c0,.142-23.669.246-52.754.246s-52.744-.1-52.744-.246,23.612-.246,52.744-.246S1937.118,4094.184,1937.118,4094.317Z" transform="translate(-1783.288 -4064.977)" fill="#344154"/>
            </g>
            <g id="Grupo_63554" data-name="Grupo 63554" transform="translate(35.097 131.203)">
              <path id="Trazado_140369" data-name="Trazado 140369" d="M1814.493,4152.5H1780.57V4118.57h33.923Zm-32.976-.947h32.029v-32.039h-32.029Z" transform="translate(-1780.57 -4118.57)" fill="#f2884b"/>
              <path id="Trazado_140370" data-name="Trazado 140370" d="M2158.69,4349.008l4.507-4.837,7.508,6.012,17.184-16.683,4.118,4.847-21.633,21.341Z" transform="translate(-2151.949 -4331.352)" fill="#f2884b"/>
              <path id="Trazado_140371" data-name="Trazado 140371" d="M1937.118,4127.207c0,.142-23.669.246-52.754.246s-52.744-.1-52.744-.246,23.612-.246,52.744-.246S1937.118,4127.074,1937.118,4127.207Z" transform="translate(-1783.288 -4119.018)" fill="#344154"/>
              <path id="Trazado_140372" data-name="Trazado 140372" d="M1937.118,4134.656c0,.143-23.669.247-52.754.247s-52.744-.1-52.744-.247,23.612-.246,52.744-.246S1937.118,4134.523,1937.118,4134.656Z" transform="translate(-1783.288 -4119.415)" fill="#344154"/>
              <path id="Trazado_140373" data-name="Trazado 140373" d="M1937.118,4142.106c0,.133-23.669.246-52.754.246s-52.744-.114-52.744-.246,23.612-.246,52.744-.246S1937.118,4141.993,1937.118,4142.106Z" transform="translate(-1783.288 -4119.811)" fill="#344154"/>
              <path id="Trazado_140374" data-name="Trazado 140374" d="M1937.118,4149.556c0,.133-23.669.246-52.754.246s-52.744-.113-52.744-.246,23.612-.246,52.744-.246S1937.118,4149.414,1937.118,4149.556Z" transform="translate(-1783.288 -4120.207)" fill="#344154"/>
            </g>
            <g id="Grupo_63555" data-name="Grupo 63555" transform="translate(35.097 81.174)">
              <path id="Trazado_140375" data-name="Trazado 140375" d="M1814.493,4205.952H1780.57V4172h33.923Zm-32.976-.947h32.029v-32.057h-32.029Z" transform="translate(-1780.57 -4071.385)" fill="#f2884b"/>
              <path id="Trazado_140376" data-name="Trazado 140376" d="M2158.69,4402.458l4.507-4.837,7.508,6.011,17.184-16.691,4.118,4.857-21.633,21.34Z" transform="translate(-2151.949 -4386.94)" fill="#f2884b"/>
              <path id="Trazado_140377" data-name="Trazado 140377" d="M1937.118,4180.656c0,.143-23.669.246-52.754.246s-52.744-.1-52.744-.246,23.612-.246,52.744-.246S1937.118,4180.524,1937.118,4180.656Z" transform="translate(-1783.288 -4071.833)" fill="#344154"/>
              <path id="Trazado_140378" data-name="Trazado 140378" d="M1937.118,4188.106c0,.133-23.669.246-52.754.246s-52.744-.114-52.744-.246,23.612-.246,52.744-.246S1937.118,4187.993,1937.118,4188.106Z" transform="translate(-1783.288 -4072.229)" fill="#344154"/>
              <path id="Trazado_140379" data-name="Trazado 140379" d="M1937.118,4195.557c0,.132-23.669.246-52.754.246s-52.744-.114-52.744-.246,23.612-.247,52.744-.247S1937.118,4195.415,1937.118,4195.557Z" transform="translate(-1783.288 -4072.627)" fill="#344154"/>
              <path id="Trazado_140380" data-name="Trazado 140380" d="M1937.118,4202.987c0,.141-23.669.246-52.754.246s-52.744-.1-52.744-.246,23.612-.247,52.744-.247S1937.118,4202.864,1937.118,4202.987Z" transform="translate(-1783.288 -4073.022)" fill="#344154"/>
            </g>
            <g id="Grupo_63556" data-name="Grupo 63556" transform="translate(35.097 230.66)">
              <path id="Trazado_140381" data-name="Trazado 140381" d="M1814.493,4257.552H1780.57v-33.932h33.923Zm-32.976-.947h32.029v-32.038h-32.029Z" transform="translate(-1780.57 -4223.621)" fill="#f2884b"/>
              <path id="Trazado_140382" data-name="Trazado 140382" d="M2158.69,4454.068l4.507-4.838,7.508,6,17.184-16.682,4.118,4.858-21.633,21.34Z" transform="translate(-2151.949 -4436.401)" fill="#f2884b"/>
              <path id="Trazado_140383" data-name="Trazado 140383" d="M1937.118,4232.267c0,.132-23.669.245-52.754.245s-52.744-.113-52.744-.245,23.612-.246,52.744-.246S1937.118,4232.125,1937.118,4232.267Z" transform="translate(-1783.288 -4224.067)" fill="#344154"/>
              <path id="Trazado_140384" data-name="Trazado 140384" d="M1937.118,4239.716c0,.133-23.669.246-52.754.246s-52.744-.113-52.744-.246,23.612-.246,52.744-.246S1937.118,4239.575,1937.118,4239.716Z" transform="translate(-1783.288 -4224.464)" fill="#344154"/>
              <path id="Trazado_140385" data-name="Trazado 140385" d="M1937.118,4247.157c0,.141-23.669.246-52.754.246s-52.744-.1-52.744-.246,23.612-.246,52.744-.246S1937.118,4247,1937.118,4247.157Z" transform="translate(-1783.288 -4224.861)" fill="#344154"/>
              <path id="Trazado_140386" data-name="Trazado 140386" d="M1937.118,4254.606c0,.133-23.669.247-52.754.247s-52.744-.114-52.744-.247,23.612-.246,52.744-.246S1937.118,4254.474,1937.118,4254.606Z" transform="translate(-1783.288 -4225.257)" fill="#344154"/>
            </g>
            <path id="Trazado_140387" data-name="Trazado 140387" d="M2302.559,4474.06l-22.079,45.728h15.764Z" transform="translate(-2123.336 -4207.631)" fill="#839eb6"/>
            <g id="Grupo_63557" data-name="Grupo 63557" transform="translate(172.886 266.41)">
              <path id="Trazado_140388" data-name="Trazado 140388" d="M2297.13,4520.059l6.315-45.729,36.213,11.172Z" transform="translate(-2297.109 -4474.056)" fill="#fafafa"/>
              <path id="Trazado_140389" data-name="Trazado 140389" d="M1926.129,4307.412,1938.3,4297.4l30.192-24.72.085.417-13.984-4.307-22.221-6.874.294-.189c-1.894,13.255-3.512,24.663-4.668,32.748-1.136,7.858-1.723,11.92-1.894,12.942,0-.066,0-.133,0-.2l.085-.634c.076-.587.18-1.42.322-2.489.294-2.216.71-5.416,1.24-9.421,1.1-8.162,2.632-19.627,4.421-33.014v-.274l.256.085,22.24,6.845,13.974,4.317.436.133-.35.285-30.562,24.615-8.928,7.177-2.386,1.894c-.246.208-.454.36-.606.482S1926.129,4307.412,1926.129,4307.412Z" transform="translate(-1926.107 -4261.38)" fill="#344154"/>
            </g>
            <g id="Grupo_63558" data-name="Grupo 63558" transform="translate(132.329 0)" opacity="0.3">
              <path id="Trazado_140390" data-name="Trazado 140390" d="M2256.883,4192.65l-2.613,15.243h3.257l2.633-15.243h-4.147" transform="translate(-2254.27 -4192.65)" fill="#f2884b"/>
            </g>
          </g>
          <g id="Grupo_63576" data-name="Grupo 63576" transform="translate(185.628 4544.999)">
            <g id="Grupo_63560" data-name="Grupo 63560" transform="translate(23.185 7.617)">
              <path id="Trazado_140391" data-name="Trazado 140391" d="M1738.8,4146.952h0a8.522,8.522,0,0,0,9.155-8.171c.18-4.629.341-9.316.341-9.316s7.025-.663,7.574-7.574.275-23.006.275-23.006h0a24.236,24.236,0,0,0-24.484,1.572l.426,24.474v13.161C1732.1,4142.474,1734.4,4146.61,1738.8,4146.952Z" transform="translate(-1716.974 -4083.694)" fill="#ffbf9d"/>
              <path id="Trazado_140392" data-name="Trazado 140392" d="M1748.695,4113.028a3.56,3.56,0,0,0-4.734-1.033,4.033,4.033,0,0,0-1.344,5.046,5.307,5.307,0,0,0,3.408,2.585,2.671,2.671,0,0,1,2.093,2.841,8.932,8.932,0,0,1-2.443,4.848,12.864,12.864,0,0,1-8.047,3.786c-2.963.35-6.353-.274-8.076-2.708-1.259-1.77-1.344-4.08-1.391-6.248q-.161-7.7-.322-15.385a22.423,22.423,0,0,1,.35-5.52,7.439,7.439,0,0,1,2.916-4.563c1.695-1.108,3.787-1.2,5.756-1.827,2.414-.776,4.459-2.376,6.712-3.531s5.008-1.836,7.271-.7c1.628.814,2.717,2.433,4.289,3.333,2.253,1.278,5.311.947,6.4,4.288a5.6,5.6,0,0,1,0,3.542c-1.524,4.5-7.091,6.306-11.106,4.365-.076.767.672,2.461-.132,4.866-.256.767-.341,1.941-1.543,1.959" transform="translate(-1716.769 -4083.361)" fill="#344154"/>
              <path id="Trazado_140393" data-name="Trazado 140393" d="M1728.938,4098.346a23.656,23.656,0,0,0,2.235-6.987,8.009,8.009,0,0,0-2.187-6.75,6.626,6.626,0,0,0-4.582-1.619,7.735,7.735,0,0,0-6.987,5.529,8.34,8.34,0,0,0,2.84,8.521,9.061,9.061,0,0,0,9.013,1.174" transform="translate(-1716.203 -4082.986)" fill="#344154"/>
              <path id="Trazado_140394" data-name="Trazado 140394" d="M1730.815,4096.53a3.427,3.427,0,0,1-3.295,3.219,12.7,12.7,0,0,0,1.894-1.325,14.921,14.921,0,0,0,1.4-1.893Z" transform="translate(-1716.754 -4083.707)" fill="#f2884b"/>
              <path id="Trazado_140395" data-name="Trazado 140395" d="M1728.184,4097.965a6.613,6.613,0,0,1-1.893,1.382,5.321,5.321,0,0,1-2.48.7,3.446,3.446,0,0,1-2.907-1.3,3.845,3.845,0,0,1-.511-3.144,6.1,6.1,0,0,1,1.165-2.3,7.089,7.089,0,0,1,1.647-1.657c.066,0-.549.71-1.363,1.894a6.273,6.273,0,0,0-1,2.2,3.463,3.463,0,0,0,.464,2.755,3.049,3.049,0,0,0,2.5,1.136,5.29,5.29,0,0,0,2.338-.558C1727.408,4098.418,1728.137,4097.889,1728.184,4097.965Z" transform="translate(-1716.367 -4083.447)" fill="#344154"/>
              <path id="Trazado_140396" data-name="Trazado 140396" d="M1716.15,4106.224a3.234,3.234,0,0,1,.331.766,7.69,7.69,0,0,0,1.032,1.979,2.843,2.843,0,0,0,2.717,1.259,3.788,3.788,0,0,0,2.622-2.642,26.593,26.593,0,0,0,.71-4.042,6.233,6.233,0,0,1,1.325-3.182,3.425,3.425,0,0,1,2.026-1.155,1.325,1.325,0,0,1,.852.075c0,.048-.313,0-.814.114a3.433,3.433,0,0,0-1.8,1.193,6.127,6.127,0,0,0-1.145,3.031,23.925,23.925,0,0,1-.691,4.127,4.147,4.147,0,0,1-3,2.925,2.775,2.775,0,0,1-1.894-.37,3.773,3.773,0,0,1-1.193-1.126,6.891,6.891,0,0,1-.947-2.13,2.157,2.157,0,0,1-.133-.823Z" transform="translate(-1716.148 -4083.847)" fill="#344154"/>
            </g>
            <path id="Trazado_140397" data-name="Trazado 140397" d="M1712.451,4168.308s-3.55,25.96,0,29.255,6.949,2.2,6.949,2.2l6.751-5.68,1.325-25.809Z" transform="translate(-1692.683 -4079.909)" fill="#ffbf9d"/>
            <g id="Grupo_63561" data-name="Grupo 63561" transform="translate(75.845 0)">
              <path id="Trazado_140398" data-name="Trazado 140398" d="M2160.99,4303.117l4.506-4.837,7.508,6.012,17.184-16.691,4.118,4.857-21.634,21.339Z" transform="translate(-2143.74 -4287.601)" fill="#f2884b"/>
              <path id="Trazado_140399" data-name="Trazado 140399" d="M1810.19,4092.729l-6.533,4.186c-.293-2.576-2.263-5.142-2.168-3.845s0,8.029,0,8.029l-11.655,24.513c-1.581,3.891-4.791,6.324-7.186,6.9l-10.879,3.238,4.251,14.372,15.148-5.008a13.059,13.059,0,0,0,8.284-8.3l10.414-31.745a48.866,48.866,0,0,0,1.686-6.249C1811.989,4096.167,1810.19,4092.729,1810.19,4092.729Z" transform="translate(-1771.77 -4075.886)" fill="#ffbf9d"/>
            </g>
            <g id="Grupo_63565" data-name="Grupo 63565" transform="translate(46.884 277.667)">
              <g id="Grupo_63563" data-name="Grupo 63563" transform="translate(0.076)">
                <path id="Trazado_140400" data-name="Trazado 140400" d="M1755.045,4375.492l-.17-7.272-13.615.218.123,10.642h.852c3.787.151,19.134.492,21.634-.313C1766.652,4377.915,1755.045,4375.492,1755.045,4375.492Z" transform="translate(-1741.26 -4368.22)" fill="#f2884b"/>
                <g id="Grupo_63562" data-name="Grupo 63562" transform="translate(0.076 6.868)" opacity="0.5">
                  <path id="Trazado_140401" data-name="Trazado 140401" d="M1746.329,4379.276a4.736,4.736,0,0,0-1.789-2.841,4.623,4.623,0,0,0-3.2-.946l.057,3.787Z" transform="translate(-1741.34 -4375.474)" fill="#fff"/>
                </g>
              </g>
              <g id="Grupo_63564" data-name="Grupo 63564" transform="translate(0.199 8.654)" opacity="0.4">
                <path id="Trazado_140402" data-name="Trazado 140402" d="M1760.723,4377.36s4.071,1.108,3.579,1.78-16.038.946-22.912.426v-.3l18.14-.133S1759.956,4377.408,1760.723,4377.36Z" transform="translate(-1741.39 -4377.36)" fill="#fff"/>
              </g>
              <path id="Trazado_140403" data-name="Trazado 140403" d="M1741.18,4379.338a1.279,1.279,0,0,0,.237,0h.672l2.481.066c2.092,0,4.98.066,8.17,0s6.088-.152,8.171-.255l2.481-.142.672-.057a.711.711,0,0,0,.228,0h-.909l-2.471.084c-2.092.076-4.98.161-8.171.208s-6.078.047-8.17,0h-3.39Z" transform="translate(-1741.18 -4368.791)" fill="#344154"/>
              <path id="Trazado_140404" data-name="Trazado 140404" d="M1760.569,4379.34a5.1,5.1,0,0,1,.445-1.192,5.312,5.312,0,0,1,.824-.946,1.808,1.808,0,0,0-.947.87A1.9,1.9,0,0,0,1760.569,4379.34Z" transform="translate(-1742.211 -4368.699)" fill="#344154"/>
              <path id="Trazado_140405" data-name="Trazado 140405" d="M1756.29,4377.306a2.747,2.747,0,0,0,.426-.529c.2-.322.313-.588.275-.616s-.227.218-.417.53S1756.252,4377.287,1756.29,4377.306Z" transform="translate(-1741.984 -4368.643)" fill="#344154"/>
              <path id="Trazado_140406" data-name="Trazado 140406" d="M1755.12,4376.727a2.346,2.346,0,0,0,.473-.322c.237-.208.388-.416.36-.455s-.246.114-.473.332S1755.082,4376.7,1755.12,4376.727Z" transform="translate(-1741.922 -4368.632)" fill="#344154"/>
              <path id="Trazado_140407" data-name="Trazado 140407" d="M1754.36,4375.425a1.86,1.86,0,0,0,.71.076,1.536,1.536,0,0,0,.71-.086,1.471,1.471,0,0,0-.71-.076,1.561,1.561,0,0,0-.71.085Z" transform="translate(-1741.882 -4368.599)" fill="#344154"/>
              <path id="Trazado_140408" data-name="Trazado 140408" d="M1754.09,4374.47a1.3,1.3,0,0,0,.8.217,1.362,1.362,0,0,0,.823-.122,6.123,6.123,0,0,0-.814,0A3.915,3.915,0,0,0,1754.09,4374.47Z" transform="translate(-1741.867 -4368.553)" fill="#344154"/>
              <path id="Trazado_140409" data-name="Trazado 140409" d="M1756.76,4376.042a2.463,2.463,0,0,0,.871,0,5.281,5.281,0,0,0,.947-.219,2.806,2.806,0,0,0,.531-.228.487.487,0,0,0,.218-.284.341.341,0,0,0-.142-.34,1.59,1.59,0,0,0-1.979.5,1.657,1.657,0,0,0-.275.587.569.569,0,0,0,0,.237,2.717,2.717,0,0,1,.388-.757,1.512,1.512,0,0,1,.739-.493,1.354,1.354,0,0,1,1.051.047c.133.1.085.265-.066.36a2.315,2.315,0,0,1-.492.218,6.341,6.341,0,0,1-.9.254A8.309,8.309,0,0,0,1756.76,4376.042Z" transform="translate(-1742.009 -4368.571)" fill="#344154"/>
              <path id="Trazado_140410" data-name="Trazado 140410" d="M1756.934,4376.056a.861.861,0,0,0,.094-.606,1.427,1.427,0,0,0-.255-.634.844.844,0,0,0-.729-.436.341.341,0,0,0-.265.407.943.943,0,0,0,.152.388,2.426,2.426,0,0,0,.426.521,1.375,1.375,0,0,0,.5.35s-.171-.16-.417-.436a3,3,0,0,1-.379-.511c-.123-.189-.208-.521,0-.559s.445.189.577.359a1.466,1.466,0,0,1,.265.567A3.5,3.5,0,0,1,1756.934,4376.056Z" transform="translate(-1741.957 -4368.548)" fill="#344154"/>
              <path id="Trazado_140411" data-name="Trazado 140411" d="M1741.42,4375.41a5.607,5.607,0,0,1,1,0,4.31,4.31,0,0,1,2.206.87,4.378,4.378,0,0,1,1.4,1.894c.218.577.246.947.275.947a.716.716,0,0,0,0-.275,3.849,3.849,0,0,0-.161-.729,4.119,4.119,0,0,0-3.711-2.869,3.542,3.542,0,0,0-.748,0,.852.852,0,0,0-.265.162Z" transform="translate(-1741.193 -4368.593)" fill="#344154"/>
              <path id="Trazado_140412" data-name="Trazado 140412" d="M1742.815,4369.411a22.011,22.011,0,0,0-.076,2.84,22.844,22.844,0,0,0,.085,2.793,21.9,21.9,0,0,0,.076-2.793,25.645,25.645,0,0,0-.085-2.84Z" transform="translate(-1741.262 -4368.284)" fill="#344154"/>
              <path id="Trazado_140413" data-name="Trazado 140413" d="M1748.39,4378.058a7.442,7.442,0,0,0,2,.17,8.3,8.3,0,0,0,1.988-.189c0-.047-.9,0-1.988,0A16.635,16.635,0,0,0,1748.39,4378.058Z" transform="translate(-1741.564 -4368.741)" fill="#344154"/>
              <path id="Trazado_140414" data-name="Trazado 140414" d="M1745.58,4378.1s.076.19.161.389.152.388.2.378.066-.217,0-.444S1745.608,4378.062,1745.58,4378.1Z" transform="translate(-1741.414 -4368.745)" fill="#344154"/>
              <path id="Trazado_140415" data-name="Trazado 140415" d="M1744.49,4376.79a.842.842,0,0,0,.208.322c.151.142.284.227.313.19s-.057-.171-.2-.313S1744.528,4376.761,1744.49,4376.79Z" transform="translate(-1741.356 -4368.677)" fill="#344154"/>
              <path id="Trazado_140416" data-name="Trazado 140416" d="M1743,4376.206c0,.047.2.047.4.114s.341.171.379.142-.076-.218-.331-.3S1743,4376.168,1743,4376.206Z" transform="translate(-1741.277 -4368.641)" fill="#344154"/>
              <path id="Trazado_140417" data-name="Trazado 140417" d="M1741.88,4376a.38.38,0,0,0,.17.151.362.362,0,0,0,.237,0c.019,0-.066-.114-.18-.16S1741.89,4375.9,1741.88,4376Z" transform="translate(-1741.217 -4368.631)" fill="#344154"/>
            </g>
            <g id="Grupo_63569" data-name="Grupo 63569" transform="translate(0 268.284)">
              <g id="Grupo_63567" data-name="Grupo 63567" transform="translate(0)">
                <path id="Trazado_140418" data-name="Trazado 140418" d="M1704.347,4372.634l4.62-5.614-10.471-8.71-6.836,8.142.606.578c2.755,2.565,14.2,12.856,16.606,13.879C1711.57,4382.045,1704.347,4372.634,1704.347,4372.634Z" transform="translate(-1691.66 -4358.31)" fill="#f2884b"/>
                <g id="Grupo_63566" data-name="Grupo 63566" transform="translate(0.133 5.038)" opacity="0.5">
                  <path id="Trazado_140419" data-name="Trazado 140419" d="M1695.53,4369.812a4.73,4.73,0,0,0,.521-3.341,4.612,4.612,0,0,0-1.818-2.841l-2.433,2.926Z" transform="translate(-1691.8 -4363.63)" fill="#fff"/>
                </g>
              </g>
              <g id="Grupo_63568" data-name="Grupo 63568" transform="translate(0 7.925)" opacity="0.4">
                <path id="Trazado_140420" data-name="Trazado 140420" d="M1707.746,4377.833s2.367,3.494,1.553,3.683-12.762-9.76-17.638-14.617l.208-.218,13.832,11.731S1707.13,4377.4,1707.746,4377.833Z" transform="translate(-1691.66 -4366.68)" fill="#fff"/>
              </g>
              <path id="Trazado_140421" data-name="Trazado 140421" d="M1691.71,4366.53l.161.161.492.464,1.837,1.666c1.553,1.4,3.73,3.3,6.182,5.349s4.734,3.853,6.362,5.131l1.969,1.505.54.408c.123.085.189.132.2.123l-.18-.151-.521-.427-1.894-1.553c-1.638-1.306-3.882-3.124-6.334-5.169s-4.639-3.929-6.211-5.3l-1.894-1.628-.511-.436A.911.911,0,0,0,1691.71,4366.53Z" transform="translate(-1691.663 -4358.747)" fill="#344154"/>
              <path id="Trazado_140422" data-name="Trazado 140422" d="M1706.34,4379.19a5.792,5.792,0,0,1,1.117-.605,5.059,5.059,0,0,1,1.25-.189A2.2,2.2,0,0,0,1706.34,4379.19Z" transform="translate(-1692.442 -4359.375)" fill="#344154"/>
              <path id="Trazado_140423" data-name="Trazado 140423" d="M1704.46,4374.847a1.655,1.655,0,0,0,.663-.122c.36-.114.634-.246.615-.285a1.337,1.337,0,0,0-.663.124C1704.725,4374.686,1704.451,4374.8,1704.46,4374.847Z" transform="translate(-1692.341 -4359.167)" fill="#344154"/>
              <path id="Trazado_140424" data-name="Trazado 140424" d="M1704,4373.645c0,.047.256.075.578.056a1.174,1.174,0,0,0,.568-.094,2.133,2.133,0,0,0-.578-.067C1704.256,4373.55,1704,4373.6,1704,4373.645Z" transform="translate(-1692.317 -4359.121)" fill="#344154"/>
              <path id="Trazado_140425" data-name="Trazado 140425" d="M1704.26,4372.139a3.191,3.191,0,0,0,.492.521c.3.255.568.436.6.4s-.189-.265-.492-.52S1704.3,4372.1,1704.26,4372.139Z" transform="translate(-1692.331 -4359.045)" fill="#344154"/>
              <path id="Trazado_140426" data-name="Trazado 140426" d="M1704.68,4371.24a2.047,2.047,0,0,0,1.165,1.127,6.056,6.056,0,0,0-.587-.559C1704.945,4371.506,1704.727,4371.212,1704.68,4371.24Z" transform="translate(-1692.353 -4358.998)" fill="#344154"/>
              <path id="Trazado_140427" data-name="Trazado 140427" d="M1705.637,4374.207a2.816,2.816,0,0,0,.672.558,5.42,5.42,0,0,0,.852.436,2.638,2.638,0,0,0,.549.17.5.5,0,0,0,.341-.066.35.35,0,0,0,.123-.359,1.619,1.619,0,0,0-1.828-.947,1.786,1.786,0,0,0-.6.265.585.585,0,0,0-.17.171,2.7,2.7,0,0,1,.786-.321,1.675,1.675,0,0,1,.89.1,1.42,1.42,0,0,1,.758.729.218.218,0,0,1-.284.228,2.431,2.431,0,0,1-.511-.151,5.485,5.485,0,0,1-.843-.4C1705.911,4374.4,1705.656,4374.188,1705.637,4374.207Z" transform="translate(-1692.401 -4359.143)" fill="#344154"/>
              <path id="Trazado_140428" data-name="Trazado 140428" d="M1705.779,4374.3a.948.948,0,0,0,.473-.407,1.477,1.477,0,0,0,.227-.645.945.945,0,0,0-.275-.8.351.351,0,0,0-.473.132.945.945,0,0,0-.132.4,2.712,2.712,0,0,0,0,.672,1.233,1.233,0,0,0,.152.587v-.6a3.2,3.2,0,0,1,.057-.635c0-.218.171-.531.37-.417s.208.436.2.654a1.383,1.383,0,0,1-.17.6C1705.977,4374.152,1705.76,4374.274,1705.779,4374.3Z" transform="translate(-1692.401 -4359.061)" fill="#344154"/>
              <path id="Trazado_140429" data-name="Trazado 140429" d="M1694.46,4363.69a4.973,4.973,0,0,1,.748.672,4.26,4.26,0,0,1,.947,4.469c-.218.578-.455.9-.426.947s.076-.066.18-.208a3.4,3.4,0,0,0,.35-.664,4.134,4.134,0,0,0,.246-2.443,4.269,4.269,0,0,0-1.183-2.148,4.135,4.135,0,0,0-.587-.464.739.739,0,0,0-.275-.16Z" transform="translate(-1691.809 -4358.597)" fill="#344154"/>
              <path id="Trazado_140430" data-name="Trazado 140430" d="M1699.234,4360.05a23.326,23.326,0,0,0-1.893,2.074,26.5,26.5,0,0,0-1.761,2.177,23.126,23.126,0,0,0,1.894-2.074,26.338,26.338,0,0,0,1.761-2.177Z" transform="translate(-1691.869 -4358.402)" fill="#344154"/>
              <path id="Trazado_140431" data-name="Trazado 140431" d="M1698,4370.24a8.05,8.05,0,0,0,1.4,1.43,7.911,7.911,0,0,0,1.638,1.155c0-.047-.691-.568-1.524-1.288A17.552,17.552,0,0,0,1698,4370.24Z" transform="translate(-1691.998 -4358.945)" fill="#344154"/>
              <path id="Trazado_140432" data-name="Trazado 140432" d="M1695.847,4368.431s-.066.2-.123.407-.142.388-.1.416.189-.122.265-.369S1695.894,4368.431,1695.847,4368.431Z" transform="translate(-1691.87 -4358.85)" fill="#344154"/>
              <path id="Trazado_140433" data-name="Trazado 140433" d="M1695.887,4366.741c-.048,0-.067.171-.048.369s.066.36.114.35.066-.169,0-.369S1695.934,4366.731,1695.887,4366.741Z" transform="translate(-1691.882 -4358.759)" fill="#344154"/>
              <path id="Trazado_140434" data-name="Trazado 140434" d="M1695.11,4365.3a3.664,3.664,0,0,1,.227.341c.1.179.151.351.2.351s.076-.218-.057-.436S1695.129,4365.261,1695.11,4365.3Z" transform="translate(-1691.843 -4358.681)" fill="#344154"/>
              <path id="Trazado_140435" data-name="Trazado 140435" d="M1694.46,4364.39v.228c0,.1.142.18.18.151s0-.123,0-.227S1694.5,4364.361,1694.46,4364.39Z" transform="translate(-1691.809 -4358.633)" fill="#344154"/>
            </g>
            <g id="Grupo_63570" data-name="Grupo 63570" transform="translate(1.155 122.663)">
              <path id="Trazado_140436" data-name="Trazado 140436" d="M1732.757,4212.713s-4.535,19.19-3.247,22.977,9.59,5.994,9.59,5.994l-.284,52.536-45.937,56.806,16.957,13.879s49.733-56.9,54.126-67.22-2.84-85.814-2.84-85.814Z" transform="translate(-1692.88 -4204.893)" fill="#344154"/>
              <path id="Trazado_140437" data-name="Trazado 140437" d="M1757.621,4204.5l2.244,159.558-23.366.114-11.731-129.944h0c-2.48-2.367-5.974-6.418-5.491-15.46l.568-10.5Z" transform="translate(-1694.283 -4204.5)" fill="#344154"/>
              <path id="Trazado_140438" data-name="Trazado 140438" d="M1733.75,4304.523s0-.085.133-.236l.445-.653c.426-.606,1.013-1.429,1.732-2.461l6.343-8.777v.124c-.511-5.54-1.126-12.262-1.789-19.495-.852-9.468-1.534-18.092-1.894-24.321-.208-3.115-.341-5.682-.417-7.385,0-.833-.057-1.5-.066-2.007a2.875,2.875,0,0,1,0-.7,4.437,4.437,0,0,1,.085.691c0,.511.095,1.174.161,2.007.142,1.8.331,4.3.577,7.366.492,6.22,1.231,14.817,2.083,24.3.635,7.271,1.278,13.975,1.7,19.542v.114l-6.486,8.681-1.827,2.386-.492.625C1733.816,4304.458,1733.759,4304.534,1733.75,4304.523Z" transform="translate(-1695.055 -4206.316)" fill="#5e6178"/>
              <path id="Trazado_140439" data-name="Trazado 140439" d="M1740.642,4238.464a31.9,31.9,0,0,1-6.192-.947,32.671,32.671,0,0,1-6.04-1.647,50.017,50.017,0,0,1,6.145,1.164,52.14,52.14,0,0,1,6.087,1.43Z" transform="translate(-1694.771 -4206.169)" fill="#5e6178"/>
              <path id="Trazado_140440" data-name="Trazado 140440" d="M1757.51,4296.028a23.784,23.784,0,0,0-6.305-1.648,24.039,24.039,0,0,0-6.495.625,5.388,5.388,0,0,1,1.818-.709,14.53,14.53,0,0,1,4.734-.407,14.237,14.237,0,0,1,4.582,1.146A5.255,5.255,0,0,1,1757.51,4296.028Z" transform="translate(-1695.639 -4209.256)" fill="#5e6178"/>
              <path id="Trazado_140441" data-name="Trazado 140441" d="M1765.266,4304c.1.076-6.466,8.9-14.684,19.7s-14.968,19.493-15.073,19.409,6.467-8.9,14.684-19.7S1765.162,4303.878,1765.266,4304Z" transform="translate(-1695.149 -4209.797)" fill="#5e6178"/>
              <path id="Trazado_140442" data-name="Trazado 140442" d="M1762.937,4216.931a3.965,3.965,0,0,1-1.316,1.732,6.5,6.5,0,0,1-9.524-1,3.834,3.834,0,0,1-.948-1.97,20.637,20.637,0,0,0,1.193,1.752,6.5,6.5,0,0,0,9.041.946A10.693,10.693,0,0,0,1762.937,4216.931Z" transform="translate(-1695.982 -4205.096)" fill="#5e6178"/>
            </g>
            <path id="Trazado_140443" data-name="Trazado 140443" d="M1729.513,4128.713a20.374,20.374,0,0,1-1.108-28.4" transform="translate(-1693.338 -4076.291)" fill="#344154"/>
            <g id="Grupo_63575" data-name="Grupo 63575" transform="translate(16.919 56.521)">
              <g id="Grupo_63574" data-name="Grupo 63574">
                <path id="Trazado_140444" data-name="Trazado 140444" d="M1715.655,4146s-5.074,5.738-6.125,27.673c0,0,14.457,2.747,14.722,1.951S1715.655,4146,1715.655,4146Z" transform="translate(-1709.53 -4135.245)" fill="#f2884b"/>
                <g id="Grupo_63571" data-name="Grupo 63571" transform="translate(0 10.756)" opacity="0.3">
                  <path id="Trazado_140445" data-name="Trazado 140445" d="M1715.655,4146s-5.074,5.738-6.125,27.673c0,0,14.457,2.747,14.722,1.951S1715.655,4146,1715.655,4146Z" transform="translate(-1709.53 -4146)" fill="#f2884b"/>
                </g>
                <g id="Grupo_63573" data-name="Grupo 63573" transform="translate(4.578)">
                  <path id="Trazado_140446" data-name="Trazado 140446" d="M1720.32,4175.26" transform="translate(-1714.682 -4136.802)" fill="#5e6178"/>
                  <path id="Trazado_140447" data-name="Trazado 140447" d="M1718.261,4209.312h44.394l-.72-6.93s-5.074-26.387-5.037-26.727l.8-1.685a16.712,16.712,0,0,0,.2-13.956h0l21.775-7.432-5.321-17.941c-9.865,1.666-24.777,3.522-24.777,3.522l-2.215.19s-15.394.8-15.726.843c-6.438.776-13.927,1.268-16.663,8.161-1.467,3.683-.076,9.212,2.32,14.92l5.681,17.506c2.272,9.628-1.354,9.175-3.352,18.86C1719.293,4200.109,1718.233,4207.967,1718.261,4209.312Z" transform="translate(-1714.365 -4134.64)" fill="#f2884b"/>
                  <g id="Grupo_63572" data-name="Grupo 63572" opacity="0.3">
                    <path id="Trazado_140448" data-name="Trazado 140448" d="M1718.261,4209.312h44.394l-.72-6.93s-5.074-26.387-5.037-26.727l.8-1.685a16.712,16.712,0,0,0,.2-13.956h0l21.775-7.432-5.321-17.941c-9.865,1.666-24.777,3.522-24.777,3.522l-2.215.19s-15.394.8-15.726.843c-6.438.776-13.927,1.268-16.663,8.161-1.467,3.683-.076,9.212,2.32,14.92l5.681,17.506c2.272,9.628-1.354,9.175-3.352,18.86C1719.293,4200.109,1718.233,4207.967,1718.261,4209.312Z" transform="translate(-1714.365 -4134.64)" fill="#f2884b"/>
                  </g>
                </g>
                <path id="Trazado_140449" data-name="Trazado 140449" d="M1781.679,4153.89a3.779,3.779,0,0,1-.947.408c-.625.227-1.543.548-2.679.946-2.272.776-5.435,1.79-8.919,2.906s-6.627,2.216-8.8,3.134c-1.117.445-2,.843-2.613,1.108a4.48,4.48,0,0,1-.947.388,4.216,4.216,0,0,1,.89-.559c.6-.321,1.458-.767,2.556-1.259a83.819,83.819,0,0,1,8.8-3.285c3.494-1.118,6.628-2.083,8.966-2.765,1.146-.34,2.083-.606,2.727-.776A4.42,4.42,0,0,1,1781.679,4153.89Z" transform="translate(-1712.045 -4135.665)" fill="#344154"/>
              </g>
              <path id="Trazado_140450" data-name="Trazado 140450" d="M1777.059,4143.8c0,.132-13.131.246-29.349.246s-29.35-.114-29.35-.246,13.122-.246,29.35-.246S1777.059,4143.654,1777.059,4143.8Z" transform="translate(-1710 -4135.115)" fill="#fafafa"/>
              <path id="Trazado_140451" data-name="Trazado 140451" d="M1778.121,4152.986c0,.133-14.608.247-32.625.247s-32.616-.114-32.616-.247,14.6-.246,32.616-.246S1778.121,4152.863,1778.121,4152.986Z" transform="translate(-1709.708 -4135.604)" fill="#fafafa"/>
              <path id="Trazado_140452" data-name="Trazado 140452" d="M1716.414,4163.476a14.642,14.642,0,0,1-5.444,0,15.121,15.121,0,0,1,5.444,0Z" transform="translate(-1709.606 -4136.162)" fill="#fafafa"/>
              <path id="Trazado_140453" data-name="Trazado 140453" d="M1759.381,4163.8c0,.142-9.552.246-21.331.246s-21.331-.1-21.331-.246,9.543-.246,21.331-.246S1759.381,4163.664,1759.381,4163.8Z" transform="translate(-1709.913 -4136.179)" fill="#fafafa"/>
              <path id="Trazado_140454" data-name="Trazado 140454" d="M1758.637,4174.6c0,.132-8.578.247-19.143.247s-19.153-.115-19.153-.247,8.568-.246,19.153-.246S1758.637,4174.464,1758.637,4174.6Z" transform="translate(-1710.105 -4136.754)" fill="#fafafa"/>
              <path id="Trazado_140455" data-name="Trazado 140455" d="M1758.538,4184.6c0,.141-7.763.246-17.345.246s-17.364-.1-17.364-.246,7.773-.247,17.364-.247S1758.538,4184.464,1758.538,4184.6Z" transform="translate(-1710.291 -4137.286)" fill="#fafafa"/>
              <path id="Trazado_140456" data-name="Trazado 140456" d="M1760.012,4192.7c0,.133-8.313.246-18.566.246s-18.566-.114-18.566-.246,8.313-.246,18.566-.246S1760.012,4192.563,1760.012,4192.7Z" transform="translate(-1710.241 -4137.717)" fill="#fafafa"/>
              <path id="Trazado_140457" data-name="Trazado 140457" d="M1762.264,4202.987c0,.132-9.468.246-21.122.246s-21.122-.114-21.122-.246,9.467-.247,21.122-.247S1762.264,4202.883,1762.264,4202.987Z" transform="translate(-1710.089 -4138.266)" fill="#fafafa"/>
              <path id="Trazado_140458" data-name="Trazado 140458" d="M1722.7,4180.171a3.111,3.111,0,0,1-.4-.871c-.256-.682-.568-1.486-.947-2.424-.777-2.044-1.894-4.875-3.02-8.019s-2.093-6.031-2.689-8.152c-.294-1.051-.521-1.894-.644-2.518a3.977,3.977,0,0,1-.161-.947,34.044,34.044,0,0,1,1.136,3.371c.682,2.083,1.676,4.933,2.841,8.075s2.187,5.993,2.84,8.067c.35,1.041.616,1.893.786,2.48a3.924,3.924,0,0,1,.256.938Z" transform="translate(-1709.813 -4135.843)" fill="#344154"/>
            </g>
          </g>
        </g>
      </g>
    </g>
    <path id="Rectángulo_5165" data-name="Rectángulo 5165" d="M0,0H89.308a33,33,0,0,1,33,33v3.869a33,33,0,0,1-33,33H33a33,33,0,0,1-33-33V0A0,0,0,0,1,0,0Z" transform="translate(438.487 400.801)" fill="#f2884b"/>
    <path id="Rectángulo_5166" data-name="Rectángulo 5166" d="M17.515,0h0A17.515,17.515,0,0,1,35.03,17.515V73.521a0,0,0,0,1,0,0H17.515A17.515,17.515,0,0,1,0,56.006V17.515A17.515,17.515,0,0,1,17.515,0Z" transform="translate(0 -3)" fill="#fff"/>
    <g id="Grupo_74272" data-name="Grupo 74272" transform="translate(0 328.883)">
      <g id="Grupo_53320" data-name="Grupo 53320" transform="translate(1.634)">
        <path id="Trazado_99297" data-name="Trazado 99297" d="M656.1,72.565a1.542,1.542,0,1,0,1.556-1.641A1.605,1.605,0,0,0,656.1,72.565Z" transform="translate(-517.703 -69.122)" fill="#f2884b"/>
        <path id="Trazado_99298" data-name="Trazado 99298" d="M646.707,72.451a1.543,1.543,0,1,0,1.557-1.64A1.607,1.607,0,0,0,646.707,72.451Z" transform="translate(-522.149 -69.189)" fill="#f2884b"/>
        <path id="Trazado_99299" data-name="Trazado 99299" d="M637.313,72.338a1.542,1.542,0,1,0,1.556-1.64A1.606,1.606,0,0,0,637.313,72.338Z" transform="translate(-526.594 -69.256)" fill="#f2884b"/>
        <path id="Trazado_99300" data-name="Trazado 99300" d="M627.919,72.225a1.542,1.542,0,1,0,1.556-1.641A1.605,1.605,0,0,0,627.919,72.225Z" transform="translate(-531.039 -69.323)" fill="#f2884b"/>
        <path id="Trazado_99301" data-name="Trazado 99301" d="M618.524,72.111a1.543,1.543,0,1,0,1.557-1.64A1.607,1.607,0,0,0,618.524,72.111Z" transform="translate(-535.485 -69.39)" fill="#f2884b"/>
        <path id="Trazado_99302" data-name="Trazado 99302" d="M609.13,72a1.542,1.542,0,1,0,1.556-1.64A1.6,1.6,0,0,0,609.13,72Z" transform="translate(-539.93 -69.456)" fill="#f2884b"/>
        <path id="Trazado_99303" data-name="Trazado 99303" d="M599.735,71.884a1.543,1.543,0,1,0,1.557-1.64A1.607,1.607,0,0,0,599.735,71.884Z" transform="translate(-544.376 -69.524)" fill="#f2884b"/>
        <path id="Trazado_99304" data-name="Trazado 99304" d="M590.341,71.771a1.543,1.543,0,1,0,1.556-1.64A1.606,1.606,0,0,0,590.341,71.771Z" transform="translate(-548.821 -69.59)" fill="#f2884b"/>
        <path id="Trazado_99305" data-name="Trazado 99305" d="M580.947,71.658a1.542,1.542,0,1,0,1.556-1.641A1.605,1.605,0,0,0,580.947,71.658Z" transform="translate(-553.267 -69.658)" fill="#f2884b"/>
        <path id="Trazado_99306" data-name="Trazado 99306" d="M571.552,71.544a1.543,1.543,0,1,0,1.557-1.64A1.607,1.607,0,0,0,571.552,71.544Z" transform="translate(-557.713 -69.724)" fill="#f2884b"/>
        <path id="Trazado_99307" data-name="Trazado 99307" d="M562.158,71.431a1.542,1.542,0,1,0,1.556-1.64A1.605,1.605,0,0,0,562.158,71.431Z" transform="translate(-562.158 -69.791)" fill="#f2884b"/>
      </g>
      <g id="Grupo_53321" data-name="Grupo 53321" transform="translate(1.485 13.279)">
        <path id="Trazado_99308" data-name="Trazado 99308" d="M656,80.915a1.543,1.543,0,1,0,1.556-1.64A1.607,1.607,0,0,0,656,80.915Z" transform="translate(-517.602 -77.472)" fill="#f2884b"/>
        <path id="Trazado_99309" data-name="Trazado 99309" d="M646.606,80.8a1.543,1.543,0,1,0,1.557-1.64A1.607,1.607,0,0,0,646.606,80.8Z" transform="translate(-522.048 -77.538)" fill="#f2884b"/>
        <path id="Trazado_99310" data-name="Trazado 99310" d="M637.212,80.688a1.543,1.543,0,1,0,1.556-1.64A1.607,1.607,0,0,0,637.212,80.688Z" transform="translate(-526.493 -77.606)" fill="#f2884b"/>
        <path id="Trazado_99311" data-name="Trazado 99311" d="M627.818,80.575a1.542,1.542,0,1,0,1.556-1.64A1.605,1.605,0,0,0,627.818,80.575Z" transform="translate(-530.938 -77.672)" fill="#f2884b"/>
        <path id="Trazado_99312" data-name="Trazado 99312" d="M618.423,80.462a1.543,1.543,0,1,0,1.557-1.641A1.607,1.607,0,0,0,618.423,80.462Z" transform="translate(-535.384 -77.74)" fill="#f2884b"/>
        <path id="Trazado_99313" data-name="Trazado 99313" d="M609.029,80.348a1.543,1.543,0,1,0,1.556-1.64A1.607,1.607,0,0,0,609.029,80.348Z" transform="translate(-539.829 -77.806)" fill="#f2884b"/>
        <path id="Trazado_99314" data-name="Trazado 99314" d="M599.635,80.235a1.542,1.542,0,1,0,1.556-1.64A1.605,1.605,0,0,0,599.635,80.235Z" transform="translate(-544.275 -77.873)" fill="#f2884b"/>
        <path id="Trazado_99315" data-name="Trazado 99315" d="M590.24,80.121a1.543,1.543,0,1,0,1.557-1.64A1.607,1.607,0,0,0,590.24,80.121Z" transform="translate(-548.721 -77.94)" fill="#f2884b"/>
        <path id="Trazado_99316" data-name="Trazado 99316" d="M580.846,80.008a1.542,1.542,0,1,0,1.556-1.64A1.607,1.607,0,0,0,580.846,80.008Z" transform="translate(-553.166 -78.007)" fill="#f2884b"/>
        <path id="Trazado_99317" data-name="Trazado 99317" d="M571.451,79.9a1.543,1.543,0,1,0,1.557-1.641A1.606,1.606,0,0,0,571.451,79.9Z" transform="translate(-557.612 -78.074)" fill="#f2884b"/>
        <path id="Trazado_99318" data-name="Trazado 99318" d="M562.057,79.781a1.543,1.543,0,1,0,1.556-1.64A1.607,1.607,0,0,0,562.057,79.781Z" transform="translate(-562.057 -78.141)" fill="#f2884b"/>
      </g>
      <g id="Grupo_53322" data-name="Grupo 53322" transform="translate(1.336 26.56)">
        <path id="Trazado_99319" data-name="Trazado 99319" d="M655.9,89.266a1.543,1.543,0,1,0,1.557-1.64A1.606,1.606,0,0,0,655.9,89.266Z" transform="translate(-517.501 -85.823)" fill="#f2884b"/>
        <path id="Trazado_99320" data-name="Trazado 99320" d="M646.506,89.152a1.542,1.542,0,1,0,1.556-1.64A1.606,1.606,0,0,0,646.506,89.152Z" transform="translate(-521.946 -85.89)" fill="#f2884b"/>
        <path id="Trazado_99321" data-name="Trazado 99321" d="M637.111,89.039a1.543,1.543,0,1,0,1.557-1.64A1.606,1.606,0,0,0,637.111,89.039Z" transform="translate(-526.392 -85.956)" fill="#f2884b"/>
        <path id="Trazado_99322" data-name="Trazado 99322" d="M627.717,88.926a1.543,1.543,0,1,0,1.556-1.641A1.606,1.606,0,0,0,627.717,88.926Z" transform="translate(-530.837 -86.024)" fill="#f2884b"/>
        <path id="Trazado_99323" data-name="Trazado 99323" d="M618.323,88.812a1.542,1.542,0,1,0,1.556-1.64A1.606,1.606,0,0,0,618.323,88.812Z" transform="translate(-535.282 -86.091)" fill="#f2884b"/>
        <path id="Trazado_99324" data-name="Trazado 99324" d="M608.928,88.7a1.543,1.543,0,1,0,1.557-1.64A1.606,1.606,0,0,0,608.928,88.7Z" transform="translate(-539.728 -86.157)" fill="#f2884b"/>
        <path id="Trazado_99325" data-name="Trazado 99325" d="M599.534,88.585a1.542,1.542,0,1,0,1.556-1.64A1.607,1.607,0,0,0,599.534,88.585Z" transform="translate(-544.174 -86.225)" fill="#f2884b"/>
        <path id="Trazado_99326" data-name="Trazado 99326" d="M590.139,88.472a1.543,1.543,0,1,0,1.557-1.64A1.6,1.6,0,0,0,590.139,88.472Z" transform="translate(-548.619 -86.291)" fill="#f2884b"/>
        <path id="Trazado_99327" data-name="Trazado 99327" d="M580.745,88.359a1.543,1.543,0,1,0,1.556-1.641A1.606,1.606,0,0,0,580.745,88.359Z" transform="translate(-553.065 -86.359)" fill="#f2884b"/>
        <path id="Trazado_99328" data-name="Trazado 99328" d="M571.351,88.245a1.542,1.542,0,1,0,1.556-1.64A1.606,1.606,0,0,0,571.351,88.245Z" transform="translate(-557.51 -86.425)" fill="#f2884b"/>
        <path id="Trazado_99329" data-name="Trazado 99329" d="M561.956,88.132a1.543,1.543,0,1,0,1.557-1.64A1.606,1.606,0,0,0,561.956,88.132Z" transform="translate(-561.956 -86.492)" fill="#f2884b"/>
      </g>
      <g id="Grupo_53323" data-name="Grupo 53323" transform="translate(1.187 39.839)">
        <path id="Trazado_99330" data-name="Trazado 99330" d="M655.8,97.616a1.543,1.543,0,1,0,1.557-1.64A1.607,1.607,0,0,0,655.8,97.616Z" transform="translate(-517.4 -94.173)" fill="#f2884b"/>
        <path id="Trazado_99331" data-name="Trazado 99331" d="M646.4,97.5a1.543,1.543,0,1,0,1.556-1.64A1.606,1.606,0,0,0,646.4,97.5Z" transform="translate(-521.845 -94.239)" fill="#f2884b"/>
        <path id="Trazado_99332" data-name="Trazado 99332" d="M637.01,97.39a1.543,1.543,0,1,0,1.557-1.641A1.607,1.607,0,0,0,637.01,97.39Z" transform="translate(-526.291 -94.307)" fill="#f2884b"/>
        <path id="Trazado_99333" data-name="Trazado 99333" d="M627.616,97.276a1.543,1.543,0,1,0,1.557-1.64A1.607,1.607,0,0,0,627.616,97.276Z" transform="translate(-530.736 -94.373)" fill="#f2884b"/>
        <path id="Trazado_99334" data-name="Trazado 99334" d="M618.222,97.163a1.542,1.542,0,1,0,1.556-1.64A1.606,1.606,0,0,0,618.222,97.163Z" transform="translate(-535.181 -94.44)" fill="#f2884b"/>
        <path id="Trazado_99335" data-name="Trazado 99335" d="M608.827,97.049a1.543,1.543,0,1,0,1.557-1.64A1.607,1.607,0,0,0,608.827,97.049Z" transform="translate(-539.627 -94.507)" fill="#f2884b"/>
        <path id="Trazado_99336" data-name="Trazado 99336" d="M599.433,96.936a1.543,1.543,0,1,0,1.556-1.64A1.605,1.605,0,0,0,599.433,96.936Z" transform="translate(-544.073 -94.574)" fill="#f2884b"/>
        <path id="Trazado_99337" data-name="Trazado 99337" d="M590.039,96.823a1.542,1.542,0,1,0,1.556-1.641A1.605,1.605,0,0,0,590.039,96.823Z" transform="translate(-548.518 -94.641)" fill="#f2884b"/>
        <path id="Trazado_99338" data-name="Trazado 99338" d="M580.644,96.709a1.543,1.543,0,1,0,1.557-1.64A1.607,1.607,0,0,0,580.644,96.709Z" transform="translate(-552.964 -94.708)" fill="#f2884b"/>
        <path id="Trazado_99339" data-name="Trazado 99339" d="M571.25,96.6a1.542,1.542,0,1,0,1.556-1.64A1.606,1.606,0,0,0,571.25,96.6Z" transform="translate(-557.409 -94.775)" fill="#f2884b"/>
        <path id="Trazado_99340" data-name="Trazado 99340" d="M561.855,96.482a1.543,1.543,0,1,0,1.557-1.64A1.607,1.607,0,0,0,561.855,96.482Z" transform="translate(-561.855 -94.842)" fill="#f2884b"/>
      </g>
      <g id="Grupo_53324" data-name="Grupo 53324" transform="translate(1.04 53.119)">
        <path id="Trazado_99341" data-name="Trazado 99341" d="M655.7,105.967a1.542,1.542,0,1,0,1.556-1.64A1.605,1.605,0,0,0,655.7,105.967Z" transform="translate(-517.3 -102.524)" fill="#f2884b"/>
        <path id="Trazado_99342" data-name="Trazado 99342" d="M646.3,105.854a1.543,1.543,0,1,0,1.557-1.641A1.606,1.606,0,0,0,646.3,105.854Z" transform="translate(-521.745 -102.591)" fill="#f2884b"/>
        <path id="Trazado_99343" data-name="Trazado 99343" d="M636.91,105.74a1.542,1.542,0,1,0,1.556-1.64A1.6,1.6,0,0,0,636.91,105.74Z" transform="translate(-526.191 -102.658)" fill="#f2884b"/>
        <path id="Trazado_99344" data-name="Trazado 99344" d="M627.515,105.627a1.543,1.543,0,1,0,1.557-1.641A1.606,1.606,0,0,0,627.515,105.627Z" transform="translate(-530.637 -102.725)" fill="#f2884b"/>
        <path id="Trazado_99345" data-name="Trazado 99345" d="M618.121,105.513a1.543,1.543,0,1,0,1.556-1.64A1.607,1.607,0,0,0,618.121,105.513Z" transform="translate(-535.082 -102.792)" fill="#f2884b"/>
        <path id="Trazado_99346" data-name="Trazado 99346" d="M608.727,105.4a1.542,1.542,0,1,0,1.556-1.64A1.605,1.605,0,0,0,608.727,105.4Z" transform="translate(-539.527 -102.858)" fill="#f2884b"/>
        <path id="Trazado_99347" data-name="Trazado 99347" d="M599.332,105.287a1.543,1.543,0,1,0,1.557-1.641A1.606,1.606,0,0,0,599.332,105.287Z" transform="translate(-543.973 -102.926)" fill="#f2884b"/>
        <path id="Trazado_99348" data-name="Trazado 99348" d="M589.938,105.173a1.542,1.542,0,1,0,1.556-1.64A1.607,1.607,0,0,0,589.938,105.173Z" transform="translate(-548.419 -102.992)" fill="#f2884b"/>
        <path id="Trazado_99349" data-name="Trazado 99349" d="M580.543,105.06a1.543,1.543,0,1,0,1.557-1.64A1.606,1.606,0,0,0,580.543,105.06Z" transform="translate(-552.864 -103.059)" fill="#f2884b"/>
        <path id="Trazado_99350" data-name="Trazado 99350" d="M571.149,104.947a1.543,1.543,0,1,0,1.556-1.641A1.606,1.606,0,0,0,571.149,104.947Z" transform="translate(-557.31 -103.126)" fill="#f2884b"/>
        <path id="Trazado_99351" data-name="Trazado 99351" d="M561.755,104.833a1.542,1.542,0,1,0,1.556-1.64A1.6,1.6,0,0,0,561.755,104.833Z" transform="translate(-561.755 -103.193)" fill="#f2884b"/>
      </g>
      <g id="Grupo_53325" data-name="Grupo 53325" transform="translate(0.891 66.398)">
        <path id="Trazado_99352" data-name="Trazado 99352" d="M655.6,114.317a1.542,1.542,0,1,0,1.556-1.64A1.607,1.607,0,0,0,655.6,114.317Z" transform="translate(-517.199 -110.873)" fill="#f2884b"/>
        <path id="Trazado_99353" data-name="Trazado 99353" d="M646.2,114.2a1.543,1.543,0,1,0,1.557-1.64A1.607,1.607,0,0,0,646.2,114.2Z" transform="translate(-521.645 -110.94)" fill="#f2884b"/>
        <path id="Trazado_99354" data-name="Trazado 99354" d="M636.809,114.091a1.543,1.543,0,1,0,1.556-1.641A1.606,1.606,0,0,0,636.809,114.091Z" transform="translate(-526.09 -111.008)" fill="#f2884b"/>
        <path id="Trazado_99355" data-name="Trazado 99355" d="M627.415,113.977a1.542,1.542,0,1,0,1.556-1.64A1.606,1.606,0,0,0,627.415,113.977Z" transform="translate(-530.535 -111.074)" fill="#f2884b"/>
        <path id="Trazado_99356" data-name="Trazado 99356" d="M618.02,113.864a1.543,1.543,0,1,0,1.557-1.64A1.606,1.606,0,0,0,618.02,113.864Z" transform="translate(-534.981 -111.141)" fill="#f2884b"/>
        <path id="Trazado_99357" data-name="Trazado 99357" d="M608.626,113.751a1.542,1.542,0,1,0,1.556-1.641A1.606,1.606,0,0,0,608.626,113.751Z" transform="translate(-539.426 -111.208)" fill="#f2884b"/>
        <path id="Trazado_99358" data-name="Trazado 99358" d="M599.231,113.637a1.543,1.543,0,1,0,1.557-1.64A1.608,1.608,0,0,0,599.231,113.637Z" transform="translate(-543.872 -111.275)" fill="#f2884b"/>
        <path id="Trazado_99359" data-name="Trazado 99359" d="M589.837,113.524a1.543,1.543,0,1,0,1.556-1.64A1.606,1.606,0,0,0,589.837,113.524Z" transform="translate(-548.318 -111.342)" fill="#f2884b"/>
        <path id="Trazado_99360" data-name="Trazado 99360" d="M580.443,113.41A1.542,1.542,0,1,0,582,111.77,1.605,1.605,0,0,0,580.443,113.41Z" transform="translate(-552.763 -111.409)" fill="#f2884b"/>
        <path id="Trazado_99361" data-name="Trazado 99361" d="M571.048,113.3a1.543,1.543,0,1,0,1.557-1.64A1.607,1.607,0,0,0,571.048,113.3Z" transform="translate(-557.209 -111.476)" fill="#f2884b"/>
        <path id="Trazado_99362" data-name="Trazado 99362" d="M561.654,113.184a1.542,1.542,0,1,0,1.556-1.641A1.606,1.606,0,0,0,561.654,113.184Z" transform="translate(-561.654 -111.543)" fill="#f2884b"/>
      </g>
      <g id="Grupo_53326" data-name="Grupo 53326" transform="translate(0.742 79.679)">
        <path id="Trazado_99363" data-name="Trazado 99363" d="M655.5,122.668a1.543,1.543,0,1,0,1.556-1.64A1.606,1.606,0,0,0,655.5,122.668Z" transform="translate(-517.098 -119.225)" fill="#f2884b"/>
        <path id="Trazado_99364" data-name="Trazado 99364" d="M646.1,122.555a1.542,1.542,0,1,0,1.556-1.641A1.605,1.605,0,0,0,646.1,122.555Z" transform="translate(-521.543 -119.292)" fill="#f2884b"/>
        <path id="Trazado_99365" data-name="Trazado 99365" d="M636.708,122.441a1.543,1.543,0,1,0,1.557-1.64A1.607,1.607,0,0,0,636.708,122.441Z" transform="translate(-525.989 -119.359)" fill="#f2884b"/>
        <path id="Trazado_99366" data-name="Trazado 99366" d="M627.314,122.328a1.542,1.542,0,1,0,1.556-1.64A1.605,1.605,0,0,0,627.314,122.328Z" transform="translate(-530.434 -119.425)" fill="#f2884b"/>
        <path id="Trazado_99367" data-name="Trazado 99367" d="M617.919,122.214a1.543,1.543,0,1,0,1.557-1.64A1.607,1.607,0,0,0,617.919,122.214Z" transform="translate(-534.88 -119.493)" fill="#f2884b"/>
        <path id="Trazado_99368" data-name="Trazado 99368" d="M608.525,122.1a1.543,1.543,0,1,0,1.556-1.64A1.6,1.6,0,0,0,608.525,122.1Z" transform="translate(-539.325 -119.559)" fill="#f2884b"/>
        <path id="Trazado_99369" data-name="Trazado 99369" d="M599.131,121.988a1.542,1.542,0,1,0,1.556-1.64A1.605,1.605,0,0,0,599.131,121.988Z" transform="translate(-543.771 -119.626)" fill="#f2884b"/>
        <path id="Trazado_99370" data-name="Trazado 99370" d="M589.736,121.874a1.543,1.543,0,1,0,1.557-1.64A1.607,1.607,0,0,0,589.736,121.874Z" transform="translate(-548.216 -119.693)" fill="#f2884b"/>
        <path id="Trazado_99371" data-name="Trazado 99371" d="M580.342,121.761a1.542,1.542,0,1,0,1.556-1.64A1.606,1.606,0,0,0,580.342,121.761Z" transform="translate(-552.662 -119.76)" fill="#f2884b"/>
        <path id="Trazado_99372" data-name="Trazado 99372" d="M570.947,121.648a1.543,1.543,0,1,0,1.557-1.641A1.606,1.606,0,0,0,570.947,121.648Z" transform="translate(-557.108 -119.827)" fill="#f2884b"/>
        <path id="Trazado_99373" data-name="Trazado 99373" d="M561.553,121.534a1.543,1.543,0,1,0,1.556-1.64A1.607,1.607,0,0,0,561.553,121.534Z" transform="translate(-561.553 -119.894)" fill="#f2884b"/>
      </g>
      <g id="Grupo_53327" data-name="Grupo 53327" transform="translate(0.594 92.959)">
        <path id="Trazado_99374" data-name="Trazado 99374" d="M655.4,131.019a1.543,1.543,0,1,0,1.557-1.641A1.606,1.606,0,0,0,655.4,131.019Z" transform="translate(-516.997 -127.576)" fill="#f2884b"/>
        <path id="Trazado_99375" data-name="Trazado 99375" d="M646,130.9a1.542,1.542,0,1,0,1.556-1.64A1.607,1.607,0,0,0,646,130.9Z" transform="translate(-521.442 -127.643)" fill="#f2884b"/>
        <path id="Trazado_99376" data-name="Trazado 99376" d="M636.607,130.792a1.543,1.543,0,1,0,1.557-1.64A1.607,1.607,0,0,0,636.607,130.792Z" transform="translate(-525.888 -127.71)" fill="#f2884b"/>
        <path id="Trazado_99377" data-name="Trazado 99377" d="M627.213,130.678a1.543,1.543,0,1,0,1.556-1.64A1.607,1.607,0,0,0,627.213,130.678Z" transform="translate(-530.333 -127.777)" fill="#f2884b"/>
        <path id="Trazado_99378" data-name="Trazado 99378" d="M617.819,130.565a1.542,1.542,0,1,0,1.556-1.64A1.606,1.606,0,0,0,617.819,130.565Z" transform="translate(-534.779 -127.844)" fill="#f2884b"/>
        <path id="Trazado_99379" data-name="Trazado 99379" d="M608.424,130.452a1.543,1.543,0,1,0,1.557-1.641A1.606,1.606,0,0,0,608.424,130.452Z" transform="translate(-539.224 -127.911)" fill="#f2884b"/>
        <path id="Trazado_99380" data-name="Trazado 99380" d="M599.03,130.338a1.543,1.543,0,1,0,1.556-1.64A1.607,1.607,0,0,0,599.03,130.338Z" transform="translate(-543.67 -127.978)" fill="#f2884b"/>
        <path id="Trazado_99381" data-name="Trazado 99381" d="M589.635,130.225a1.543,1.543,0,1,0,1.557-1.64A1.607,1.607,0,0,0,589.635,130.225Z" transform="translate(-548.116 -128.044)" fill="#f2884b"/>
        <path id="Trazado_99382" data-name="Trazado 99382" d="M580.241,130.111a1.543,1.543,0,1,0,1.556-1.64A1.607,1.607,0,0,0,580.241,130.111Z" transform="translate(-552.561 -128.112)" fill="#f2884b"/>
        <path id="Trazado_99383" data-name="Trazado 99383" d="M570.847,130a1.542,1.542,0,1,0,1.556-1.64A1.606,1.606,0,0,0,570.847,130Z" transform="translate(-557.006 -128.178)" fill="#f2884b"/>
        <path id="Trazado_99384" data-name="Trazado 99384" d="M561.452,129.885a1.543,1.543,0,1,0,1.557-1.64A1.606,1.606,0,0,0,561.452,129.885Z" transform="translate(-561.452 -128.245)" fill="#f2884b"/>
      </g>
      <g id="Grupo_53328" data-name="Grupo 53328" transform="translate(0.445 106.238)">
        <path id="Trazado_99385" data-name="Trazado 99385" d="M655.295,139.369a1.543,1.543,0,1,0,1.557-1.64A1.6,1.6,0,0,0,655.295,139.369Z" transform="translate(-516.896 -135.926)" fill="#f2884b"/>
        <path id="Trazado_99386" data-name="Trazado 99386" d="M645.9,139.256a1.543,1.543,0,1,0,1.555-1.64A1.606,1.606,0,0,0,645.9,139.256Z" transform="translate(-521.341 -135.992)" fill="#f2884b"/>
        <path id="Trazado_99387" data-name="Trazado 99387" d="M636.507,139.142a1.542,1.542,0,1,0,1.556-1.64A1.606,1.606,0,0,0,636.507,139.142Z" transform="translate(-525.786 -136.06)" fill="#f2884b"/>
        <path id="Trazado_99388" data-name="Trazado 99388" d="M627.112,139.029a1.543,1.543,0,1,0,1.557-1.64A1.605,1.605,0,0,0,627.112,139.029Z" transform="translate(-530.232 -136.126)" fill="#f2884b"/>
        <path id="Trazado_99389" data-name="Trazado 99389" d="M617.718,138.916a1.542,1.542,0,1,0,1.556-1.641A1.606,1.606,0,0,0,617.718,138.916Z" transform="translate(-534.678 -136.193)" fill="#f2884b"/>
        <path id="Trazado_99390" data-name="Trazado 99390" d="M608.323,138.8a1.543,1.543,0,1,0,1.557-1.64A1.607,1.607,0,0,0,608.323,138.8Z" transform="translate(-539.123 -136.26)" fill="#f2884b"/>
        <path id="Trazado_99391" data-name="Trazado 99391" d="M598.929,138.689a1.543,1.543,0,1,0,1.557-1.64A1.606,1.606,0,0,0,598.929,138.689Z" transform="translate(-543.568 -136.327)" fill="#f2884b"/>
        <path id="Trazado_99392" data-name="Trazado 99392" d="M589.535,138.576a1.542,1.542,0,1,0,1.556-1.641A1.605,1.605,0,0,0,589.535,138.576Z" transform="translate(-548.014 -136.394)" fill="#f2884b"/>
        <path id="Trazado_99393" data-name="Trazado 99393" d="M580.14,138.462a1.543,1.543,0,1,0,1.557-1.64A1.6,1.6,0,0,0,580.14,138.462Z" transform="translate(-552.46 -136.461)" fill="#f2884b"/>
        <path id="Trazado_99394" data-name="Trazado 99394" d="M570.746,138.349a1.543,1.543,0,1,0,1.556-1.64A1.606,1.606,0,0,0,570.746,138.349Z" transform="translate(-556.905 -136.528)" fill="#f2884b"/>
        <path id="Trazado_99395" data-name="Trazado 99395" d="M561.351,138.235a1.543,1.543,0,1,0,1.557-1.64A1.607,1.607,0,0,0,561.351,138.235Z" transform="translate(-561.351 -136.595)" fill="#f2884b"/>
      </g>
      <g id="Grupo_53329" data-name="Grupo 53329" transform="translate(0.298 119.519)">
        <path id="Trazado_99396" data-name="Trazado 99396" d="M655.2,147.72a1.542,1.542,0,1,0,1.556-1.641A1.605,1.605,0,0,0,655.2,147.72Z" transform="translate(-516.796 -144.277)" fill="#f2884b"/>
        <path id="Trazado_99397" data-name="Trazado 99397" d="M645.8,147.606a1.543,1.543,0,1,0,1.557-1.64A1.607,1.607,0,0,0,645.8,147.606Z" transform="translate(-521.241 -144.344)" fill="#f2884b"/>
        <path id="Trazado_99398" data-name="Trazado 99398" d="M636.406,147.493a1.542,1.542,0,1,0,1.556-1.64A1.606,1.606,0,0,0,636.406,147.493Z" transform="translate(-525.687 -144.411)" fill="#f2884b"/>
        <path id="Trazado_99399" data-name="Trazado 99399" d="M627.011,147.38a1.543,1.543,0,1,0,1.557-1.641A1.607,1.607,0,0,0,627.011,147.38Z" transform="translate(-530.133 -144.478)" fill="#f2884b"/>
        <path id="Trazado_99400" data-name="Trazado 99400" d="M617.617,147.266a1.543,1.543,0,1,0,1.556-1.64A1.607,1.607,0,0,0,617.617,147.266Z" transform="translate(-534.578 -144.545)" fill="#f2884b"/>
        <path id="Trazado_99401" data-name="Trazado 99401" d="M608.223,147.153a1.542,1.542,0,1,0,1.556-1.64A1.605,1.605,0,0,0,608.223,147.153Z" transform="translate(-539.023 -144.611)" fill="#f2884b"/>
        <path id="Trazado_99402" data-name="Trazado 99402" d="M598.828,147.04a1.543,1.543,0,1,0,1.557-1.641A1.606,1.606,0,0,0,598.828,147.04Z" transform="translate(-543.469 -144.678)" fill="#f2884b"/>
        <path id="Trazado_99403" data-name="Trazado 99403" d="M589.434,146.926a1.543,1.543,0,1,0,1.556-1.64A1.607,1.607,0,0,0,589.434,146.926Z" transform="translate(-547.914 -144.745)" fill="#f2884b"/>
        <path id="Trazado_99404" data-name="Trazado 99404" d="M580.039,146.813a1.543,1.543,0,1,0,1.557-1.641A1.607,1.607,0,0,0,580.039,146.813Z" transform="translate(-552.36 -144.813)" fill="#f2884b"/>
        <path id="Trazado_99405" data-name="Trazado 99405" d="M570.645,146.7a1.543,1.543,0,1,0,1.557-1.64A1.607,1.607,0,0,0,570.645,146.7Z" transform="translate(-556.805 -144.879)" fill="#f2884b"/>
        <path id="Trazado_99406" data-name="Trazado 99406" d="M561.251,146.586a1.542,1.542,0,1,0,1.556-1.64A1.605,1.605,0,0,0,561.251,146.586Z" transform="translate(-561.251 -144.946)" fill="#f2884b"/>
      </g>
      <g id="Grupo_53330" data-name="Grupo 53330" transform="translate(0.149 132.798)">
        <path id="Trazado_99407" data-name="Trazado 99407" d="M655.094,156.07a1.542,1.542,0,1,0,1.556-1.64A1.607,1.607,0,0,0,655.094,156.07Z" transform="translate(-516.695 -152.627)" fill="#f2884b"/>
        <path id="Trazado_99408" data-name="Trazado 99408" d="M645.7,155.957a1.543,1.543,0,1,0,1.557-1.64A1.606,1.606,0,0,0,645.7,155.957Z" transform="translate(-521.141 -152.693)" fill="#f2884b"/>
        <path id="Trazado_99409" data-name="Trazado 99409" d="M636.305,155.844a1.543,1.543,0,1,0,1.556-1.641A1.606,1.606,0,0,0,636.305,155.844Z" transform="translate(-525.586 -152.761)" fill="#f2884b"/>
        <path id="Trazado_99410" data-name="Trazado 99410" d="M626.911,155.73a1.542,1.542,0,1,0,1.556-1.64A1.606,1.606,0,0,0,626.911,155.73Z" transform="translate(-530.031 -152.827)" fill="#f2884b"/>
        <path id="Trazado_99411" data-name="Trazado 99411" d="M617.516,155.617a1.543,1.543,0,1,0,1.557-1.64A1.606,1.606,0,0,0,617.516,155.617Z" transform="translate(-534.477 -152.894)" fill="#f2884b"/>
        <path id="Trazado_99412" data-name="Trazado 99412" d="M608.122,155.5a1.543,1.543,0,1,0,1.556-1.64A1.607,1.607,0,0,0,608.122,155.5Z" transform="translate(-538.922 -152.961)" fill="#f2884b"/>
        <path id="Trazado_99413" data-name="Trazado 99413" d="M598.728,155.39a1.542,1.542,0,1,0,1.556-1.64A1.605,1.605,0,0,0,598.728,155.39Z" transform="translate(-543.368 -153.028)" fill="#f2884b"/>
        <path id="Trazado_99414" data-name="Trazado 99414" d="M589.333,155.277a1.543,1.543,0,1,0,1.557-1.641A1.606,1.606,0,0,0,589.333,155.277Z" transform="translate(-547.813 -153.095)" fill="#f2884b"/>
        <path id="Trazado_99415" data-name="Trazado 99415" d="M579.939,155.163a1.542,1.542,0,1,0,1.556-1.64A1.606,1.606,0,0,0,579.939,155.163Z" transform="translate(-552.259 -153.162)" fill="#f2884b"/>
        <path id="Trazado_99416" data-name="Trazado 99416" d="M570.544,155.05a1.543,1.543,0,1,0,1.557-1.64A1.606,1.606,0,0,0,570.544,155.05Z" transform="translate(-556.705 -153.229)" fill="#f2884b"/>
        <path id="Trazado_99417" data-name="Trazado 99417" d="M561.15,154.936a1.543,1.543,0,1,0,1.556-1.64A1.606,1.606,0,0,0,561.15,154.936Z" transform="translate(-561.15 -153.296)" fill="#f2884b"/>
      </g>
      <g id="Grupo_53331" data-name="Grupo 53331" transform="translate(0 146.078)">
        <path id="Trazado_99418" data-name="Trazado 99418" d="M654.993,164.421a1.543,1.543,0,1,0,1.556-1.64A1.606,1.606,0,0,0,654.993,164.421Z" transform="translate(-516.594 -160.978)" fill="#f2884b"/>
        <path id="Trazado_99419" data-name="Trazado 99419" d="M645.6,164.307a1.542,1.542,0,1,0,1.556-1.64A1.606,1.606,0,0,0,645.6,164.307Z" transform="translate(-521.039 -161.045)" fill="#f2884b"/>
        <path id="Trazado_99420" data-name="Trazado 99420" d="M636.2,164.194a1.543,1.543,0,1,0,1.557-1.64A1.607,1.607,0,0,0,636.2,164.194Z" transform="translate(-525.485 -161.112)" fill="#f2884b"/>
        <path id="Trazado_99421" data-name="Trazado 99421" d="M626.81,164.081a1.542,1.542,0,1,0,1.556-1.641A1.606,1.606,0,0,0,626.81,164.081Z" transform="translate(-529.93 -161.179)" fill="#f2884b"/>
        <path id="Trazado_99422" data-name="Trazado 99422" d="M617.415,163.967a1.543,1.543,0,1,0,1.557-1.64A1.608,1.608,0,0,0,617.415,163.967Z" transform="translate(-534.376 -161.246)" fill="#f2884b"/>
        <path id="Trazado_99423" data-name="Trazado 99423" d="M608.021,163.854a1.543,1.543,0,1,0,1.556-1.64A1.606,1.606,0,0,0,608.021,163.854Z" transform="translate(-538.821 -161.312)" fill="#f2884b"/>
        <path id="Trazado_99424" data-name="Trazado 99424" d="M598.627,163.741a1.542,1.542,0,1,0,1.556-1.641A1.606,1.606,0,0,0,598.627,163.741Z" transform="translate(-543.267 -161.38)" fill="#f2884b"/>
        <path id="Trazado_99425" data-name="Trazado 99425" d="M589.232,163.627a1.543,1.543,0,1,0,1.557-1.64A1.607,1.607,0,0,0,589.232,163.627Z" transform="translate(-547.712 -161.446)" fill="#f2884b"/>
        <path id="Trazado_99426" data-name="Trazado 99426" d="M579.838,163.514a1.543,1.543,0,1,0,1.556-1.641A1.606,1.606,0,0,0,579.838,163.514Z" transform="translate(-552.158 -161.513)" fill="#f2884b"/>
        <path id="Trazado_99427" data-name="Trazado 99427" d="M570.444,163.4A1.542,1.542,0,1,0,572,161.76,1.606,1.606,0,0,0,570.444,163.4Z" transform="translate(-556.603 -161.58)" fill="#f2884b"/>
        <path id="Trazado_99428" data-name="Trazado 99428" d="M561.049,163.287a1.543,1.543,0,1,0,1.557-1.64A1.605,1.605,0,0,0,561.049,163.287Z" transform="translate(-561.049 -161.647)" fill="#f2884b"/>
      </g>
    </g>
  </g>
</svg>
