<svg xmlns="http://www.w3.org/2000/svg" xmlns:xlink="http://www.w3.org/1999/xlink" width="560.795" height="483.084" viewBox="0 0 560.795 483.084">
  <defs>
    <linearGradient id="linear-gradient" x1="1.3" y1="0.615" x2="0.5" y2="1" gradientUnits="objectBoundingBox">
      <stop offset="0" stop-color="#035159"/>
      <stop offset="1" stop-color="#043f45"/>
    </linearGradient>
    <clipPath id="clip-path">
      <path id="Rectángulo_5143" data-name="Rectángulo 5143" d="M0,0H261.63A224.095,224.095,0,0,1,485.724,224.095v0A224.095,224.095,0,0,1,261.63,448.19H224.095A224.095,224.095,0,0,1,0,224.095V0A0,0,0,0,1,0,0Z" stroke="#707070" stroke-width="1" fill="url(#linear-gradient)"/>
    </clipPath>
  </defs>
  <g id="Grupo_74336" data-name="Grupo 74336" transform="translate(0 3)">
    <g id="Grupo_53767" data-name="Grupo 53767" transform="translate(50.371 1.921)">
      <g id="Enmascarar_grupo_44" data-name="Enmascarar grupo 44" transform="translate(0 0)" clip-path="url(#clip-path)">
        <g id="Rectángulo_33355" data-name="Rectángulo 33355" transform="translate(-91.371 -63.037)" fill="#419ca6" stroke="#707070" stroke-width="1">
          <rect width="737" height="561" stroke="none"/>
          <rect x="0.5" y="0.5" width="736" height="560" fill="none"/>
        </g>
        <g id="Grupo_78689" data-name="Grupo 78689" transform="translate(3979.629 3621.963)">
          <g id="Grupo_78688" data-name="Grupo 78688" transform="translate(-4005 -3629)">
            <rect id="Rectángulo_31333" data-name="Rectángulo 31333" width="536" height="462" transform="translate(0)" fill="none" opacity="0.412"/>
            <g id="background" transform="translate(36.325 37.108)">
              <circle id="Elipse_4345" data-name="Elipse 4345" cx="206.204" cy="206.204" r="206.204" transform="translate(0 0)" fill="#77cfd9" opacity="0.255"/>
            </g>
            <g id="Grupo_68378" data-name="Grupo 68378" transform="translate(247.189 34.871)">
              <g id="Grupo_68365" data-name="Grupo 68365">
                <path id="Trazado_134161" data-name="Trazado 134161" d="M800.657,614.727H592.121V314.671H823.569V595.183C823.569,605.977,813.311,614.727,800.657,614.727Z" transform="translate(-592.066 -314.671)" fill="#f7f7f7"/>
                <path id="Trazado_134197" data-name="Trazado 134197" d="M0,0H231.061V13.931H0Z" transform="translate(0 0)" fill="#77cfd9"/>
              </g>
              <g id="Grupo_68367" data-name="Grupo 68367" transform="translate(54.821 161.495)">
                <g id="Grupo_68366" data-name="Grupo 68366">
                  <path id="Trazado_134162" data-name="Trazado 134162" d="M841.557,704.838c3.117,0,3.117-3.523,0-3.523H725.578c-3.117,0-3.117,3.523,0,3.523H841.557Z" transform="translate(-723.24 -701.315)" fill="#5e6178"/>
                </g>
              </g>
              <g id="Grupo_68368" data-name="Grupo 68368" transform="translate(49.571 23.593)">
                <path id="Trazado_134163" data-name="Trazado 134163" d="M791.716,371.155a61.349,61.349,0,0,0-46.492,21.234l46.492,40.285,46.492-40.285A61.351,61.351,0,0,0,791.716,371.155Z" transform="translate(-730.791 -371.155)" fill="#77cfd9"/>
                <path id="Trazado_134164" data-name="Trazado 134164" d="M928.033,496.858l-60.891,8.755v61.52a61.485,61.485,0,0,0,61.52-61.52A62.174,62.174,0,0,0,928.033,496.858Z" transform="translate(-801.786 -444.354)" fill="#f26d3d"/>
                <path id="Trazado_134165" data-name="Trazado 134165" d="M725.168,422.481a61.5,61.5,0,0,0,14.487,91.849l32.551-52.2Z" transform="translate(-710.67 -401.043)" fill="#419ca6"/>
                <path id="Trazado_134166" data-name="Trazado 134166" d="M811.428,579.13a61.232,61.232,0,0,1-33.257-9.77l33.264-51.748Z" transform="translate(-749.977 -456.44)" fill="#f2884b"/>
                <path id="Trazado_134167" data-name="Trazado 134167" d="M935.523,444.787a61.24,61.24,0,0,0-14.4-31.531l-46.492,40.285Z" transform="translate(-806.147 -395.671)" fill="#f26d3d"/>
              </g>
              <g id="Grupo_68373" data-name="Grupo 68373" transform="translate(27.265 180.364)">
                <g id="Grupo_68369" data-name="Grupo 68369" transform="translate(0 30.697)">
                  <rect id="Rectángulo_31715" data-name="Rectángulo 31715" width="22.6" height="54.436" transform="translate(0 21.078)" fill="#f2884b"/>
                  <rect id="Rectángulo_31716" data-name="Rectángulo 31716" width="22.6" height="25.581" fill="#f2884b"/>
                </g>
                <g id="Grupo_68371" data-name="Grupo 68371" transform="translate(99.188 44.817)">
                  <rect id="Rectángulo_31719" data-name="Rectángulo 31719" width="22.6" height="57.505" transform="translate(0 5.116)" fill="#f2884b"/>
                  <rect id="Rectángulo_31720" data-name="Rectángulo 31720" width="22.6" height="38.166" fill="#f2884b"/>
                </g>
                <g id="Grupo_68372" data-name="Grupo 68372" transform="translate(49.594)">
                  <rect id="Rectángulo_31721" data-name="Rectángulo 31721" width="22.6" height="77.228" transform="translate(0 29.904)" fill="#f26d3d"/>
                  <rect id="Rectángulo_31722" data-name="Rectángulo 31722" width="22.6" height="61.77" fill="#f26d3d"/>
                </g>
              </g>
              <g id="Grupo_68377" data-name="Grupo 68377" transform="translate(5.856 4.961)">
                <g id="Grupo_68374" data-name="Grupo 68374">
                  <path id="Trazado_134168" data-name="Trazado 134168" d="M608.983,332.492a2.972,2.972,0,1,1,2.972-2.972A2.975,2.975,0,0,1,608.983,332.492Zm0-5.449a2.477,2.477,0,1,0,2.477,2.476A2.479,2.479,0,0,0,608.983,327.043Z" transform="translate(-606.011 -326.548)" fill="#fff"/>
                </g>
                <g id="Grupo_68375" data-name="Grupo 68375" transform="translate(9.164)">
                  <path id="Trazado_134169" data-name="Trazado 134169" d="M630.922,332.492a2.972,2.972,0,1,1,2.972-2.972A2.975,2.975,0,0,1,630.922,332.492Zm0-5.449a2.477,2.477,0,1,0,2.477,2.476A2.479,2.479,0,0,0,630.922,327.043Z" transform="translate(-627.95 -326.548)" fill="#fff"/>
                </g>
                <g id="Grupo_68376" data-name="Grupo 68376" transform="translate(18.327)">
                  <path id="Trazado_134170" data-name="Trazado 134170" d="M652.861,332.492a2.972,2.972,0,1,1,2.972-2.972A2.975,2.975,0,0,1,652.861,332.492Zm0-5.449a2.477,2.477,0,1,0,2.477,2.476A2.479,2.479,0,0,0,652.861,327.043Z" transform="translate(-649.889 -326.548)" fill="#fff"/>
                </g>
              </g>
            </g>
            <path id="Trazado_134171" data-name="Trazado 134171" d="M413.3,754.749H253.83V508.468H428.1V739.941A14.808,14.808,0,0,1,413.3,754.749Z" transform="translate(-185.576 -328.735)" fill="#2e4661" opacity="0.07"/>
            <g id="Grupo_68380" data-name="Grupo 68380" transform="translate(48.454 161.1)">
              <g id="Grupo_68379" data-name="Grupo 68379">
                <path id="Trazado_134172" data-name="Trazado 134172" d="M376.178,725.224H209.972V467.2H397.755V703.647A21.577,21.577,0,0,1,376.178,725.224Z" transform="translate(-209.972 -467.198)" fill="#f2e9e4"/>
              </g>
              <rect id="Rectángulo_31723" data-name="Rectángulo 31723" width="152.015" height="96.127" transform="translate(19.931 20.603)" fill="#fff"/>
              <path id="Trazado_134173" data-name="Trazado 134173" d="M365.765,556.374a6.353,6.353,0,0,0,3.788,3.13c3.85,1.437,9.024.4,11.243-2.823,3.709-5.388,2.666-13.1,6.657-18.7a13.1,13.1,0,0,1,7-4.945,11.977,11.977,0,0,1,8.844.84c4.221,2.325,5.681,7.129,5.723,11.489a135.807,135.807,0,0,1-2.6,25.294c-.73,4-1.854,8.106-4.752,11.266-3.93,4.285-10.4,6.069-16.592,7.023-15.66,2.414-31.721.938-47.532-.544l-38.153-3.576c-3.585-.336-14.141.206-16.287-2.278-2.1-2.425-.449-10.645.777-13.182,2.729-5.65,10.2-8.839,17.2-8.48,15.806.809,9.558-15.7,14.617-23.535,2.687-4.164,8.606-7.156,13.7-5.421,4.862,1.655,6.892,6.535,9.288,10.584,1.244,2.1,3.011,4.282,5.67,4.736,4.52.773,8.291-3.821,12.893-3.645a7.7,7.7,0,0,1,6.22,4.094C365.078,550.63,364.519,553.861,365.765,556.374Z" transform="translate(-249.537 -502.433)" fill="#f7f7f7"/>
              <path id="Trazado_134174" data-name="Trazado 134174" d="M406.564,624.447c-.007,0,.025-6.918.026-7.3.037-10.325.036-20.65.048-30.974.012-9.865.825-19.727.665-29.567-.071-4.552-2.038-6.932-6.832-5.71a22.16,22.16,0,0,0-12.008,7.869c-2.012,2.618-3.685,5.9-6.814,6.951-5.593,1.885-10.169-4.415-15.191-7.514a15.616,15.616,0,0,0-17.789,1.328c-5.864,4.959-7.209,13.533-12.172,19.394A20.034,20.034,0,0,1,313.447,584c-3.149-1.463-5.856-3.742-8.96-5.3-12.311-6.172-29.426,2.708-31.47,16.327v28.181S406.812,624.7,406.564,624.447Z" transform="translate(-244.554 -512.934)" fill="#f2884b"/>
              <rect id="Rectángulo_31724" data-name="Rectángulo 31724" width="11.426" height="11.426" transform="translate(22.414 131.385)" fill="#5e6178"/>
              <rect id="Rectángulo_31725" data-name="Rectángulo 31725" width="11.426" height="11.426" transform="translate(22.414 148.275)" fill="#5e6178"/>
              <rect id="Rectángulo_31726" data-name="Rectángulo 31726" width="33.284" height="3.477" transform="translate(43.279 134.862)" fill="#f7f7f7"/>
              <rect id="Rectángulo_31727" data-name="Rectángulo 31727" width="33.284" height="3.477" transform="translate(42.782 153.243)" fill="#f7f7f7"/>
              <rect id="Rectángulo_31728" data-name="Rectángulo 31728" width="145.06" height="3.757" transform="translate(23.905 179.184)" fill="#f7f7f7"/>
              <rect id="Rectángulo_31729" data-name="Rectángulo 31729" width="64.581" height="51.479" transform="translate(23.905 190.098)" fill="#77cfd9"/>
              <rect id="Rectángulo_31730" data-name="Rectángulo 31730" width="70.543" height="22.417" transform="translate(98.422 190.595)" fill="#f7f7f7"/>
              <rect id="Rectángulo_31731" data-name="Rectángulo 31731" width="70.543" height="22.417" transform="translate(97.677 218.911)" fill="#f7f7f7"/>
            </g>
            <g id="Grupo_68382" data-name="Grupo 68382" transform="translate(36.325 61.962)">
              <path id="Trazado_134175" data-name="Trazado 134175" d="M279.415,231.015H181.751a.714.714,0,0,0-.681.742v51.737c0,12.755,9.49,23.1,21.2,23.1h40.494l16.557,23.23a.79.79,0,0,0,1.433-.447l.34-22.783h18.325a.714.714,0,0,0,.681-.743V231.757A.714.714,0,0,0,279.415,231.015Z" transform="translate(-181.07 -231.015)" fill="#5e6178"/>
              <g id="Grupo_68381" data-name="Grupo 68381" transform="translate(12.789 12.364)">
                <rect id="Rectángulo_31732" data-name="Rectángulo 31732" width="60.835" height="2.535" fill="#dddae8"/>
                <rect id="Rectángulo_31733" data-name="Rectángulo 31733" width="72.558" height="2.535" transform="translate(0 19.328)" fill="#dddae8"/>
                <rect id="Rectángulo_31734" data-name="Rectángulo 31734" width="72.558" height="2.535" transform="translate(0 38.655)" fill="#dddae8"/>
              </g>
            </g>
            <g id="Grupo_68385" data-name="Grupo 68385" transform="translate(125.773 34.871)">
              <g id="Grupo_68383" data-name="Grupo 68383">
                <path id="Trazado_134176" data-name="Trazado 134176" d="M494.273,209.444H421.834V158.1h67.832l14.527,15.343v25.4C504.193,204.7,499.751,209.444,494.273,209.444Z" transform="translate(-421.834 -158.096)" fill="#f26d3d"/>
                <path id="Trazado_134177" data-name="Trazado 134177" d="M618.986,173.562l-14.584.367V158.1Z" transform="translate(-536.574 -158.096)" fill="#e05b2b"/>
              </g>
              <g id="Grupo_68384" data-name="Grupo 68384" transform="translate(12.545 13.326)">
                <rect id="Rectángulo_31735" data-name="Rectángulo 31735" width="46.212" height="2.201" transform="translate(7.321)" fill="#f7f7f7"/>
                <rect id="Rectángulo_31736" data-name="Rectángulo 31736" width="53.533" height="2.201" transform="translate(0 10.636)" fill="#f7f7f7"/>
                <rect id="Rectángulo_31737" data-name="Rectángulo 31737" width="53.533" height="2.201" transform="translate(0 21.273)" fill="#f7f7f7"/>
              </g>
            </g>
            <g id="Grupo_68389" data-name="Grupo 68389" transform="translate(324.045 215.558)">
              <g id="Grupo_68386" data-name="Grupo 68386" transform="translate(0 57.488)">
                <path id="Trazado_134178" data-name="Trazado 134178" d="M1008.178,566.915a.492.492,0,0,1-.486-.424c-.091-.664-.151-1.339-.178-2.006a.491.491,0,1,1,.982-.039c.025.635.082,1.278.169,1.91a.491.491,0,0,1-.42.554A.517.517,0,0,1,1008.178,566.915Z" transform="translate(-1007.514 -563.974)" fill="#5d66d3"/>
              </g>
              <g id="Grupo_68387" data-name="Grupo 68387" transform="translate(0.22 5.358)">
                <path id="Trazado_134179" data-name="Trazado 134179" d="M1008.678,454.079a.516.516,0,0,1-.074-.006.491.491,0,0,1-.412-.56,23.1,23.1,0,0,1,.947-3.883.492.492,0,0,1,.932.314,22.079,22.079,0,0,0-.907,3.717A.492.492,0,0,1,1008.678,454.079Zm2.458-7.4a.492.492,0,0,1-.437-.717,30.9,30.9,0,0,1,2.054-3.407.492.492,0,0,1,.808.559,29.842,29.842,0,0,0-1.988,3.3A.493.493,0,0,1,1011.136,446.679Zm4.431-6.44a.491.491,0,0,1-.37-.814c.85-.975,1.776-1.935,2.752-2.855a.491.491,0,1,1,.674.716c-.953.9-1.857,1.835-2.685,2.785A.491.491,0,0,1,1015.567,440.239Zm5.69-5.373a.492.492,0,0,1-.3-.878c1.03-.809,2.113-1.586,3.217-2.31a.491.491,0,1,1,.539.822c-1.081.709-2.14,1.469-3.149,2.261A.489.489,0,0,1,1021.257,434.865Zm6.547-4.3a.492.492,0,0,1-.237-.922c1.142-.627,2.325-1.232,3.515-1.8a.492.492,0,0,1,.421.888c-1.173.556-2.338,1.151-3.463,1.77A.489.489,0,0,1,1027.8,430.569Zm7.075-3.359a.492.492,0,0,1-.185-.947c1.2-.488,2.444-.953,3.694-1.383a.491.491,0,0,1,.319.93c-1.233.424-2.458.883-3.644,1.364A.49.49,0,0,1,1034.879,427.21Zm7.4-2.551a.492.492,0,0,1-.136-.964c1.242-.357,2.525-.692,3.813-1a.492.492,0,0,1,.226.957c-1.272.3-2.54.632-3.767.984A.492.492,0,0,1,1042.283,424.659Zm62.666-1.393-.4,0a.491.491,0,0,1-.488-.495.483.483,0,0,1,.5-.488l.391,0c1.215,0,2.387-.043,3.482-.128a.491.491,0,1,1,.076.98C1107.387,423.222,1106.19,423.266,1104.949,423.266Zm-4.31-.151h-.033c-1.169-.076-2.452-.184-3.921-.329a.491.491,0,1,1,.1-.978c1.458.144,2.729.251,3.888.326a.491.491,0,0,1-.031.982Zm-50.735-.26a.492.492,0,0,1-.091-.974c1.266-.24,2.572-.459,3.883-.651a.491.491,0,0,1,.143.973c-1.3.19-2.59.407-3.843.645A.525.525,0,0,1,1049.9,422.855Zm62.447-.232a.492.492,0,0,1-.093-.974,27.255,27.255,0,0,0,3.716-.988.491.491,0,1,1,.321.929,28.251,28.251,0,0,1-3.85,1.024A.507.507,0,0,1,1112.35,422.623Zm-19.512-.249-.054,0-1.167-.127q-1.358-.147-2.724-.28a.492.492,0,0,1,.1-.978q1.371.134,2.735.281l1.167.127a.491.491,0,0,1-.053.98Zm-35.186-.662a.491.491,0,0,1-.052-.98c1.278-.138,2.6-.257,3.919-.354a.492.492,0,0,1,.071.981c-1.311.1-2.617.213-3.884.35A.425.425,0,0,1,1057.652,421.713Zm27.387-.092H1085c-1.316-.105-2.627-.2-3.9-.275a.492.492,0,1,1,.059-.981c1.278.077,2.6.17,3.918.276a.491.491,0,0,1-.039.981Zm-7.822-.47h-.019c-1.318-.051-2.632-.087-3.9-.106a.491.491,0,0,1-.484-.5.485.485,0,0,1,.5-.484c1.281.019,2.6.055,3.928.106a.492.492,0,0,1-.019.983Zm-11.752-.011a.492.492,0,0,1-.02-.983c1.283-.052,2.606-.087,3.931-.1a.5.5,0,0,1,.5.486.492.492,0,0,1-.486.5c-1.315.015-2.628.049-3.9.1Zm54.255-1.091a.492.492,0,0,1-.234-.924,24.982,24.982,0,0,0,3.226-2.079.491.491,0,1,1,.593.783,25.976,25.976,0,0,1-3.353,2.161A.492.492,0,0,1,1119.72,420.048Zm6.237-4.7a.491.491,0,0,1-.347-.839,33.3,33.3,0,0,0,2.563-2.884.492.492,0,0,1,.771.61,34.31,34.31,0,0,1-2.639,2.969A.489.489,0,0,1,1125.957,415.353Zm4.874-6.115a.492.492,0,0,1-.413-.758c.678-1.054,1.336-2.18,1.955-3.347a.492.492,0,1,1,.868.461c-.632,1.191-1.3,2.341-2,3.418A.491.491,0,0,1,1130.832,409.239Z" transform="translate(-1008.186 -404.873)" fill="#5d66d3"/>
              </g>
              <g id="Grupo_68388" data-name="Grupo 68388" transform="translate(126.069)">
                <path id="Trazado_134180" data-name="Trazado 134180" d="M1392.762,391.316a.492.492,0,0,1-.449-.69c.258-.584.513-1.188.758-1.8a.491.491,0,0,1,.912.368c-.249.618-.508,1.232-.77,1.826A.492.492,0,0,1,1392.762,391.316Z" transform="translate(-1392.271 -388.522)" fill="#5d66d3"/>
              </g>
            </g>
            <g id="Grupo_68390" data-name="Grupo 68390" transform="translate(434.078 177.831)">
              <path id="Trazado_134181" data-name="Trazado 134181" d="M1384.146,274.722l-2.053,46.615L1366.7,305.178s17.51-31.763,17.633-31.238l-.672-.561c.518-.148-18.728,30.594-18.728,30.594l-21.6-5.6,39.74-24.453Z" transform="translate(-1343.329 -273.379)" fill="#419ca6"/>
            </g>
            <g id="Grupo_68394" data-name="Grupo 68394" transform="translate(247.189 328.39)">
              <rect id="Rectángulo_31738" data-name="Rectángulo 31738" width="148.217" height="107.151" transform="translate(0 6.217)" fill="#2e4661" opacity="0.07"/>
              <g id="Grupo_68393" data-name="Grupo 68393" transform="translate(5.064)">
                <g id="Grupo_68392" data-name="Grupo 68392">
                  <g id="Grupo_68391" data-name="Grupo 68391">
                    <path id="Trazado_134196" data-name="Trazado 134196" d="M0,0H149.224V107.47H0Z" fill="#77cfd9"/>
                    <rect id="Rectángulo_31740" data-name="Rectángulo 31740" width="149.021" height="8.555" fill="#5e6178"/>
                  </g>
                  <path id="Trazado_134182" data-name="Trazado 134182" d="M1266.429,761.182v-.332h-18.317V742.876h-.332V760.85h-21.959V742.876h-.332V760.85h-21.959V742.876h-.332V760.85H1181.24V742.876h-.331V760.85h-21.959V742.876h-.332V760.85h-21.958V742.876h-.331V760.85h-18.289v.332h18.289v20.309h-18.289v.331h18.289v20.309h-18.289v.331h18.289v20.309h-18.289v.332h18.289V842h.331V823.1h21.958V842h.332V823.1h21.959V842h.331V823.1H1203.2V842h.332V823.1h21.959V842h.332V823.1h21.959V842h.332V823.1h18.317v-.332h-18.317V802.463h18.317v-.331h-18.317V781.823h18.317v-.331h-18.317V761.182Zm-40.939,0v20.309h-21.959V761.182Zm-44.25,20.64H1203.2v20.309H1181.24Zm-.331,20.309h-21.959V781.823h21.959Zm22.622-20.309h21.959v20.309h-21.959Zm-.332-20.64v20.309H1181.24V761.182Zm-22.291,0v20.309h-21.959V761.182Zm-44.25,0h21.958v20.309h-21.958Zm0,20.64h21.958v20.309h-21.958Zm0,40.95V802.463h21.958v20.309Zm22.291,0V802.463h21.959v20.309Zm22.29,0V802.463H1203.2v20.309Zm22.291,0V802.463h21.959v20.309Zm44.25,0h-21.959V802.463h21.959Zm0-20.64h-21.959V781.823h21.959Zm0-20.641h-21.959V761.182h21.959Z" transform="translate(-1117.519 -734.157)" opacity="0.603"/>
                </g>
                <path id="Trazado_134183" data-name="Trazado 134183" d="M1255.46,768.338a4.551,4.551,0,0,0-3.2,7.794l-15.839,13.639-1.2,1.037a4.551,4.551,0,1,0-5.328,7.364l-3.47,8.353-1.479,3.561a4.529,4.529,0,0,0-4.963,2.146l-15.3-9.672-11.338-7.167a4.552,4.552,0,1,0-8.682-.76l-21.459,8.759-2.1.859a4.552,4.552,0,1,0-7.3,5.121l-3.187,3.617L1135.4,830.258a4.581,4.581,0,1,0,1.18,1.164l12.989-14.744,5.637-6.4a4.55,4.55,0,0,0,6.266-4.217c0-.061-.007-.121-.009-.182l.31-.127,23.511-9.6a4.542,4.542,0,0,0,7.169.637l10.283,6.5,16.682,10.544a4.55,4.55,0,1,0,7.038-3.1l4.957-11.935a4.549,4.549,0,0,0,5.51-4.451,4.532,4.532,0,0,0-.623-2.292l2.8-2.413,12-10.334,2.589-2.229a4.553,4.553,0,1,0,1.77-8.749Z" transform="translate(-1122.294 -746.006)" fill="#dddae8"/>
              </g>
            </g>
            <g id="Grupo_68405" data-name="Grupo 68405" transform="translate(268.048 161.1)">
              <g id="Grupo_68403" data-name="Grupo 68403">
                <g id="Grupo_68401" data-name="Grupo 68401">
                  <g id="Grupo_68398" data-name="Grupo 68398">
                    <g id="Grupo_68396" data-name="Grupo 68396" transform="translate(116.912 97.049)">
                      <g id="Grupo_68395" data-name="Grupo 68395">
                        <path id="Trazado_134184" data-name="Trazado 134184" d="M1269.885,557.63l-10.944,17.529-62.1-39.12,10.944-17.529Z" transform="translate(-1196.844 -518.51)" fill="#f7f7f7"/>
                        <path id="Trazado_134185" data-name="Trazado 134185" d="M1358.745,623.483l-.126.2c-3.452,5.529-9.612,7.913-13.759,5.324l-47.666-29.258,12.526-21.066,47.767,30.1C1361.634,611.372,1362.2,617.953,1358.745,623.483Z" transform="translate(-1264.314 -558.968)" fill="#353a85"/>
                      </g>
                      <path id="Trazado_134186" data-name="Trazado 134186" d="M1210.1,540.3l3.006,2.189,27.21-7.063-22.672-14.466Z" transform="translate(-1205.759 -520.157)" fill="#bbbcbf" opacity="0.2" style="mix-blend-mode: multiply;isolation: isolate"/>
                    </g>
                    <g id="Grupo_68397" data-name="Grupo 68397">
                      <path id="Trazado_134187" data-name="Trazado 134187" d="M976.276,272.859a62.2,62.2,0,1,0,19.823,85.7A62.2,62.2,0,0,0,976.276,272.859Zm12.45,81.1a53.509,53.509,0,1,1-17.053-73.727A53.509,53.509,0,0,1,988.726,353.96Z" transform="translate(-867.662 -249.949)" fill="#5e6178"/>
                      <circle id="Elipse_4346" data-name="Elipse 4346" cx="53.509" cy="53.509" r="53.509" transform="translate(0 75.674) rotate(-45)" fill="#d1e7f5" opacity="0.5"/>
                    </g>
                  </g>
                  <g id="Grupo_68400" data-name="Grupo 68400" transform="translate(29.632 27.412)">
                    <g id="Grupo_68399" data-name="Grupo 68399" opacity="0.22">
                      <path id="Trazado_134188" data-name="Trazado 134188" d="M937.951,352.087a37.685,37.685,0,0,1,70.235-19.978c2.435,4.154,9.057.683,6.618-3.477a45.723,45.723,0,0,0-48.882-21.656c-18.944,4.032-32.922,20.314-35.2,39.345a41.243,41.243,0,0,0-.246,5.549c.074,4.8,7.548,5.053,7.473.218Z" transform="translate(-930.47 -305.98)" fill="#fff"/>
                    </g>
                    <circle id="Elipse_4347" data-name="Elipse 4347" cx="4.923" cy="4.923" r="4.923" transform="translate(80.753 33.38) rotate(-7.528)" fill="#fff" opacity="0.31"/>
                  </g>
                </g>
                <path id="Trazado_134189" data-name="Trazado 134189" d="M1293.112,594.565l11.918-20.043a1.561,1.561,0,0,0-.412-2.052l-.209-.155a1.561,1.561,0,0,0-2.278.47l-11.736,20.183a1.561,1.561,0,0,0,.591,2.149l.027.015A1.561,1.561,0,0,0,1293.112,594.565Z" transform="translate(-1142.687 -457.43)" fill="#d67086"/>
                <g id="Grupo_68402" data-name="Grupo 68402" transform="translate(19.147 20.265)">
                  <path id="Trazado_134190" data-name="Trazado 134190" d="M1007.2,339.96a52.954,52.954,0,1,1-7.1-26.509,53.355,53.355,0,0,1,7.1,26.509,1.424,1.424,0,0,0,2.847,0,55.8,55.8,0,1,0-17.683,40.75,56.427,56.427,0,0,0,17.683-40.75A1.424,1.424,0,0,0,1007.2,339.96Z" transform="translate(-898.471 -284.168)" fill="#f7f7f7"/>
                </g>
              </g>
              <path id="Trazado_134191" data-name="Trazado 134191" d="M1351.605,601.275c2.011-5.279,4.924-15.714,6.6-20.78-3.669-12.341-11.22-32.954-12-33.181-4.576-1.325-8.656-2.537-13.218-3.855-.211-.061-1.549,6.764-1.76,6.7a9.736,9.736,0,0,1-.293-2.972v0l-.879-8.871a1.674,1.674,0,0,0-1.253-1.564c-2.673-.694-8.446-2.049-8.7-1.63-.093.154-.591,7.855-1.006,10.055l-.964-.5-1.257-14.37s-9.984-2.516-10.18-2.053c-.23.544-2.451,12.736-2.451,12.736s-3.862,29.094-4.3,31.162c-.642,3.029-2.667,5.744-2.375,8.764.326,3.373,1.8,6.5,3.261,9.575l10.568,22.241c.769,5.032,1.575,16.559,2.732,21.513,13.028-2.629,26.114-4.618,40.614-9.233C1355.152,624.88,1350.738,603.551,1351.605,601.275Z" transform="translate(-1147.633 -427.973)" fill="#eac5b0"/>
              <g id="Grupo_68404" data-name="Grupo 68404" transform="translate(155.34 179.48)">
                <path id="Trazado_134192" data-name="Trazado 134192" d="M1331.072,815.82l-3.008-26.445,52.085-19.287,9.055,32.241-57.955,17.3Z" transform="translate(-1323.497 -770.088)" fill="#f7f7f7"/>
                <path id="Trazado_134193" data-name="Trazado 134193" d="M1381.835,817.74s-53.573,30.615-64.651,33.514l-3.059,72.077h91.089Z" transform="translate(-1314.125 -802.126)" fill="#aed3f2"/>
                <path id="Trazado_134194" data-name="Trazado 134194" d="M1349.861,854.145a2.969,2.969,0,1,1-2.109-3.631A2.97,2.97,0,0,1,1349.861,854.145Z" transform="translate(-1334.225 -824.094)" fill="#292949"/>
              </g>
              <path id="Trazado_134195" data-name="Trazado 134195" d="M1253.022,638.423l-6.948-10.957-10.057-9.366s-1.955-5.646,4.348-5.8,10.543,5.113,13.334,9.295c1.227,1.84,7.156,7.192,11.759,10.467,6.021,4.284-.269,23.146-.269,23.146S1253.719,639.469,1253.022,638.423Z" transform="translate(-1106.077 -484.517)" fill="#eac5b0"/>
            </g>
          </g>
        </g>
      </g>
    </g>
    <path id="Rectángulo_5165" data-name="Rectángulo 5165" d="M0,0H89.308a33,33,0,0,1,33,33v3.869a33,33,0,0,1-33,33H33a33,33,0,0,1-33-33V0A0,0,0,0,1,0,0Z" transform="translate(438.487 400.801)" fill="#fad9c5"/>
    <path id="Rectángulo_5166" data-name="Rectángulo 5166" d="M17.515,0h0A17.515,17.515,0,0,1,35.03,17.515V73.521a0,0,0,0,1,0,0H17.515A17.515,17.515,0,0,1,0,56.006V17.515A17.515,17.515,0,0,1,17.515,0Z" transform="translate(0 -3)" fill="#fad9c5"/>
    <g id="Grupo_74272" data-name="Grupo 74272" transform="translate(0 328.883)">
      <g id="Grupo_53320" data-name="Grupo 53320" transform="translate(1.634)">
        <path id="Trazado_99297" data-name="Trazado 99297" d="M656.1,72.565a1.542,1.542,0,1,0,1.556-1.641A1.605,1.605,0,0,0,656.1,72.565Z" transform="translate(-517.703 -69.122)" fill="#f2884b"/>
        <path id="Trazado_99298" data-name="Trazado 99298" d="M646.707,72.451a1.543,1.543,0,1,0,1.557-1.64A1.607,1.607,0,0,0,646.707,72.451Z" transform="translate(-522.149 -69.189)" fill="#f2884b"/>
        <path id="Trazado_99299" data-name="Trazado 99299" d="M637.313,72.338a1.542,1.542,0,1,0,1.556-1.64A1.606,1.606,0,0,0,637.313,72.338Z" transform="translate(-526.594 -69.256)" fill="#f2884b"/>
        <path id="Trazado_99300" data-name="Trazado 99300" d="M627.919,72.225a1.542,1.542,0,1,0,1.556-1.641A1.605,1.605,0,0,0,627.919,72.225Z" transform="translate(-531.039 -69.323)" fill="#f2884b"/>
        <path id="Trazado_99301" data-name="Trazado 99301" d="M618.524,72.111a1.543,1.543,0,1,0,1.557-1.64A1.607,1.607,0,0,0,618.524,72.111Z" transform="translate(-535.485 -69.39)" fill="#f2884b"/>
        <path id="Trazado_99302" data-name="Trazado 99302" d="M609.13,72a1.542,1.542,0,1,0,1.556-1.64A1.6,1.6,0,0,0,609.13,72Z" transform="translate(-539.93 -69.456)" fill="#f2884b"/>
        <path id="Trazado_99303" data-name="Trazado 99303" d="M599.735,71.884a1.543,1.543,0,1,0,1.557-1.64A1.607,1.607,0,0,0,599.735,71.884Z" transform="translate(-544.376 -69.524)" fill="#f2884b"/>
        <path id="Trazado_99304" data-name="Trazado 99304" d="M590.341,71.771a1.543,1.543,0,1,0,1.556-1.64A1.606,1.606,0,0,0,590.341,71.771Z" transform="translate(-548.821 -69.59)" fill="#f2884b"/>
        <path id="Trazado_99305" data-name="Trazado 99305" d="M580.947,71.658a1.542,1.542,0,1,0,1.556-1.641A1.605,1.605,0,0,0,580.947,71.658Z" transform="translate(-553.267 -69.658)" fill="#f2884b"/>
        <path id="Trazado_99306" data-name="Trazado 99306" d="M571.552,71.544a1.543,1.543,0,1,0,1.557-1.64A1.607,1.607,0,0,0,571.552,71.544Z" transform="translate(-557.713 -69.724)" fill="#f2884b"/>
        <path id="Trazado_99307" data-name="Trazado 99307" d="M562.158,71.431a1.542,1.542,0,1,0,1.556-1.64A1.605,1.605,0,0,0,562.158,71.431Z" transform="translate(-562.158 -69.791)" fill="#f2884b"/>
      </g>
      <g id="Grupo_53321" data-name="Grupo 53321" transform="translate(1.485 13.279)">
        <path id="Trazado_99308" data-name="Trazado 99308" d="M656,80.915a1.543,1.543,0,1,0,1.556-1.64A1.607,1.607,0,0,0,656,80.915Z" transform="translate(-517.602 -77.472)" fill="#f2884b"/>
        <path id="Trazado_99309" data-name="Trazado 99309" d="M646.606,80.8a1.543,1.543,0,1,0,1.557-1.64A1.607,1.607,0,0,0,646.606,80.8Z" transform="translate(-522.048 -77.538)" fill="#f2884b"/>
        <path id="Trazado_99310" data-name="Trazado 99310" d="M637.212,80.688a1.543,1.543,0,1,0,1.556-1.64A1.607,1.607,0,0,0,637.212,80.688Z" transform="translate(-526.493 -77.606)" fill="#f2884b"/>
        <path id="Trazado_99311" data-name="Trazado 99311" d="M627.818,80.575a1.542,1.542,0,1,0,1.556-1.64A1.605,1.605,0,0,0,627.818,80.575Z" transform="translate(-530.938 -77.672)" fill="#f2884b"/>
        <path id="Trazado_99312" data-name="Trazado 99312" d="M618.423,80.462a1.543,1.543,0,1,0,1.557-1.641A1.607,1.607,0,0,0,618.423,80.462Z" transform="translate(-535.384 -77.74)" fill="#f2884b"/>
        <path id="Trazado_99313" data-name="Trazado 99313" d="M609.029,80.348a1.543,1.543,0,1,0,1.556-1.64A1.607,1.607,0,0,0,609.029,80.348Z" transform="translate(-539.829 -77.806)" fill="#f2884b"/>
        <path id="Trazado_99314" data-name="Trazado 99314" d="M599.635,80.235a1.542,1.542,0,1,0,1.556-1.64A1.605,1.605,0,0,0,599.635,80.235Z" transform="translate(-544.275 -77.873)" fill="#f2884b"/>
        <path id="Trazado_99315" data-name="Trazado 99315" d="M590.24,80.121a1.543,1.543,0,1,0,1.557-1.64A1.607,1.607,0,0,0,590.24,80.121Z" transform="translate(-548.721 -77.94)" fill="#f2884b"/>
        <path id="Trazado_99316" data-name="Trazado 99316" d="M580.846,80.008a1.542,1.542,0,1,0,1.556-1.64A1.607,1.607,0,0,0,580.846,80.008Z" transform="translate(-553.166 -78.007)" fill="#f2884b"/>
        <path id="Trazado_99317" data-name="Trazado 99317" d="M571.451,79.9a1.543,1.543,0,1,0,1.557-1.641A1.606,1.606,0,0,0,571.451,79.9Z" transform="translate(-557.612 -78.074)" fill="#f2884b"/>
        <path id="Trazado_99318" data-name="Trazado 99318" d="M562.057,79.781a1.543,1.543,0,1,0,1.556-1.64A1.607,1.607,0,0,0,562.057,79.781Z" transform="translate(-562.057 -78.141)" fill="#f2884b"/>
      </g>
      <g id="Grupo_53322" data-name="Grupo 53322" transform="translate(1.336 26.56)">
        <path id="Trazado_99319" data-name="Trazado 99319" d="M655.9,89.266a1.543,1.543,0,1,0,1.557-1.64A1.606,1.606,0,0,0,655.9,89.266Z" transform="translate(-517.501 -85.823)" fill="#f2884b"/>
        <path id="Trazado_99320" data-name="Trazado 99320" d="M646.506,89.152a1.542,1.542,0,1,0,1.556-1.64A1.606,1.606,0,0,0,646.506,89.152Z" transform="translate(-521.946 -85.89)" fill="#f2884b"/>
        <path id="Trazado_99321" data-name="Trazado 99321" d="M637.111,89.039a1.543,1.543,0,1,0,1.557-1.64A1.606,1.606,0,0,0,637.111,89.039Z" transform="translate(-526.392 -85.956)" fill="#f2884b"/>
        <path id="Trazado_99322" data-name="Trazado 99322" d="M627.717,88.926a1.543,1.543,0,1,0,1.556-1.641A1.606,1.606,0,0,0,627.717,88.926Z" transform="translate(-530.837 -86.024)" fill="#f2884b"/>
        <path id="Trazado_99323" data-name="Trazado 99323" d="M618.323,88.812a1.542,1.542,0,1,0,1.556-1.64A1.606,1.606,0,0,0,618.323,88.812Z" transform="translate(-535.282 -86.091)" fill="#f2884b"/>
        <path id="Trazado_99324" data-name="Trazado 99324" d="M608.928,88.7a1.543,1.543,0,1,0,1.557-1.64A1.606,1.606,0,0,0,608.928,88.7Z" transform="translate(-539.728 -86.157)" fill="#f2884b"/>
        <path id="Trazado_99325" data-name="Trazado 99325" d="M599.534,88.585a1.542,1.542,0,1,0,1.556-1.64A1.607,1.607,0,0,0,599.534,88.585Z" transform="translate(-544.174 -86.225)" fill="#f2884b"/>
        <path id="Trazado_99326" data-name="Trazado 99326" d="M590.139,88.472a1.543,1.543,0,1,0,1.557-1.64A1.6,1.6,0,0,0,590.139,88.472Z" transform="translate(-548.619 -86.291)" fill="#f2884b"/>
        <path id="Trazado_99327" data-name="Trazado 99327" d="M580.745,88.359a1.543,1.543,0,1,0,1.556-1.641A1.606,1.606,0,0,0,580.745,88.359Z" transform="translate(-553.065 -86.359)" fill="#f2884b"/>
        <path id="Trazado_99328" data-name="Trazado 99328" d="M571.351,88.245a1.542,1.542,0,1,0,1.556-1.64A1.606,1.606,0,0,0,571.351,88.245Z" transform="translate(-557.51 -86.425)" fill="#f2884b"/>
        <path id="Trazado_99329" data-name="Trazado 99329" d="M561.956,88.132a1.543,1.543,0,1,0,1.557-1.64A1.606,1.606,0,0,0,561.956,88.132Z" transform="translate(-561.956 -86.492)" fill="#f2884b"/>
      </g>
      <g id="Grupo_53323" data-name="Grupo 53323" transform="translate(1.187 39.839)">
        <path id="Trazado_99330" data-name="Trazado 99330" d="M655.8,97.616a1.543,1.543,0,1,0,1.557-1.64A1.607,1.607,0,0,0,655.8,97.616Z" transform="translate(-517.4 -94.173)" fill="#f2884b"/>
        <path id="Trazado_99331" data-name="Trazado 99331" d="M646.4,97.5a1.543,1.543,0,1,0,1.556-1.64A1.606,1.606,0,0,0,646.4,97.5Z" transform="translate(-521.845 -94.239)" fill="#f2884b"/>
        <path id="Trazado_99332" data-name="Trazado 99332" d="M637.01,97.39a1.543,1.543,0,1,0,1.557-1.641A1.607,1.607,0,0,0,637.01,97.39Z" transform="translate(-526.291 -94.307)" fill="#f2884b"/>
        <path id="Trazado_99333" data-name="Trazado 99333" d="M627.616,97.276a1.543,1.543,0,1,0,1.557-1.64A1.607,1.607,0,0,0,627.616,97.276Z" transform="translate(-530.736 -94.373)" fill="#f2884b"/>
        <path id="Trazado_99334" data-name="Trazado 99334" d="M618.222,97.163a1.542,1.542,0,1,0,1.556-1.64A1.606,1.606,0,0,0,618.222,97.163Z" transform="translate(-535.181 -94.44)" fill="#f2884b"/>
        <path id="Trazado_99335" data-name="Trazado 99335" d="M608.827,97.049a1.543,1.543,0,1,0,1.557-1.64A1.607,1.607,0,0,0,608.827,97.049Z" transform="translate(-539.627 -94.507)" fill="#f2884b"/>
        <path id="Trazado_99336" data-name="Trazado 99336" d="M599.433,96.936a1.543,1.543,0,1,0,1.556-1.64A1.605,1.605,0,0,0,599.433,96.936Z" transform="translate(-544.073 -94.574)" fill="#f2884b"/>
        <path id="Trazado_99337" data-name="Trazado 99337" d="M590.039,96.823a1.542,1.542,0,1,0,1.556-1.641A1.605,1.605,0,0,0,590.039,96.823Z" transform="translate(-548.518 -94.641)" fill="#f2884b"/>
        <path id="Trazado_99338" data-name="Trazado 99338" d="M580.644,96.709a1.543,1.543,0,1,0,1.557-1.64A1.607,1.607,0,0,0,580.644,96.709Z" transform="translate(-552.964 -94.708)" fill="#f2884b"/>
        <path id="Trazado_99339" data-name="Trazado 99339" d="M571.25,96.6a1.542,1.542,0,1,0,1.556-1.64A1.606,1.606,0,0,0,571.25,96.6Z" transform="translate(-557.409 -94.775)" fill="#f2884b"/>
        <path id="Trazado_99340" data-name="Trazado 99340" d="M561.855,96.482a1.543,1.543,0,1,0,1.557-1.64A1.607,1.607,0,0,0,561.855,96.482Z" transform="translate(-561.855 -94.842)" fill="#f2884b"/>
      </g>
      <g id="Grupo_53324" data-name="Grupo 53324" transform="translate(1.04 53.119)">
        <path id="Trazado_99341" data-name="Trazado 99341" d="M655.7,105.967a1.542,1.542,0,1,0,1.556-1.64A1.605,1.605,0,0,0,655.7,105.967Z" transform="translate(-517.3 -102.524)" fill="#f2884b"/>
        <path id="Trazado_99342" data-name="Trazado 99342" d="M646.3,105.854a1.543,1.543,0,1,0,1.557-1.641A1.606,1.606,0,0,0,646.3,105.854Z" transform="translate(-521.745 -102.591)" fill="#f2884b"/>
        <path id="Trazado_99343" data-name="Trazado 99343" d="M636.91,105.74a1.542,1.542,0,1,0,1.556-1.64A1.6,1.6,0,0,0,636.91,105.74Z" transform="translate(-526.191 -102.658)" fill="#f2884b"/>
        <path id="Trazado_99344" data-name="Trazado 99344" d="M627.515,105.627a1.543,1.543,0,1,0,1.557-1.641A1.606,1.606,0,0,0,627.515,105.627Z" transform="translate(-530.637 -102.725)" fill="#f2884b"/>
        <path id="Trazado_99345" data-name="Trazado 99345" d="M618.121,105.513a1.543,1.543,0,1,0,1.556-1.64A1.607,1.607,0,0,0,618.121,105.513Z" transform="translate(-535.082 -102.792)" fill="#f2884b"/>
        <path id="Trazado_99346" data-name="Trazado 99346" d="M608.727,105.4a1.542,1.542,0,1,0,1.556-1.64A1.605,1.605,0,0,0,608.727,105.4Z" transform="translate(-539.527 -102.858)" fill="#f2884b"/>
        <path id="Trazado_99347" data-name="Trazado 99347" d="M599.332,105.287a1.543,1.543,0,1,0,1.557-1.641A1.606,1.606,0,0,0,599.332,105.287Z" transform="translate(-543.973 -102.926)" fill="#f2884b"/>
        <path id="Trazado_99348" data-name="Trazado 99348" d="M589.938,105.173a1.542,1.542,0,1,0,1.556-1.64A1.607,1.607,0,0,0,589.938,105.173Z" transform="translate(-548.419 -102.992)" fill="#f2884b"/>
        <path id="Trazado_99349" data-name="Trazado 99349" d="M580.543,105.06a1.543,1.543,0,1,0,1.557-1.64A1.606,1.606,0,0,0,580.543,105.06Z" transform="translate(-552.864 -103.059)" fill="#f2884b"/>
        <path id="Trazado_99350" data-name="Trazado 99350" d="M571.149,104.947a1.543,1.543,0,1,0,1.556-1.641A1.606,1.606,0,0,0,571.149,104.947Z" transform="translate(-557.31 -103.126)" fill="#f2884b"/>
        <path id="Trazado_99351" data-name="Trazado 99351" d="M561.755,104.833a1.542,1.542,0,1,0,1.556-1.64A1.6,1.6,0,0,0,561.755,104.833Z" transform="translate(-561.755 -103.193)" fill="#f2884b"/>
      </g>
      <g id="Grupo_53325" data-name="Grupo 53325" transform="translate(0.891 66.398)">
        <path id="Trazado_99352" data-name="Trazado 99352" d="M655.6,114.317a1.542,1.542,0,1,0,1.556-1.64A1.607,1.607,0,0,0,655.6,114.317Z" transform="translate(-517.199 -110.873)" fill="#f2884b"/>
        <path id="Trazado_99353" data-name="Trazado 99353" d="M646.2,114.2a1.543,1.543,0,1,0,1.557-1.64A1.607,1.607,0,0,0,646.2,114.2Z" transform="translate(-521.645 -110.94)" fill="#f2884b"/>
        <path id="Trazado_99354" data-name="Trazado 99354" d="M636.809,114.091a1.543,1.543,0,1,0,1.556-1.641A1.606,1.606,0,0,0,636.809,114.091Z" transform="translate(-526.09 -111.008)" fill="#f2884b"/>
        <path id="Trazado_99355" data-name="Trazado 99355" d="M627.415,113.977a1.542,1.542,0,1,0,1.556-1.64A1.606,1.606,0,0,0,627.415,113.977Z" transform="translate(-530.535 -111.074)" fill="#f2884b"/>
        <path id="Trazado_99356" data-name="Trazado 99356" d="M618.02,113.864a1.543,1.543,0,1,0,1.557-1.64A1.606,1.606,0,0,0,618.02,113.864Z" transform="translate(-534.981 -111.141)" fill="#f2884b"/>
        <path id="Trazado_99357" data-name="Trazado 99357" d="M608.626,113.751a1.542,1.542,0,1,0,1.556-1.641A1.606,1.606,0,0,0,608.626,113.751Z" transform="translate(-539.426 -111.208)" fill="#f2884b"/>
        <path id="Trazado_99358" data-name="Trazado 99358" d="M599.231,113.637a1.543,1.543,0,1,0,1.557-1.64A1.608,1.608,0,0,0,599.231,113.637Z" transform="translate(-543.872 -111.275)" fill="#f2884b"/>
        <path id="Trazado_99359" data-name="Trazado 99359" d="M589.837,113.524a1.543,1.543,0,1,0,1.556-1.64A1.606,1.606,0,0,0,589.837,113.524Z" transform="translate(-548.318 -111.342)" fill="#f2884b"/>
        <path id="Trazado_99360" data-name="Trazado 99360" d="M580.443,113.41A1.542,1.542,0,1,0,582,111.77,1.605,1.605,0,0,0,580.443,113.41Z" transform="translate(-552.763 -111.409)" fill="#f2884b"/>
        <path id="Trazado_99361" data-name="Trazado 99361" d="M571.048,113.3a1.543,1.543,0,1,0,1.557-1.64A1.607,1.607,0,0,0,571.048,113.3Z" transform="translate(-557.209 -111.476)" fill="#f2884b"/>
        <path id="Trazado_99362" data-name="Trazado 99362" d="M561.654,113.184a1.542,1.542,0,1,0,1.556-1.641A1.606,1.606,0,0,0,561.654,113.184Z" transform="translate(-561.654 -111.543)" fill="#f2884b"/>
      </g>
      <g id="Grupo_53326" data-name="Grupo 53326" transform="translate(0.742 79.679)">
        <path id="Trazado_99363" data-name="Trazado 99363" d="M655.5,122.668a1.543,1.543,0,1,0,1.556-1.64A1.606,1.606,0,0,0,655.5,122.668Z" transform="translate(-517.098 -119.225)" fill="#f2884b"/>
        <path id="Trazado_99364" data-name="Trazado 99364" d="M646.1,122.555a1.542,1.542,0,1,0,1.556-1.641A1.605,1.605,0,0,0,646.1,122.555Z" transform="translate(-521.543 -119.292)" fill="#f2884b"/>
        <path id="Trazado_99365" data-name="Trazado 99365" d="M636.708,122.441a1.543,1.543,0,1,0,1.557-1.64A1.607,1.607,0,0,0,636.708,122.441Z" transform="translate(-525.989 -119.359)" fill="#f2884b"/>
        <path id="Trazado_99366" data-name="Trazado 99366" d="M627.314,122.328a1.542,1.542,0,1,0,1.556-1.64A1.605,1.605,0,0,0,627.314,122.328Z" transform="translate(-530.434 -119.425)" fill="#f2884b"/>
        <path id="Trazado_99367" data-name="Trazado 99367" d="M617.919,122.214a1.543,1.543,0,1,0,1.557-1.64A1.607,1.607,0,0,0,617.919,122.214Z" transform="translate(-534.88 -119.493)" fill="#f2884b"/>
        <path id="Trazado_99368" data-name="Trazado 99368" d="M608.525,122.1a1.543,1.543,0,1,0,1.556-1.64A1.6,1.6,0,0,0,608.525,122.1Z" transform="translate(-539.325 -119.559)" fill="#f2884b"/>
        <path id="Trazado_99369" data-name="Trazado 99369" d="M599.131,121.988a1.542,1.542,0,1,0,1.556-1.64A1.605,1.605,0,0,0,599.131,121.988Z" transform="translate(-543.771 -119.626)" fill="#f2884b"/>
        <path id="Trazado_99370" data-name="Trazado 99370" d="M589.736,121.874a1.543,1.543,0,1,0,1.557-1.64A1.607,1.607,0,0,0,589.736,121.874Z" transform="translate(-548.216 -119.693)" fill="#f2884b"/>
        <path id="Trazado_99371" data-name="Trazado 99371" d="M580.342,121.761a1.542,1.542,0,1,0,1.556-1.64A1.606,1.606,0,0,0,580.342,121.761Z" transform="translate(-552.662 -119.76)" fill="#f2884b"/>
        <path id="Trazado_99372" data-name="Trazado 99372" d="M570.947,121.648a1.543,1.543,0,1,0,1.557-1.641A1.606,1.606,0,0,0,570.947,121.648Z" transform="translate(-557.108 -119.827)" fill="#f2884b"/>
        <path id="Trazado_99373" data-name="Trazado 99373" d="M561.553,121.534a1.543,1.543,0,1,0,1.556-1.64A1.607,1.607,0,0,0,561.553,121.534Z" transform="translate(-561.553 -119.894)" fill="#f2884b"/>
      </g>
      <g id="Grupo_53327" data-name="Grupo 53327" transform="translate(0.594 92.959)">
        <path id="Trazado_99374" data-name="Trazado 99374" d="M655.4,131.019a1.543,1.543,0,1,0,1.557-1.641A1.606,1.606,0,0,0,655.4,131.019Z" transform="translate(-516.997 -127.576)" fill="#f2884b"/>
        <path id="Trazado_99375" data-name="Trazado 99375" d="M646,130.9a1.542,1.542,0,1,0,1.556-1.64A1.607,1.607,0,0,0,646,130.9Z" transform="translate(-521.442 -127.643)" fill="#f2884b"/>
        <path id="Trazado_99376" data-name="Trazado 99376" d="M636.607,130.792a1.543,1.543,0,1,0,1.557-1.64A1.607,1.607,0,0,0,636.607,130.792Z" transform="translate(-525.888 -127.71)" fill="#f2884b"/>
        <path id="Trazado_99377" data-name="Trazado 99377" d="M627.213,130.678a1.543,1.543,0,1,0,1.556-1.64A1.607,1.607,0,0,0,627.213,130.678Z" transform="translate(-530.333 -127.777)" fill="#f2884b"/>
        <path id="Trazado_99378" data-name="Trazado 99378" d="M617.819,130.565a1.542,1.542,0,1,0,1.556-1.64A1.606,1.606,0,0,0,617.819,130.565Z" transform="translate(-534.779 -127.844)" fill="#f2884b"/>
        <path id="Trazado_99379" data-name="Trazado 99379" d="M608.424,130.452a1.543,1.543,0,1,0,1.557-1.641A1.606,1.606,0,0,0,608.424,130.452Z" transform="translate(-539.224 -127.911)" fill="#f2884b"/>
        <path id="Trazado_99380" data-name="Trazado 99380" d="M599.03,130.338a1.543,1.543,0,1,0,1.556-1.64A1.607,1.607,0,0,0,599.03,130.338Z" transform="translate(-543.67 -127.978)" fill="#f2884b"/>
        <path id="Trazado_99381" data-name="Trazado 99381" d="M589.635,130.225a1.543,1.543,0,1,0,1.557-1.64A1.607,1.607,0,0,0,589.635,130.225Z" transform="translate(-548.116 -128.044)" fill="#f2884b"/>
        <path id="Trazado_99382" data-name="Trazado 99382" d="M580.241,130.111a1.543,1.543,0,1,0,1.556-1.64A1.607,1.607,0,0,0,580.241,130.111Z" transform="translate(-552.561 -128.112)" fill="#f2884b"/>
        <path id="Trazado_99383" data-name="Trazado 99383" d="M570.847,130a1.542,1.542,0,1,0,1.556-1.64A1.606,1.606,0,0,0,570.847,130Z" transform="translate(-557.006 -128.178)" fill="#f2884b"/>
        <path id="Trazado_99384" data-name="Trazado 99384" d="M561.452,129.885a1.543,1.543,0,1,0,1.557-1.64A1.606,1.606,0,0,0,561.452,129.885Z" transform="translate(-561.452 -128.245)" fill="#f2884b"/>
      </g>
      <g id="Grupo_53328" data-name="Grupo 53328" transform="translate(0.445 106.238)">
        <path id="Trazado_99385" data-name="Trazado 99385" d="M655.295,139.369a1.543,1.543,0,1,0,1.557-1.64A1.6,1.6,0,0,0,655.295,139.369Z" transform="translate(-516.896 -135.926)" fill="#f2884b"/>
        <path id="Trazado_99386" data-name="Trazado 99386" d="M645.9,139.256a1.543,1.543,0,1,0,1.555-1.64A1.606,1.606,0,0,0,645.9,139.256Z" transform="translate(-521.341 -135.992)" fill="#f2884b"/>
        <path id="Trazado_99387" data-name="Trazado 99387" d="M636.507,139.142a1.542,1.542,0,1,0,1.556-1.64A1.606,1.606,0,0,0,636.507,139.142Z" transform="translate(-525.786 -136.06)" fill="#f2884b"/>
        <path id="Trazado_99388" data-name="Trazado 99388" d="M627.112,139.029a1.543,1.543,0,1,0,1.557-1.64A1.605,1.605,0,0,0,627.112,139.029Z" transform="translate(-530.232 -136.126)" fill="#f2884b"/>
        <path id="Trazado_99389" data-name="Trazado 99389" d="M617.718,138.916a1.542,1.542,0,1,0,1.556-1.641A1.606,1.606,0,0,0,617.718,138.916Z" transform="translate(-534.678 -136.193)" fill="#f2884b"/>
        <path id="Trazado_99390" data-name="Trazado 99390" d="M608.323,138.8a1.543,1.543,0,1,0,1.557-1.64A1.607,1.607,0,0,0,608.323,138.8Z" transform="translate(-539.123 -136.26)" fill="#f2884b"/>
        <path id="Trazado_99391" data-name="Trazado 99391" d="M598.929,138.689a1.543,1.543,0,1,0,1.557-1.64A1.606,1.606,0,0,0,598.929,138.689Z" transform="translate(-543.568 -136.327)" fill="#f2884b"/>
        <path id="Trazado_99392" data-name="Trazado 99392" d="M589.535,138.576a1.542,1.542,0,1,0,1.556-1.641A1.605,1.605,0,0,0,589.535,138.576Z" transform="translate(-548.014 -136.394)" fill="#f2884b"/>
        <path id="Trazado_99393" data-name="Trazado 99393" d="M580.14,138.462a1.543,1.543,0,1,0,1.557-1.64A1.6,1.6,0,0,0,580.14,138.462Z" transform="translate(-552.46 -136.461)" fill="#f2884b"/>
        <path id="Trazado_99394" data-name="Trazado 99394" d="M570.746,138.349a1.543,1.543,0,1,0,1.556-1.64A1.606,1.606,0,0,0,570.746,138.349Z" transform="translate(-556.905 -136.528)" fill="#f2884b"/>
        <path id="Trazado_99395" data-name="Trazado 99395" d="M561.351,138.235a1.543,1.543,0,1,0,1.557-1.64A1.607,1.607,0,0,0,561.351,138.235Z" transform="translate(-561.351 -136.595)" fill="#f2884b"/>
      </g>
      <g id="Grupo_53329" data-name="Grupo 53329" transform="translate(0.298 119.519)">
        <path id="Trazado_99396" data-name="Trazado 99396" d="M655.2,147.72a1.542,1.542,0,1,0,1.556-1.641A1.605,1.605,0,0,0,655.2,147.72Z" transform="translate(-516.796 -144.277)" fill="#f2884b"/>
        <path id="Trazado_99397" data-name="Trazado 99397" d="M645.8,147.606a1.543,1.543,0,1,0,1.557-1.64A1.607,1.607,0,0,0,645.8,147.606Z" transform="translate(-521.241 -144.344)" fill="#f2884b"/>
        <path id="Trazado_99398" data-name="Trazado 99398" d="M636.406,147.493a1.542,1.542,0,1,0,1.556-1.64A1.606,1.606,0,0,0,636.406,147.493Z" transform="translate(-525.687 -144.411)" fill="#f2884b"/>
        <path id="Trazado_99399" data-name="Trazado 99399" d="M627.011,147.38a1.543,1.543,0,1,0,1.557-1.641A1.607,1.607,0,0,0,627.011,147.38Z" transform="translate(-530.133 -144.478)" fill="#f2884b"/>
        <path id="Trazado_99400" data-name="Trazado 99400" d="M617.617,147.266a1.543,1.543,0,1,0,1.556-1.64A1.607,1.607,0,0,0,617.617,147.266Z" transform="translate(-534.578 -144.545)" fill="#f2884b"/>
        <path id="Trazado_99401" data-name="Trazado 99401" d="M608.223,147.153a1.542,1.542,0,1,0,1.556-1.64A1.605,1.605,0,0,0,608.223,147.153Z" transform="translate(-539.023 -144.611)" fill="#f2884b"/>
        <path id="Trazado_99402" data-name="Trazado 99402" d="M598.828,147.04a1.543,1.543,0,1,0,1.557-1.641A1.606,1.606,0,0,0,598.828,147.04Z" transform="translate(-543.469 -144.678)" fill="#f2884b"/>
        <path id="Trazado_99403" data-name="Trazado 99403" d="M589.434,146.926a1.543,1.543,0,1,0,1.556-1.64A1.607,1.607,0,0,0,589.434,146.926Z" transform="translate(-547.914 -144.745)" fill="#f2884b"/>
        <path id="Trazado_99404" data-name="Trazado 99404" d="M580.039,146.813a1.543,1.543,0,1,0,1.557-1.641A1.607,1.607,0,0,0,580.039,146.813Z" transform="translate(-552.36 -144.813)" fill="#f2884b"/>
        <path id="Trazado_99405" data-name="Trazado 99405" d="M570.645,146.7a1.543,1.543,0,1,0,1.557-1.64A1.607,1.607,0,0,0,570.645,146.7Z" transform="translate(-556.805 -144.879)" fill="#f2884b"/>
        <path id="Trazado_99406" data-name="Trazado 99406" d="M561.251,146.586a1.542,1.542,0,1,0,1.556-1.64A1.605,1.605,0,0,0,561.251,146.586Z" transform="translate(-561.251 -144.946)" fill="#f2884b"/>
      </g>
      <g id="Grupo_53330" data-name="Grupo 53330" transform="translate(0.149 132.798)">
        <path id="Trazado_99407" data-name="Trazado 99407" d="M655.094,156.07a1.542,1.542,0,1,0,1.556-1.64A1.607,1.607,0,0,0,655.094,156.07Z" transform="translate(-516.695 -152.627)" fill="#f2884b"/>
        <path id="Trazado_99408" data-name="Trazado 99408" d="M645.7,155.957a1.543,1.543,0,1,0,1.557-1.64A1.606,1.606,0,0,0,645.7,155.957Z" transform="translate(-521.141 -152.693)" fill="#f2884b"/>
        <path id="Trazado_99409" data-name="Trazado 99409" d="M636.305,155.844a1.543,1.543,0,1,0,1.556-1.641A1.606,1.606,0,0,0,636.305,155.844Z" transform="translate(-525.586 -152.761)" fill="#f2884b"/>
        <path id="Trazado_99410" data-name="Trazado 99410" d="M626.911,155.73a1.542,1.542,0,1,0,1.556-1.64A1.606,1.606,0,0,0,626.911,155.73Z" transform="translate(-530.031 -152.827)" fill="#f2884b"/>
        <path id="Trazado_99411" data-name="Trazado 99411" d="M617.516,155.617a1.543,1.543,0,1,0,1.557-1.64A1.606,1.606,0,0,0,617.516,155.617Z" transform="translate(-534.477 -152.894)" fill="#f2884b"/>
        <path id="Trazado_99412" data-name="Trazado 99412" d="M608.122,155.5a1.543,1.543,0,1,0,1.556-1.64A1.607,1.607,0,0,0,608.122,155.5Z" transform="translate(-538.922 -152.961)" fill="#f2884b"/>
        <path id="Trazado_99413" data-name="Trazado 99413" d="M598.728,155.39a1.542,1.542,0,1,0,1.556-1.64A1.605,1.605,0,0,0,598.728,155.39Z" transform="translate(-543.368 -153.028)" fill="#f2884b"/>
        <path id="Trazado_99414" data-name="Trazado 99414" d="M589.333,155.277a1.543,1.543,0,1,0,1.557-1.641A1.606,1.606,0,0,0,589.333,155.277Z" transform="translate(-547.813 -153.095)" fill="#f2884b"/>
        <path id="Trazado_99415" data-name="Trazado 99415" d="M579.939,155.163a1.542,1.542,0,1,0,1.556-1.64A1.606,1.606,0,0,0,579.939,155.163Z" transform="translate(-552.259 -153.162)" fill="#f2884b"/>
        <path id="Trazado_99416" data-name="Trazado 99416" d="M570.544,155.05a1.543,1.543,0,1,0,1.557-1.64A1.606,1.606,0,0,0,570.544,155.05Z" transform="translate(-556.705 -153.229)" fill="#f2884b"/>
        <path id="Trazado_99417" data-name="Trazado 99417" d="M561.15,154.936a1.543,1.543,0,1,0,1.556-1.64A1.606,1.606,0,0,0,561.15,154.936Z" transform="translate(-561.15 -153.296)" fill="#f2884b"/>
      </g>
      <g id="Grupo_53331" data-name="Grupo 53331" transform="translate(0 146.078)">
        <path id="Trazado_99418" data-name="Trazado 99418" d="M654.993,164.421a1.543,1.543,0,1,0,1.556-1.64A1.606,1.606,0,0,0,654.993,164.421Z" transform="translate(-516.594 -160.978)" fill="#f2884b"/>
        <path id="Trazado_99419" data-name="Trazado 99419" d="M645.6,164.307a1.542,1.542,0,1,0,1.556-1.64A1.606,1.606,0,0,0,645.6,164.307Z" transform="translate(-521.039 -161.045)" fill="#f2884b"/>
        <path id="Trazado_99420" data-name="Trazado 99420" d="M636.2,164.194a1.543,1.543,0,1,0,1.557-1.64A1.607,1.607,0,0,0,636.2,164.194Z" transform="translate(-525.485 -161.112)" fill="#f2884b"/>
        <path id="Trazado_99421" data-name="Trazado 99421" d="M626.81,164.081a1.542,1.542,0,1,0,1.556-1.641A1.606,1.606,0,0,0,626.81,164.081Z" transform="translate(-529.93 -161.179)" fill="#f2884b"/>
        <path id="Trazado_99422" data-name="Trazado 99422" d="M617.415,163.967a1.543,1.543,0,1,0,1.557-1.64A1.608,1.608,0,0,0,617.415,163.967Z" transform="translate(-534.376 -161.246)" fill="#f2884b"/>
        <path id="Trazado_99423" data-name="Trazado 99423" d="M608.021,163.854a1.543,1.543,0,1,0,1.556-1.64A1.606,1.606,0,0,0,608.021,163.854Z" transform="translate(-538.821 -161.312)" fill="#f2884b"/>
        <path id="Trazado_99424" data-name="Trazado 99424" d="M598.627,163.741a1.542,1.542,0,1,0,1.556-1.641A1.606,1.606,0,0,0,598.627,163.741Z" transform="translate(-543.267 -161.38)" fill="#f2884b"/>
        <path id="Trazado_99425" data-name="Trazado 99425" d="M589.232,163.627a1.543,1.543,0,1,0,1.557-1.64A1.607,1.607,0,0,0,589.232,163.627Z" transform="translate(-547.712 -161.446)" fill="#f2884b"/>
        <path id="Trazado_99426" data-name="Trazado 99426" d="M579.838,163.514a1.543,1.543,0,1,0,1.556-1.641A1.606,1.606,0,0,0,579.838,163.514Z" transform="translate(-552.158 -161.513)" fill="#f2884b"/>
        <path id="Trazado_99427" data-name="Trazado 99427" d="M570.444,163.4A1.542,1.542,0,1,0,572,161.76,1.606,1.606,0,0,0,570.444,163.4Z" transform="translate(-556.603 -161.58)" fill="#f2884b"/>
        <path id="Trazado_99428" data-name="Trazado 99428" d="M561.049,163.287a1.543,1.543,0,1,0,1.557-1.64A1.605,1.605,0,0,0,561.049,163.287Z" transform="translate(-561.049 -161.647)" fill="#f2884b"/>
      </g>
    </g>
  </g>
</svg>
