<svg xmlns="http://www.w3.org/2000/svg" width="76" height="76" viewBox="0 0 76 76">
  <g id="Grupo_79529" data-name="Grupo 79529" transform="translate(-338 -507)">
    <path id="Rectángulo_32929" data-name="Rectángulo 32929" d="M38,0H76a0,0,0,0,1,0,0V38A38,38,0,0,1,38,76h0A38,38,0,0,1,0,38v0A38,38,0,0,1,38,0Z" transform="translate(338 507)" fill="#419ca6"/>
    <g id="eFZj6C" transform="translate(-271.441 -1236.031)">
      <g id="Grupo_77036" data-name="Grupo 77036" transform="translate(626.441 1757.435)">
        <path id="Trazado_101277" data-name="Trazado 101277" d="M626.441,1844.361a15.63,15.63,0,0,1,1-2.637,5.934,5.934,0,0,1,5.161-3.047c3.162-.08,6.327-.029,9.491-.025a.939.939,0,0,1,1.022.9c.011.548-.422.933-1.085.934q-4.4.007-8.8,0a4.652,4.652,0,0,0-4.944,4.92q0,6.8,0,13.592a4.646,4.646,0,0,0,4.877,4.894c1.828,0,3.655.006,5.483,0a1.335,1.335,0,0,1,1.069.5c.683.742,1.433,1.422,2.21,2.18,0-.537,0-1.034,0-1.531.007-.808.343-1.144,1.16-1.144q4.722,0,9.445,0a4.644,4.644,0,0,0,4.873-4.852q0-2.88,0-5.759a2.58,2.58,0,0,1,.04-.549.9.9,0,0,1,1.757-.015,1.945,1.945,0,0,1,.043.456c0,2.027.015,4.055,0,6.082a6.406,6.406,0,0,1-5.1,6.32,7.555,7.555,0,0,1-1.6.153c-2.9.014-5.8.007-8.782.007,0,.42,0,.827,0,1.234,0,.522-.025,1.046.007,1.566a1.2,1.2,0,0,1-.652,1.254h-.553c-.307-.272-.627-.53-.919-.818-.993-.98-1.967-1.979-2.972-2.947a1.076,1.076,0,0,0-.668-.278c-1.793-.025-3.589.037-5.38-.034a6.032,6.032,0,0,1-5.193-3.058,15.544,15.544,0,0,1-.995-2.633Z" transform="translate(-626.441 -1822.603)" fill="#fff"/>
        <path id="Trazado_101278" data-name="Trazado 101278" d="M732.438,1757.457a14.584,14.584,0,0,1,5.741.778,13.383,13.383,0,0,1,4.536,22.463,1.645,1.645,0,0,0-.612,1.366c.045,1.427.009,2.856.018,4.284a.964.964,0,0,1-1.746.726c-.986-.99-1.981-1.971-2.961-2.968a.689.689,0,0,0-.713-.228,20.224,20.224,0,0,1-8.944-.17,13.357,13.357,0,0,1-9.707-14.1,13.064,13.064,0,0,1,5.043-9.276A13.433,13.433,0,0,1,732.438,1757.457Zm7.837,26.921c0-1.1.039-2.063-.013-3.023a1.751,1.751,0,0,1,.75-1.611,10.628,10.628,0,0,0,3.568-5.038,11.244,11.244,0,0,0-1.258-10.212,11.1,11.1,0,0,0-7.757-5.027,19.184,19.184,0,0,0-5.6-.053,11.611,11.611,0,0,0-3.343.936,11.524,11.524,0,0,0-2.426,19.512,10.811,10.811,0,0,0,6.641,2.494,18.573,18.573,0,0,0,6.032-.415,1.233,1.233,0,0,1,1.365.38C738.87,1782.985,739.529,1783.628,740.275,1784.377Z" transform="translate(-699.913 -1757.435)" fill="#fff"/>
        <path id="Trazado_101279" data-name="Trazado 101279" d="M662.368,1902.2h9.306a3.148,3.148,0,0,1,.46.016.909.909,0,0,1,0,1.81,3.182,3.182,0,0,1-.46.016h-18.8c-.747,0-1.191-.348-1.191-.922s.444-.92,1.192-.921Q657.623,1902.195,662.368,1902.2Z" transform="translate(-646.702 -1873.618)" fill="#fff"/>
        <path id="Trazado_101280" data-name="Trazado 101280" d="M660.573,1928.336q3.753,0,7.506,0a2.279,2.279,0,0,1,.635.072.894.894,0,0,1-.01,1.7,2.293,2.293,0,0,1-.635.069q-7.552.005-15.1,0h-.138c-.7-.008-1.143-.365-1.139-.927s.441-.914,1.15-.915Q656.7,1928.334,660.573,1928.336Z" transform="translate(-646.702 -1894.598)" fill="#fff"/>
        <path id="Trazado_101281" data-name="Trazado 101281" d="M659.341,1876.056q3.2,0,6.4,0a2.208,2.208,0,0,1,.546.052.882.882,0,0,1,.672.882.867.867,0,0,1-.657.847,2.021,2.021,0,0,1-.545.057q-6.427,0-12.853,0a2.41,2.41,0,0,1-.458-.027.9.9,0,0,1-.015-1.782,2.574,2.574,0,0,1,.5-.032Q656.14,1876.054,659.341,1876.056Z" transform="translate(-646.702 -1852.639)" fill="#fff"/>
        <path id="Trazado_101282" data-name="Trazado 101282" d="M751.083,1928.376a.914.914,0,1,1-.9.926A.95.95,0,0,1,751.083,1928.376Z" transform="translate(-725.754 -1894.631)" fill="#fff"/>
        <path id="Trazado_101283" data-name="Trazado 101283" d="M776.378,1798.894c0-.353-.009-.706,0-1.059a1.688,1.688,0,0,1,1.2-1.622c.144-.051.292-.094.435-.148a2.046,2.046,0,0,0,1.3-2.285,2.072,2.072,0,0,0-2.069-1.683,2.035,2.035,0,0,0-1.977,1.776c-.12.881-.463,1.248-1.091,1.168-.573-.073-.805-.5-.738-1.348a3.871,3.871,0,0,1,6.717-2.169,3.861,3.861,0,0,1-1.614,6.3.4.4,0,0,0-.328.456c.02.583.025,1.168,0,1.75a.919.919,0,1,1-1.833-.027c-.006-.138,0-.276,0-.414q0-.346,0-.691Z" transform="translate(-744.409 -1783.781)" fill="#fff"/>
        <path id="Trazado_101284" data-name="Trazado 101284" d="M790.223,1854.746a.926.926,0,0,1-.894.924.9.9,0,0,1-.929-.881.918.918,0,0,1,.886-.932A.94.94,0,0,1,790.223,1854.746Z" transform="translate(-756.427 -1834.821)" fill="#fff"/>
      </g>
    </g>
  </g>
</svg>
