<svg xmlns="http://www.w3.org/2000/svg" width="76" height="76" viewBox="0 0 76 76">
  <g id="Grupo_79527" data-name="Grupo 79527" transform="translate(-233 -10184)">
    <path id="Rectángulo_32923" data-name="Rectángulo 32923" d="M38,0H76a0,0,0,0,1,0,0V38A38,38,0,0,1,38,76h0A38,38,0,0,1,0,38v0A38,38,0,0,1,38,0Z" transform="translate(233 10184)" fill="#419ca6"/>
    <g id="Grupo_77006" data-name="Grupo 77006" transform="translate(-372.406 9677.024)">
      <path id="Trazado_101249" data-name="Trazado 101249" d="M620.407,544.751A22.815,22.815,0,1,1,643.154,567.6,22.8,22.8,0,0,1,620.407,544.751Zm2.869.045a19.95,19.95,0,1,0,19.943-19.966A19.972,19.972,0,0,0,623.276,544.8Z" fill="#fff"/>
      <path id="Trazado_101250" data-name="Trazado 101250" d="M642.533,553.674c3.667-3.673,7.295-7.289,10.9-10.928a4.31,4.31,0,0,1,4.155-1.386,4.26,4.26,0,0,1,2.246,7.077c-.959,1.046-2,2.02-3,3.024q-5.462,5.464-10.927,10.926c-2.173,2.171-4.634,2.171-6.8.007-.768-.767-1.539-1.531-2.3-2.3a4.253,4.253,0,0,1-.488-5.875,4.327,4.327,0,0,1,5.867-.758C642.274,553.514,642.366,553.571,642.533,553.674Zm-2.9,1.6a5.752,5.752,0,0,0-1.22,1.029,1.25,1.25,0,0,0,.248,1.606c.814.838,1.647,1.659,2.475,2.483,1.042,1.038,1.69,1.035,2.746-.021q6.731-6.727,13.458-13.458a4.38,4.38,0,0,0,.555-.619,1.372,1.372,0,0,0-.195-1.821,1.4,1.4,0,0,0-1.832-.085,5.584,5.584,0,0,0-.545.515l-11.335,11.33c-1.215,1.215-1.744,1.2-2.987.014A12.206,12.206,0,0,0,639.629,555.272Z" transform="translate(-4.97 -6.41)" fill="#fff"/>
    </g>
  </g>
</svg>
