<svg xmlns="http://www.w3.org/2000/svg" width="119" height="119" viewBox="0 0 119 119">
  <g id="Grupo_79524" data-name="Grupo 79524" transform="translate(-254 -6888)">
    <path id="Rectángulo_32918" data-name="Rectángulo 32918" d="M59.5,0H119a0,0,0,0,1,0,0V59.5A59.5,59.5,0,0,1,59.5,119h0A59.5,59.5,0,0,1,0,59.5v0A59.5,59.5,0,0,1,59.5,0Z" transform="translate(254 6888)" fill="#419ca6"/>
    <g id="Grupo_74266" data-name="Grupo 74266" transform="translate(94.966 6693.197)">
      <path id="Trazado_100476" data-name="Trazado 100476" d="M205.772,208.8c.108.247.351.139.529.19a6.643,6.643,0,0,1,4.719,4.5c.185.56.433.659.95.659q14.767-.018,29.533-.009c3.778,0,6.134,1.78,7.094,5.4a.888.888,0,0,0,.577.613c1.848.922,3.7,1.835,5.542,2.767a6.949,6.949,0,0,1,3.892,8.032q-4.88,24.346-9.72,48.7a12.93,12.93,0,0,1-1.334,4.2,1.074,1.074,0,0,0-.088.347c-.079-.265-.094-.279-.315-.045a6.768,6.768,0,0,1-3.259,1.962,7.914,7.914,0,0,1-2.02.246q-23.816,0-47.632,0a6.609,6.609,0,0,1-6.949-6.936q-.007-29.154,0-58.309a6.668,6.668,0,0,1,5.029-6.72c.258-.076.457-.153.533-.449a6.678,6.678,0,0,1,5.051-5c.057-.016.1-.1.145-.149Zm43.047,18.054c-.008.176-.023.352-.023.528q0,18.807,0,37.614c0,.189-.077.4.1.613,1.231-6.16,2.459-12.278,3.675-18.4q1.647-8.3,3.273-16.6a3.878,3.878,0,0,0-1.339-4.654,46.378,46.378,0,0,0-5.69-2.965Zm-2.711,23.417q0-14.58,0-29.16a3.93,3.93,0,0,0-4.284-4.285q-14.883-.009-29.766-.016c-.562,0-.709.13-.706.7.027,4.115.015,8.231.015,12.346s.032,8.231-.01,12.345a6.7,6.7,0,1,1-13.387-.378c.052-6.842.014-13.684.016-20.526a5.076,5.076,0,0,1,.032-.68,1.209,1.209,0,0,1,1.376-1.1,1.193,1.193,0,0,1,1.239,1.168c.025.276.014.555.014.832q0,10.225,0,20.45a3.979,3.979,0,0,0,1.744,3.577,3.924,3.924,0,0,0,4.168.227,3.706,3.706,0,0,0,2.1-3.5q.019-10.224.008-20.45c0-1.49-.008-2.98.006-4.469,0-.356-.039-.54-.477-.538-4.822.018-9.644-.006-14.466.029a3.814,3.814,0,0,0-3.587,2.768,5.842,5.842,0,0,0-.172,1.8q0,28.857,0,57.714c0,.253,0,.505.012.757a3.848,3.848,0,0,0,3.855,3.777c1.186.033,2.374-.011,3.56.02.464.012.609-.13.6-.6-.03-1.085-.023-2.171,0-3.257.017-.983.486-1.489,1.328-1.49s1.315.517,1.326,1.485c.012,1.086.024,2.172-.007,3.256-.014.46.12.6.589.6q6.1-.025,12.194,0c.521,0,.628-.178.615-.65q-.044-1.626,0-3.256c.025-.955.542-1.465,1.383-1.436.812.027,1.26.533,1.275,1.461.011.631,0,1.263,0,1.893s-.2,1.456.114,1.826c.373.435,1.233.077,1.873.157.564.069.724-.121.717-.7-.032-2.852-.023-5.706-.009-8.558a1.285,1.285,0,0,1,1.682-1.38c.783.188.978.787.978,1.5,0,2.373-.01,4.747.006,7.119,0,.646-.285,1.49.132,1.887s1.253.066,1.9.128c.481.046.659-.1.638-.612-.042-1.008-.015-2.019-.012-3.029,0-1.144.457-1.706,1.362-1.7s1.329.57,1.333,1.73c0,.984.034,1.97-.012,2.953-.025.543.155.663.675.66,4.621-.021,9.241-.009,13.861-.017a4.971,4.971,0,0,0,1.2-.12c1.921-.484,2.971-1.966,2.971-4.189Q246.113,264.817,246.108,250.274Zm-50.432-36.2c.019.012.039.035.057.035q6.124.017,12.249.034c.431,0,.375-.181.233-.457a3.509,3.509,0,0,0-2.994-2.136c-2.163-.1-4.336-.084-6.5,0A3.459,3.459,0,0,0,195.676,214.075Z" transform="translate(0)" fill="#fff"/>
      <path id="Trazado_100477" data-name="Trazado 100477" d="M289.58,240.518q-1.635,8.3-3.273,16.6c-1.215,6.12-2.444,12.238-3.675,18.4-.178-.211-.1-.424-.1-.613q-.009-18.807,0-37.614c0-.176.015-.353.023-.528q2.778,1.362,5.554,2.727A4.685,4.685,0,0,1,289.58,240.518Z" transform="translate(-33.732 -9.903)" fill="#77cfd9"/>
      <path id="Trazado_100478" data-name="Trazado 100478" d="M218.6,283.366q6.582,0,13.164,0c1.139,0,1.744.75,1.448,1.738a1.126,1.126,0,0,1-1.014.878,8.3,8.3,0,0,1-.905.039q-12.71,0-25.42,0a7.427,7.427,0,0,1-.83-.027,1.217,1.217,0,0,1-1.161-1.392,1.18,1.18,0,0,1,1.253-1.229c1.967-.023,3.934-.011,5.9-.011Q214.814,283.364,218.6,283.366Z" transform="translate(-5.876 -26.41)" fill="#fff"/>
      <path id="Trazado_100479" data-name="Trazado 100479" d="M246.386,291.623c2.6,0,5.2-.006,7.8,0,.985,0,1.482.455,1.495,1.312s-.482,1.359-1.441,1.37c-1.614.019-3.23.006-4.845.006q-5.412,0-10.825,0c-.911,0-1.418-.345-1.553-1.018a1.313,1.313,0,0,1,1.423-1.665C241.087,291.614,243.737,291.623,246.386,291.623Z" transform="translate(-17.601 -29.335)" fill="#fff"/>
      <path id="Trazado_100480" data-name="Trazado 100480" d="M246.329,233.658q3.9,0,7.8,0c1.049,0,1.556.437,1.564,1.314s-.495,1.362-1.53,1.365q-7.8.016-15.593,0c-1.078,0-1.594-.5-1.564-1.408.028-.867.53-1.27,1.606-1.271Q242.469,233.654,246.329,233.658Z" transform="translate(-17.61 -8.803)" fill="#fff"/>
      <path id="Trazado_100481" data-name="Trazado 100481" d="M213.161,291.623q3.9,0,7.8,0c1.089,0,1.615.454,1.607,1.358-.008.869-.531,1.327-1.568,1.328q-7.8.008-15.595,0c-1.026,0-1.536-.478-1.527-1.364s.522-1.319,1.564-1.321Q209.3,291.618,213.161,291.623Z" transform="translate(-5.876 -29.336)" fill="#fff"/>
      <path id="Trazado_100482" data-name="Trazado 100482" d="M246.315,258.511c2.649,0,5.3-.008,7.947,0a1.273,1.273,0,0,1,1.4,1.6,1.1,1.1,0,0,1-.9.995,4.7,4.7,0,0,1-.976.079q-7.455.007-14.91,0a5.407,5.407,0,0,1-.679-.027,1.231,1.231,0,0,1-1.2-1.366,1.206,1.206,0,0,1,1.292-1.273c1.109-.025,2.22-.008,3.33-.008Z" transform="translate(-17.61 -17.605)" fill="#fff"/>
      <path id="Trazado_100483" data-name="Trazado 100483" d="M246.361,277.726q-3.9,0-7.8,0c-1.053,0-1.556-.432-1.565-1.311s.487-1.355,1.534-1.357q7.833-.017,15.666,0c1.024,0,1.516.506,1.486,1.4-.027.845-.521,1.265-1.53,1.267C251.558,277.729,248.959,277.726,246.361,277.726Z" transform="translate(-17.61 -23.464)" fill="#fff"/>
      <path id="Trazado_100484" data-name="Trazado 100484" d="M246.343,252.88c-2.649,0-5.3.01-7.946,0a1.311,1.311,0,0,1-1.342-1.825c.267-.717.869-.834,1.54-.832q3.67.008,7.341,0c2.724,0,5.449-.006,8.172,0,1.067,0,1.557.437,1.563,1.315s-.487,1.334-1.458,1.337C251.59,252.886,248.966,252.881,246.343,252.88Z" transform="translate(-17.593 -14.67)" fill="#fff"/>
      <path id="Trazado_100485" data-name="Trazado 100485" d="M240.944,244.6c-.856,0-1.713.017-2.568,0a1.337,1.337,0,1,1-.042-2.674q2.68-.044,5.362,0a1.336,1.336,0,1,1-.033,2.671C242.757,244.621,241.85,244.6,240.944,244.6Z" transform="translate(-17.61 -11.724)" fill="#fff"/>
      <path id="Trazado_100486" data-name="Trazado 100486" d="M257.555,244.6c-.856,0-1.711.012-2.567,0a1.344,1.344,0,1,1,0-2.681q2.567-.029,5.135,0a1.258,1.258,0,0,1,1.425,1.379c-.017.825-.507,1.284-1.425,1.3C259.267,244.616,258.411,244.6,257.555,244.6Z" transform="translate(-23.47 -11.725)" fill="#fff"/>
      <path id="Trazado_100487" data-name="Trazado 100487" d="M240.967,269.457c-.856,0-1.713.017-2.568,0a1.341,1.341,0,1,1-.013-2.679q2.6-.031,5.211,0a1.342,1.342,0,1,1,.014,2.679C242.73,269.474,241.849,269.456,240.967,269.457Z" transform="translate(-17.611 -20.528)" fill="#fff"/>
      <path id="Trazado_100488" data-name="Trazado 100488" d="M257.5,266.768c.856,0,1.711-.01,2.567,0,.974.014,1.476.469,1.485,1.319s-.486,1.355-1.439,1.364q-2.567.024-5.135,0a1.279,1.279,0,0,1-1.427-1.317c-.014-.836.518-1.346,1.456-1.365C255.834,266.756,256.664,266.768,257.5,266.768Z" transform="translate(-23.471 -20.53)" fill="#fff"/>
      <path id="Trazado_100489" data-name="Trazado 100489" d="M257.572,283.368c.883,0,1.767-.016,2.651,0A1.315,1.315,0,0,1,260.3,286q-2.763.053-5.527,0a1.2,1.2,0,0,1-1.229-1.339,1.236,1.236,0,0,1,1.3-1.282C255.753,283.35,256.662,283.369,257.572,283.368Z" transform="translate(-23.471 -26.41)" fill="#fff"/>
    </g>
  </g>
</svg>
