<svg xmlns="http://www.w3.org/2000/svg" width="752" height="194" viewBox="0 0 752 194">
  <g id="Grupo_79528" data-name="Grupo 79528" transform="translate(8955 8222)">
    <path id="Trazado_141175" data-name="Trazado 141175" d="M12.578-4.814a5.193,5.193,0,0,1-.8,2.622A4.833,4.833,0,0,1,9.722-.43,7,7,0,0,1,6.7.2,5.584,5.584,0,0,1,2.285-1.631,7.54,7.54,0,0,1,.674-6.787v-.7A8.607,8.607,0,0,1,1.4-11.147,5.513,5.513,0,0,1,3.5-13.569a5.844,5.844,0,0,1,3.164-.854,6.129,6.129,0,0,1,4.16,1.362,5.383,5.383,0,0,1,1.787,3.755H9.189a2.547,2.547,0,0,0-.654-1.865,2.691,2.691,0,0,0-1.875-.566,2.048,2.048,0,0,0-1.875.957A6.151,6.151,0,0,0,4.16-7.725v1.006a6.806,6.806,0,0,0,.571,3.252A2.091,2.091,0,0,0,6.7-2.49a2.632,2.632,0,0,0,1.807-.557A2.363,2.363,0,0,0,9.17-4.814Zm7.861-2.773-1.084-.078a1.947,1.947,0,0,0-1.992.977V0H14.072V-10.566h3.086l.107,1.357a2.548,2.548,0,0,1,2.314-1.553,3.209,3.209,0,0,1,.918.117ZM26.553.2a5.432,5.432,0,0,1-3.936-1.45,5.008,5.008,0,0,1-1.5-3.774V-5.3a6.489,6.489,0,0,1,.6-2.861,4.395,4.395,0,0,1,1.753-1.919,5.292,5.292,0,0,1,2.734-.679A4.574,4.574,0,0,1,29.717-9.38a5.43,5.43,0,0,1,1.289,3.853v1.279H24.463a2.372,2.372,0,0,0,.771,1.4,2.3,2.3,0,0,0,1.543.508,2.958,2.958,0,0,0,2.441-1.094l1.5,1.777A4.2,4.2,0,0,1,28.979-.308,5.891,5.891,0,0,1,26.553.2Zm-.371-8.418q-1.445,0-1.719,1.914h3.32v-.254a1.63,1.63,0,0,0-.4-1.226A1.593,1.593,0,0,0,26.182-8.223ZM38.281,0a3.716,3.716,0,0,1-.312-.947A3.06,3.06,0,0,1,35.43.2a3.749,3.749,0,0,1-2.539-.9,2.875,2.875,0,0,1-1.045-2.271,2.955,2.955,0,0,1,1.27-2.6,6.468,6.468,0,0,1,3.691-.879h1.016v-.559q0-1.462-1.26-1.462a1.03,1.03,0,0,0-1.172,1.158H32.1a2.95,2.95,0,0,1,1.3-2.487,5.479,5.479,0,0,1,3.325-.956,4.8,4.8,0,0,1,3.193.986,3.429,3.429,0,0,1,1.2,2.705v4.678a4.79,4.79,0,0,0,.449,2.227V0ZM36.221-2.148a1.836,1.836,0,0,0,1.021-.264,1.653,1.653,0,0,0,.581-.6V-4.7h-.957q-1.719,0-1.719,1.543a.942.942,0,0,0,.3.728A1.1,1.1,0,0,0,36.221-2.148ZM46.777-13.193v2.627h1.738v2.285H46.777v4.834a1.234,1.234,0,0,0,.215.83,1.152,1.152,0,0,0,.85.234,4.828,4.828,0,0,0,.82-.059V-.088A6.074,6.074,0,0,1,46.807.2a3.448,3.448,0,0,1-2.51-.8,3.282,3.282,0,0,1-.811-2.432V-8.281H42.139v-2.285h1.348v-2.627ZM53.281,0h-3.3V-10.566h3.3Zm-3.5-13.3a1.482,1.482,0,0,1,.508-1.159,1.909,1.909,0,0,1,1.318-.452,1.909,1.909,0,0,1,1.318.452,1.482,1.482,0,0,1,.508,1.159,1.482,1.482,0,0,1-.508,1.159,1.909,1.909,0,0,1-1.318.452,1.909,1.909,0,0,1-1.318-.452A1.482,1.482,0,0,1,49.785-13.3Zm9.736,9.385,1.67-6.65h3.467L61.211,0H57.852L54.4-10.566h3.477ZM69.111,0h-3.3V-10.566h3.3Zm-3.5-13.3a1.482,1.482,0,0,1,.508-1.159,1.909,1.909,0,0,1,1.318-.452,1.909,1.909,0,0,1,1.318.452,1.482,1.482,0,0,1,.508,1.159,1.482,1.482,0,0,1-.508,1.159,1.909,1.909,0,0,1-1.318.452,1.909,1.909,0,0,1-1.318-.452A1.482,1.482,0,0,1,65.615-13.3Zm5.107,7.939a6.455,6.455,0,0,1,1.084-3.955,3.568,3.568,0,0,1,3.027-1.445,3.035,3.035,0,0,1,2.383,1.113V-15h3.3V0H77.559l-.166-1.133A3.116,3.116,0,0,1,74.814.2,3.562,3.562,0,0,1,71.826-1.25,6.659,6.659,0,0,1,70.723-5.361Zm3.291.205q0,2.813,1.641,2.813a1.62,1.62,0,0,0,1.563-.918V-7.285a1.576,1.576,0,0,0-1.543-.937q-1.523,0-1.65,2.461ZM88.34,0a3.716,3.716,0,0,1-.312-.947A3.06,3.06,0,0,1,85.488.2a3.749,3.749,0,0,1-2.539-.9A2.875,2.875,0,0,1,81.9-2.979a2.955,2.955,0,0,1,1.27-2.6,6.468,6.468,0,0,1,3.691-.879h1.016v-.559q0-1.462-1.26-1.462a1.03,1.03,0,0,0-1.172,1.158H82.158a2.95,2.95,0,0,1,1.3-2.487,5.479,5.479,0,0,1,3.325-.956,4.8,4.8,0,0,1,3.193.986,3.429,3.429,0,0,1,1.2,2.705v4.678a4.79,4.79,0,0,0,.449,2.227V0ZM86.279-2.148A1.836,1.836,0,0,0,87.3-2.412a1.653,1.653,0,0,0,.581-.6V-4.7h-.957q-1.719,0-1.719,1.543a.942.942,0,0,0,.3.728A1.1,1.1,0,0,0,86.279-2.148Zm6.309-3.213a6.455,6.455,0,0,1,1.084-3.955A3.568,3.568,0,0,1,96.7-10.762a3.035,3.035,0,0,1,2.383,1.113V-15h3.3V0H99.424l-.166-1.133A3.116,3.116,0,0,1,96.68.2,3.562,3.562,0,0,1,93.691-1.25,6.659,6.659,0,0,1,92.588-5.361Zm3.291.205q0,2.813,1.641,2.813a1.62,1.62,0,0,0,1.563-.918V-7.285a1.576,1.576,0,0,0-1.543-.937q-1.523,0-1.65,2.461Z" transform="translate(-8643 -8207)" fill="#12263f"/>
    <path id="Trazado_141176" data-name="Trazado 141176" d="M40.821,25.193H21.831V19.861h18.99Zm0,9H21.831V28.864h18.99Z" transform="translate(-8741 -8105)" fill="#12263f"/>
    <path id="Trazado_141177" data-name="Trazado 141177" d="M40.821,25.193H21.831V19.861h18.99Zm0,9H21.831V28.864h18.99Z" transform="translate(-8477 -8105)" fill="#12263f"/>
    <path id="Trazado_141150" data-name="Trazado 141150" d="M31,0H214V84a31,31,0,0,1-31,31H0V31A31,31,0,0,1,31,0Z" transform="translate(-8955 -8143)" fill="#ceeef1"/>
    <path id="Trazado_141178" data-name="Trazado 141178" d="M55.027,15h-1.5V3.625h1.5Zm2.164-4.3a4.952,4.952,0,0,1,.922-3.129,3.137,3.137,0,0,1,4.766-.168V3h1.445V15H63l-.07-.906a2.943,2.943,0,0,1-2.414,1.063,2.887,2.887,0,0,1-2.395-1.2,5.008,5.008,0,0,1-.926-3.141Zm1.445.164a3.749,3.749,0,0,0,.594,2.25,1.92,1.92,0,0,0,1.641.813A2.108,2.108,0,0,0,62.879,12.7V8.813a2.125,2.125,0,0,0-1.992-1.2,1.929,1.929,0,0,0-1.656.82A4.128,4.128,0,0,0,58.637,10.867Zm11.438,4.289a3.693,3.693,0,0,1-2.8-1.129,4.19,4.19,0,0,1-1.078-3.02v-.266A5.073,5.073,0,0,1,66.68,8.5a3.748,3.748,0,0,1,1.344-1.547,3.378,3.378,0,0,1,1.871-.559,3.166,3.166,0,0,1,2.563,1.086,4.7,4.7,0,0,1,.914,3.109v.6H67.645a3,3,0,0,0,.73,2.02,2.3,2.3,0,0,0,1.777.77,2.517,2.517,0,0,0,1.3-.312,3.259,3.259,0,0,0,.93-.828l.883.688A3.55,3.55,0,0,1,70.074,15.156Zm-.18-7.578a1.928,1.928,0,0,0-1.469.637A3.1,3.1,0,0,0,67.691,10h4.234V9.891a2.753,2.753,0,0,0-.594-1.707A1.815,1.815,0,0,0,69.895,7.578ZM80.262,15a3.036,3.036,0,0,1-.2-.891,3.225,3.225,0,0,1-2.406,1.047,2.984,2.984,0,0,1-2.051-.707,2.288,2.288,0,0,1-.8-1.793,2.39,2.39,0,0,1,1-2.051,4.733,4.733,0,0,1,2.824-.73h1.406V9.211A1.623,1.623,0,0,0,79.582,8a1.821,1.821,0,0,0-1.336-.449,2.108,2.108,0,0,0-1.3.391,1.151,1.151,0,0,0-.523.945H74.973a2,2,0,0,1,.449-1.223,3.066,3.066,0,0,1,1.219-.934,4.1,4.1,0,0,1,1.691-.344,3.342,3.342,0,0,1,2.289.73,2.635,2.635,0,0,1,.859,2.012v3.891a4.757,4.757,0,0,0,.3,1.852V15Zm-2.4-1.1a2.54,2.54,0,0,0,1.289-.352,2.127,2.127,0,0,0,.883-.914V10.9H78.9q-2.656,0-2.656,1.555a1.316,1.316,0,0,0,.453,1.063A1.742,1.742,0,0,0,77.863,13.9Zm10.8-1.141a1.064,1.064,0,0,0-.441-.91,4.249,4.249,0,0,0-1.539-.559,7.277,7.277,0,0,1-1.742-.562,2.479,2.479,0,0,1-.953-.781,1.869,1.869,0,0,1-.309-1.078,2.193,2.193,0,0,1,.879-1.758,3.432,3.432,0,0,1,2.246-.719,3.532,3.532,0,0,1,2.332.742,2.357,2.357,0,0,1,.895,1.9H88.582a1.3,1.3,0,0,0-.5-1.023,1.888,1.888,0,0,0-1.27-.43,1.976,1.976,0,0,0-1.234.344,1.082,1.082,0,0,0-.445.9.877.877,0,0,0,.414.789,5.1,5.1,0,0,0,1.5.508,7.8,7.8,0,0,1,1.754.578,2.558,2.558,0,0,1,1,.809,1.988,1.988,0,0,1,.324,1.152,2.163,2.163,0,0,1-.906,1.816,3.8,3.8,0,0,1-2.352.684,4.257,4.257,0,0,1-1.8-.359,2.922,2.922,0,0,1-1.223-1,2.42,2.42,0,0,1-.441-1.395H84.84a1.5,1.5,0,0,0,.582,1.152,2.258,2.258,0,0,0,1.434.426,2.331,2.331,0,0,0,1.316-.332A1.02,1.02,0,0,0,88.668,12.758Zm-60.8,21.625a12.079,12.079,0,0,1,.473-3.391,9.85,9.85,0,0,1,1.41-2.953A6,6,0,0,1,31.7,26.164l.3.953a6.222,6.222,0,0,0-1.871,2.672,11.583,11.583,0,0,0-.8,4.023l-.008.664a11.643,11.643,0,0,0,1.1,5.234,6.252,6.252,0,0,0,1.578,2.078l-.3.883a6.192,6.192,0,0,1-1.984-1.937A10.859,10.859,0,0,1,27.867,34.383Zm8.914,3.594a2.082,2.082,0,0,0,1.352-.469,1.649,1.649,0,0,0,.641-1.172h1.367a2.621,2.621,0,0,1-.5,1.383,3.293,3.293,0,0,1-1.23,1.047,3.55,3.55,0,0,1-1.629.391A3.482,3.482,0,0,1,34.035,38a4.59,4.59,0,0,1-1.02-3.152v-.242a5.089,5.089,0,0,1,.453-2.2,3.451,3.451,0,0,1,1.3-1.492,3.7,3.7,0,0,1,2-.531,3.39,3.39,0,0,1,2.363.852,3.043,3.043,0,0,1,1,2.211H38.773a1.992,1.992,0,0,0-.621-1.348,1.932,1.932,0,0,0-1.379-.527,2.023,2.023,0,0,0-1.707.793,3.724,3.724,0,0,0-.605,2.293v.273a3.65,3.65,0,0,0,.6,2.25A2.033,2.033,0,0,0,36.781,37.977Zm9.07-6.133a4.331,4.331,0,0,0-.711-.055A1.9,1.9,0,0,0,43.211,33v6H41.766V30.547h1.406l.023.977a2.251,2.251,0,0,1,2.016-1.133,1.477,1.477,0,0,1,.641.109Zm4.688,7.313a3.693,3.693,0,0,1-2.8-1.129,4.19,4.19,0,0,1-1.078-3.02v-.266a5.073,5.073,0,0,1,.48-2.246,3.748,3.748,0,0,1,1.344-1.547,3.378,3.378,0,0,1,1.871-.559,3.166,3.166,0,0,1,2.563,1.086,4.7,4.7,0,0,1,.914,3.109v.6H48.109a3,3,0,0,0,.73,2.02,2.3,2.3,0,0,0,1.777.77,2.517,2.517,0,0,0,1.3-.312,3.258,3.258,0,0,0,.93-.828l.883.688A3.55,3.55,0,0,1,50.539,39.156Zm-.18-7.578a1.928,1.928,0,0,0-1.469.637A3.1,3.1,0,0,0,48.156,34h4.234v-.109a2.753,2.753,0,0,0-.594-1.707A1.815,1.815,0,0,0,50.359,31.578ZM60.727,39a3.036,3.036,0,0,1-.2-.891,3.225,3.225,0,0,1-2.406,1.047,2.984,2.984,0,0,1-2.051-.707,2.287,2.287,0,0,1-.8-1.793,2.39,2.39,0,0,1,1-2.051,4.733,4.733,0,0,1,2.824-.73H60.5v-.664A1.623,1.623,0,0,0,60.047,32a1.821,1.821,0,0,0-1.336-.449,2.107,2.107,0,0,0-1.3.391,1.151,1.151,0,0,0-.523.945H55.438a2,2,0,0,1,.449-1.223,3.066,3.066,0,0,1,1.219-.934,4.1,4.1,0,0,1,1.691-.344,3.342,3.342,0,0,1,2.289.73,2.635,2.635,0,0,1,.859,2.012v3.891a4.757,4.757,0,0,0,.3,1.852V39Zm-2.4-1.1a2.54,2.54,0,0,0,1.289-.352,2.127,2.127,0,0,0,.883-.914V34.9H59.367q-2.656,0-2.656,1.555a1.316,1.316,0,0,0,.453,1.063A1.742,1.742,0,0,0,58.328,37.9Zm7.844-9.4v2.047H67.75v1.117H66.172v5.249a1.173,1.173,0,0,0,.211.763.888.888,0,0,0,.719.254,3.5,3.5,0,0,0,.688-.094V39a4.215,4.215,0,0,1-1.109.155,1.8,1.8,0,0,1-1.461-.586,2.517,2.517,0,0,1-.492-1.664V31.664H63.188V30.547h1.539V28.5ZM71.008,39H69.563V30.547h1.445ZM69.445,28.3a.863.863,0,0,1,.215-.594.807.807,0,0,1,.637-.242.819.819,0,0,1,.641.242.854.854,0,0,1,.219.594.826.826,0,0,1-.219.586.834.834,0,0,1-.641.234.821.821,0,0,1-.637-.234A.834.834,0,0,1,69.445,28.3Zm6.664,8.734L78.2,30.547H79.68L76.648,39h-1.1l-3.062-8.453h1.477ZM82.641,39H81.2V30.547h1.445ZM81.078,28.3a.863.863,0,0,1,.215-.594.807.807,0,0,1,.637-.242.819.819,0,0,1,.641.242.854.854,0,0,1,.219.594.826.826,0,0,1-.219.586.834.834,0,0,1-.641.234.821.821,0,0,1-.637-.234A.834.834,0,0,1,81.078,28.3ZM84.6,34.7a4.952,4.952,0,0,1,.922-3.129,3.137,3.137,0,0,1,4.766-.168V27h1.445V39H90.406l-.07-.906a2.943,2.943,0,0,1-2.414,1.063,2.887,2.887,0,0,1-2.395-1.2,5.008,5.008,0,0,1-.926-3.141Zm1.445.164a3.749,3.749,0,0,0,.594,2.25,1.92,1.92,0,0,0,1.641.813A2.108,2.108,0,0,0,90.289,36.7V32.813a2.125,2.125,0,0,0-1.992-1.2,1.929,1.929,0,0,0-1.656.82A4.128,4.128,0,0,0,86.047,34.867ZM99.2,39a3.036,3.036,0,0,1-.2-.891,3.225,3.225,0,0,1-2.406,1.047,2.984,2.984,0,0,1-2.051-.707,2.288,2.288,0,0,1-.8-1.793,2.39,2.39,0,0,1,1-2.051,4.733,4.733,0,0,1,2.824-.73h1.406v-.664A1.623,1.623,0,0,0,98.516,32a1.821,1.821,0,0,0-1.336-.449,2.108,2.108,0,0,0-1.3.391,1.151,1.151,0,0,0-.523.945H93.906a2,2,0,0,1,.449-1.223,3.066,3.066,0,0,1,1.219-.934,4.1,4.1,0,0,1,1.691-.344,3.342,3.342,0,0,1,2.289.73,2.635,2.635,0,0,1,.859,2.012v3.891a4.757,4.757,0,0,0,.3,1.852V39Zm-2.4-1.1a2.54,2.54,0,0,0,1.289-.352,2.127,2.127,0,0,0,.883-.914V34.9H97.836q-2.656,0-2.656,1.555a1.316,1.316,0,0,0,.453,1.063A1.742,1.742,0,0,0,96.8,37.9Zm5.531-3.2a4.952,4.952,0,0,1,.922-3.129,3.137,3.137,0,0,1,4.766-.168V27h1.445V39h-1.328l-.07-.906a2.943,2.943,0,0,1-2.414,1.063,2.887,2.887,0,0,1-2.395-1.2,5.008,5.008,0,0,1-.926-3.141Zm1.445.164a3.749,3.749,0,0,0,.594,2.25,1.92,1.92,0,0,0,1.641.813,2.108,2.108,0,0,0,2.008-1.234V32.813a2.125,2.125,0,0,0-1.992-1.2,1.929,1.929,0,0,0-1.656.82A4.128,4.128,0,0,0,103.773,34.867Zm11.266-.406a12.085,12.085,0,0,1-.457,3.34,9.876,9.876,0,0,1-1.4,2.949,6.127,6.127,0,0,1-1.973,1.922l-.3-.883a6.281,6.281,0,0,0,1.934-2.863,12.387,12.387,0,0,0,.746-4.309v-.25a12.861,12.861,0,0,0-.344-3.051,10.3,10.3,0,0,0-.957-2.527,5.838,5.838,0,0,0-1.379-1.742l.3-.883a6.1,6.1,0,0,1,1.965,1.906,9.9,9.9,0,0,1,1.4,2.945A12.363,12.363,0,0,1,115.039,34.461Z" transform="translate(-8919 -8090)" fill="#12263f"/>
    <path id="Trazado_141179" data-name="Trazado 141179" d="M36,0A36,36,0,1,1,0,36,36,36,0,0,1,36,0Z" transform="translate(-8882 -8178)" fill="#419ca6"/>
    <g id="Grupo_79517" data-name="Grupo 79517" transform="translate(-10813.436 -9136.458)">
      <path id="Trazado_141118" data-name="Trazado 141118" d="M1977.6,1006.577a.793.793,0,0,1-.261-1.128,14.372,14.372,0,1,1,23.088,16.542,15.241,15.241,0,0,0-1.543,1.844,4.761,4.761,0,0,0-.866,2.8c.025,1.4,0,2.794.016,4.191a3.712,3.712,0,0,1-1.6,3.219c-.318.228-.229.5-.227.765a3.6,3.6,0,0,1-2.117,3.486,7.344,7.344,0,0,1-.981.336h-5.688c-.058-.155-.216-.119-.326-.155a3.563,3.563,0,0,1-2.56-3.5,1.287,1.287,0,0,0-.526-1.163,3.505,3.505,0,0,1-1.321-2.82c-.017-1.365-.062-2.729-.046-4.093a5.054,5.054,0,0,0-1.147-3.239c-.66-.853-1.466-1.573-2.15-2.4a14.552,14.552,0,0,1-3.2-12.146.757.757,0,0,1,.687-.694c.656-.05.981.295.861,1.023a15.411,15.411,0,0,0-.162,2.878,12.567,12.567,0,0,0,3.194,8.112c.628.73,1.346,1.376,1.931,2.145a7.465,7.465,0,0,1,1.323,2.439.593.593,0,0,0,.667.474c3.8.007,7.606,0,11.409,0a.581.581,0,0,0,.369-.075.554.554,0,0,0,.165-.289,8.7,8.7,0,0,1,2.367-3.852,13.205,13.205,0,0,0,3.3-5.257,12.839,12.839,0,0,0-2.474-12.693,12.286,12.286,0,0,0-8.5-4.393,13.162,13.162,0,0,0-4.291.373,12.713,12.713,0,0,0-4.867,2.526,13.348,13.348,0,0,0-3.37,4.271C1978.416,1006.744,1978.107,1006.87,1977.6,1006.577Z" transform="translate(-23.214 -19.177)"/>
      <path id="Trazado_141119" data-name="Trazado 141119" d="M2022.97,970.1a1.2,1.2,0,0,1,.449,1.083c-.018,1.4-.005,2.795-.008,4.193a2.226,2.226,0,0,1-.045.525.662.662,0,0,1-.709.53.653.653,0,0,1-.66-.53,2.417,2.417,0,0,1-.045-.525c0-1.4.009-2.795-.008-4.192a1.19,1.19,0,0,1,.448-1.083Z" transform="translate(-55.678)" fill="#020201"/>
      <path id="Trazado_141120" data-name="Trazado 141120" d="M1998.8,1030.136c-.14.118-.308.062-.462.062-3.885,0-7.77-.007-11.654.008-.372,0-.526-.1-.617-.46a7.488,7.488,0,0,0-2.068-3.362,15.929,15.929,0,0,1-3.186-4.312,13.255,13.255,0,0,1-1.057-7.931c.123-.738-.047-1.016-.721-1.126.172-.053.22-.194.27-.346.162-.5.333-.994.5-1.491.634.116.785.027,1.112-.617a12.86,12.86,0,0,1,7.947-6.7,2.315,2.315,0,0,1,.279-.052c-.035.3-.3.359-.5.467a13.864,13.864,0,0,0-5.719,5.764,12.854,12.854,0,0,0-1.476,4.9,13.837,13.837,0,0,0,2.453,9.443,28.018,28.018,0,0,0,2.24,2.581,8.115,8.115,0,0,1,1.7,2.663c.13.37.4.361.692.361q4.747,0,9.495,0C1998.284,1030,1998.573,1029.91,1998.8,1030.136Z" transform="translate(-25.414 -23.78)" fill="#f7a32f"/>
      <path id="Trazado_141121" data-name="Trazado 141121" d="M1946.2,1050.549c-.771,0-1.542.006-2.313,0-.571-.006-.888-.272-.891-.725s.309-.723.882-.725q2.289-.008,4.578,0c.546,0,.889.3.875.74-.014.421-.343.7-.867.709C1947.714,1050.557,1946.958,1050.549,1946.2,1050.549Z" transform="translate(0 -55.716)" fill="#010101"/>
      <path id="Trazado_141122" data-name="Trazado 141122" d="M2087.543,1049.1c.771,0,1.542-.005,2.313,0,.567.006.882.281.871.737-.01.436-.317.709-.854.712q-2.312.012-4.625,0a.76.76,0,0,1-.856-.72c-.006-.436.335-.725.887-.73C2086.033,1049.09,2086.788,1049.1,2087.543,1049.1Z" transform="translate(-99.723 -55.716)" fill="#010101"/>
      <path id="Trazado_141123" data-name="Trazado 141123" d="M1971.041,997.446a.717.717,0,0,1-.436.637.71.71,0,0,1-.835-.183l-1.5-1.5c-.613-.613-1.229-1.223-1.837-1.841a.73.73,0,1,1,1.026-1.014c1.094,1.086,2.181,2.179,3.274,3.266A.893.893,0,0,1,1971.041,997.446Z" transform="translate(-16.323 -16.329)"/>
      <path id="Trazado_141124" data-name="Trazado 141124" d="M2066.831,998.154a.726.726,0,0,1-.644-.436.686.686,0,0,1,.148-.8c.483-.493.974-.979,1.462-1.467.624-.625,1.247-1.252,1.875-1.873.395-.39.825-.429,1.138-.115s.275.745-.117,1.139c-1.075,1.082-2.157,2.157-3.233,3.239A.917.917,0,0,1,2066.831,998.154Z" transform="translate(-86.836 -16.333)"/>
      <path id="Trazado_141125" data-name="Trazado 141125" d="M1971.041,1093.95a.852.852,0,0,1-.272.586c-1.115,1.111-2.222,2.228-3.341,3.335a.725.725,0,1,1-1.035-1.008c1.118-1.129,2.247-2.249,3.37-3.373a.729.729,0,0,1,1.276.461Z" transform="translate(-16.321 -86.853)"/>
      <path id="Trazado_141126" data-name="Trazado 141126" d="M2071.014,1097.358a.67.67,0,0,1-.39.685.721.721,0,0,1-.878-.169q-1-1.007-2.008-2.011c-.443-.443-.891-.881-1.328-1.329a.725.725,0,0,1-.064-1.1.716.716,0,0,1,1.07.066c1.119,1.107,2.228,2.222,3.341,3.335A.709.709,0,0,1,2071.014,1097.358Z" transform="translate(-86.836 -86.84)"/>
      <path id="Trazado_141127" data-name="Trazado 141127" d="M2004.062,1028.98c-3.434-.005-6.869-.021-10.3,0-.465,0-.676-.1-.833-.574a6.611,6.611,0,0,0-1.542-2.408,18.092,18.092,0,0,1-3.522-4.7,15.037,15.037,0,0,1-1.282-4.689,13.209,13.209,0,0,1,1.333-7.491,13.784,13.784,0,0,1,5.718-5.982c.264-.147.517-.315.775-.473a11.5,11.5,0,0,1,6.084-.143,13.156,13.156,0,0,1,6.663,21.588c-.127.145-.255.289-.39.427A9.252,9.252,0,0,0,2004.062,1028.98Z" transform="translate(-30.677 -22.623)" fill="#f8d031"/>
      <path id="Trazado_141128" data-name="Trazado 141128" d="M2008.974,1098.283q5.222-.009,10.443-.022c.274,0,.362.088.356.359-.014.577-.009,1.155.007,1.732.007.254-.085.338-.334.33-.449-.015-.9-.011-1.347,0-.484.012-.745.256-.759.686a.711.711,0,0,0,.752.757,9.763,9.763,0,0,0,1.251,0c.443-.04.475.169.4.513a2.361,2.361,0,0,1-2.253,1.9c-2.454.018-4.909,0-7.363-.006-.747-.268-.937-.948-1.138-1.6a.845.845,0,0,1-.011-.781c1.822-.007,3.645-.017,5.468-.016a.878.878,0,0,0,.832-.369c.273-.432.057-.875-.525-1.091-1.408-.072-2.818-.012-4.227-.03-.433-.005-.865,0-1.3,0-.18,0-.347-.042-.358-.234A4.544,4.544,0,0,1,2008.974,1098.283Z" transform="translate(-46.405 -90.394)" fill="#51758b"/>
      <path id="Trazado_141129" data-name="Trazado 141129" d="M2020.142,1126.744a2.078,2.078,0,0,1-1.993,1.629c-1.537.019-3.074.009-4.612,0a1.694,1.694,0,0,1-1.027-.348,3.458,3.458,0,0,1-.385-.55.57.57,0,0,1,.494-.868,2.609,2.609,0,0,1,.385-.017q3.226,0,6.453,0A.885.885,0,0,1,2020.142,1126.744Z" transform="translate(-48.704 -110.375)" fill="#51748b"/>
      <path id="Trazado_141130" data-name="Trazado 141130" d="M2018.712,1125.233c-2.406,0-4.813.017-7.219-.009-.764-.008-.957.2-.545.945.062.111.164.2.133.346a2,2,0,0,1-1.047-1.673c-.026-.275.04-.4.359-.395,2.68.013,5.361.007,8.041.008C2018.863,1124.456,2018.918,1124.615,2018.712,1125.233Z" transform="translate(-47.275 -108.863)" fill="#2d5a7d"/>
      <path id="Trazado_141131" data-name="Trazado 141131" d="M2005.454,1098.293c0,.592.025,1.186-.009,1.776-.023.413.09.553.527.545,1.584-.027,3.168-.013,4.753-.008.17,0,.355-.057.508.075q-3.54,0-7.08.013c-.234,0-.355-.052-.349-.319q.022-.89,0-1.782c-.006-.267.117-.326.349-.318C2004.587,1098.29,2005.021,1098.288,2005.454,1098.293Z" transform="translate(-42.885 -90.404)" fill="#2d5a7d"/>
      <path id="Trazado_141132" data-name="Trazado 141132" d="M2005.473,1111.372a3.182,3.182,0,0,0,1.15,2.377,2.434,2.434,0,0,1-2.757-1.854c-.085-.355-.069-.594.408-.549C2004.67,1111.384,2005.073,1111.365,2005.473,1111.372Z" transform="translate(-42.9 -99.619)" fill="#2d597d"/>
      <path id="Trazado_141133" data-name="Trazado 141133" d="M2009.478,1038.182c.367.51.37.712-.005,1.2-.883,1.142-1.765,2.285-2.658,3.42a2.318,2.318,0,0,1-3.734.134c-1.49-1.638-2.99-3.269-4.45-4.934a2.3,2.3,0,0,1,1.353-3.817,2.252,2.252,0,0,1,2.155.8c.788.868,1.582,1.73,2.351,2.613.229.263.337.219.529-.03q2.186-2.842,4.4-5.666a2.233,2.233,0,0,1,2.479-.849,2.276,2.276,0,0,1,1.687,2.007,2.241,2.241,0,0,1-.491,1.664c-.429.56-.872,1.11-1.294,1.676a.819.819,0,0,1-1.125.318.711.711,0,0,1-.22-1.13c.333-.491.718-.946,1.085-1.413a2.345,2.345,0,0,0,.407-.65.668.668,0,0,0-.232-.817.649.649,0,0,0-.881.019,7.837,7.837,0,0,0-1.079,1.291q-1.994,2.567-3.985,5.137a3.043,3.043,0,0,1-.31.368.833.833,0,0,1-1.279.021c-.557-.51-1.017-1.112-1.531-1.663-.57-.609-1.091-1.264-1.7-1.839-.408-.386-.771-.417-1.1-.1a.759.759,0,0,0,.041,1.115c1.346,1.55,2.769,3.033,4.108,4.588.063.073.133.139.2.206a.831.831,0,0,0,1.422-.077c.882-1.1,1.74-2.227,2.6-3.344a.96.96,0,0,1,.85-.452C2009.242,1037.984,2009.4,1038,2009.478,1038.182Z" transform="translate(-38.812 -42.924)"/>
      <path id="Trazado_141134" data-name="Trazado 141134" d="M2012.971,1041.653c-.583-.215-.778-.165-1.158.322-.869,1.113-1.733,2.231-2.6,3.345-.515.661-1.04.69-1.6.075q-2.153-2.372-4.294-4.754a.883.883,0,0,1-.04-1.355.866.866,0,0,1,1.309.179c1,1.091,1.981,2.192,2.976,3.284.577.633.964.617,1.479-.046l4.783-6.162c.089-.114.174-.231.272-.338a.863.863,0,0,1,1.352,1.072c-.416.57-.863,1.118-1.293,1.678-.394.514-.391.722.006,1.23Z" transform="translate(-42.306 -46.395)" fill="#f7a32f"/>
    </g>
    <path id="Trazado_141151" data-name="Trazado 141151" d="M31,0H200V84a31,31,0,0,1-31,31H0V31A31,31,0,0,1,31,0Z" transform="translate(-8678 -8143)" fill="#99d4db"/>
    <path id="Trazado_141180" data-name="Trazado 141180" d="M43.59,10.547V15h-1.5V3.625h4.2a4.215,4.215,0,0,1,2.926.953A3.231,3.231,0,0,1,50.27,7.1a3.189,3.189,0,0,1-1.035,2.551,4.4,4.4,0,0,1-2.965.895Zm0-1.227h2.7a2.7,2.7,0,0,0,1.844-.567,2.075,2.075,0,0,0,.641-1.64,2.143,2.143,0,0,0-.641-1.628,2.525,2.525,0,0,0-1.758-.634H43.59ZM56.043,7.844a4.331,4.331,0,0,0-.711-.055A1.9,1.9,0,0,0,53.4,9v6H51.957V6.547h1.406l.023.977A2.251,2.251,0,0,1,55.4,6.391a1.477,1.477,0,0,1,.641.109ZM62.277,15a3.036,3.036,0,0,1-.2-.891,3.225,3.225,0,0,1-2.406,1.047,2.984,2.984,0,0,1-2.051-.707,2.287,2.287,0,0,1-.8-1.793,2.39,2.39,0,0,1,1-2.051,4.733,4.733,0,0,1,2.824-.73h1.406V9.211A1.623,1.623,0,0,0,61.6,8a1.821,1.821,0,0,0-1.336-.449,2.107,2.107,0,0,0-1.3.391,1.151,1.151,0,0,0-.523.945H56.988a2,2,0,0,1,.449-1.223,3.066,3.066,0,0,1,1.219-.934,4.1,4.1,0,0,1,1.691-.344,3.342,3.342,0,0,1,2.289.73A2.635,2.635,0,0,1,63.5,9.133v3.891a4.757,4.757,0,0,0,.3,1.852V15Zm-2.4-1.1a2.54,2.54,0,0,0,1.289-.352,2.127,2.127,0,0,0,.883-.914V10.9H60.918q-2.656,0-2.656,1.555a1.316,1.316,0,0,0,.453,1.063A1.742,1.742,0,0,0,59.879,13.9ZM61.215,3.016h1.75l-2.094,2.3-1.164,0Zm7.938,10.961a2.082,2.082,0,0,0,1.352-.469,1.649,1.649,0,0,0,.641-1.172h1.367a2.621,2.621,0,0,1-.5,1.383,3.293,3.293,0,0,1-1.23,1.047,3.55,3.55,0,0,1-1.629.391A3.482,3.482,0,0,1,66.406,14a4.59,4.59,0,0,1-1.02-3.152v-.242a5.089,5.089,0,0,1,.453-2.2,3.451,3.451,0,0,1,1.3-1.492,3.7,3.7,0,0,1,2-.531,3.39,3.39,0,0,1,2.363.852,3.043,3.043,0,0,1,1,2.211H71.145a1.992,1.992,0,0,0-.621-1.348,1.932,1.932,0,0,0-1.379-.527,2.023,2.023,0,0,0-1.707.793,3.724,3.724,0,0,0-.605,2.293v.273a3.65,3.65,0,0,0,.6,2.25A2.033,2.033,0,0,0,69.152,13.977ZM76.1,4.5V6.547h1.578V7.664H76.1v5.249a1.173,1.173,0,0,0,.211.763.888.888,0,0,0,.719.254,3.5,3.5,0,0,0,.688-.094V15a4.215,4.215,0,0,1-1.109.155,1.8,1.8,0,0,1-1.461-.586,2.517,2.517,0,0,1-.492-1.664V7.664H73.113V6.547h1.539V4.5ZM80.934,15H79.488V6.547h1.445ZM79.371,4.3a.863.863,0,0,1,.215-.594.807.807,0,0,1,.637-.242.819.819,0,0,1,.641.242.854.854,0,0,1,.219.594.826.826,0,0,1-.219.586.834.834,0,0,1-.641.234.821.821,0,0,1-.637-.234A.834.834,0,0,1,79.371,4.3Zm7.266,9.672a2.082,2.082,0,0,0,1.352-.469,1.649,1.649,0,0,0,.641-1.172H90a2.621,2.621,0,0,1-.5,1.383,3.293,3.293,0,0,1-1.23,1.047,3.55,3.55,0,0,1-1.629.391A3.482,3.482,0,0,1,83.891,14a4.59,4.59,0,0,1-1.02-3.152v-.242a5.089,5.089,0,0,1,.453-2.2,3.451,3.451,0,0,1,1.3-1.492,3.7,3.7,0,0,1,2-.531,3.39,3.39,0,0,1,2.363.852,3.043,3.043,0,0,1,1,2.211H88.629a1.992,1.992,0,0,0-.621-1.348,1.932,1.932,0,0,0-1.379-.527,2.023,2.023,0,0,0-1.707.793,3.724,3.724,0,0,0-.605,2.293v.273a3.65,3.65,0,0,0,.6,2.25A2.033,2.033,0,0,0,86.637,13.977ZM96.84,15a3.036,3.036,0,0,1-.2-.891,3.225,3.225,0,0,1-2.406,1.047,2.984,2.984,0,0,1-2.051-.707,2.288,2.288,0,0,1-.8-1.793,2.39,2.39,0,0,1,1-2.051,4.733,4.733,0,0,1,2.824-.73h1.406V9.211A1.623,1.623,0,0,0,96.16,8a1.821,1.821,0,0,0-1.336-.449,2.108,2.108,0,0,0-1.3.391A1.151,1.151,0,0,0,93,8.891H91.551A2,2,0,0,1,92,7.668a3.066,3.066,0,0,1,1.219-.934,4.1,4.1,0,0,1,1.691-.344,3.342,3.342,0,0,1,2.289.73,2.635,2.635,0,0,1,.859,2.012v3.891a4.757,4.757,0,0,0,.3,1.852V15Zm-2.4-1.1a2.54,2.54,0,0,0,1.289-.352,2.127,2.127,0,0,0,.883-.914V10.9H95.48q-2.656,0-2.656,1.555a1.316,1.316,0,0,0,.453,1.063A1.742,1.742,0,0,0,94.441,13.9Zm-67.7,20.484a12.079,12.079,0,0,1,.473-3.391,9.85,9.85,0,0,1,1.41-2.953,6,6,0,0,1,1.945-1.875l.3.953A6.222,6.222,0,0,0,29,29.789a11.583,11.583,0,0,0-.8,4.023l-.008.664a11.643,11.643,0,0,0,1.1,5.234,6.252,6.252,0,0,0,1.578,2.078l-.3.883a6.192,6.192,0,0,1-1.984-1.937A10.859,10.859,0,0,1,26.742,34.383ZM34.1,39H32.6V27.625h1.5Zm3.883-8.453.047,1.063a3.08,3.08,0,0,1,2.531-1.219q2.68,0,2.7,3.023V39H41.82V33.406a1.946,1.946,0,0,0-.418-1.352,1.675,1.675,0,0,0-1.277-.437,2.086,2.086,0,0,0-1.234.375,2.546,2.546,0,0,0-.828.984V39H36.617V30.547Zm8.828,0,.047,1.063a3.08,3.08,0,0,1,2.531-1.219q2.68,0,2.7,3.023V39H50.648V33.406a1.946,1.946,0,0,0-.418-1.352,1.675,1.675,0,0,0-1.277-.437,2.086,2.086,0,0,0-1.234.375,2.546,2.546,0,0,0-.828.984V39H45.445V30.547ZM53.891,34.7a4.993,4.993,0,0,1,.488-2.234,3.643,3.643,0,0,1,1.359-1.531,3.7,3.7,0,0,1,1.988-.539,3.565,3.565,0,0,1,2.793,1.2,4.6,4.6,0,0,1,1.066,3.18v.1a5.036,5.036,0,0,1-.473,2.215,3.589,3.589,0,0,1-1.352,1.527,3.743,3.743,0,0,1-2.02.547,3.556,3.556,0,0,1-2.785-1.2A4.575,4.575,0,0,1,53.891,34.8Zm1.453.172A3.616,3.616,0,0,0,56,37.125a2.211,2.211,0,0,0,3.5-.012,3.955,3.955,0,0,0,.648-2.418,3.61,3.61,0,0,0-.66-2.254,2.1,2.1,0,0,0-1.754-.863A2.075,2.075,0,0,0,56,32.43,3.925,3.925,0,0,0,55.344,34.867ZM66.07,37.039l2.094-6.492h1.477L66.609,39h-1.1l-3.062-8.453h1.477ZM76.133,39a3.036,3.036,0,0,1-.2-.891,3.225,3.225,0,0,1-2.406,1.047,2.984,2.984,0,0,1-2.051-.707,2.288,2.288,0,0,1-.8-1.793,2.39,2.39,0,0,1,1-2.051,4.733,4.733,0,0,1,2.824-.73h1.406v-.664A1.623,1.623,0,0,0,75.453,32a1.821,1.821,0,0,0-1.336-.449,2.108,2.108,0,0,0-1.3.391,1.151,1.151,0,0,0-.523.945H70.844a2,2,0,0,1,.449-1.223,3.066,3.066,0,0,1,1.219-.934,4.1,4.1,0,0,1,1.691-.344,3.342,3.342,0,0,1,2.289.73,2.635,2.635,0,0,1,.859,2.012v3.891a4.757,4.757,0,0,0,.3,1.852V39Zm-2.4-1.1a2.54,2.54,0,0,0,1.289-.352,2.127,2.127,0,0,0,.883-.914V34.9H74.773q-2.656,0-2.656,1.555a1.316,1.316,0,0,0,.453,1.063A1.742,1.742,0,0,0,73.734,37.9Zm9.273.078a2.082,2.082,0,0,0,1.352-.469A1.649,1.649,0,0,0,85,36.336h1.367a2.621,2.621,0,0,1-.5,1.383,3.293,3.293,0,0,1-1.23,1.047,3.55,3.55,0,0,1-1.629.391A3.482,3.482,0,0,1,80.262,38a4.59,4.59,0,0,1-1.02-3.152v-.242a5.089,5.089,0,0,1,.453-2.2A3.451,3.451,0,0,1,81,30.922a3.7,3.7,0,0,1,2-.531,3.39,3.39,0,0,1,2.363.852,3.043,3.043,0,0,1,1,2.211H85a1.992,1.992,0,0,0-.621-1.348A1.932,1.932,0,0,0,83,31.578a2.023,2.023,0,0,0-1.707.793,3.724,3.724,0,0,0-.605,2.293v.273a3.65,3.65,0,0,0,.6,2.25A2.033,2.033,0,0,0,83.008,37.977ZM89.563,39H88.117V30.547h1.445ZM88,28.3a.863.863,0,0,1,.215-.594.807.807,0,0,1,.637-.242.819.819,0,0,1,.641.242.854.854,0,0,1,.219.594.826.826,0,0,1-.219.586.834.834,0,0,1-.641.234.821.821,0,0,1-.637-.234A.834.834,0,0,1,88,28.3ZM91.492,34.7a4.993,4.993,0,0,1,.488-2.234A3.643,3.643,0,0,1,93.34,30.93a3.7,3.7,0,0,1,1.988-.539,3.565,3.565,0,0,1,2.793,1.2,4.6,4.6,0,0,1,1.066,3.18v.1a5.036,5.036,0,0,1-.473,2.215,3.589,3.589,0,0,1-1.352,1.527,3.743,3.743,0,0,1-2.02.547,3.556,3.556,0,0,1-2.785-1.2A4.575,4.575,0,0,1,91.492,34.8Zm1.453.172a3.616,3.616,0,0,0,.652,2.258,2.211,2.211,0,0,0,3.5-.012,3.955,3.955,0,0,0,.648-2.418,3.61,3.61,0,0,0-.66-2.254,2.1,2.1,0,0,0-1.754-.863,2.075,2.075,0,0,0-1.727.852A3.925,3.925,0,0,0,92.945,34.867Zm3.039-7.852h1.75l-2.094,2.3-1.164,0Zm6.383,3.531.047,1.063a3.08,3.08,0,0,1,2.531-1.219q2.68,0,2.7,3.023V39H106.2V33.406a1.946,1.946,0,0,0-.418-1.352,1.675,1.675,0,0,0-1.277-.437,2.086,2.086,0,0,0-1.234.375,2.546,2.546,0,0,0-.828.984V39H101V30.547Zm10.8,3.914a12.085,12.085,0,0,1-.457,3.34,9.876,9.876,0,0,1-1.4,2.949,6.127,6.127,0,0,1-1.973,1.922l-.3-.883a6.281,6.281,0,0,0,1.934-2.863,12.387,12.387,0,0,0,.746-4.309v-.25a12.861,12.861,0,0,0-.344-3.051,10.3,10.3,0,0,0-.957-2.527,5.838,5.838,0,0,0-1.379-1.742l.3-.883A6.1,6.1,0,0,1,111.3,28.07a9.9,9.9,0,0,1,1.4,2.945A12.363,12.363,0,0,1,113.164,34.461Z" transform="translate(-8648 -8090)" fill="#12263f"/>
    <path id="Trazado_141181" data-name="Trazado 141181" d="M36,0A36,36,0,1,1,0,36,36,36,0,0,1,36,0Z" transform="translate(-8614 -8178)" fill="#419ca6"/>
    <g id="XvFOnX" transform="translate(-10107.013 -8712.859)">
      <g id="Grupo_74595" data-name="Grupo 74595" transform="translate(1508.371 549.625)">
        <path id="Trazado_110212" data-name="Trazado 110212" d="M1546.464,586.724l0-1.5a3.485,3.485,0,0,1,.967-.03c.3-.006.443-.116.42-.421,0-.044,0-.089,0-.133a.6.6,0,0,0-.917-.593c-.166.074-.159.23-.207.366-.069.2.016.461-.253.569l-.013-2.5c.555-.158.583-.569.581-1.063q-.019-12.142-.013-24.284a2.522,2.522,0,0,1,.742-1.976,2.275,2.275,0,0,1,1.48-.638c.134-.007.267-.006.4-.006q11.786,0,23.572,0a2.471,2.471,0,0,1,2.006.77,2.315,2.315,0,0,1,.609,1.493c0,.119,0,.237,0,.356q0,17.489.005,34.978a2.523,2.523,0,0,1-.707,1.946,2.278,2.278,0,0,1-1.556.675c-.1,0-.208,0-.312,0q-11.831,0-23.661,0a2.5,2.5,0,0,1-1.771-.584,2.33,2.33,0,0,1-.806-1.812c0-1.515-.017-3.031.009-4.545C1547.055,587.29,1547.018,586.883,1546.464,586.724Z" transform="translate(-1536.431 -553.215)" fill="#d5dddf"/>
        <path id="Trazado_110213" data-name="Trazado 110213" d="M1544.436,583.159c.715.037.715.037.715.771V588.7a2.147,2.147,0,0,0,1.962,2.316,2.19,2.19,0,0,0,.334,0h23.931a2.142,2.142,0,0,0,2.293-1.978,2.118,2.118,0,0,0,0-.3V553.354a2.135,2.135,0,0,0-2.252-2.271q-12.01,0-24.02,0a2.135,2.135,0,0,0-2.25,2.012,2.161,2.161,0,0,0,0,.265v24.778c0,.734,0,.734-.716.771-.71-.037-.71-.037-.71-.772V553.543a3.587,3.587,0,0,1,3.878-3.884h23.615a3.586,3.586,0,0,1,3.883,3.878q0,17.511,0,35.021a3.589,3.589,0,0,1-3.877,3.886H1547.61a3.588,3.588,0,0,1-3.884-3.878c0-1.619.018-3.238-.012-4.856-.008-.443.1-.624.546-.538A.7.7,0,0,0,1544.436,583.159Z" transform="translate(-1534.405 -549.65)"/>
        <path id="Trazado_110214" data-name="Trazado 110214" d="M1509.133,572.437c-.71-.037-.652-.042-.723-.772a6.563,6.563,0,0,1,1.029-4.308,7.977,7.977,0,0,0,.461-.911.678.678,0,0,1,.641-.4.7.7,0,0,1,.683.407c.453.916.914,1.828,1.373,2.742a1.218,1.218,0,0,1,.1.562q0,16.265,0,32.529a2.14,2.14,0,0,1-4.276.175c0-.06,0-.12,0-.179q0-14.014-.01-28.026c0-.33.072-.464.409-.405a1.433,1.433,0,0,0,.31-.011c.579-.237.822-.094.854.5.01.19,0,.386,0,.579v22.37c0,.624.3.83.9.644a.3.3,0,0,0,.227-.289,4.217,4.217,0,0,0,.012-.443q0-13.369.007-26.737a2.878,2.878,0,0,0-.389-1.439c-.15-.27-.253-.229-.385.013a2.609,2.609,0,0,0-.38,1.4c.024.506.018,1.012,0,1.515C1509.964,572.531,1509.712,572.673,1509.133,572.437Z" transform="translate(-1508.371 -561.718)"/>
        <path id="Trazado_110215" data-name="Trazado 110215" d="M1511.267,578.887c.715-.037.715-.037.715-.771a6.525,6.525,0,0,0-.006-.89,3.6,3.6,0,0,1,.736-2.428,4.976,4.976,0,0,1,.71,1.984q-.031,13.635,0,27.267c0,.4-.1.516-.5.5-.932-.032-.933-.01-.933-.952V581.052c0-.734,0-.734-.715-.771Z" transform="translate(-1510.504 -568.168)" fill="#d5dddf"/>
        <path id="Trazado_110216" data-name="Trazado 110216" d="M1533.656,569.741c-.747,0-.747,0-.747-.763a2.767,2.767,0,0,0,0-.354c-.032-.245.083-.316.306-.286a.548.548,0,0,0,.088,0c1.042-.008,1.029-.008,1.043,1.017,0,.3-.052.443-.379.389A1.851,1.851,0,0,0,1533.656,569.741Z" transform="translate(-1526.443 -563.405)" fill="#010101"/>
        <path id="Trazado_110217" data-name="Trazado 110217" d="M1534.36,590.248c0,.716,0,.716-.711.716s-.716,0-.716-.711c0-.685,0-.685.688-.685h.044C1534.36,589.569,1534.36,589.569,1534.36,590.248Z" transform="translate(-1526.464 -579.048)" fill="#020202"/>
        <path id="Trazado_110218" data-name="Trazado 110218" d="M1533.657,601.492c-.746,0-.746,0-.746-.727a2.3,2.3,0,0,0,0-.355c-.047-.293.093-.367.35-.327a.552.552,0,0,0,.089,0c1,0,.98,0,1,1.012.007.352-.111.443-.425.395A1.782,1.782,0,0,0,1533.657,601.492Z" transform="translate(-1526.441 -586.786)" fill="#010101"/>
        <path id="Trazado_110219" data-name="Trazado 110219" d="M1533.621,612.106c-.684,0-.684,0-.684-.688,0-.707,0-.707.72-.707s.707,0,.707.72C1534.363,612.106,1534.363,612.106,1533.621,612.106Z" transform="translate(-1526.466 -594.622)" fill="#020202"/>
        <path id="Trazado_110220" data-name="Trazado 110220" d="M1533.679,633.295c-.743,0-.743,0-.743-.732,0-.67,0-.67.662-.67.765,0,.765,0,.765.744C1534.363,633.295,1534.363,633.295,1533.679,633.295Z" transform="translate(-1526.466 -610.226)" fill="#010101"/>
        <path id="Trazado_110221" data-name="Trazado 110221" d="M1534.363,643.095c0,.712,0,.712-.926.712-.5,0-.5,0-.5-.88,0-.527,0-.483.949-.54C1534.6,642.343,1534.3,642.825,1534.363,643.095Z" transform="translate(-1526.466 -617.953)" fill="#010101"/>
        <path id="Trazado_110222" data-name="Trazado 110222" d="M1546.5,667.087a.851.851,0,0,0,.063-.162c.17-1,.169-.992,1.183-.931.182.011.283.046.253.247v.044c-.032.375.166.967-.084,1.079a2.076,2.076,0,0,1-1.423-.031C1546.49,667.251,1546.492,667.17,1546.5,667.087Z" transform="translate(-1536.449 -635.329)" fill="#010101"/>
        <path id="Trazado_110223" data-name="Trazado 110223" d="M1525.169,551.734a4.162,4.162,0,0,0-.893-.369c-.1-.03-.038-.153-.021-.237.043-.216.076-.435.126-.65.147-.671.032-.559.65-.364,1.072.338,1.066.358.451,1.291C1525.257,551.739,1525.257,551.739,1525.169,551.734Z" transform="translate(-1520.047 -549.874)" fill="#010101"/>
        <path id="Trazado_110224" data-name="Trazado 110224" d="M1532.389,556.783a4.334,4.334,0,0,1,.6,1.278c.059.2.008.271-.174.3-.088.014-.176.026-.263.045-.945.206-.937.2-1.254-.686-.063-.169.024-.208.122-.274Z" transform="translate(-1525.242 -554.898)" fill="#010101"/>
        <path id="Trazado_110225" data-name="Trazado 110225" d="M1537.387,661.565a8.142,8.142,0,0,0,.718.719c.141.147-.115.287-.17.438a.876.876,0,0,1-.091.152c-.456.727-.456.727-1.1.109-.577-.556-.578-.557.069-1.017C1536.993,661.839,1537.174,661.712,1537.387,661.565Z" transform="translate(-1528.959 -632.083)" fill="#010101"/>
        <path id="Trazado_110226" data-name="Trazado 110226" d="M1533.664,653.067c.676,0,.615.01.713.64.083.539-.132.657-.584.745-.848.163-.844.19-.861-.7C1532.917,653.067,1532.917,653.067,1533.664,653.067Z" transform="translate(-1526.461 -625.823)" fill="#010101"/>
        <path id="Trazado_110227" data-name="Trazado 110227" d="M1515.4,550.346c0,.713,0,.713-.7.713a.119.119,0,0,1-.043,0c-.227-.111-.691.288-.684-.338.008-.775.2-1.061.773-1.087C1515.4,549.6,1515.4,549.6,1515.4,550.346Z" transform="translate(-1512.491 -549.625)"/>
        <path id="Trazado_110228" data-name="Trazado 110228" d="M1533.614,580.379c-.677,0-.677,0-.677-.659,0-.721,0-.721.7-.721.722,0,.722,0,.722.7C1534.362,580.379,1534.362,580.379,1533.614,580.379Z" transform="translate(-1526.466 -571.263)"/>
        <path id="Trazado_110229" data-name="Trazado 110229" d="M1533.648,622.718c-.712,0-.712,0-.712-.713,0-.667,0-.667.669-.667.759,0,.759,0,.759.759a1.29,1.29,0,0,0,0,.221c.063.335-.073.461-.4.4A1.881,1.881,0,0,0,1533.648,622.718Z" transform="translate(-1526.466 -602.45)"/>
        <path id="Trazado_110230" data-name="Trazado 110230" d="M1557.3,594.715v-4.251c.556-.161.579-.577.578-1.07q-.018-11.475-.008-22.95c0-1.081.017-1.1,1.088-1.1h20.989c1.006,0,1.033.026,1.033,1.012v29.635c0,.987-.034,1.021-1.029,1.021h-21.078c-.955,0-1-.047-1-1.007a1.735,1.735,0,0,1,0-.222C1557.929,595.294,1557.851,594.876,1557.3,594.715Z" transform="translate(-1544.41 -561.206)" fill="#2d72bb"/>
        <path id="Trazado_110231" data-name="Trazado 110231" d="M1555.281,591.134c.715.036.715.036.715.785,0,.371.008.743,0,1.114-.006.194.063.273.258.253.088-.008.178,0,.267,0q10.9,0,21.791.008c.394,0,.516-.083.516-.5q-.02-15.2,0-30.392c0-.425-.13-.5-.519-.5q-10.9.017-21.791,0c-.434,0-.531.108-.53.535q.021,11.83.01,23.661c0,.75,0,.75-.716.785-.711-.035-.711-.035-.711-.774V561.562c0-.886.186-1.076,1.06-1.076H1579.2c.847,0,1.044.2,1.044,1.049q0,16.06,0,32.121c0,.869-.19,1.059-1.079,1.059h-23.523c-.88,0-1.068-.19-1.069-1.067,0-.668.025-1.338-.01-2-.021-.4.09-.569.5-.5A.953.953,0,0,0,1555.281,591.134Z" transform="translate(-1542.395 -557.626)"/>
        <path id="Trazado_110232" data-name="Trazado 110232" d="M1593.331,697.268c-1.084,0-2.167-.007-3.25.006-.249,0-.316-.063-.323-.316-.015-1.114-.024-1.114,1.075-1.114,1.9,0,3.8.006,5.7-.006.288,0,.369.07.367.363-.006,1.069.006,1.069-1.079,1.069Z" transform="translate(-1568.321 -657.328)"/>
        <path id="Trazado_110233" data-name="Trazado 110233" d="M1513.972,694.64c0-.414.012-.829,0-1.243-.01-.235.073-.295.3-.3,1.128-.04,1.127-.047,1.127,1.075,0,.563.006,1.125,0,1.687a.72.72,0,0,1-.628.8c-.023,0-.045,0-.068.005-.435.009-.718-.307-.726-.823C1513.967,695.439,1513.972,695.04,1513.972,694.64Z" transform="translate(-1512.493 -655.298)" fill="#2d71bb"/>
        <path id="Trazado_110234" data-name="Trazado 110234" d="M1570.413,585.849c-.768.471-1.48.892-2.172,1.341-.253.162-.354.117-.5-.126-.552-.914-.561-.907.333-1.455.7-.426,1.388-.86,2.088-1.278a.471.471,0,0,0,.258-.464q-.011-3.364,0-6.729c0-.3-.1-.373-.379-.365-.713.018-1.427-.007-2.139.012-.279.008-.345-.082-.348-.352-.01-1.081-.02-1.081,1.039-1.081.506,0,1.012-.009,1.515,0,.225.006.339-.055.306-.3a1,1,0,0,1,0-.223c.027-.291-.141-.727.07-.843.348-.19.808-.057,1.221-.058.153,0,.132.132.134.232,0,.3.015.6,0,.892-.014.24.079.3.307.3q1.85-.014,3.7,0c.212,0,.29-.066.28-.28-.014-.3,0-.594-.006-.892-.007-.19.054-.283.253-.258a.243.243,0,0,0,.044,0c1.107-.055,1.114-.055,1.126,1.071,0,.253.043.367.337.363q1.8-.025,3.61,0c.284,0,.38-.09.338-.355a.268.268,0,0,1,0-.044c.013-1.127.013-1.121,1.17-1.037.19.014.279.06.257.257a1.543,1.543,0,0,0,0,.178c.006,1,.006,1,.983,1,.52,0,1.04.008,1.559,0,.219-.005.306.046.316.292.047,1.139.056,1.139-1.07,1.139-.49,0-.981.014-1.47,0-.258-.01-.339.08-.323.329.018.281,0,.564.007.847.008.19-.063.278-.253.253a.257.257,0,0,0-.044,0c-1.1.053-1.11.053-1.122-1.075,0-.259-.052-.363-.34-.36q-1.805.025-3.61,0c-.289,0-.373.1-.334.36a.335.335,0,0,1,0,.044c-.013,1.127-.013,1.122-1.173,1.034-.19-.014-.274-.068-.253-.26a.939.939,0,0,0,0-.134c-.013-1.037-.013-1.037-1.031-1.037h-2.9c-.172,0-.356-.049-.355.246.008,2.061,0,4.122,0,6.263.913-.559,1.772-1.083,2.624-1.608.62-.38,1.246-.752,1.855-1.149a.864.864,0,0,1,1.033,0c.879.554,1.768,1.093,2.657,1.633a.652.652,0,0,0,.391.17c0-.31.013-.618,0-.923-.014-.253.039-.362.333-.366,1.1-.014,1.166-.022,1.075,1.067a1.633,1.633,0,0,0,1.007,1.8c1.139.6,2.2,1.348,3.314,2,.316.187.309.329.134.605-.534.843-.522.845-1.354.332-2.566-1.582-5.136-3.154-7.695-4.745a.613.613,0,0,0-.76.006c-1.369.862-2.741,1.72-4.135,2.542a.785.785,0,0,0-.481.878,4.858,4.858,0,0,1,0,.642c.97-.6,1.873-1.164,2.774-1.727.58-.361,1.162-.718,1.734-1.09a.8.8,0,0,1,.953-.008q2.752,1.729,5.513,3.445a.872.872,0,0,1,.438.814c-.006,2.273,0,4.546,0,6.819,0,.637-.253.881-.9.881-3.342,0-6.685.007-10.028-.008-.38,0-.518.072-.493.481.039.666.022,1.337,0,2-.007.277.053.388.361.383q1.782-.027,3.565,0c.3,0,.363-.1.364-.38,0-1.092.011-1.083,1.1-1.059.253.005.33.074.328.328,0,.352-.159.814.063,1.029.241.233.706.067,1.072.072.921.012,1.843-.006,2.763.01.279,0,.427-.058.375-.363a.224.224,0,0,1,0-.044c.012-1.129.011-1.123,1.178-1.03.2.016.268.08.248.266a.455.455,0,0,0,0,.089c.036.349-.165.823.088,1.012.23.174.682.058,1.037.063.475,0,.949.011,1.426,0,.23-.007.3.064.308.3.041,1.131.049,1.13-1.076,1.13-.416,0-.834.029-1.247-.008s-.613.068-.538.519c.031.19-.013.388.009.578.034.288-.092.341-.354.343-1.062.01-1.076.019-1.068-1.043,0-.311-.08-.4-.395-.4-1.174.019-2.347.016-3.521,0-.283,0-.422.066-.371.366a.223.223,0,0,1,0,.044c-.011,1.131-.011,1.125-1.181,1.027-.2-.017-.264-.087-.245-.269a.681.681,0,0,0,0-.089c-.011-.339.106-.785-.063-.99-.205-.244-.668-.075-1.019-.08-.949-.013-1.9.005-2.852-.011-.276-.005-.388.077-.343.351a.266.266,0,0,1,0,.044c-.014,1.127-.014,1.122-1.165,1.042-.18-.013-.28-.049-.263-.253.011-.133,0-.267,0-.4,0-.778,0-.778-.8-.778-.564,0-1.129-.01-1.693,0-.253.006-.364-.034-.368-.332-.015-1.1-.028-1.1,1.067-1.1.476,0,.949-.017,1.426.006.29.013.38-.075.375-.37-.014-1.441-.006-2.882-.006-4.323v-7.634Z" transform="translate(-1551.821 -567.499)"/>
        <path id="Trazado_110235" data-name="Trazado 110235" d="M1558.9,666.8c0,.7,0,.7-.7.7-.679,0-.679,0-.679-.681,0-.745,0-.745.659-.745C1558.9,666.076,1558.9,666.076,1558.9,666.8Z" transform="translate(-1544.581 -635.403)" fill="#000101"/>
        <path id="Trazado_110236" data-name="Trazado 110236" d="M1584.357,621.4c0-.891.007-1.782,0-2.673a.464.464,0,0,1,.253-.459q2.251-1.392,4.488-2.808a.421.421,0,0,1,.521.006q2.237,1.415,4.489,2.808a.434.434,0,0,1,.241.421q-.012,2.72,0,5.436c0,.248-.063.33-.316.325q-1.113-.024-2.228,0c-.26.006-.316-.083-.316-.327.012-1.025.008-2.049,0-3.074,0-.618-.253-.878-.853-.882q-1.292-.008-2.584,0c-.58,0-.837.263-.84.848-.005,1.012-.018,2.02.008,3.029.009.347-.1.419-.421.407-.682-.025-1.366-.023-2.049,0-.3.01-.408-.056-.4-.38C1584.373,623.183,1584.357,622.291,1584.357,621.4Z" transform="translate(-1564.338 -598.057)" fill="#fbbb04"/>
        <path id="Trazado_110237" data-name="Trazado 110237" d="M1600.623,640.25v-.311c0-1.184,0-1.18,1.2-1.075.17.015.228.057.227.23q-.01,1.2,0,2.4c0,.172-.052.249-.227.226h-.044c-1.158.064-1.158.064-1.158-1.07Z" transform="translate(-1576.326 -615.329)" fill="#d5dddf"/>
      </g>
    </g>
    <path id="Trazado_141182" data-name="Trazado 141182" d="M31,0H211V84a31,31,0,0,1-31,31H0V31A31,31,0,0,1,31,0Z" transform="translate(-8414 -8143)" fill="#71cad5"/>
    <path id="Trazado_141183" data-name="Trazado 141183" d="M15.719,15.7h3.2l.5,11.66H15.215Zm3.82-3.633a1.819,1.819,0,0,1-.627,1.424,2.477,2.477,0,0,1-3.129,0,1.93,1.93,0,0,1,0-2.848,2.477,2.477,0,0,1,3.129,0A1.819,1.819,0,0,1,19.539,12.066Zm13.254,3.691H26.324v4.078h7.641V23H22.211V5.938H33.988V9.113H26.324v3.6h6.469ZM28.961,1.367h4.172l-3.258,3.68-3.223-.006ZM40.6,13.813l1.84-3.492h4.1L43.2,16.5,46.7,23H42.578l-1.992-3.75L38.629,23H34.48L38,16.5,34.668,10.32h4.148ZM51.977,23H48.016V10.32h3.961Zm-4.2-15.961a1.778,1.778,0,0,1,.609-1.391,2.579,2.579,0,0,1,3.164,0,1.778,1.778,0,0,1,.609,1.391,1.778,1.778,0,0,1-.609,1.391,2.579,2.579,0,0,1-3.164,0A1.778,1.778,0,0,1,47.781,7.039Zm11.227.129V10.32h2.086v2.742H59.008v5.8a1.481,1.481,0,0,0,.258,1,1.383,1.383,0,0,0,1.02.281,5.793,5.793,0,0,0,.984-.07v2.824a7.288,7.288,0,0,1-2.227.34,4.137,4.137,0,0,1-3.012-.961,3.939,3.939,0,0,1-.973-2.918V13.063H53.441V10.32h1.617V7.168ZM61.8,16.543a7.484,7.484,0,0,1,.738-3.381,5.28,5.28,0,0,1,2.121-2.279,6.388,6.388,0,0,1,3.246-.8,5.83,5.83,0,0,1,4.488,1.764,6.768,6.768,0,0,1,1.641,4.8v.141a6.566,6.566,0,0,1-1.646,4.705,5.846,5.846,0,0,1-4.459,1.74,5.912,5.912,0,0,1-4.348-1.623,6.348,6.348,0,0,1-1.77-4.4Zm3.949.246a4.718,4.718,0,0,0,.551,2.578,1.835,1.835,0,0,0,1.629.82q2.109,0,2.156-3.246v-.4q0-3.41-2.18-3.41-1.98,0-2.145,2.941Zm13.945.809h-3.2l-.5-11.66H80.2Zm-3.82,3.633a1.819,1.819,0,0,1,.627-1.424,2.477,2.477,0,0,1,3.129,0,1.93,1.93,0,0,1,0,2.848,2.477,2.477,0,0,1-3.129,0A1.819,1.819,0,0,1,75.871,21.23Z" transform="translate(-8356 -8082)" fill="#12263f"/>
    <path id="Trazado_141149" data-name="Trazado 141149" d="M36,0A36,36,0,1,1,0,36,36,36,0,0,1,36,0Z" transform="translate(-8344 -8178)" fill="#419ca6"/>
    <g id="Grupo_79518" data-name="Grupo 79518" transform="translate(-10226.359 -9567.013)">
      <path id="Trazado_141135" data-name="Trazado 141135" d="M1932.992,1441.684c-.168-.363-.284-.75-.427-1.126a2.421,2.421,0,0,0-2.451-1.712c-.627-.005-1.254-.016-1.88.006a.458.458,0,0,1-.516-.354c-.325-.831-.677-1.651-1.038-2.467-.124-.28-.118-.422.2-.57.931-.43,1.844-.9,2.758-1.366a2.251,2.251,0,0,0,1.192-3.058q-1.329-3.575-2.658-7.15c-.5-1.338-.986-2.68-1.506-4.009a2.276,2.276,0,0,0-2.942-1.3c-.954.448-1.927.855-2.892,1.278-.074.032-.15.105-.239.053a1.484,1.484,0,0,1-.192-1.209q.8-.939,1.594-1.875a8.6,8.6,0,0,0,2-4.223,1.388,1.388,0,0,1,.321-.674c.659-.791,1.313-1.586,1.95-2.395a3.89,3.89,0,0,0,.349-4.474,3.834,3.834,0,0,0-4.051-1.919c-.229.035-.331,0-.382-.222a2.351,2.351,0,0,0-1.79-1.836h-.806c-.019.021-.035.053-.058.061q-4.577,1.643-9.155,3.283-3.338,1.2-6.674,2.4a2.191,2.191,0,0,0-1.484,2.87,4.73,4.73,0,0,0,.272.754c.105.223.055.317-.16.443a4.091,4.091,0,0,0-2.038,4.313,4.177,4.177,0,0,0,3.635,3.386c.814.1,1.63.188,2.447.265a3.5,3.5,0,0,1,1.754.557,8.176,8.176,0,0,0,2.615,1.113,12.431,12.431,0,0,0,3.1.375c.769,0,.981.415,1.162.992a.27.27,0,0,1-.121.364,2.216,2.216,0,0,0-.853,1.421c-.143.7-.309,1.4-.43,2.1a.578.578,0,0,1-.42.5q-8.456,3.421-16.906,6.86c-.275.112-.646.156-.8.361-.164.227.159.527.2.816,0,.03.01.059.016.088.1.569.2.622.741.418.084-.031.166-.067.249-.1q4.55-1.82,9.1-3.639c.461-.184.465-.182.623.291.711,2.122,1.414,4.247,2.124,6.369.169.5.168.511-.338.723-3.977,1.664-7.965,3.3-11.945,4.957a1.328,1.328,0,0,0-.593.378c-.2.042-.285.124-.167.337a2.877,2.877,0,0,1,.269.611c.118.419.3.478.717.3q10.269-4.284,20.551-8.535a.881.881,0,0,1,.468-.11c1.079.14,2.159.275,3.24.4a.4.4,0,0,1,.4.325q.556,1.766,1.155,3.518a.4.4,0,0,1-.13.5c-.462.423-.906.867-1.359,1.3a2.24,2.24,0,0,0-.64,2.892,9.4,9.4,0,0,1,.6,1.618h.179c.024-.092.111-.084.176-.109q2.137-.842,4.275-1.682c2.451-.96,4.9-1.924,7.357-2.867C1933.091,1442.153,1933.142,1442.007,1932.992,1441.684Zm-9.9-37.047a2.4,2.4,0,0,1,2.292,3.522,15.37,15.37,0,0,1-1.155,1.545,24.347,24.347,0,0,0-1.342-4.823C1922.8,1404.621,1922.943,1404.644,1923.091,1404.637Zm-19.476,12.386a2.44,2.44,0,0,1-1.82-2.2,2.48,2.48,0,0,1,1.111-2.428c.205-.148.3-.146.408.119a29.526,29.526,0,0,0,1.489,3.386c.267.462.566.9.866,1.38A14.718,14.718,0,0,1,1903.615,1417.023Z" transform="translate(0 0)"/>
      <path id="Trazado_141136" data-name="Trazado 141136" d="M2304.9,1609.457c0,.691,0,.691-.667.816a3.685,3.685,0,0,0-3.046,3.759c-.012.642-.012.642-.636.642-.832,0-.832,0-.853-.811a3.653,3.653,0,0,0-3.4-3.618c-.246-.02-.363-.082-.326-.337a.683.683,0,0,0,0-.089,2.346,2.346,0,0,1,.034-.97c.147-.285.585-.147.89-.223a3.719,3.719,0,0,0,2.8-3.609c.013-.751.013-.751.74-.751s.728,0,.748.708a3.646,3.646,0,0,0,3.459,3.739c.23.024.271.1.256.3C2304.886,1609.158,2304.9,1609.308,2304.9,1609.457Z" transform="translate(-364.615 -184.978)"/>
      <path id="Trazado_141137" data-name="Trazado 141137" d="M2271.707,1443.168a.5.5,0,0,0,0,.089c.088.483-.06.651-.6.719a3.629,3.629,0,0,0-3.125,3.587,4.284,4.284,0,0,0,0,.537c.016.219-.073.287-.285.278-.358-.015-.782.112-1.057-.04-.323-.178-.106-.646-.142-.984a3.664,3.664,0,0,0-3.414-3.421c-.218-.019-.326-.057-.313-.3a3.3,3.3,0,0,1,.035-1.062c.153-.348.627-.17.952-.26a3.733,3.733,0,0,0,2.741-3.476,3.178,3.178,0,0,0,0-.537c-.032-.282.078-.366.352-.346.341.025.757-.108,1.01.044.3.177.09.63.124.96a3.662,3.662,0,0,0,3.434,3.449c.24.021.312.093.289.318A4.411,4.411,0,0,0,2271.707,1443.168Z" transform="translate(-334.392 -33.538)"/>
      <path id="Trazado_141138" data-name="Trazado 141138" d="M1897.927,1736.5c.12.469.364.459.776.292,3.16-1.286,6.332-2.542,9.5-3.816.259-.1.376-.092.473.206q1.135,3.461,2.309,6.909c.1.3-.014.385-.251.483q-4.5,1.857-9,3.724-1.92.8-3.837,1.6c.008-.984.02-1.969.023-2.953Q1897.922,1739.718,1897.927,1736.5Z" transform="translate(-2.237 -302.097)" fill="#4a4a56"/>
      <path id="Trazado_141139" data-name="Trazado 141139" d="M1902.322,1604.266c.693,0,.693,0,.7.7a3.679,3.679,0,0,0,3.458,3.749c.21.022.3.072.273.286a1.026,1.026,0,0,0,0,.134,2.414,2.414,0,0,1-.036.971c-.15.3-.588.141-.895.218a3.734,3.734,0,0,0-2.8,3.7c-.008.652-.008.652-.654.652-.787,0-.787,0-.823-.761a3.647,3.647,0,0,0-3.437-3.669c-.24-.022-.3-.1-.292-.322a3.089,3.089,0,0,1,.037-1.061c.142-.308.6-.158.917-.239a3.731,3.731,0,0,0,2.777-3.629C1901.578,1604.266,1901.578,1604.266,1902.322,1604.266Z" transform="translate(-2.147 -184.978)"/>
      <path id="Trazado_141140" data-name="Trazado 141140" d="M2006.338,1426.669a8.189,8.189,0,0,1-1.988,5.42c-.687.806-1.373,1.613-2.076,2.406a.454.454,0,0,0-.1.552c.168.4.293.813.465,1.208.1.223.041.308-.172.393-.719.287-1.436.579-2.141.9-.243.109-.308.013-.381-.18-.158-.418-.342-.826-.485-1.249a.507.507,0,0,0-.519-.376,29.994,29.994,0,0,1-3.779-.4,7.955,7.955,0,0,1-5.965-5.018c-.633-1.559-1.237-3.129-1.849-4.7-.264-.676-.119-1,.559-1.24q7.626-2.746,15.252-5.489c.673-.242.978-.108,1.195.562.6,1.84,1.289,3.649,1.787,5.521A8.33,8.33,0,0,1,2006.338,1426.669Z" transform="translate(-83.564 -16.122)" fill="#f1a235"/>
      <path id="Trazado_141141" data-name="Trazado 141141" d="M2122.971,1625.308c-1.6-.185-3.2-.374-4.8-.551-.277-.031-.27-.251-.326-.417-.754-2.242-1.427-4.515-2.276-6.721a6.4,6.4,0,0,1,.039-3.27,1.588,1.588,0,0,1,1.144-1.409c2.5-1.029,4.985-2.117,7.474-3.182.772-.331,1.1-.208,1.372.562.147.413.551.9.371,1.217-.155.279-.762.309-1.171.444-.692.229-1.382.467-2.08.678-.229.07-.267.166-.209.385.3,1.144.3,1.148,1.41.793.766-.245,1.533-.486,2.292-.75.235-.082.338-.059.424.192.207.605.439,1.2.678,1.8.1.241.035.317-.207.395-.963.308-1.916.654-2.878.965-.256.083-.323.181-.218.436.141.342.152.85.4,1s.678-.159,1.027-.271c.752-.24,1.5-.48,2.246-.746.215-.077.284-.024.353.166.222.616.444,1.233.691,1.838.108.265-.01.334-.223.4-.908.287-1.811.592-2.721.872-.276.085-.379.164-.27.491.351,1.055.333,1.062,1.381.705.718-.245,1.44-.482,2.152-.742.239-.087.334-.027.427.2.486,1.188.458,1.27-.69,1.835q-2.544,1.252-5.085,2.512A1.207,1.207,0,0,1,2122.971,1625.308Z" transform="translate(-200.216 -189.821)" fill="#edcbbf"/>
      <path id="Trazado_141142" data-name="Trazado 141142" d="M2041.76,1706.131c.01.131-.1.153-.2.192q-2.759,1.161-5.517,2.323c-.224.095-.3.039-.374-.188q-1.151-3.5-2.331-6.991c-.088-.261,0-.344.212-.421a8.92,8.92,0,0,0,1.039-.407c.3-.15.392-.067.487.227.524,1.63,1.074,3.251,1.6,4.881.1.311.2.424.55.3,1-.349,1.008-.331.669-1.345-.5-1.483-.98-2.969-1.49-4.446-.1-.278-.043-.389.225-.49.78-.3,1.552-.611,2.322-.931.216-.09.332-.093.419.17.77,2.317,1.552,4.63,2.33,6.945C2041.722,1706.007,2041.739,1706.064,2041.76,1706.131Z" transform="translate(-125.519 -271.024)" fill="#676b7d"/>
      <path id="Trazado_141143" data-name="Trazado 141143" d="M2184.978,1842.886a.88.88,0,0,1,.3-.6q1.126-1.057,2.246-2.121a1.055,1.055,0,0,1,.426-.231c.894-.286,1.786-.574,2.674-.876a3.8,3.8,0,0,1,1.2-.081c.626-.012,1.254,0,1.88,0a.845.845,0,0,1,.745.329c.284.39.232.566-.209.743l-8.542,3.43C2185.211,1843.667,2184.974,1843.5,2184.978,1842.886Z" transform="translate(-263.6 -398.649)" fill="#e5812d"/>
      <path id="Trazado_141144" data-name="Trazado 141144" d="M2203.449,1796.961c.037.129-.086.138-.18.169-.746.25-1.494.492-2.236.755-.185.065-.24-.007-.289-.15q-.4-1.181-.8-2.362c-.031-.091-.089-.23.092-.221a4.02,4.02,0,0,0,1.9-.687c.315-.148.424-.085.544.216.28.7.6,1.393.9,2.088C2203.4,1796.823,2203.417,1796.879,2203.449,1796.961Z" transform="translate(-277.189 -358.063)" fill="#f1a235"/>
      <path id="Trazado_141145" data-name="Trazado 141145" d="M2328.072,1642.593a1.777,1.777,0,0,1,.007,3.555,5.408,5.408,0,0,0-1.785-1.778A5.5,5.5,0,0,0,2328.072,1642.593Z" transform="translate(-392.252 -219.871)" fill="#f2bf6d"/>
      <path id="Trazado_141146" data-name="Trazado 141146" d="M2293.227,1478.533a5.632,5.632,0,0,0,1.764-1.766,5.714,5.714,0,0,0,1.774,1.761,5.443,5.443,0,0,0-1.65,1.6c-.108.17-.168.107-.248-.016A5.34,5.34,0,0,0,2293.227,1478.533Z" transform="translate(-362.148 -68.905)" fill="#f2bf6d"/>
      <path id="Trazado_141147" data-name="Trazado 141147" d="M1931.792,1644.357a5.892,5.892,0,0,0-.994.8c-.268.3-.514.61-.8.947a5.535,5.535,0,0,0-1.752-1.727,5.6,5.6,0,0,0,1.762-1.781A5.523,5.523,0,0,0,1931.792,1644.357Z" transform="translate(-29.877 -219.87)" fill="#f2bf6d"/>
      <path id="Trazado_141148" data-name="Trazado 141148" d="M2142.063,1449.2a9.965,9.965,0,0,0-1.394-4.7c-.13-.231-.153-.345.1-.474.343-.171.649-.6.982-.543.3.057.387.576.542.9,1.123,2.345,1.742,4.755.828,7.331a6.147,6.147,0,0,1-1.26,2.039c-.147.164-.237.171-.385.007-.239-.266-.614-.47-.722-.775-.125-.351.338-.558.515-.847A5.289,5.289,0,0,0,2142.063,1449.2Z" transform="translate(-223.175 -38.595)"/>
    </g>
  </g>
</svg>
