<svg id="Grupo_74303" data-name="Grupo 74303" xmlns="http://www.w3.org/2000/svg" xmlns:xlink="http://www.w3.org/1999/xlink" width="610" height="645.781" viewBox="0 0 610 645.781">
  <defs>
    <linearGradient id="linear-gradient" x1="1.3" y1="0.615" x2="0.5" y2="1" gradientUnits="objectBoundingBox">
      <stop offset="0" stop-color="#035159"/>
      <stop offset="1" stop-color="#043f45"/>
    </linearGradient>
    <clipPath id="clip-path">
      <path id="Rectángulo_5143" data-name="Rectángulo 5143" d="M0,0H279.627a265,265,0,0,1,265,265v93.593a265,265,0,0,1-265,265H265a265,265,0,0,1-265-265V0A0,0,0,0,1,0,0Z" stroke="#707070" stroke-width="1" fill="url(#linear-gradient)"/>
    </clipPath>
  </defs>
  <g id="Grupo_53767" data-name="Grupo 53767" transform="translate(43.864 4.286)">
    <g id="Enmascarar_grupo_44" data-name="Enmascarar grupo 44" transform="translate(0 0)" clip-path="url(#clip-path)">
      <g id="Rectángulo_33308" data-name="Rectángulo 33308" transform="translate(-86.864 -12.286)" fill="#e8e8e8" stroke="#707070" stroke-width="1">
        <rect width="693" height="688" stroke="none"/>
        <rect x="0.5" y="0.5" width="692" height="687" fill="none"/>
      </g>
      <g id="Grupo_77090" data-name="Grupo 77090" transform="translate(-76.864)">
        <g id="BACKGROUND" transform="translate(98.646 -1.405)">
          <rect id="Rectángulo_33269" data-name="Rectángulo 33269" width="368.864" height="263.385" fill="#ebebeb"/>
          <g id="Grupo_77048" data-name="Grupo 77048" transform="translate(21.36 26.628)">
            <rect id="Rectángulo_33270" data-name="Rectángulo 33270" width="305.312" height="210.129" transform="translate(5.91)" fill="#fff"/>
            <g id="Grupo_77046" data-name="Grupo 77046" transform="translate(0 51.788)">
              <rect id="Rectángulo_33271" data-name="Rectángulo 33271" width="31.443" height="158.341" transform="translate(14.117)" fill="#ebebeb"/>
              <rect id="Rectángulo_33272" data-name="Rectángulo 33272" width="31.443" height="158.341" transform="translate(216.893)" fill="#ebebeb"/>
              <rect id="Rectángulo_33273" data-name="Rectángulo 33273" width="31.443" height="109.546" transform="translate(59.036 48.795)" fill="#ebebeb"/>
              <rect id="Rectángulo_33274" data-name="Rectángulo 33274" width="31.443" height="109.546" transform="translate(265.661 48.795)" fill="#ebebeb"/>
              <rect id="Rectángulo_33275" data-name="Rectángulo 33275" width="42.993" height="145.65" transform="translate(107.805 12.691)" fill="#ebebeb"/>
              <path id="Trazado_101285" data-name="Trazado 101285" d="M175.985,360.9H132.991V256.974l42.994-41.727Z" transform="translate(27.432 -202.557)" fill="#ebebeb"/>
              <rect id="Rectángulo_33276" data-name="Rectángulo 33276" width="311.222" height="36.715" transform="translate(0 121.626)" fill="#ebebeb"/>
            </g>
            <rect id="Rectángulo_33277" data-name="Rectángulo 33277" width="220.926" height="210.129" transform="translate(105.217)" fill="#fff"/>
            <g id="Grupo_77047" data-name="Grupo 77047" transform="translate(14.922 51.788)">
              <rect id="Rectángulo_33278" data-name="Rectángulo 33278" width="31.443" height="158.341" transform="translate(14.117)" fill="#ebebeb"/>
              <rect id="Rectángulo_33279" data-name="Rectángulo 33279" width="31.443" height="158.341" transform="translate(216.893)" fill="#ebebeb"/>
              <rect id="Rectángulo_33280" data-name="Rectángulo 33280" width="31.443" height="109.546" transform="translate(59.036 48.795)" fill="#ebebeb"/>
              <rect id="Rectángulo_33281" data-name="Rectángulo 33281" width="31.443" height="109.546" transform="translate(265.661 48.795)" fill="#ebebeb"/>
              <rect id="Rectángulo_33282" data-name="Rectángulo 33282" width="42.994" height="145.65" transform="translate(107.805 12.691)" fill="#ebebeb"/>
              <path id="Trazado_101286" data-name="Trazado 101286" d="M417.044,360.9H374.051V256.974l42.993-41.727Z" transform="translate(-213.627 -202.557)" fill="#ebebeb"/>
              <rect id="Rectángulo_33283" data-name="Rectángulo 33283" width="311.222" height="36.715" transform="translate(0 121.626)" fill="#ebebeb"/>
            </g>
          </g>
          <rect id="Rectángulo_33284" data-name="Rectángulo 33284" width="368.864" height="20.178" transform="translate(0 243.208)" fill="#d4d4d4"/>
        </g>
        <g id="OBJECTS" transform="translate(49.992 112.66)">
          <g id="Grupo_77056" data-name="Grupo 77056" transform="translate(0 183.401)">
            <g id="Grupo_77049" data-name="Grupo 77049" transform="translate(17.853 183.087)">
              <path id="Trazado_101287" data-name="Trazado 101287" d="M97.207,353.1c0,1.416-10.649,2.564-23.787,2.564S49.635,354.52,49.635,353.1s10.649-2.564,23.785-2.564S97.207,351.688,97.207,353.1Z" transform="translate(-49.635 -350.54)" fill="#96665b"/>
            </g>
            <g id="Grupo_77055" data-name="Grupo 77055">
              <g id="Grupo_77050" data-name="Grupo 77050" transform="translate(0 72.223)">
                <path id="Trazado_101288" data-name="Trazado 101288" d="M73.055,391.2c2.045.042,2.44-13.838-.239-27.685-3.066-15.834-7.6-18.438-10.839-34.741-2.947-14.832.127-16.106-2.839-26.918-5.617-20.468-21.6-34.008-22.524-32.269-.551,1.037,4.716,6.677,6.83,16.971,2.426,11.8-2.316,15.008-1.528,25.987.9,12.59,7.724,16.55,17.487,39.637C69.055,375,73.055,391.2,73.055,391.2Z" transform="translate(-36.574 -269.433)" fill="#7894ba"/>
                <path id="Trazado_101289" data-name="Trazado 101289" d="M71.033,377.1a457.737,457.737,0,0,1-28.948-69.246S62.888,336.895,71.033,377.1Z" transform="translate(-34.552 -255.337)" fill="#333f4f"/>
                <path id="Trazado_101290" data-name="Trazado 101290" d="M73.451,402.856c.47-7.912-1.5-17.265-1.524-17.359-1.823-17.415-5.679-32.69-11.453-45.333-.541-1.184-1.106-2.363-1.679-3.557-2.7-5.641-5.5-11.474-6.662-19.649a46.44,46.44,0,0,1-.313-10.193,39.7,39.7,0,0,0-.349-9.635c-1.288-7.864-5-15.994-11.046-24.164l-.409.555c5.925,8.014,9.567,15.962,10.822,23.624a38.755,38.755,0,0,1,.334,9.377,47.393,47.393,0,0,0,.323,10.425c1.195,8.372,4.032,14.295,6.777,20.023.569,1.186,1.13,2.359,1.668,3.535,5.715,12.517,9.535,27.656,11.355,45,.029.159,1.968,9.352,1.509,17.1Z" transform="translate(-35.31 -268.137)" fill="#333f4f"/>
              </g>
              <g id="Grupo_77052" data-name="Grupo 77052" transform="translate(12.031 22.615)">
                <path id="Trazado_101291" data-name="Trazado 101291" d="M61.981,396.982l-.9-.377c10.242-48.7-2.6-104.466-2.734-105.023l.886-.417C59.37,291.727,72.308,347.877,61.981,396.982Z" transform="translate(-40.614 -211.852)" fill="#333f4f"/>
                <g id="Grupo_77051" data-name="Grupo 77051">
                  <path id="Trazado_101292" data-name="Trazado 101292" d="M63.178,314.3s-13.476-32-16.587-57.7a147.026,147.026,0,0,1-.919-23.461S65.585,271.064,63.178,314.3Z" transform="translate(-45.31 -233.14)" fill="#7894ba"/>
                  <path id="Trazado_101293" data-name="Trazado 101293" d="M45.737,233.14a105.02,105.02,0,0,0,9.039,37.6c8.656,18.631,17.472,30.795,10.019,69.548C64.8,340.285,42.274,265.377,45.737,233.14Z" transform="translate(-45.375 -233.14)" fill="#333f4f"/>
                </g>
              </g>
              <g id="Grupo_77053" data-name="Grupo 77053" transform="translate(45.771 106.353)">
                <path id="Trazado_101294" data-name="Trazado 101294" d="M75.745,375.182s14.489-31.712,18.416-57.346A147.1,147.1,0,0,0,95.826,294.4S74.714,331.909,75.745,375.182Z" transform="translate(-67.987 -294.402)" fill="#7894ba"/>
                <path id="Trazado_101295" data-name="Trazado 101295" d="M97.9,294.4a172.965,172.965,0,0,1-10.231,37.4c-13.178,32.248-21.759,27.488-15.541,66.381C72.126,398.184,100.337,326.7,97.9,294.4Z" transform="translate(-70.06 -294.402)" fill="#333f4f"/>
              </g>
              <g id="Grupo_77054" data-name="Grupo 77054" transform="translate(30.212)">
                <path id="Trazado_101296" data-name="Trazado 101296" d="M67.861,401.976c-2.972.492-8.119-19.687-8.766-40.464-.739-23.761,5.025-28.519,4.384-53-.585-22.273-5.491-23.486-4.721-39.894,1.458-31.062,20.332-54.2,22.253-51.86,1.145,1.4-4.686,10.742-4.384,26.215.346,17.741,8.323,21.42,10.789,37.613,2.828,18.569-5.826,25.789-12.474,61.549C68.367,377.494,67.861,401.976,67.861,401.976Z" transform="translate(-58.676 -216.595)" fill="#7894ba"/>
                <path id="Trazado_101297" data-name="Trazado 101297" d="M65.413,380.99S79.037,334.724,84.868,273.8C84.868,273.8,64.064,320.58,65.413,380.99Z" transform="translate(-56.228 -195.609)" fill="#333f4f"/>
                <path id="Trazado_101298" data-name="Trazado 101298" d="M68.2,419.072c-3.291-11.449-3.488-25.521-3.491-25.662-3.074-25.807-2.474-48.918,1.792-68.593.4-1.841.835-3.681,1.277-5.545,2.089-8.8,4.247-17.908,3.256-30.088a70.275,70.275,0,0,0-2.9-14.945A60.04,60.04,0,0,1,65.47,260.1c-.709-11.75,2.038-24.4,8.166-37.6l.78.724c-6.012,12.95-8.708,25.32-8.017,36.768A58.5,58.5,0,0,0,69,273.746a71.8,71.8,0,0,1,2.962,15.286c1.014,12.473-1.178,21.718-3.3,30.659-.44,1.854-.873,3.684-1.271,5.514-4.221,19.475-4.813,42.383-1.756,68.085.01.236.206,14.068,3.428,25.285Z" transform="translate(-57.171 -214.431)" fill="#333f4f"/>
              </g>
              <path id="Trazado_101299" data-name="Trazado 101299" d="M65.546,385.49s21.858-59.152,41.741-95.847L83.752,308.129,68.58,351.654Z" transform="translate(-25.944 -189.795)" fill="#333f4f"/>
              <path id="Trazado_101300" data-name="Trazado 101300" d="M65.618,395.673c-1.068-19.974,1.252-33.828,3.54-42.742,3.308-12.892,6.873-16.71,11.125-34.194,3.792-15.588,2.932-20.666,5.057-28.21,3.319-11.774,12.564-24.78,39.194-28.638a11.358,11.358,0,0,0-6.828,5.533c-2.782,4.725-5.563,30.9-16.688,41.534S78.513,329.509,72.7,354.9,65.618,395.673,65.618,395.673Z" transform="translate(-26.016 -199.978)" fill="#7894ba"/>
              <path id="Trazado_101301" data-name="Trazado 101301" d="M66.138,405.412H65.2V394.859c0-32.338,9.842-54.193,19.359-75.33,3.721-8.26,7.234-16.061,10.012-24.223,9.784-28.737,21.374-31.113,21.862-31.2l.118,1.311c-.115.022-11.6,2.443-21.139,30.464-2.8,8.231-6.33,16.065-10.064,24.359-9.447,20.976-19.214,42.667-19.214,74.62Z" transform="translate(-26.07 -199.165)" fill="#333f4f"/>
              <path id="Trazado_101302" data-name="Trazado 101302" d="M71.851,383.006a288.021,288.021,0,0,1,5.823-30.435l-.873-.435a290.035,290.035,0,0,0-5.871,30.711Q71.391,382.921,71.851,383.006Z" transform="translate(-23.969 -166.868)" fill="#333f4f"/>
            </g>
            <path id="Trazado_101303" data-name="Trazado 101303" d="M73.42,354.98c-13.136,0-23.785-1.148-23.785-2.564l6.107,49.79H91.1l6.109-49.79C97.207,353.832,86.557,354.98,73.42,354.98Z" transform="translate(-31.782 -166.765)" fill="#ff9775"/>
          </g>
          <g id="Grupo_77089" data-name="Grupo 77089" transform="translate(60.445)">
            <g id="Grupo_77057" data-name="Grupo 77057" transform="translate(136.898 128.119)">
              <path id="Trazado_101304" data-name="Trazado 101304" d="M336.217,331.455H201.366v27.314a5.484,5.484,0,0,0,5.484,5.484H334.734a24.5,24.5,0,0,0,16.014-5.956l8.22-7.1a5.486,5.486,0,0,0,1.9-4.153V317.157l-11.176,9.389A20.949,20.949,0,0,1,336.217,331.455Z" transform="translate(-173.456 -124.419)" fill="#ababab"/>
              <rect id="Rectángulo_33285" data-name="Rectángulo 33285" width="14.241" height="70.991" transform="translate(107.727 122.379)" fill="#ababab"/>
              <rect id="Rectángulo_33286" data-name="Rectángulo 33286" width="14.241" height="130.555" transform="translate(90.83 216.287)" fill="#ababab"/>
              <path id="Trazado_101305" data-name="Trazado 101305" d="M336.946,309.935s-101.717-3.8-117.232,2.694-18.348,21.881-18.348,21.881H339.084a13.078,13.078,0,0,0,8.415-3.066l13.371-11.232C355.869,308.629,336.946,309.935,336.946,309.935Z" transform="translate(-173.456 -127.474)" fill="#455b82"/>
              <path id="Rectángulo_33287" data-name="Rectángulo 33287" d="M28.263,0h67.6a28.263,28.263,0,0,1,28.263,28.263V159.048a6.061,6.061,0,0,1-6.061,6.061h-112A6.061,6.061,0,0,1,0,159.048V28.263A28.263,28.263,0,0,1,28.263,0Z" transform="translate(58.768)" fill="#455b82"/>
              <path id="Trazado_101306" data-name="Trazado 101306" d="M272.5,418.424l-90,42.278,16.126,1.765,83.806-30.645Z" transform="translate(-180.376 -87.265)" fill="#ababab"/>
              <rect id="Rectángulo_33288" data-name="Rectángulo 33288" width="20.226" height="21.89" rx="3.093" transform="translate(0 369.913)" fill="#ababab"/>
              <path id="Trazado_101307" data-name="Trazado 101307" d="M259.727,418.424l90,42.278L333.6,462.467,249.79,431.822Z" transform="translate(-155.69 -87.265)" fill="#ababab"/>
              <rect id="Rectángulo_33289" data-name="Rectángulo 33289" width="20.226" height="21.89" rx="3.093" transform="translate(196.163 391.802) rotate(-180)" fill="#ababab"/>
              <rect id="Rectángulo_33290" data-name="Rectángulo 33290" width="20.226" height="22.968" rx="3.093" transform="translate(107.61 400.631) rotate(180)" fill="#ababab"/>
              <path id="Trazado_101308" data-name="Trazado 101308" d="M246.456,426.482,248.2,470.3h12.777l2.293-44.016Z" transform="translate(-156.913 -84.383)" fill="#ababab"/>
            </g>
            <g id="Grupo_77063" data-name="Grupo 77063" transform="translate(0 28.475)">
              <g id="Grupo_77060" data-name="Grupo 77060">
                <path id="Trazado_101309" data-name="Trazado 101309" d="M136.66,399.752s-7.227,8.14-5.25,12.616,11.162,16.323,11.036,20.4-.612,6.55,4.939,9.747,20.151,6.428,24.434,6.219-8.469-16.7-8.469-16.7Z" transform="translate(-62.35 5.528)" fill="#383534"/>
                <path id="Trazado_101310" data-name="Trazado 101310" d="M131.134,408.213v20.753l4.269.249,1.491-1.92c.765-3.879,1.132-11.252,1.4-11.713C138.7,414.905,131.134,408.213,131.134,408.213Z" transform="translate(-62.325 8.633)" fill="#383534"/>
                <path id="Trazado_101311" data-name="Trazado 101311" d="M150.375,403.265l11.474,28.769a10.381,10.381,0,0,1-11.464-2.485c-4.034-4.194-11-17.89-13.141-23.3-.436-1.1-2.085-6.5-2.085-6.5Z" transform="translate(-60.849 5.528)" fill="#fab39b"/>
                <path id="Trazado_101312" data-name="Trazado 101312" d="M135.159,405.824l6.083-22.623,16.914,2.138-7.78,24S141.13,414.645,135.159,405.824Z" transform="translate(-60.849 -0.544)" fill="#fab39b"/>
                <path id="Trazado_101313" data-name="Trazado 101313" d="M90.366,410.827s4.746,10.287,3.133,25.717,13.856,24.687,13.856,24.687,5.535-2.057,7.123-12.343-6.14-6.087-7.019-31.787Z" transform="translate(-77.283 9.592)" fill="#fab39b"/>
                <path id="Trazado_101314" data-name="Trazado 101314" d="M93.358,433.553l9.654,5.606a7.25,7.25,0,0,0,9.369-1.821l1.17-3.38s11.732,16.172,6.7,19.836-24.769,1.483-27.994.327S93.358,433.553,93.358,433.553Z" transform="translate(-77.028 17.93)" fill="#383534"/>
                <path id="Trazado_101315" data-name="Trazado 101315" d="M125.486,214.181s-21.954,11.243-26.959,20.581c-9.754,18.2-31.1,157.494-5.832,255.474,0,0,8.944,6.222,22.163,0,0,0,1.217-89.426,3.348-108.089s11.69-73.742,11.69-73.742l25.669-35.9,15.675-50.545Z" transform="translate(-80.794 -62.555)" fill="#383534"/>
                <path id="Trazado_101316" data-name="Trazado 101316" d="M168.228,223.623s34.946,119.751,34.946,128.089-34.946,97.764-34.946,97.764-10.394,4.925-24.661-4.925l21.5-107.385L113.49,265.181,132.476,219.3Z" transform="translate(-68.799 -60.676)" fill="#383534"/>
                <path id="Trazado_101317" data-name="Trazado 101317" d="M211.6,164.019c-43.188-23.695-72.988-6.766-90.2,7.388a28.013,28.013,0,0,0-8.9,30.095l5.786,26.088-3.952,9.332c28.577,32.66,54.738,11.321,54.738,11.321A52.121,52.121,0,0,0,184.553,236.1c18.54-1.985,17.046-20.03,15.86-26.628A176.97,176.97,0,0,0,211.6,164.019Z" transform="translate(-69.643 -85.295)" fill="#ffc375"/>
                <path id="Trazado_101318" data-name="Trazado 101318" d="M147.267,159.285s-16,3.553-9.576,17.938,13.231,21.914,13.231,21.914L168.8,188.3l13.86,5.055S200.381,142.707,147.267,159.285Z" transform="translate(-60.478 -83.918)" fill="#fff"/>
                <path id="Trazado_101319" data-name="Trazado 101319" d="M186.684,160.846,229.551,229.7,214.1,240.747l-34.993-51.8Z" transform="translate(-44.727 -82.122)" fill="#ffc375"/>
                <path id="Trazado_101320" data-name="Trazado 101320" d="M144.235,169.218s-1.017,14.586,21.612,17.913c0,0,15.1-9.031,8.2-22.893S144.235,169.218,144.235,169.218Z" transform="translate(-57.521 -82.746)" fill="#fab39b"/>
                <path id="Trazado_101321" data-name="Trazado 101321" d="M174.133,165.094c-6.9-13.863-29.741-6.126-29.741-6.126s-.924,8.509.075,11.573a30.007,30.007,0,0,0,16.019,8.782c6.949,1.245,11.955-1.73,15.513-6.942A16.427,16.427,0,0,0,174.133,165.094Z" transform="translate(-57.604 -83.601)" fill="#de937a"/>
                <path id="Trazado_101322" data-name="Trazado 101322" d="M136.005,157.268s16.714,37.423,37.136,31.883c10.051-2.727,15.742-14.776,16.019-38.307.2-17.071-30.84-47.112-47.887-22.571C130.18,144.242,136.005,157.268,136.005,157.268Z" transform="translate(-61.099 -97.475)" fill="#fab39b"/>
                <circle id="Elipse_4605" data-name="Elipse 4605" cx="18.19" cy="18.19" r="18.19" transform="matrix(0.877, -0.481, 0.481, 0.877, 49.161, 17.507)" fill="#383534"/>
                <path id="Trazado_101323" data-name="Trazado 101323" d="M177.527,136.023s9.911.522,12.585,15.178c0,0,8.86-39.616-33.131-32.263S138.37,164.59,138.37,164.59l8.338.841v-8.494S174.606,159.78,177.527,136.023Z" transform="translate(-62.052 -97.832)" fill="#383534"/>
                <g id="Grupo_77059" data-name="Grupo 77059" transform="translate(75.031 62.685)">
                  <g id="Grupo_77058" data-name="Grupo 77058">
                    <path id="Trazado_101324" data-name="Trazado 101324" d="M135.7,158.563c.268,4.973,4.127,8.805,8.617,8.564s7.914-4.468,7.646-9.44-4.127-8.805-8.617-8.564S135.433,153.591,135.7,158.563Z" transform="translate(-135.686 -149.112)" fill="#fab39b"/>
                    <path id="Trazado_101325" data-name="Trazado 101325" d="M142.06,159.781c.368-1.293,2.62-2.069,3.458-2.259l.551-.124-.256-.506c-.994-1.966-2.246-3.149-3.719-3.514a4.468,4.468,0,0,0-3.43.623l.51.72a3.649,3.649,0,0,1,2.717-.484,4.893,4.893,0,0,1,2.877,2.577c-1.017.317-3.11,1.148-3.559,2.726Z" transform="translate(-134.593 -147.591)" fill="#38261f"/>
                  </g>
                  <path id="Trazado_101326" data-name="Trazado 101326" d="M144.068,159.357a2.565,2.565,0,1,0,2.119,2.943A2.563,2.563,0,0,0,144.068,159.357Z" transform="translate(-133.703 -145.366)" fill="#fff"/>
                </g>
                <path id="Trazado_101327" data-name="Trazado 101327" d="M190.7,201.988l25.748,38.051,18.858-5.249-28.692-45.521C200.946,189.269,193.809,194.894,190.7,201.988Z" transform="translate(-40.471 -71.695)" fill="#fab39b"/>
                <path id="Trazado_101328" data-name="Trazado 101328" d="M148.193,130.744l-.988-.705a14.226,14.226,0,0,0,2.519-10.339c-1.277-7.8-9.16-10.872-9.239-10.9l.432-1.136c.35.134,8.617,3.363,10.006,11.843A15.441,15.441,0,0,1,148.193,130.744Z" transform="translate(-58.895 -101.635)" fill="#383534"/>
                <path id="Trazado_101329" data-name="Trazado 101329" d="M149.366,155.306l-.231-1.193c2.322-.45,14.165-3.193,19.259-13.069a20.133,20.133,0,0,0,2.038-11.679l1.206-.146a21.288,21.288,0,0,1-2.164,12.383C164.122,151.975,151.784,154.839,149.366,155.306Z" transform="translate(-55.721 -93.726)" fill="#383534"/>
              </g>
              <g id="Grupo_77061" data-name="Grupo 77061" transform="translate(49.743 113.584)">
                <path id="Trazado_101330" data-name="Trazado 101330" d="M182.489,282.41l-32.191-45.3-3.864-26.549h0c-10-9.624-24.6-2.076-27.432,1.423l6.916,30.327,40.289,48.407a18.556,18.556,0,0,0,3.179-.3l2.976-.75C179.829,287.126,182.489,282.41,182.489,282.41Z" transform="translate(-116.52 -179.193)" fill="#fab39b"/>
                <path id="Trazado_101331" data-name="Trazado 101331" d="M193.277,207l-5.029-5.91a.494.494,0,0,1-.089-.5c.8-2.086,6.258-15.249,17.158-14.179a.487.487,0,0,1,.361.228l4.084,6.527a.484.484,0,0,1-.228.722c-2.564.871-13.062,4.883-15.476,12.923A.45.45,0,0,1,193.277,207Z" transform="translate(-91.159 -186.35)" fill="#fff"/>
                <path id="Trazado_101332" data-name="Trazado 101332" d="M119.533,214.251l-2.329-9.129a.464.464,0,0,1,.2-.53c2.227-1.374,16.8-9.724,29.076-.89a.682.682,0,0,1,.287.472l.831,9.026a.518.518,0,0,1-.716.51c-3.577-1.032-18.5-4.837-26.307.927A.7.7,0,0,1,119.533,214.251Z" transform="translate(-117.186 -181.452)" fill="#fff"/>
              </g>
              <g id="Grupo_77062" data-name="Grupo 77062" transform="translate(99.363 57.499)">
                <path id="Trazado_101333" data-name="Trazado 101333" d="M165.615,164a9.34,9.34,0,0,0,3.2-1.074l-.484-.786c-.208.127-5.174,3.063-12.216-1.229l-.48.787A14.422,14.422,0,0,0,165.615,164Z" transform="translate(-152.7 -139.599)" fill="#38261f"/>
                <path id="Trazado_101334" data-name="Trazado 101334" d="M165.989,161.008a4.332,4.332,0,0,0,2.91-2.563c.422-1.464-.29-3.208-2.119-5.185l-.678.627c1.571,1.695,2.231,3.182,1.911,4.3-.4,1.411-2.246,1.927-2.264,1.931Z" transform="translate(-148.988 -142.404)" fill="#38261f"/>
                <path id="Trazado_101335" data-name="Trazado 101335" d="M157.429,154.064c.178,1.133.857,1.967,1.517,1.863s1.05-1.106.872-2.239-.857-1.966-1.517-1.862S157.251,152.932,157.429,154.064Z" transform="translate(-152.057 -142.934)" fill="#38261f"/>
                <path id="Trazado_101336" data-name="Trazado 101336" d="M170.306,151.438c.17,1.1.828,1.918,1.471,1.818s1.025-1.073.856-2.176-.828-1.916-1.471-1.817S170.135,150.336,170.306,151.438Z" transform="translate(-147.332 -143.874)" fill="#38261f"/>
                <path id="Trazado_101337" data-name="Trazado 101337" d="M160.916,147.556a4.427,4.427,0,0,0-1.1.022,9.432,9.432,0,0,0-5.288,2.322c-3.024,2.649,1.274.094,3.842-.556a17.232,17.232,0,0,0,2.106-.641,2.485,2.485,0,0,0,.9-.492c.232-.251.1-.439-.174-.566A1.108,1.108,0,0,0,160.916,147.556Z" transform="translate(-153.487 -144.508)" fill="#383534"/>
                <path id="Trazado_101338" data-name="Trazado 101338" d="M169.234,145.744a1.937,1.937,0,0,1,.667-.269,5.5,5.5,0,0,1,4.047.641c2.819,1.515-.726.413-2.508.518a8.922,8.922,0,0,1-1.5-.01,1.578,1.578,0,0,1-.73-.191.353.353,0,0,1-.112-.537A.569.569,0,0,1,169.234,145.744Z" transform="translate(-147.79 -145.318)" fill="#383534"/>
              </g>
              <rect id="Rectángulo_33291" data-name="Rectángulo 33291" width="1.215" height="16.649" transform="matrix(0.99, -0.144, 0.144, 0.99, 75.181, 118.436)" fill="#383534"/>
              <path id="Trazado_101339" data-name="Trazado 101339" d="M146.746,216.7c-.288,0-.444,0-.458,0l.022-1.215a139.638,139.638,0,0,0,25.471-2.515l.228,1.193A143.8,143.8,0,0,1,146.746,216.7Z" transform="translate(-56.766 -63.002)" fill="#383534"/>
              <rect id="Rectángulo_33292" data-name="Rectángulo 33292" width="7.705" height="1.214" transform="matrix(0.912, -0.41, 0.41, 0.912, 135.849, 108.045)" fill="#383534"/>
              <path id="Trazado_101340" data-name="Trazado 101340" d="M131.96,139.928s-2.451-15.988,21.936-20.9C153.9,119.024,128.65,116.465,131.96,139.928Z" transform="translate(-62.132 -97.496)" fill="#7894ba"/>
            </g>
            <g id="Grupo_77068" data-name="Grupo 77068" transform="translate(117.6 48.275)">
              <path id="Trazado_101341" data-name="Trazado 101341" d="M244.044,132.113c0,.582-3.03,28.167,1.472,30.838s7.976-29.976,7.976-29.976Z" transform="translate(-138.866 -112.464)" fill="#704c44"/>
              <g id="Grupo_77064" data-name="Grupo 77064" transform="translate(102.33 47.063)">
                <path id="Trazado_101342" data-name="Trazado 101342" d="M241.826,160.871c.737,4.086,4.326,6.858,8.017,6.192s6.084-4.518,5.347-8.6-4.326-6.858-8.017-6.192S241.089,156.785,241.826,160.871Z" transform="translate(-241.693 -152.169)" fill="#de937a"/>
                <rect id="Rectángulo_33293" data-name="Rectángulo 33293" width="3.739" height="1.216" transform="matrix(0.983, -0.186, 0.186, 0.983, 2.37, 4.615)" fill="#fff"/>
              </g>
              <path id="Trazado_101343" data-name="Trazado 101343" d="M256.3,454.525a128.314,128.314,0,0,1-14.069,21.553c-6.955,8.719-14.669,15.384-11.222,19.911,2.605,3.419,17.275,2.913,35.784-9.538,8.879-5.973,16.23-11.046,21.353-13.241a3.634,3.634,0,0,0,2.279-3.028c.269-3.481.5-10.3-1.107-15.648C287.058,447.022,256.3,454.525,256.3,454.525Z" transform="translate(-143.594 4.601)"/>
              <path id="Trazado_101344" data-name="Trazado 101344" d="M215.333,447.179s-36.791,22.968-45.274,28.222,1.6,4.541,9,4.408,43.31-10.418,49.677-8.553,15.394-1.087,15.394-1.087,6.2-18.78-.078-30.42S215.333,447.179,215.333,447.179Z" transform="translate(-166.829 -0.978)"/>
              <path id="Trazado_101345" data-name="Trazado 101345" d="M333.888,294.175s4.926,28.886-1.9,36.1c-4.251,4.494-44.234,35.592-44.234,35.592l2.529,150.461-40.1,4.459S234.97,366.65,236.179,352.443c1.167-13.706,46.712-48.028,46.712-48.028Z" transform="translate(-141.411 -53.006)" fill="#383534"/>
              <path id="Trazado_101346" data-name="Trazado 101346" d="M247.837,291.425c-40.292,32.372-40.542,31.958-50.5,41.992-6.944,7,3.472,166.216,3.472,166.216s26.287,3.5,38.189-7l-.752-123.442L297.992,309.5Z" transform="translate(-156.512 -54.015)" fill="#383534"/>
              <path id="Trazado_101347" data-name="Trazado 101347" d="M332.987,272.281l2.833,29.927-65.807,32.07-39.066-29.327-.1-29.282Z" transform="translate(-143.342 -61.039)" fill="#383534"/>
              <path id="Trazado_101348" data-name="Trazado 101348" d="M263.909,298.756s8.777,4.734,11.505,9.69l36.053-16.813Z" transform="translate(-131.212 -53.939)" fill="#fff"/>
              <path id="Trazado_101349" data-name="Trazado 101349" d="M249.891,296.673s-9.915,3.4-10.887,7.485l-10.692-12.525Z" transform="translate(-144.272 -53.939)" fill="#fff"/>
              <path id="Trazado_101350" data-name="Trazado 101350" d="M270.072,183.133s-37.532,12.216-45.405,24.485,3.984,41.842,3.984,41.842l-.353,83.474,16.8,4.358a98.576,98.576,0,0,0,38.785,2.153l55.2-9.043-3.19-37.32s19.075-77.742,14.7-82.343-30.695-25.42-58.515-29.335Z" transform="translate(-146.6 -94.38)" fill="#7894ba"/>
              <path id="Trazado_101351" data-name="Trazado 101351" d="M253.273,194.282l10.373,27.384,17.375-26.26-15.371-5.374Z" transform="translate(-135.114 -91.215)" fill="#fff"/>
              <path id="Trazado_101352" data-name="Trazado 101352" d="M257.363,194.457s.849,9.519,2.671,10.194c2.112.782,6.117,1.679,8.39-.131s3.563-9.74,3.563-9.74l-7.407-3.543Z" transform="translate(-133.614 -90.773)" fill="#383534"/>
              <path id="Trazado_101353" data-name="Trazado 101353" d="M261.415,199.756l-4.063,5.674,4.8,12.668,8.166-12.342-3.659-5.672Z" transform="translate(-133.618 -87.647)" fill="#383534"/>
              <path id="Trazado_101354" data-name="Trazado 101354" d="M331.589,202.865s9.956,53.641,15.517,73.991a6.127,6.127,0,0,1-4.643,7.616l-62.2,13.178-6.512-28.579,32.562-8.335Z" transform="translate(-127.601 -86.507)" fill="#7894ba"/>
              <rect id="Rectángulo_33294" data-name="Rectángulo 33294" width="1.216" height="24.063" transform="translate(179.127 152.555) rotate(-13.951)" fill="#383534"/>
              <rect id="Rectángulo_33295" data-name="Rectángulo 33295" width="28.327" height="1.214" transform="translate(168.251 182.577) rotate(-21.883)" fill="#383534"/>
              <g id="Grupo_77065" data-name="Grupo 77065" transform="translate(49.817 133.287)">
                <path id="Trazado_101355" data-name="Trazado 101355" d="M324.067,287.274H208.021l-4.735-67.666a3.946,3.946,0,0,1,3.763-4.358H325.04a3.944,3.944,0,0,1,3.762,4.358Z" transform="translate(-203.275 -215.25)" fill="#b3b3b3"/>
                <path id="Trazado_101356" data-name="Trazado 101356" d="M267.487,247.662c0,3.349-6.456,6.065-14.421,6.065s-14.419-2.716-14.419-6.065,6.456-6.065,14.419-6.065S267.487,244.312,267.487,247.662Z" transform="translate(-190.298 -205.584)" fill="#d4d4d4"/>
                <path id="Trazado_101357" data-name="Trazado 101357" d="M207.049,219.073H325.04a3.81,3.81,0,0,1,3.6,2.883l.164-2.348a3.944,3.944,0,0,0-3.762-4.358H207.049a3.946,3.946,0,0,0-3.763,4.358l.165,2.348A3.809,3.809,0,0,1,207.049,219.073Z" transform="translate(-203.275 -215.25)" fill="#d4d4d4"/>
              </g>
              <path id="Trazado_101358" data-name="Trazado 101358" d="M249.2,187.273s.424-8.492,20.762-8.5,20.276,5.215,20.276,5.215,2.005,11.772-7.471,18.51l-15.186-6.687-13.356,5.96S248.783,194.759,249.2,187.273Z" transform="translate(-136.616 -95.346)" fill="#fff"/>
              <path id="Trazado_101359" data-name="Trazado 101359" d="M278.769,169.3v22.16a2.3,2.3,0,0,1-.872,1.819c-2.577,2.013-10.617,6.94-20.824-.042a2.317,2.317,0,0,1-.984-1.911V176.327Z" transform="translate(-134.082 -98.823)" fill="#fab39b"/>
              <path id="Trazado_101360" data-name="Trazado 101360" d="M256.088,183.6c5.068.332,16.936-.135,22.681-10.752V169.3l-22.681,7.031Z" transform="translate(-134.082 -98.823)" fill="#de937a"/>
              <path id="Trazado_101361" data-name="Trazado 101361" d="M246.054,143.223c0,.005-6.359,52.248,15.208,53.14,15.345.634,21.843-2.808,25.209-15.736,2.373-9.108,4.042-24.074,1.815-33.573-.913-3.892,4-9.072,1.145-11.87-6.528-6.4-17.515-9.723-26.363-8.59C253.7,127.8,247.363,133.8,246.054,143.223Z" transform="translate(-138.084 -114.569)" fill="#fab39b"/>
              <path id="Trazado_101362" data-name="Trazado 101362" d="M288.066,166.074l-1.584-17.482s-28.912,6.036-39.171-2.447c-20.84-17.232.584-38.173,33.147-17.454,7.522,4.787,13.975,6.665,16.528,8.186A6.757,6.757,0,0,1,300.278,142c.439,4.389.247,26.153-3.339,33.895Z" transform="translate(-140.329 -116.884)" fill="#704c44"/>
              <g id="Grupo_77066" data-name="Grupo 77066" transform="translate(145.907 45.802)">
                <path id="Trazado_101363" data-name="Trazado 101363" d="M288.857,161.1c-.835,4.627-4.9,7.765-9.077,7.012s-6.889-5.115-6.055-9.74,4.9-7.765,9.078-7.012S289.691,156.473,288.857,161.1Z" transform="translate(-273.574 -151.246)" fill="#fab39b"/>
                <path id="Trazado_101364" data-name="Trazado 101364" d="M281.01,160.964c-.582-1.128-2.812-1.424-3.622-1.445l-.534-.012.142-.515a5.728,5.728,0,0,1,2.787-3.948,4.225,4.225,0,0,1,3.29-.064l-.338.763a3.449,3.449,0,0,0-2.605.059,4.624,4.624,0,0,0-2.182,2.922c1,.1,3.093.483,3.8,1.859Z" transform="translate(-272.371 -149.989)" fill="#38261f"/>
              </g>
              <path id="Trazado_101365" data-name="Trazado 101365" d="M261.514,147.013c.76-1.165,3.751-.433,5.41.272,2.089.888,3.908,2.521,3.663,3.011-.165.333-1.136-.157-3.36-.306-3.018-.2-4.046.51-5.023-.316A2.315,2.315,0,0,1,261.514,147.013Z" transform="translate(-132.163 -107.222)" fill="#704c44"/>
              <path id="Trazado_101366" data-name="Trazado 101366" d="M254.056,146.638c-.858-1.077-3.74-.078-5.31.774-1.977,1.072-3.62,2.851-3.332,3.312.2.313,1.106-.261,3.285-.616,2.958-.481,4.039.126,4.925-.78A2.294,2.294,0,0,0,254.056,146.638Z" transform="translate(-138.01 -107.308)" fill="#704c44"/>
              <path id="Trazado_101367" data-name="Trazado 101367" d="M309.313,243.993" transform="translate(-114.554 -71.417)" fill="none" stroke="#383534" stroke-miterlimit="10" stroke-width="0.75"/>
              <path id="Trazado_101368" data-name="Trazado 101368" d="M235.853,352.962c-.328-4.5-1.818-27.085.994-29.495,2.418-2.072,17.384-13.222,21.113-16l-12.538-5.884.517-1.1,14.377,6.75-.815.606c-.191.142-19.188,14.258-21.862,16.552-1.814,1.554-1.315,18.3-.574,28.482Z" transform="translate(-141.758 -50.691)"/>
              <rect id="Rectángulo_33296" data-name="Rectángulo 33296" width="14.597" height="1.215" transform="translate(145.741 312.856) rotate(-89.549)"/>
              <rect id="Rectángulo_33297" data-name="Rectángulo 33297" width="14.068" height="1.216" transform="translate(69.376 321.924) rotate(-31.104)"/>
              <path id="Trazado_101369" data-name="Trazado 101369" d="M290.8,447.053l1.97,16.389a.929.929,0,0,1-.455.936c-4.036,2.35-30.337,16.578-49.092.257a1.1,1.1,0,0,1-.381-.854l.529-16.137a.966.966,0,0,1,1.314-.873c5.8,2,30.076,9.473,44.443-.452A1.074,1.074,0,0,1,290.8,447.053Z" transform="translate(-138.943 2.743)" fill="#383534"/>
              <path id="Trazado_101370" data-name="Trazado 101370" d="M240.475,430.78l1.866,15.51a.868.868,0,0,1-.431.88c-3.833,2.191-28.8,15.444-46.594-.126a1.053,1.053,0,0,1-.364-.811l.506-15.253a.91.91,0,0,1,1.247-.816c5.5,1.937,28.545,9.183,42.182-.093A1.027,1.027,0,0,1,240.475,430.78Z" transform="translate(-156.512 -3.212)" fill="#383534"/>
              <path id="Trazado_101371" data-name="Trazado 101371" d="M265.548,451.914c-11.3,0-18.67-3.687-18.781-3.741l.555-1.083c.16.085,16.265,8.1,37.347-.025l.437,1.132A54.116,54.116,0,0,1,265.548,451.914Z" transform="translate(-137.501 3.087)"/>
              <path id="Trazado_101372" data-name="Trazado 101372" d="M218.757,435.455a53.691,53.691,0,0,1-19.007-3.5l.478-1.117c.169.071,16.979,7.111,33.614.722l.435,1.133A43.154,43.154,0,0,1,218.757,435.455Z" transform="translate(-154.751 -2.865)"/>
              <path id="Trazado_101373" data-name="Trazado 101373" d="M270.935,163.057h-9.952a2.633,2.633,0,0,1-2.63-2.63v-6.05a2.634,2.634,0,0,1,2.63-2.631h9.952a2.635,2.635,0,0,1,2.63,2.631v6.05A2.634,2.634,0,0,1,270.935,163.057Zm-9.952-10.1a1.418,1.418,0,0,0-1.416,1.416v6.05a1.417,1.417,0,0,0,1.416,1.415h9.952a1.417,1.417,0,0,0,1.415-1.415v-6.05a1.418,1.418,0,0,0-1.415-1.416Z" transform="translate(-133.251 -105.261)" fill="#fff"/>
              <path id="Trazado_101374" data-name="Trazado 101374" d="M253.095,163.057h-7.522a2.634,2.634,0,0,1-2.63-2.63v-6.05a2.635,2.635,0,0,1,2.63-2.631h7.522a2.635,2.635,0,0,1,2.631,2.631v6.05A2.634,2.634,0,0,1,253.095,163.057Zm-7.522-10.1a1.418,1.418,0,0,0-1.415,1.416v6.05a1.417,1.417,0,0,0,1.415,1.415h7.522a1.417,1.417,0,0,0,1.416-1.415v-6.05a1.418,1.418,0,0,0-1.416-1.416Z" transform="translate(-138.904 -105.261)" fill="#fff"/>
              <g id="Grupo_77067" data-name="Grupo 77067" transform="translate(110.547 49.722)">
                <path id="Trazado_101375" data-name="Trazado 101375" d="M258.09,169.02a10.611,10.611,0,0,1-3.745-.817l.448-.947c.251.118,6.225,2.819,13.647-2.9l.64.83C264.72,168.543,260.793,169.165,258.09,169.02Z" transform="translate(-245.268 -150.359)" fill="#38261f"/>
                <path id="Trazado_101376" data-name="Trazado 101376" d="M255.667,164.538c-.111-.018-2.743-.444-3.6-2.534-.66-1.6-.071-3.661,1.75-6.12l.842.623c-1.562,2.112-2.124,3.872-1.625,5.093.633,1.543,2.778,1.9,2.8,1.9Z" transform="translate(-246.201 -153.466)" fill="#38261f"/>
                <path id="Trazado_101377" data-name="Trazado 101377" d="M265.013,156.841c-.253,1.278-1.061,2.194-1.806,2.048s-1.144-1.3-.891-2.581,1.061-2.2,1.806-2.048S265.265,155.563,265.013,156.841Z" transform="translate(-242.371 -154.067)" fill="#38261f"/>
                <path id="Trazado_101378" data-name="Trazado 101378" d="M250.231,156.48c-.231,1.165-.968,2-1.646,1.866s-1.043-1.186-.812-2.351.966-2,1.644-1.866S250.461,155.315,250.231,156.48Z" transform="translate(-247.704 -154.115)" fill="#38261f"/>
              </g>
              <path id="Trazado_101379" data-name="Trazado 101379" d="M261.164,156.621c-5.245-3.764-8.756-.226-8.9-.074l-.88-.838c.044-.045,4.369-4.471,10.492-.075Z" transform="translate(-135.809 -104.548)" fill="#fff"/>
              <rect id="Rectángulo_33298" data-name="Rectángulo 33298" width="8.801" height="1.214" transform="translate(139.507 51.004) rotate(-19.167)" fill="#fff"/>
              <path id="Trazado_101380" data-name="Trazado 101380" d="M284.186,135.406c-3.717-4.955-11.895-13.61-24.891-15.9a37.29,37.29,0,0,0-13.774.191l-.238-1.191a38.437,38.437,0,0,1,14.222-.2c13.409,2.365,21.828,11.27,25.652,16.368Z" transform="translate(-138.046 -117.738)" fill="#704c44"/>
              <path id="Trazado_101381" data-name="Trazado 101381" d="M260.589,173.008s-8.393,8.231-13.872-4.922c0,0-1.521,13.166,5.48,20.435,4.653,4.833,27.263,6.55,33.393-2.706s3.48-26.237,3.48-26.237l-5.753,1.345a4.582,4.582,0,0,0-2.624,3.192c-1.125,4.945-4.966,15.887-16.129,8.6Z" transform="translate(-137.571 -102.388)" fill="#704c44"/>
              <path id="Trazado_101382" data-name="Trazado 101382" d="M253.608,186.655c-2.851-1.955-5.684-4.278-7.091-8.026a15.248,15.248,0,0,1,.5-11.686l1.08.558a14.165,14.165,0,0,0-.443,10.7c1.289,3.432,3.953,5.608,6.64,7.45Z" transform="translate(-137.932 -99.686)" fill="#704c44"/>
            </g>
            <g id="Grupo_77078" data-name="Grupo 77078" transform="translate(295.153)">
              <path id="Trazado_101383" data-name="Trazado 101383" d="M353.425,85.048s21.351-10.585,35.346,10.736,30.337,69.743,30.337,69.743-38.028,2.145-76.082-8.5c0,0-12-37.326-10.115-56.653S353.425,85.048,353.425,85.048Z" transform="translate(-283.524 -82.421)" fill="#704c44"/>
              <path id="Trazado_101384" data-name="Trazado 101384" d="M370.334,275.457s2.649,90.268,16.345,96.1c0,0,3.316,51.914-2.548,91.3,0,0,6.761,1.292,16.761-5.055,0,0,24.581-63.5,7.085-100.243,0,0,16.952-67.653,4.686-89.232S370.334,275.457,370.334,275.457Z" transform="translate(-269.72 -17.163)" fill="#fab39b"/>
              <g id="Grupo_77069" data-name="Grupo 77069" transform="translate(87.935 436.992)">
                <path id="Trazado_101385" data-name="Trazado 101385" d="M401.734,404.678s10.783,6.167,8.144,10.839-13.946,16.6-14.25,21.066-.04,7.214-6.443,10.1-22.685,4.837-27.338,4.147,12.806-17.362,12.806-17.362Z" transform="translate(-361.058 -401.182)" fill="#383534"/>
                <path id="Trazado_101386" data-name="Trazado 101386" d="M397.437,412.608l-2.243,22.647-4.686-.19-1.42-2.255c-.416-4.318-.018-12.4-.265-12.935C388.459,419.093,397.437,412.608,397.437,412.608Z" transform="translate(-350.876 -398.272)" fill="#383534"/>
                <path id="Trazado_101387" data-name="Trazado 101387" d="M385.445,407.966,371,434.409s7.709,3,13.911-2.288c4.857-4.14,11.053-17.463,13.97-23.136.6-1.158,2.977-6.865,2.977-6.865Z" transform="translate(-357.409 -402.12)" fill="#fab39b"/>
              </g>
              <path id="Trazado_101388" data-name="Trazado 101388" d="M335.96,399.031s11.371,5.086,9.2,10.01-12.275,17.95-12.137,22.431.674,7.2-5.431,10.718-22.159,7.07-26.869,6.84,9.649-18.363,9.649-18.363Z" transform="translate(-295.608 33.739)" fill="#383534"/>
              <path id="Trazado_101389" data-name="Trazado 101389" d="M335.095,406.354v22.82l-4.694.275-1.64-2.11c-.842-4.267-1.244-12.374-1.543-12.881C326.777,413.713,335.095,406.354,335.095,406.354Z" transform="translate(-285.545 36.425)" fill="#383534"/>
              <path id="Trazado_101390" data-name="Trazado 101390" d="M337.137,359.7c5.638-18.35,12.831-97.3,33.079-142.643l53.772,6.083s-18.968,74.669-59.271,144.9c0,0,1.334,20.688-6.01,32.386-21.647,34.48-19.665,47.978-27.674,67.353-3.3.668-5.58,6.7-14.587,4.2C316.332,442.085,324.571,400.6,337.137,359.7Z" transform="translate(-289.491 -33.024)" fill="#fab39b"/>
              <path id="Trazado_101391" data-name="Trazado 101391" d="M320.649,401.51,307.526,431.7a10.884,10.884,0,0,0,12.271-2.732c4.437-4.612,12.1-19.672,14.451-25.621.48-1.215,2.292-7.145,2.292-7.145Z" transform="translate(-292.763 32.702)" fill="#fab39b"/>
              <path id="Trazado_101392" data-name="Trazado 101392" d="M356.084,200.109v24.105s-27.535,76.869-25.979,124.434c0,0,36.717,32.487,116.188-6.389,0,0-11.553-113.558-15.915-122-10.291-19.913-27.249-25.654-27.249-25.654S376.3,215.586,356.084,200.109Z" transform="translate(-284.503 -41.262)" fill="#383534"/>
              <path id="Trazado_101393" data-name="Trazado 101393" d="M400.7,141.548h0c2.754,1.04,5.563,2.485,7.1,4.995,10.133,16.539,34.413,56.317,34.413,56.317L426.255,217.8l-35.072-44.7S375.065,154.316,400.7,141.548Z" transform="translate(-263.905 -60.728)" fill="#7894ba"/>
              <path id="Trazado_101394" data-name="Trazado 101394" d="M350.145,137.885s-7.217,4.282-7.8,20-5.476,48.751-5.476,48.751L301.72,229.987s10.375,4.164,13.069,13.819l40.72-19.935a4.809,4.809,0,0,0,2.661-3.759l6.556-55.884Z" transform="translate(-294.893 -62.072)" fill="#7894ba"/>
              <path id="Trazado_101395" data-name="Trazado 101395" d="M302.908,204.947l5.682-4.552a.44.44,0,0,1,.465-.059c1.882.88,13.743,6.871,12.236,17.365a.468.468,0,0,1-.227.336l-6.206,3.606a.441.441,0,0,1-.653-.261c-.679-2.527-3.871-12.9-11.161-15.669A.445.445,0,0,1,302.908,204.947Z" transform="translate(-294.518 -39.174)" fill="#fff"/>
              <path id="Trazado_101396" data-name="Trazado 101396" d="M340.172,197.4a15.169,15.169,0,0,0-12.728-8.45h0l-.01-1.215a16.4,16.4,0,0,1,13.819,9.109Z" transform="translate(-285.46 -43.782)" fill="#383534"/>
              <path id="Trazado_101397" data-name="Trazado 101397" d="M337.147,139.706s45.879-19.978,87.87,8.626l-14,20.051s-.778,34.931-10.886,50.9c0,0-21,21.265-46.657,3.454,0,0-14.776-31.4-13.221-44.822Z" transform="translate(-281.896 -63.893)" fill="#7894ba"/>
              <g id="Grupo_77073" data-name="Grupo 77073" transform="translate(0 166.058)">
                <g id="Grupo_77072" data-name="Grupo 77072">
                  <g id="Grupo_77071" data-name="Grupo 77071">
                    <g id="Grupo_77070" data-name="Grupo 77070">
                      <path id="Trazado_101398" data-name="Trazado 101398" d="M318.863,220.433c.31-.61,4.1-5.336,4.009-6.055-1.069-8.145-19.078-14.452-23.305-7.455a21.271,21.271,0,0,0-2.832,9.173c-.223,6.187,3.894,4.3,3.894,4.3s-.312,3.245,2.126,4.069c3.036,1.027,2.522-2.9,2.522-2.9s-1.6,4.988.268,7.13c1.592,1.83,3.561-1.471,3.937-1.844,0,0,.105,3.406,3.8,1.471C316.921,226.414,317.8,222.529,318.863,220.433Z" transform="translate(-296.726 -203.907)" fill="#fab39b"/>
                    </g>
                  </g>
                  <path id="Trazado_101399" data-name="Trazado 101399" d="M300.339,219.5l-1.2-.215,1.3-7.228a5.373,5.373,0,0,1,.667-1.8l2.161-3.619,1.044.623-2.161,3.62a4.12,4.12,0,0,0-.515,1.39Z" transform="translate(-295.839 -202.905)" fill="#383534"/>
                  <path id="Trazado_101400" data-name="Trazado 101400" d="M303.326,222.681l-1.162-.362,2.455-7.871a5.271,5.271,0,0,1,.806-1.581l3.071-4.1.972.729-3.073,4.1a4.018,4.018,0,0,0-.616,1.214Z" transform="translate(-294.73 -202.122)" fill="#383534"/>
                  <path id="Trazado_101401" data-name="Trazado 101401" d="M306.783,224.276l-1.143-.416,2.486-6.849a5.111,5.111,0,0,1,.776-1.409l3.192-4.113.96.745-3.193,4.113a3.938,3.938,0,0,0-.592,1.078Z" transform="translate(-293.455 -201.126)" fill="#383534"/>
                </g>
                <path id="Trazado_101402" data-name="Trazado 101402" d="M315.913,209.343s2.873,6.639,5.648,6.933c6.8.719,4.813,3.231,1.854,4.066-1.888.533-2.06.083-4.922-.175a19.431,19.431,0,0,0-6.635,1.059Z" transform="translate(-291.174 -201.913)" fill="#fab39b"/>
              </g>
              <path id="Trazado_101403" data-name="Trazado 101403" d="M347.509,201.089l-3.83-6.49a11.943,11.943,0,0,1-7.131-7.359c-2.8-8.454,3.373-19.731,4.527-21.725l-5.392-10.786,1.085-.543,5.692,11.379-.174.288c-.075.122-7.426,12.432-4.585,21.006a10.832,10.832,0,0,0,6.627,6.694l.189.077,4.039,6.841Z" transform="translate(-282.433 -56.091)" fill="#383534"/>
              <path id="Trazado_101404" data-name="Trazado 101404" d="M392.249,168.537c-1.788-2.279-6.732-8.268-6.781-8.328l.936-.774c.051.06,5,6.062,6.8,8.352Z" transform="translate(-264.167 -54.165)" fill="#383534"/>
              <path id="Trazado_101405" data-name="Trazado 101405" d="M355.545,131.752l1.422,10.2s-6.379,5.835-2.88,7.876,11.647,4.1,23.9-8.554l-5.206-29.813Z" transform="translate(-276.066 -71.765)" fill="#fab39b"/>
              <path id="Trazado_101406" data-name="Trazado 101406" d="M362.269,83.937c-29.351-.522-24.585,32.469-24.531,33.3,1.009,15.4,12.605,31.94,19.478,30.76,20.823-3.573,19.932-24.685,19.932-24.685.21-1.309,6.009-15.119,6.024-16.481C383.343,90.859,379.422,84.241,362.269,83.937Z" transform="translate(-281.795 -81.867)" fill="#fab39b"/>
              <g id="Grupo_77074" data-name="Grupo 77074" transform="translate(90.506 32.32)">
                <path id="Trazado_101407" data-name="Trazado 101407" d="M377.667,114.619c-.242,4.5-3.733,7.968-7.8,7.749s-7.161-4.045-6.918-8.543,3.733-7.968,7.8-7.749S377.91,110.12,377.667,114.619Z" transform="translate(-362.939 -106.066)" fill="#fab39b"/>
                <path id="Trazado_101408" data-name="Trazado 101408" d="M370.3,115.312c-.689-1-2.844-1.021-3.617-.943l-.51.052.074-.506a5.489,5.489,0,0,1,2.18-4.087,4.047,4.047,0,0,1,3.121-.452l-.23.765a3.3,3.3,0,0,0-2.47.366,4.43,4.43,0,0,0-1.728,3.039c.964-.021,3,.09,3.838,1.315Z" transform="translate(-361.754 -104.9)" fill="#38261f"/>
              </g>
              <path id="Trazado_101409" data-name="Trazado 101409" d="M367.386,115.337A2.32,2.32,0,1,1,365.468,118,2.319,2.319,0,0,1,367.386,115.337Z" transform="translate(-271.516 -70.355)" fill="#fff"/>
              <path id="Trazado_101410" data-name="Trazado 101410" d="M346.727,95.016s3.887,19.389,28.886,15.578l1.093,5.947,5.7-1.919s7.183-15.268.118-24.462c-4.475-5.824-14.2-6.556-15.852-6.709a28.377,28.377,0,0,0-4.146-.072c-3.036.144-10.4.441-16.787,5.3-9.924,7.537-10.831,20.706-11.014,23.133C334.724,111.81,342.354,115.392,346.727,95.016Z" transform="translate(-282.785 -82.085)" fill="#704c44"/>
              <g id="Grupo_77075" data-name="Grupo 77075" transform="translate(54.844 28.985)">
                <path id="Trazado_101411" data-name="Trazado 101411" d="M352.293,121.724a9.315,9.315,0,0,1-3.373,0l.208-.9c.238.055,5.88,1.255,11.187-5.059l.707.593A14.426,14.426,0,0,1,352.293,121.724Z" transform="translate(-332.421 -99.172)" fill="#38261f"/>
                <path id="Trazado_101412" data-name="Trazado 101412" d="M348.316,118.962a4.325,4.325,0,0,1-3.574-1.5c-.868-1.253-.748-3.133.355-5.589l.841.377c-.947,2.109-1.1,3.727-.44,4.684a3.459,3.459,0,0,0,2.762,1.109Z" transform="translate(-334.163 -100.6)" fill="#38261f"/>
                <path id="Trazado_101413" data-name="Trazado 101413" d="M354.187,109.846c.023,1.147-.5,2.086-1.167,2.1s-1.229-.9-1.252-2.05.5-2.086,1.169-2.1S354.163,108.7,354.187,109.846Z" transform="translate(-331.376 -102.096)" fill="#38261f"/>
                <path id="Trazado_101414" data-name="Trazado 101414" d="M342.28,111.419c.022,1.044-.455,1.9-1.063,1.912s-1.12-.824-1.14-1.869.455-1.9,1.065-1.912S342.259,110.374,342.28,111.419Z" transform="translate(-335.665 -101.452)" fill="#38261f"/>
                <path id="Trazado_101415" data-name="Trazado 101415" d="M350.329,104.193a4.39,4.39,0,0,1,1.052-.332,9.438,9.438,0,0,1,5.752.515c3.711,1.547-1.177.5-3.818.7a17.163,17.163,0,0,1-2.2.063,2.468,2.468,0,0,1-1.014-.178c-.3-.163-.234-.384-.016-.592A1.11,1.11,0,0,1,350.329,104.193Z" transform="translate(-332.062 -103.626)" fill="#704c44"/>
                <path id="Trazado_101416" data-name="Trazado 101416" d="M341.938,105.879a2.166,2.166,0,0,0-.718-.044,5.591,5.591,0,0,0-3.613,1.674c-2.165,2.08.82.152,2.538-.254a9.548,9.548,0,0,0,1.416-.426,1.563,1.563,0,0,0,.626-.366.3.3,0,0,0-.07-.492A.642.642,0,0,0,341.938,105.879Z" transform="translate(-336.849 -102.818)" fill="#704c44"/>
              </g>
              <path id="Trazado_101417" data-name="Trazado 101417" d="M368.042,119.986a21.233,21.233,0,0,1-12.689,13.363l.634,4.55C366.788,133.617,368.042,119.986,368.042,119.986Z" transform="translate(-275.216 -68.639)" fill="#de937a"/>
              <path id="Trazado_101418" data-name="Trazado 101418" d="M365.724,187.087a19.748,19.748,0,0,1-4.661-.506l.325-1.171c.662.183,16.291,4.256,23.379-13.6l1.13.45C380.841,184.99,371.4,187.087,365.724,187.087Z" transform="translate(-273.121 -49.623)" fill="#383534"/>
              <g id="Grupo_77077" data-name="Grupo 77077" transform="translate(101.724 130.277)">
                <path id="Trazado_101419" data-name="Trazado 101419" d="M425.52,177.73s-24.341,9.339-37.409,11.334l10.335,14.4s.543,1.094,10.628,3.074c17.8,3.5,31.963,2.176,34.831-7.272C447.371,187.846,425.52,177.73,425.52,177.73Z" transform="translate(-364.922 -177.73)" fill="#7894ba"/>
                <g id="Grupo_77076" data-name="Grupo 77076" transform="translate(0 11.856)">
                  <path id="Trazado_101420" data-name="Trazado 101420" d="M396.055,206.342c.683-.118,7.779-3.949,8.193-5.086.543-1.487,4.4-15.656-12.429-14.816-5.092.254-14,5.418-15,6.051-5.036,3.181-1.171,4.821-1.171,4.821s-5.316,2.12-4.392,4.233c1.152,2.633,7.437-.182,7.437-.182s-4.77,2.045-3.205,4.174c1.294,1.762,6.91-.379,7.448-.321,0,0-1.9,2.711,2.367,3.127C388.657,208.672,393.709,206.743,396.055,206.342Z" transform="translate(-371.146 -186.404)" fill="#fab39b"/>
                  <path id="Trazado_101421" data-name="Trazado 101421" d="M374.738,196.541l-.471-1.12,12.848-5.389.471,1.12Z" transform="translate(-370.001 -185.073)" fill="#383534"/>
                  <rect id="Rectángulo_33299" data-name="Rectángulo 33299" width="13.152" height="1.216" transform="matrix(0.918, -0.396, 0.396, 0.918, 7.306, 14.407)" fill="#383534"/>
                  <rect id="Rectángulo_33300" data-name="Rectángulo 33300" width="10.384" height="1.215" transform="translate(11.571 18.25) rotate(-21.05)" fill="#383534"/>
                </g>
                <path id="Trazado_101422" data-name="Trazado 101422" d="M394.6,190.015a18.786,18.786,0,0,1-7.9-6.155c-3.948-5.839-5.93-6.211-6.113-3.885a7.255,7.255,0,0,0,1.4,5.144c2.495,2.911-.7,6.564-.7,6.564S393.416,191.825,394.6,190.015Z" transform="translate(-367.69 -177.396)" fill="#fab39b"/>
                <path id="Trazado_101423" data-name="Trazado 101423" d="M425.691,184.685c-14.031-7.229-21.694-1.493-21.772-1.435l-.748-.957c.332-.26,8.3-6.3,23.076,1.312Z" transform="translate(-359.396 -176.979)" fill="#383534"/>
              </g>
              <path id="Trazado_101424" data-name="Trazado 101424" d="M376.547,135.055l-.437.093a40.206,40.206,0,0,0-19.161,9.988h0a13.3,13.3,0,0,1,11.036,7.4l18.857-15.856s-1.118-8.267-11.453-8.255Z" transform="translate(-274.631 -65.542)" fill="#fff"/>
              <path id="Trazado_101425" data-name="Trazado 101425" d="M360.156,144.34l-1.417-9.4-.645-4.34s-11.213,6.247-9.755,17.254C348.338,147.851,355.032,141.971,360.156,144.34Z" transform="translate(-277.838 -64.746)" fill="#fff"/>
              <path id="Trazado_101426" data-name="Trazado 101426" d="M388.367,186.067l6.61-3.052a.438.438,0,0,1,.465.055c1.616,1.308,11.687,9.976,7.7,19.8a.471.471,0,0,1-.3.272l-6.89,2.007a.439.439,0,0,1-.571-.409c-.052-2.618-.655-13.456-7.064-17.894A.444.444,0,0,1,388.367,186.067Z" transform="translate(-263.198 -45.53)" fill="#fff"/>
              <path id="Trazado_101427" data-name="Trazado 101427" d="M331.735,101.84a14.955,14.955,0,0,1,5.807-15.8c6.258-4.485,15.483-4.154,21.937.789l-.738.965c-6.042-4.624-14.66-4.949-20.491-.767a13.744,13.744,0,0,0-5.334,14.526Z" transform="translate(-284.044 -82.251)" fill="#704c44"/>
              <path id="Trazado_101428" data-name="Trazado 101428" d="M410.33,151.51c-3.069-7.351-6.4-14.732-9.9-21.937-14.709-30.263-21.237-34.511-23.7-36.11-6.981-4.538-15.618-6.664-25.7-6.316l-.041-1.215c10.335-.349,19.21,1.837,26.4,6.513,2.536,1.65,9.273,6.032,24.127,36.6,3.512,7.225,6.851,14.627,9.929,22Z" transform="translate(-276.816 -81.146)" fill="#704c44"/>
            </g>
            <g id="Grupo_77085" data-name="Grupo 77085" transform="translate(63.677 242.482)">
              <path id="Trazado_101429" data-name="Trazado 101429" d="M146.506,278.609h19.217L151.631,537.816h-5.125Z" transform="translate(-120.362 -252.924)" fill="#96665b"/>
              <path id="Trazado_101430" data-name="Trazado 101430" d="M424.1,278.609H404.882l14.093,259.207H424.1Z" transform="translate(-25.568 -252.924)" fill="#96665b"/>
              <path id="Trazado_101431" data-name="Trazado 101431" d="M443.858,282.164H421.675l16.268,278.647h5.916Z" transform="translate(-19.407 -251.62)" fill="#96665b"/>
              <path id="Trazado_101432" data-name="Trazado 101432" d="M127.38,282.164h22.184L133.3,560.812H127.38Z" transform="translate(-127.38 -251.62)" fill="#96665b"/>
              <rect id="Rectángulo_33301" data-name="Rectángulo 33301" width="424.451" height="25.921" transform="translate(0 11.104)" fill="#96665b"/>
              <g id="Grupo_77083" data-name="Grupo 77083" transform="translate(28.409)">
                <g id="Grupo_77082" data-name="Grupo 77082">
                  <g id="Grupo_77081" data-name="Grupo 77081">
                    <g id="Grupo_77080" data-name="Grupo 77080">
                      <g id="Grupo_77079" data-name="Grupo 77079">
                        <path id="Trazado_101433" data-name="Trazado 101433" d="M175.354,271.8c-.111-.8,1.058-8.164.483-8.8-6.515-7.2-28.259-1.219-27.662,8.424a25.152,25.152,0,0,0,3.414,10.82c3.945,6.162,6.676,1.56,6.676,1.56s1.879,3.363,4.8,2.525c3.641-1.044.5-4.513.5-4.513s1.8,5.92,5.055,6.748c2.777.708,2.471-3.823,2.586-4.438,0,0,3.175,3.568,4.682-1.125C177.022,279.476,175.732,274.549,175.354,271.8Z" transform="translate(-148.163 -259.818)" fill="#fab39b"/>
                      </g>
                    </g>
                    <path id="Trazado_101434" data-name="Trazado 101434" d="M156.263,281.417l-3.6-7.9a6.216,6.216,0,0,1-.549-2.16L152.3,267l1.212.053-.186,4.3a5.122,5.122,0,0,0,.443,1.672l3.6,7.9Z" transform="translate(-146.713 -257.184)" fill="#383534"/>
                    <path id="Trazado_101435" data-name="Trazado 101435" d="M160.824,282.909l-2.907-9.3a6.06,6.06,0,0,1-.276-2.039l.232-6.047,1.214.048-.232,6.046a4.8,4.8,0,0,0,.223,1.629l2.906,9.3Z" transform="translate(-144.688 -257.727)" fill="#383534"/>
                    <path id="Trazado_101436" data-name="Trazado 101436" d="M165.235,282.1l-2.187-8.33a6.037,6.037,0,0,1-.194-1.856l.34-6.144,1.212.066-.339,6.144a4.789,4.789,0,0,0,.156,1.48l2.187,8.33Z" transform="translate(-142.776 -257.637)" fill="#383534"/>
                  </g>
                </g>
                <path id="Trazado_101437" data-name="Trazado 101437" d="M165.822,260.483s6.747,1.933,8.01,3.1,5.633,2.619,7.776,2.48c4.472-.291,5.152,3.255-.565,4.354-4.348.837-6.334-.6-8.182-.409a11.389,11.389,0,0,0-3.986,1.546Z" transform="translate(-141.684 -259.574)" fill="#fab39b"/>
              </g>
              <g id="Grupo_77084" data-name="Grupo 77084" transform="translate(0 37.025)">
                <path id="Trazado_101438" data-name="Trazado 101438" d="M146.506,310.181h17.335l1.266-23.276h-18.6Z" transform="translate(-120.362 -286.905)" fill="#704c44"/>
                <path id="Trazado_101439" data-name="Trazado 101439" d="M423.933,286.905h-18.6l1.266,23.276h17.335Z" transform="translate(-25.403 -286.905)" fill="#704c44"/>
                <path id="Trazado_101440" data-name="Trazado 101440" d="M423.31,310.181h20.447V286.905H421.951Z" transform="translate(-19.306 -286.905)" fill="#704c44"/>
                <path id="Trazado_101441" data-name="Trazado 101441" d="M149.185,286.905H127.38v23.276h20.447Z" transform="translate(-127.38 -286.905)" fill="#704c44"/>
              </g>
            </g>
            <g id="Grupo_77086" data-name="Grupo 77086" transform="translate(402.203 232.855)">
              <rect id="Rectángulo_33302" data-name="Rectángulo 33302" width="78.017" height="20.731" fill="#6c8ecc"/>
              <path id="Trazado_101442" data-name="Trazado 101442" d="M388.582,261.624a4.713,4.713,0,1,1-4.713-4.713A4.713,4.713,0,0,1,388.582,261.624Z" transform="translate(-373.533 -251.258)" fill="#383534"/>
              <path id="Trazado_101443" data-name="Trazado 101443" d="M388.582,261.624a4.713,4.713,0,1,1-4.713-4.713A4.713,4.713,0,0,1,388.582,261.624Z" transform="translate(-373.533 -251.258)" fill="none" stroke="#fff" stroke-miterlimit="10" stroke-width="1"/>
              <rect id="Rectángulo_33303" data-name="Rectángulo 33303" width="15.772" height="6.232" transform="translate(54.757 7.125)" fill="#fff"/>
            </g>
            <g id="Grupo_77087" data-name="Grupo 77087" transform="translate(402.203 191.394)">
              <rect id="Rectángulo_33304" data-name="Rectángulo 33304" width="78.017" height="20.731" fill="#ffc375"/>
              <path id="Trazado_101444" data-name="Trazado 101444" d="M388.582,231.291a4.713,4.713,0,1,1-4.713-4.713A4.713,4.713,0,0,1,388.582,231.291Z" transform="translate(-373.533 -220.925)" fill="#383534"/>
              <path id="Trazado_101445" data-name="Trazado 101445" d="M388.582,231.291a4.713,4.713,0,1,1-4.713-4.713A4.713,4.713,0,0,1,388.582,231.291Z" transform="translate(-373.533 -220.925)" fill="none" stroke="#fff" stroke-miterlimit="10" stroke-width="1"/>
              <rect id="Rectángulo_33305" data-name="Rectángulo 33305" width="15.772" height="6.232" transform="translate(54.757 7.125)" fill="#fff"/>
            </g>
            <g id="Grupo_77088" data-name="Grupo 77088" transform="translate(389.635 212.125)">
              <rect id="Rectángulo_33306" data-name="Rectángulo 33306" width="78.017" height="20.731" fill="#ff9775"/>
              <path id="Trazado_101446" data-name="Trazado 101446" d="M379.388,246.457a4.714,4.714,0,1,1-4.714-4.713A4.714,4.714,0,0,1,379.388,246.457Z" transform="translate(-364.338 -236.092)" fill="#383534"/>
              <path id="Trazado_101447" data-name="Trazado 101447" d="M379.388,246.457a4.714,4.714,0,1,1-4.714-4.713A4.714,4.714,0,0,1,379.388,246.457Z" transform="translate(-364.338 -236.092)" fill="none" stroke="#fff" stroke-miterlimit="10" stroke-width="1"/>
              <rect id="Rectángulo_33307" data-name="Rectángulo 33307" width="15.772" height="6.232" transform="translate(54.757 7.125)" fill="#fff"/>
            </g>
          </g>
        </g>
      </g>
    </g>
  </g>
  <path id="Rectángulo_5165" data-name="Rectángulo 5165" d="M0,0H76.087a30.422,30.422,0,0,1,30.422,30.422v0A30.422,30.422,0,0,1,76.087,60.844H30.422A30.422,30.422,0,0,1,0,30.422V0A0,0,0,0,1,0,0Z" transform="translate(503.491 584.938)" fill="#77cfd9"/>
  <path id="Rectángulo_5166" data-name="Rectángulo 5166" d="M15.253,0h0A15.253,15.253,0,0,1,30.505,15.253V64.024a0,0,0,0,1,0,0H15.253A15.253,15.253,0,0,1,0,48.771V15.253A15.253,15.253,0,0,1,15.253,0Z" transform="translate(0 0)" fill="#fad9c5"/>
  <g id="Grupo_74307" data-name="Grupo 74307" transform="translate(0 508.505)">
    <g id="Grupo_53320" data-name="Grupo 53320" transform="translate(1.668)">
      <path id="Trazado_99297" data-name="Trazado 99297" d="M656.1,72.408a1.571,1.571,0,1,0,1.588-1.484A1.534,1.534,0,0,0,656.1,72.408Z" transform="translate(-514.817 -69.294)" fill="#f2884b"/>
      <path id="Trazado_99298" data-name="Trazado 99298" d="M646.707,72.294a1.572,1.572,0,1,0,1.59-1.483A1.535,1.535,0,0,0,646.707,72.294Z" transform="translate(-519.551 -69.344)" fill="#f2884b"/>
      <path id="Trazado_99299" data-name="Trazado 99299" d="M637.313,72.181A1.571,1.571,0,1,0,638.9,70.7,1.535,1.535,0,0,0,637.313,72.181Z" transform="translate(-524.285 -69.393)" fill="#f2884b"/>
      <path id="Trazado_99300" data-name="Trazado 99300" d="M627.919,72.068a1.571,1.571,0,1,0,1.588-1.484A1.534,1.534,0,0,0,627.919,72.068Z" transform="translate(-529.019 -69.443)" fill="#f2884b"/>
      <path id="Trazado_99301" data-name="Trazado 99301" d="M618.524,71.954a1.572,1.572,0,1,0,1.59-1.483A1.535,1.535,0,0,0,618.524,71.954Z" transform="translate(-533.754 -69.493)" fill="#f2884b"/>
      <path id="Trazado_99302" data-name="Trazado 99302" d="M609.13,71.841a1.571,1.571,0,1,0,1.588-1.483A1.534,1.534,0,0,0,609.13,71.841Z" transform="translate(-538.487 -69.542)" fill="#f2884b"/>
      <path id="Trazado_99303" data-name="Trazado 99303" d="M599.735,71.727a1.572,1.572,0,1,0,1.59-1.483A1.536,1.536,0,0,0,599.735,71.727Z" transform="translate(-543.222 -69.592)" fill="#f2884b"/>
      <path id="Trazado_99304" data-name="Trazado 99304" d="M590.341,71.614a1.572,1.572,0,1,0,1.588-1.483A1.535,1.535,0,0,0,590.341,71.614Z" transform="translate(-547.956 -69.642)" fill="#f2884b"/>
      <path id="Trazado_99305" data-name="Trazado 99305" d="M580.947,71.5a1.571,1.571,0,1,0,1.588-1.484A1.534,1.534,0,0,0,580.947,71.5Z" transform="translate(-552.69 -69.692)" fill="#f2884b"/>
      <path id="Trazado_99306" data-name="Trazado 99306" d="M571.552,71.387a1.572,1.572,0,1,0,1.59-1.483A1.535,1.535,0,0,0,571.552,71.387Z" transform="translate(-557.424 -69.741)" fill="#f2884b"/>
      <path id="Trazado_99307" data-name="Trazado 99307" d="M562.158,71.274a1.571,1.571,0,1,0,1.588-1.483A1.534,1.534,0,0,0,562.158,71.274Z" transform="translate(-562.158 -69.791)" fill="#f2884b"/>
    </g>
    <g id="Grupo_53321" data-name="Grupo 53321" transform="translate(1.516 12.009)">
      <path id="Trazado_99308" data-name="Trazado 99308" d="M656,80.758a1.572,1.572,0,1,0,1.588-1.483A1.535,1.535,0,0,0,656,80.758Z" transform="translate(-514.716 -77.644)" fill="#f2884b"/>
      <path id="Trazado_99309" data-name="Trazado 99309" d="M646.606,80.645a1.572,1.572,0,1,0,1.59-1.483A1.536,1.536,0,0,0,646.606,80.645Z" transform="translate(-519.451 -77.693)" fill="#f2884b"/>
      <path id="Trazado_99310" data-name="Trazado 99310" d="M637.212,80.531a1.572,1.572,0,1,0,1.588-1.483A1.535,1.535,0,0,0,637.212,80.531Z" transform="translate(-524.184 -77.743)" fill="#f2884b"/>
      <path id="Trazado_99311" data-name="Trazado 99311" d="M627.818,80.418a1.571,1.571,0,1,0,1.588-1.483A1.534,1.534,0,0,0,627.818,80.418Z" transform="translate(-528.918 -77.793)" fill="#f2884b"/>
      <path id="Trazado_99312" data-name="Trazado 99312" d="M618.423,80.305a1.572,1.572,0,1,0,1.59-1.484A1.535,1.535,0,0,0,618.423,80.305Z" transform="translate(-533.653 -77.843)" fill="#f2884b"/>
      <path id="Trazado_99313" data-name="Trazado 99313" d="M609.029,80.191a1.572,1.572,0,1,0,1.588-1.483A1.535,1.535,0,0,0,609.029,80.191Z" transform="translate(-538.387 -77.892)" fill="#f2884b"/>
      <path id="Trazado_99314" data-name="Trazado 99314" d="M599.635,80.078a1.571,1.571,0,1,0,1.588-1.483A1.534,1.534,0,0,0,599.635,80.078Z" transform="translate(-543.12 -77.942)" fill="#f2884b"/>
      <path id="Trazado_99315" data-name="Trazado 99315" d="M590.24,79.964a1.572,1.572,0,1,0,1.59-1.483A1.535,1.535,0,0,0,590.24,79.964Z" transform="translate(-547.855 -77.992)" fill="#f2884b"/>
      <path id="Trazado_99316" data-name="Trazado 99316" d="M580.846,79.851a1.571,1.571,0,1,0,1.588-1.483A1.535,1.535,0,0,0,580.846,79.851Z" transform="translate(-552.589 -78.041)" fill="#f2884b"/>
      <path id="Trazado_99317" data-name="Trazado 99317" d="M571.451,79.738a1.572,1.572,0,1,0,1.59-1.484A1.535,1.535,0,0,0,571.451,79.738Z" transform="translate(-557.323 -78.091)" fill="#f2884b"/>
      <path id="Trazado_99318" data-name="Trazado 99318" d="M562.057,79.624a1.572,1.572,0,1,0,1.588-1.483A1.535,1.535,0,0,0,562.057,79.624Z" transform="translate(-562.057 -78.141)" fill="#f2884b"/>
    </g>
    <g id="Grupo_53322" data-name="Grupo 53322" transform="translate(1.364 24.02)">
      <path id="Trazado_99319" data-name="Trazado 99319" d="M655.9,89.109a1.572,1.572,0,1,0,1.59-1.483A1.535,1.535,0,0,0,655.9,89.109Z" transform="translate(-514.615 -85.995)" fill="#f2884b"/>
      <path id="Trazado_99320" data-name="Trazado 99320" d="M646.506,88.995a1.571,1.571,0,1,0,1.588-1.483A1.534,1.534,0,0,0,646.506,88.995Z" transform="translate(-519.349 -86.045)" fill="#f2884b"/>
      <path id="Trazado_99321" data-name="Trazado 99321" d="M637.111,88.882A1.572,1.572,0,1,0,638.7,87.4,1.535,1.535,0,0,0,637.111,88.882Z" transform="translate(-524.083 -86.094)" fill="#f2884b"/>
      <path id="Trazado_99322" data-name="Trazado 99322" d="M627.717,88.769a1.572,1.572,0,1,0,1.588-1.484A1.535,1.535,0,0,0,627.717,88.769Z" transform="translate(-528.817 -86.144)" fill="#f2884b"/>
      <path id="Trazado_99323" data-name="Trazado 99323" d="M618.323,88.655a1.571,1.571,0,1,0,1.588-1.483A1.534,1.534,0,0,0,618.323,88.655Z" transform="translate(-533.551 -86.194)" fill="#f2884b"/>
      <path id="Trazado_99324" data-name="Trazado 99324" d="M608.928,88.542a1.572,1.572,0,1,0,1.59-1.483A1.535,1.535,0,0,0,608.928,88.542Z" transform="translate(-538.285 -86.243)" fill="#f2884b"/>
      <path id="Trazado_99325" data-name="Trazado 99325" d="M599.534,88.428a1.571,1.571,0,1,0,1.588-1.483A1.535,1.535,0,0,0,599.534,88.428Z" transform="translate(-543.019 -86.293)" fill="#f2884b"/>
      <path id="Trazado_99326" data-name="Trazado 99326" d="M590.139,88.315a1.572,1.572,0,1,0,1.59-1.483A1.534,1.534,0,0,0,590.139,88.315Z" transform="translate(-547.754 -86.343)" fill="#f2884b"/>
      <path id="Trazado_99327" data-name="Trazado 99327" d="M580.745,88.2a1.572,1.572,0,1,0,1.588-1.484A1.535,1.535,0,0,0,580.745,88.2Z" transform="translate(-552.487 -86.393)" fill="#f2884b"/>
      <path id="Trazado_99328" data-name="Trazado 99328" d="M571.351,88.088a1.571,1.571,0,1,0,1.588-1.483A1.534,1.534,0,0,0,571.351,88.088Z" transform="translate(-557.221 -86.442)" fill="#f2884b"/>
      <path id="Trazado_99329" data-name="Trazado 99329" d="M561.956,87.975a1.572,1.572,0,1,0,1.59-1.483A1.535,1.535,0,0,0,561.956,87.975Z" transform="translate(-561.956 -86.492)" fill="#f2884b"/>
    </g>
    <g id="Grupo_53323" data-name="Grupo 53323" transform="translate(1.212 36.029)">
      <path id="Trazado_99330" data-name="Trazado 99330" d="M655.8,97.459a1.572,1.572,0,1,0,1.59-1.483A1.536,1.536,0,0,0,655.8,97.459Z" transform="translate(-514.514 -94.345)" fill="#f2884b"/>
      <path id="Trazado_99331" data-name="Trazado 99331" d="M646.4,97.346a1.572,1.572,0,1,0,1.588-1.483A1.535,1.535,0,0,0,646.4,97.346Z" transform="translate(-519.248 -94.394)" fill="#f2884b"/>
      <path id="Trazado_99332" data-name="Trazado 99332" d="M637.01,97.233a1.572,1.572,0,1,0,1.59-1.484A1.536,1.536,0,0,0,637.01,97.233Z" transform="translate(-523.982 -94.444)" fill="#f2884b"/>
      <path id="Trazado_99333" data-name="Trazado 99333" d="M627.616,97.119a1.572,1.572,0,1,0,1.59-1.483A1.535,1.535,0,0,0,627.616,97.119Z" transform="translate(-528.716 -94.494)" fill="#f2884b"/>
      <path id="Trazado_99334" data-name="Trazado 99334" d="M618.222,97.006a1.571,1.571,0,1,0,1.588-1.483A1.535,1.535,0,0,0,618.222,97.006Z" transform="translate(-533.45 -94.543)" fill="#f2884b"/>
      <path id="Trazado_99335" data-name="Trazado 99335" d="M608.827,96.892a1.572,1.572,0,1,0,1.589-1.483A1.535,1.535,0,0,0,608.827,96.892Z" transform="translate(-538.185 -94.593)" fill="#f2884b"/>
      <path id="Trazado_99336" data-name="Trazado 99336" d="M599.433,96.779a1.572,1.572,0,1,0,1.588-1.483A1.534,1.534,0,0,0,599.433,96.779Z" transform="translate(-542.918 -94.643)" fill="#f2884b"/>
      <path id="Trazado_99337" data-name="Trazado 99337" d="M590.039,96.666a1.571,1.571,0,1,0,1.588-1.484A1.534,1.534,0,0,0,590.039,96.666Z" transform="translate(-547.652 -94.693)" fill="#f2884b"/>
      <path id="Trazado_99338" data-name="Trazado 99338" d="M580.644,96.552a1.572,1.572,0,1,0,1.59-1.483A1.535,1.535,0,0,0,580.644,96.552Z" transform="translate(-552.387 -94.742)" fill="#f2884b"/>
      <path id="Trazado_99339" data-name="Trazado 99339" d="M571.25,96.439a1.571,1.571,0,1,0,1.588-1.483A1.535,1.535,0,0,0,571.25,96.439Z" transform="translate(-557.121 -94.792)" fill="#f2884b"/>
      <path id="Trazado_99340" data-name="Trazado 99340" d="M561.855,96.325a1.572,1.572,0,1,0,1.59-1.483A1.536,1.536,0,0,0,561.855,96.325Z" transform="translate(-561.855 -94.842)" fill="#f2884b"/>
    </g>
    <g id="Grupo_53324" data-name="Grupo 53324" transform="translate(1.062 48.04)">
      <path id="Trazado_99341" data-name="Trazado 99341" d="M655.7,105.81a1.571,1.571,0,1,0,1.588-1.483A1.534,1.534,0,0,0,655.7,105.81Z" transform="translate(-514.414 -102.696)" fill="#f2884b"/>
      <path id="Trazado_99342" data-name="Trazado 99342" d="M646.3,105.7a1.572,1.572,0,1,0,1.59-1.484A1.535,1.535,0,0,0,646.3,105.7Z" transform="translate(-519.148 -102.746)" fill="#f2884b"/>
      <path id="Trazado_99343" data-name="Trazado 99343" d="M636.91,105.583A1.571,1.571,0,1,0,638.5,104.1,1.532,1.532,0,0,0,636.91,105.583Z" transform="translate(-523.882 -102.795)" fill="#f2884b"/>
      <path id="Trazado_99344" data-name="Trazado 99344" d="M627.515,105.47a1.572,1.572,0,1,0,1.59-1.484A1.535,1.535,0,0,0,627.515,105.47Z" transform="translate(-528.617 -102.845)" fill="#f2884b"/>
      <path id="Trazado_99345" data-name="Trazado 99345" d="M618.121,105.356a1.572,1.572,0,1,0,1.588-1.483A1.535,1.535,0,0,0,618.121,105.356Z" transform="translate(-533.351 -102.895)" fill="#f2884b"/>
      <path id="Trazado_99346" data-name="Trazado 99346" d="M608.727,105.243a1.571,1.571,0,1,0,1.588-1.483A1.534,1.534,0,0,0,608.727,105.243Z" transform="translate(-538.084 -102.944)" fill="#f2884b"/>
      <path id="Trazado_99347" data-name="Trazado 99347" d="M599.332,105.13a1.572,1.572,0,1,0,1.59-1.484A1.535,1.535,0,0,0,599.332,105.13Z" transform="translate(-542.819 -102.994)" fill="#f2884b"/>
      <path id="Trazado_99348" data-name="Trazado 99348" d="M589.938,105.016a1.571,1.571,0,1,0,1.588-1.483A1.535,1.535,0,0,0,589.938,105.016Z" transform="translate(-547.553 -103.044)" fill="#f2884b"/>
      <path id="Trazado_99349" data-name="Trazado 99349" d="M580.543,104.9a1.572,1.572,0,1,0,1.59-1.483A1.535,1.535,0,0,0,580.543,104.9Z" transform="translate(-552.287 -103.093)" fill="#f2884b"/>
      <path id="Trazado_99350" data-name="Trazado 99350" d="M571.149,104.79a1.572,1.572,0,1,0,1.588-1.484A1.535,1.535,0,0,0,571.149,104.79Z" transform="translate(-557.021 -103.143)" fill="#f2884b"/>
      <path id="Trazado_99351" data-name="Trazado 99351" d="M561.755,104.676a1.571,1.571,0,1,0,1.588-1.483A1.533,1.533,0,0,0,561.755,104.676Z" transform="translate(-561.755 -103.193)" fill="#f2884b"/>
    </g>
    <g id="Grupo_53325" data-name="Grupo 53325" transform="translate(0.91 60.05)">
      <path id="Trazado_99352" data-name="Trazado 99352" d="M655.6,114.16a1.571,1.571,0,1,0,1.588-1.483A1.535,1.535,0,0,0,655.6,114.16Z" transform="translate(-514.313 -111.046)" fill="#f2884b"/>
      <path id="Trazado_99353" data-name="Trazado 99353" d="M646.2,114.047a1.572,1.572,0,1,0,1.59-1.483A1.536,1.536,0,0,0,646.2,114.047Z" transform="translate(-519.047 -111.095)" fill="#f2884b"/>
      <path id="Trazado_99354" data-name="Trazado 99354" d="M636.809,113.934a1.572,1.572,0,1,0,1.588-1.484A1.535,1.535,0,0,0,636.809,113.934Z" transform="translate(-523.781 -111.145)" fill="#f2884b"/>
      <path id="Trazado_99355" data-name="Trazado 99355" d="M627.415,113.82A1.571,1.571,0,1,0,629,112.337,1.534,1.534,0,0,0,627.415,113.82Z" transform="translate(-528.515 -111.195)" fill="#f2884b"/>
      <path id="Trazado_99356" data-name="Trazado 99356" d="M618.02,113.707a1.572,1.572,0,1,0,1.59-1.483A1.535,1.535,0,0,0,618.02,113.707Z" transform="translate(-533.25 -111.244)" fill="#f2884b"/>
      <path id="Trazado_99357" data-name="Trazado 99357" d="M608.626,113.594a1.571,1.571,0,1,0,1.588-1.484A1.535,1.535,0,0,0,608.626,113.594Z" transform="translate(-537.983 -111.294)" fill="#f2884b"/>
      <path id="Trazado_99358" data-name="Trazado 99358" d="M599.231,113.48a1.572,1.572,0,1,0,1.59-1.483A1.536,1.536,0,0,0,599.231,113.48Z" transform="translate(-542.718 -111.344)" fill="#f2884b"/>
      <path id="Trazado_99359" data-name="Trazado 99359" d="M589.837,113.367a1.572,1.572,0,1,0,1.588-1.483A1.535,1.535,0,0,0,589.837,113.367Z" transform="translate(-547.452 -111.393)" fill="#f2884b"/>
      <path id="Trazado_99360" data-name="Trazado 99360" d="M580.443,113.253a1.571,1.571,0,1,0,1.588-1.483A1.534,1.534,0,0,0,580.443,113.253Z" transform="translate(-552.186 -111.443)" fill="#f2884b"/>
      <path id="Trazado_99361" data-name="Trazado 99361" d="M571.048,113.14a1.572,1.572,0,1,0,1.59-1.483A1.535,1.535,0,0,0,571.048,113.14Z" transform="translate(-556.92 -111.493)" fill="#f2884b"/>
      <path id="Trazado_99362" data-name="Trazado 99362" d="M561.654,113.027a1.571,1.571,0,1,0,1.588-1.484A1.535,1.535,0,0,0,561.654,113.027Z" transform="translate(-561.654 -111.543)" fill="#f2884b"/>
    </g>
    <g id="Grupo_53326" data-name="Grupo 53326" transform="translate(0.758 72.06)">
      <path id="Trazado_99363" data-name="Trazado 99363" d="M655.5,122.511a1.572,1.572,0,1,0,1.588-1.483A1.535,1.535,0,0,0,655.5,122.511Z" transform="translate(-514.212 -119.397)" fill="#f2884b"/>
      <path id="Trazado_99364" data-name="Trazado 99364" d="M646.1,122.4a1.571,1.571,0,1,0,1.588-1.484A1.534,1.534,0,0,0,646.1,122.4Z" transform="translate(-518.946 -119.447)" fill="#f2884b"/>
      <path id="Trazado_99365" data-name="Trazado 99365" d="M636.708,122.284a1.572,1.572,0,1,0,1.59-1.483A1.535,1.535,0,0,0,636.708,122.284Z" transform="translate(-523.68 -119.496)" fill="#f2884b"/>
      <path id="Trazado_99366" data-name="Trazado 99366" d="M627.314,122.171a1.571,1.571,0,1,0,1.588-1.483A1.534,1.534,0,0,0,627.314,122.171Z" transform="translate(-528.414 -119.546)" fill="#f2884b"/>
      <path id="Trazado_99367" data-name="Trazado 99367" d="M617.919,122.057a1.572,1.572,0,1,0,1.59-1.483A1.535,1.535,0,0,0,617.919,122.057Z" transform="translate(-533.149 -119.596)" fill="#f2884b"/>
      <path id="Trazado_99368" data-name="Trazado 99368" d="M608.525,121.944a1.572,1.572,0,1,0,1.588-1.483A1.533,1.533,0,0,0,608.525,121.944Z" transform="translate(-537.882 -119.645)" fill="#f2884b"/>
      <path id="Trazado_99369" data-name="Trazado 99369" d="M599.131,121.831a1.571,1.571,0,1,0,1.588-1.483A1.534,1.534,0,0,0,599.131,121.831Z" transform="translate(-542.616 -119.695)" fill="#f2884b"/>
      <path id="Trazado_99370" data-name="Trazado 99370" d="M589.736,121.717a1.572,1.572,0,1,0,1.59-1.483A1.535,1.535,0,0,0,589.736,121.717Z" transform="translate(-547.351 -119.745)" fill="#f2884b"/>
      <path id="Trazado_99371" data-name="Trazado 99371" d="M580.342,121.6a1.571,1.571,0,1,0,1.588-1.483A1.535,1.535,0,0,0,580.342,121.6Z" transform="translate(-552.085 -119.794)" fill="#f2884b"/>
      <path id="Trazado_99372" data-name="Trazado 99372" d="M570.947,121.491a1.572,1.572,0,1,0,1.59-1.484A1.535,1.535,0,0,0,570.947,121.491Z" transform="translate(-556.819 -119.844)" fill="#f2884b"/>
      <path id="Trazado_99373" data-name="Trazado 99373" d="M561.553,121.377a1.572,1.572,0,1,0,1.588-1.483A1.535,1.535,0,0,0,561.553,121.377Z" transform="translate(-561.553 -119.894)" fill="#f2884b"/>
    </g>
    <g id="Grupo_53327" data-name="Grupo 53327" transform="translate(0.606 84.071)">
      <path id="Trazado_99374" data-name="Trazado 99374" d="M655.4,130.862a1.572,1.572,0,1,0,1.59-1.484A1.535,1.535,0,0,0,655.4,130.862Z" transform="translate(-514.111 -127.748)" fill="#f2884b"/>
      <path id="Trazado_99375" data-name="Trazado 99375" d="M646,130.748a1.571,1.571,0,1,0,1.588-1.483A1.535,1.535,0,0,0,646,130.748Z" transform="translate(-518.845 -127.798)" fill="#f2884b"/>
      <path id="Trazado_99376" data-name="Trazado 99376" d="M636.607,130.635a1.572,1.572,0,1,0,1.59-1.483A1.535,1.535,0,0,0,636.607,130.635Z" transform="translate(-523.579 -127.847)" fill="#f2884b"/>
      <path id="Trazado_99377" data-name="Trazado 99377" d="M627.213,130.521a1.572,1.572,0,1,0,1.588-1.483A1.535,1.535,0,0,0,627.213,130.521Z" transform="translate(-528.313 -127.897)" fill="#f2884b"/>
      <path id="Trazado_99378" data-name="Trazado 99378" d="M617.819,130.408a1.571,1.571,0,1,0,1.588-1.483A1.534,1.534,0,0,0,617.819,130.408Z" transform="translate(-533.047 -127.947)" fill="#f2884b"/>
      <path id="Trazado_99379" data-name="Trazado 99379" d="M608.424,130.3a1.572,1.572,0,1,0,1.59-1.484A1.535,1.535,0,0,0,608.424,130.3Z" transform="translate(-537.781 -127.997)" fill="#f2884b"/>
      <path id="Trazado_99380" data-name="Trazado 99380" d="M599.03,130.181a1.572,1.572,0,1,0,1.588-1.483A1.535,1.535,0,0,0,599.03,130.181Z" transform="translate(-542.515 -128.046)" fill="#f2884b"/>
      <path id="Trazado_99381" data-name="Trazado 99381" d="M589.635,130.068a1.572,1.572,0,1,0,1.59-1.483A1.536,1.536,0,0,0,589.635,130.068Z" transform="translate(-547.25 -128.096)" fill="#f2884b"/>
      <path id="Trazado_99382" data-name="Trazado 99382" d="M580.241,129.954a1.572,1.572,0,1,0,1.588-1.483A1.535,1.535,0,0,0,580.241,129.954Z" transform="translate(-551.984 -128.146)" fill="#f2884b"/>
      <path id="Trazado_99383" data-name="Trazado 99383" d="M570.847,129.841a1.571,1.571,0,1,0,1.588-1.483A1.534,1.534,0,0,0,570.847,129.841Z" transform="translate(-556.718 -128.195)" fill="#f2884b"/>
      <path id="Trazado_99384" data-name="Trazado 99384" d="M561.452,129.728a1.572,1.572,0,1,0,1.59-1.483A1.535,1.535,0,0,0,561.452,129.728Z" transform="translate(-561.452 -128.245)" fill="#f2884b"/>
    </g>
    <g id="Grupo_53328" data-name="Grupo 53328" transform="translate(0.454 96.08)">
      <path id="Trazado_99385" data-name="Trazado 99385" d="M655.295,139.212a1.572,1.572,0,1,0,1.59-1.483A1.534,1.534,0,0,0,655.295,139.212Z" transform="translate(-514.01 -136.098)" fill="#f2884b"/>
      <path id="Trazado_99386" data-name="Trazado 99386" d="M645.9,139.1a1.572,1.572,0,1,0,1.588-1.483A1.535,1.535,0,0,0,645.9,139.1Z" transform="translate(-518.744 -136.147)" fill="#f2884b"/>
      <path id="Trazado_99387" data-name="Trazado 99387" d="M636.507,138.985A1.571,1.571,0,1,0,638.1,137.5,1.534,1.534,0,0,0,636.507,138.985Z" transform="translate(-523.478 -136.197)" fill="#f2884b"/>
      <path id="Trazado_99388" data-name="Trazado 99388" d="M627.112,138.872a1.572,1.572,0,1,0,1.59-1.483A1.534,1.534,0,0,0,627.112,138.872Z" transform="translate(-528.212 -136.247)" fill="#f2884b"/>
      <path id="Trazado_99389" data-name="Trazado 99389" d="M617.718,138.759a1.571,1.571,0,1,0,1.588-1.484A1.535,1.535,0,0,0,617.718,138.759Z" transform="translate(-532.946 -136.297)" fill="#f2884b"/>
      <path id="Trazado_99390" data-name="Trazado 99390" d="M608.323,138.645a1.572,1.572,0,1,0,1.59-1.483A1.535,1.535,0,0,0,608.323,138.645Z" transform="translate(-537.681 -136.346)" fill="#f2884b"/>
      <path id="Trazado_99391" data-name="Trazado 99391" d="M598.929,138.532a1.572,1.572,0,1,0,1.59-1.483A1.535,1.535,0,0,0,598.929,138.532Z" transform="translate(-542.414 -136.396)" fill="#f2884b"/>
      <path id="Trazado_99392" data-name="Trazado 99392" d="M589.535,138.419a1.571,1.571,0,1,0,1.588-1.484A1.534,1.534,0,0,0,589.535,138.419Z" transform="translate(-547.148 -136.446)" fill="#f2884b"/>
      <path id="Trazado_99393" data-name="Trazado 99393" d="M580.14,138.3a1.572,1.572,0,1,0,1.59-1.483A1.533,1.533,0,0,0,580.14,138.3Z" transform="translate(-551.883 -136.495)" fill="#f2884b"/>
      <path id="Trazado_99394" data-name="Trazado 99394" d="M570.746,138.192a1.572,1.572,0,1,0,1.588-1.483A1.535,1.535,0,0,0,570.746,138.192Z" transform="translate(-556.617 -136.545)" fill="#f2884b"/>
      <path id="Trazado_99395" data-name="Trazado 99395" d="M561.351,138.078a1.572,1.572,0,1,0,1.59-1.483A1.536,1.536,0,0,0,561.351,138.078Z" transform="translate(-561.351 -136.595)" fill="#f2884b"/>
    </g>
    <g id="Grupo_53329" data-name="Grupo 53329" transform="translate(0.304 108.091)">
      <path id="Trazado_99396" data-name="Trazado 99396" d="M655.2,147.563a1.571,1.571,0,1,0,1.588-1.484A1.534,1.534,0,0,0,655.2,147.563Z" transform="translate(-513.91 -144.449)" fill="#f2884b"/>
      <path id="Trazado_99397" data-name="Trazado 99397" d="M645.8,147.449a1.572,1.572,0,1,0,1.59-1.483A1.535,1.535,0,0,0,645.8,147.449Z" transform="translate(-518.644 -144.499)" fill="#f2884b"/>
      <path id="Trazado_99398" data-name="Trazado 99398" d="M636.406,147.336a1.571,1.571,0,1,0,1.588-1.483A1.535,1.535,0,0,0,636.406,147.336Z" transform="translate(-523.378 -144.548)" fill="#f2884b"/>
      <path id="Trazado_99399" data-name="Trazado 99399" d="M627.011,147.223a1.572,1.572,0,1,0,1.59-1.484A1.536,1.536,0,0,0,627.011,147.223Z" transform="translate(-528.113 -144.598)" fill="#f2884b"/>
      <path id="Trazado_99400" data-name="Trazado 99400" d="M617.617,147.109a1.572,1.572,0,1,0,1.588-1.483A1.535,1.535,0,0,0,617.617,147.109Z" transform="translate(-532.847 -144.648)" fill="#f2884b"/>
      <path id="Trazado_99401" data-name="Trazado 99401" d="M608.223,147a1.571,1.571,0,1,0,1.588-1.483A1.534,1.534,0,0,0,608.223,147Z" transform="translate(-537.58 -144.697)" fill="#f2884b"/>
      <path id="Trazado_99402" data-name="Trazado 99402" d="M598.828,146.883a1.572,1.572,0,1,0,1.59-1.484A1.535,1.535,0,0,0,598.828,146.883Z" transform="translate(-542.315 -144.747)" fill="#f2884b"/>
      <path id="Trazado_99403" data-name="Trazado 99403" d="M589.434,146.769a1.572,1.572,0,1,0,1.588-1.483A1.535,1.535,0,0,0,589.434,146.769Z" transform="translate(-547.049 -144.797)" fill="#f2884b"/>
      <path id="Trazado_99404" data-name="Trazado 99404" d="M580.039,146.656a1.572,1.572,0,1,0,1.59-1.484A1.536,1.536,0,0,0,580.039,146.656Z" transform="translate(-551.783 -144.847)" fill="#f2884b"/>
      <path id="Trazado_99405" data-name="Trazado 99405" d="M570.645,146.542a1.572,1.572,0,1,0,1.59-1.483A1.535,1.535,0,0,0,570.645,146.542Z" transform="translate(-556.517 -144.896)" fill="#f2884b"/>
      <path id="Trazado_99406" data-name="Trazado 99406" d="M561.251,146.429a1.571,1.571,0,1,0,1.588-1.483A1.534,1.534,0,0,0,561.251,146.429Z" transform="translate(-561.251 -144.946)" fill="#f2884b"/>
    </g>
    <g id="Grupo_53330" data-name="Grupo 53330" transform="translate(0.152 120.1)">
      <path id="Trazado_99407" data-name="Trazado 99407" d="M655.094,155.913a1.571,1.571,0,1,0,1.588-1.483A1.535,1.535,0,0,0,655.094,155.913Z" transform="translate(-513.809 -152.799)" fill="#f2884b"/>
      <path id="Trazado_99408" data-name="Trazado 99408" d="M645.7,155.8a1.572,1.572,0,1,0,1.59-1.483A1.535,1.535,0,0,0,645.7,155.8Z" transform="translate(-518.544 -152.848)" fill="#f2884b"/>
      <path id="Trazado_99409" data-name="Trazado 99409" d="M636.305,155.687a1.572,1.572,0,1,0,1.588-1.484A1.535,1.535,0,0,0,636.305,155.687Z" transform="translate(-523.277 -152.898)" fill="#f2884b"/>
      <path id="Trazado_99410" data-name="Trazado 99410" d="M626.911,155.573a1.571,1.571,0,1,0,1.588-1.483A1.534,1.534,0,0,0,626.911,155.573Z" transform="translate(-528.011 -152.948)" fill="#f2884b"/>
      <path id="Trazado_99411" data-name="Trazado 99411" d="M617.516,155.46a1.572,1.572,0,1,0,1.59-1.483A1.535,1.535,0,0,0,617.516,155.46Z" transform="translate(-532.746 -152.997)" fill="#f2884b"/>
      <path id="Trazado_99412" data-name="Trazado 99412" d="M608.122,155.346a1.572,1.572,0,1,0,1.588-1.483A1.535,1.535,0,0,0,608.122,155.346Z" transform="translate(-537.48 -153.047)" fill="#f2884b"/>
      <path id="Trazado_99413" data-name="Trazado 99413" d="M598.728,155.233a1.571,1.571,0,1,0,1.588-1.483A1.534,1.534,0,0,0,598.728,155.233Z" transform="translate(-542.213 -153.097)" fill="#f2884b"/>
      <path id="Trazado_99414" data-name="Trazado 99414" d="M589.333,155.12a1.572,1.572,0,1,0,1.59-1.484A1.535,1.535,0,0,0,589.333,155.12Z" transform="translate(-546.948 -153.147)" fill="#f2884b"/>
      <path id="Trazado_99415" data-name="Trazado 99415" d="M579.939,155.006a1.571,1.571,0,1,0,1.588-1.483A1.534,1.534,0,0,0,579.939,155.006Z" transform="translate(-551.682 -153.196)" fill="#f2884b"/>
      <path id="Trazado_99416" data-name="Trazado 99416" d="M570.544,154.893a1.572,1.572,0,1,0,1.59-1.483A1.535,1.535,0,0,0,570.544,154.893Z" transform="translate(-556.416 -153.246)" fill="#f2884b"/>
      <path id="Trazado_99417" data-name="Trazado 99417" d="M561.15,154.779a1.572,1.572,0,1,0,1.588-1.483A1.535,1.535,0,0,0,561.15,154.779Z" transform="translate(-561.15 -153.296)" fill="#f2884b"/>
    </g>
    <g id="Grupo_53331" data-name="Grupo 53331" transform="translate(0 132.111)">
      <path id="Trazado_99418" data-name="Trazado 99418" d="M654.993,164.264a1.572,1.572,0,1,0,1.588-1.483A1.535,1.535,0,0,0,654.993,164.264Z" transform="translate(-513.708 -161.15)" fill="#f2884b"/>
      <path id="Trazado_99419" data-name="Trazado 99419" d="M645.6,164.15a1.571,1.571,0,1,0,1.588-1.483A1.534,1.534,0,0,0,645.6,164.15Z" transform="translate(-518.442 -161.2)" fill="#f2884b"/>
      <path id="Trazado_99420" data-name="Trazado 99420" d="M636.2,164.037a1.572,1.572,0,1,0,1.59-1.483A1.535,1.535,0,0,0,636.2,164.037Z" transform="translate(-523.176 -161.249)" fill="#f2884b"/>
      <path id="Trazado_99421" data-name="Trazado 99421" d="M626.81,163.924a1.571,1.571,0,1,0,1.588-1.484A1.535,1.535,0,0,0,626.81,163.924Z" transform="translate(-527.91 -161.299)" fill="#f2884b"/>
      <path id="Trazado_99422" data-name="Trazado 99422" d="M617.415,163.81a1.572,1.572,0,1,0,1.59-1.483A1.537,1.537,0,0,0,617.415,163.81Z" transform="translate(-532.645 -161.349)" fill="#f2884b"/>
      <path id="Trazado_99423" data-name="Trazado 99423" d="M608.021,163.7a1.572,1.572,0,1,0,1.588-1.483A1.535,1.535,0,0,0,608.021,163.7Z" transform="translate(-537.379 -161.398)" fill="#f2884b"/>
      <path id="Trazado_99424" data-name="Trazado 99424" d="M598.627,163.584a1.571,1.571,0,1,0,1.588-1.484A1.535,1.535,0,0,0,598.627,163.584Z" transform="translate(-542.112 -161.448)" fill="#f2884b"/>
      <path id="Trazado_99425" data-name="Trazado 99425" d="M589.232,163.47a1.572,1.572,0,1,0,1.59-1.483A1.536,1.536,0,0,0,589.232,163.47Z" transform="translate(-546.847 -161.498)" fill="#f2884b"/>
      <path id="Trazado_99426" data-name="Trazado 99426" d="M579.838,163.357a1.572,1.572,0,1,0,1.588-1.484A1.535,1.535,0,0,0,579.838,163.357Z" transform="translate(-551.581 -161.548)" fill="#f2884b"/>
      <path id="Trazado_99427" data-name="Trazado 99427" d="M570.444,163.243a1.571,1.571,0,1,0,1.588-1.483A1.534,1.534,0,0,0,570.444,163.243Z" transform="translate(-556.315 -161.597)" fill="#f2884b"/>
      <path id="Trazado_99428" data-name="Trazado 99428" d="M561.049,163.13a1.572,1.572,0,1,0,1.59-1.483A1.534,1.534,0,0,0,561.049,163.13Z" transform="translate(-561.049 -161.647)" fill="#f2884b"/>
    </g>
  </g>
</svg>
