<svg xmlns="http://www.w3.org/2000/svg" xmlns:xlink="http://www.w3.org/1999/xlink" width="996.497" height="208.356" viewBox="0 0 996.497 208.356">
  <defs>
    <linearGradient id="linear-gradient" x1="0.986" y1="0.249" x2="-0.039" y2="0.428" gradientUnits="objectBoundingBox">
      <stop offset="0" stop-color="#035159"/>
      <stop offset="1" stop-color="#043f45"/>
    </linearGradient>
    <linearGradient id="linear-gradient-4" x1="0.5" x2="0.5" y2="1" gradientUnits="objectBoundingBox">
      <stop offset="0" stop-color="#419ca6"/>
      <stop offset="1" stop-color="#035159"/>
    </linearGradient>
  </defs>
  <g id="Grupo_79526" data-name="Grupo 79526" transform="translate(9488.559 2208.427)">
    <path id="Trazado_141160" data-name="Trazado 141160" d="M21.679,0h112.28a21.679,21.679,0,1,1,0,43.358H21.679A21.679,21.679,0,0,1,21.679,0Z" transform="translate(-8867.887 -2129.953)" fill="url(#linear-gradient)"/>
    <path id="Trazado_141161" data-name="Trazado 141161" d="M21.679,0H209.4a21.679,21.679,0,1,1,0,43.358H21.679A21.679,21.679,0,0,1,21.679,0Z" transform="translate(-9454.199 -2129.427)" fill="url(#linear-gradient)"/>
    <path id="Trazado_141162" data-name="Trazado 141162" d="M21.679,0H212.655a21.679,21.679,0,1,1,0,43.358H21.679A21.679,21.679,0,0,1,21.679,0Z" transform="translate(-9155.189 -2130.427)" fill="url(#linear-gradient)"/>
    <path id="Trazado_141163" data-name="Trazado 141163" d="M31.087,0H62.174V31.087A31.087,31.087,0,1,1,31.087,0Z" transform="translate(-8885.884 -2138.952)" fill="#419ca6"/>
    <path id="Trazado_141164" data-name="Trazado 141164" d="M31.087,0H62.174V31.087A31.087,31.087,0,1,1,31.087,0Z" transform="translate(-9488.559 -2138.134)" fill="#419ca6"/>
    <path id="Trazado_141165" data-name="Trazado 141165" d="M31.087,0H62.174V31.087A31.087,31.087,0,1,1,31.087,0Z" transform="translate(-9189.549 -2138.952)" fill="#419ca6"/>
    <path id="A_bank_is_a_financia" data-name="A bank is a financia" d="M11.528,10.547V15h-1.5V3.625h4.2a4.215,4.215,0,0,1,2.926.953A3.231,3.231,0,0,1,18.208,7.1a3.189,3.189,0,0,1-1.035,2.551,4.4,4.4,0,0,1-2.965.895Zm0-1.227h2.7a2.7,2.7,0,0,0,1.844-.567,2.075,2.075,0,0,0,.641-1.64,2.143,2.143,0,0,0-.641-1.628,2.525,2.525,0,0,0-1.758-.634H11.528ZM23.981,7.844a4.331,4.331,0,0,0-.711-.055A1.9,1.9,0,0,0,21.341,9v6H19.9V6.547H21.3l.023.977a2.251,2.251,0,0,1,2.016-1.133,1.477,1.477,0,0,1,.641.109Zm6.547,6.32a3.07,3.07,0,0,1-2.477.992,2.628,2.628,0,0,1-2.059-.785,3.4,3.4,0,0,1-.715-2.324v-5.5h1.445v5.461q0,1.922,1.563,1.922a2.163,2.163,0,0,0,2.2-1.234V6.547h1.445V15H30.56Zm7.109.992a3.693,3.693,0,0,1-2.8-1.129,4.19,4.19,0,0,1-1.078-3.02v-.266a5.073,5.073,0,0,1,.48-2.246,3.748,3.748,0,0,1,1.344-1.547,3.378,3.378,0,0,1,1.871-.559A3.166,3.166,0,0,1,40.02,7.477a4.7,4.7,0,0,1,.914,3.109v.6H35.208a3,3,0,0,0,.73,2.02,2.3,2.3,0,0,0,1.777.77,2.517,2.517,0,0,0,1.3-.312,3.259,3.259,0,0,0,.93-.828l.883.688A3.55,3.55,0,0,1,37.638,15.156Zm-.18-7.578a1.928,1.928,0,0,0-1.469.637A3.1,3.1,0,0,0,35.255,10h4.234V9.891A2.753,2.753,0,0,0,38.9,8.184,1.815,1.815,0,0,0,37.458,7.578Zm12.3,3.289a5.026,5.026,0,0,1-.891,3.113,2.846,2.846,0,0,1-2.391,1.176A2.947,2.947,0,0,1,44,14.023l-.07.977H42.606V3h1.445V7.477a2.93,2.93,0,0,1,2.414-1.086,2.863,2.863,0,0,1,2.418,1.164,5.177,5.177,0,0,1,.879,3.188ZM48.317,10.7a3.906,3.906,0,0,0-.57-2.281,1.888,1.888,0,0,0-1.641-.8,2.122,2.122,0,0,0-2.055,1.328V12.6a2.181,2.181,0,0,0,2.07,1.328,1.878,1.878,0,0,0,1.617-.8A4.153,4.153,0,0,0,48.317,10.7ZM56.8,15a3.036,3.036,0,0,1-.2-.891,3.225,3.225,0,0,1-2.406,1.047,2.984,2.984,0,0,1-2.051-.707,2.287,2.287,0,0,1-.8-1.793,2.39,2.39,0,0,1,1-2.051,4.733,4.733,0,0,1,2.824-.73h1.406V9.211A1.623,1.623,0,0,0,56.122,8a1.821,1.821,0,0,0-1.336-.449,2.107,2.107,0,0,0-1.3.391,1.151,1.151,0,0,0-.523.945H51.513a2,2,0,0,1,.449-1.223,3.066,3.066,0,0,1,1.219-.934,4.1,4.1,0,0,1,1.691-.344,3.342,3.342,0,0,1,2.289.73,2.635,2.635,0,0,1,.859,2.012v3.891a4.757,4.757,0,0,0,.3,1.852V15Zm-2.4-1.1a2.54,2.54,0,0,0,1.289-.352,2.127,2.127,0,0,0,.883-.914V10.9H55.442q-2.656,0-2.656,1.555a1.316,1.316,0,0,0,.453,1.063A1.742,1.742,0,0,0,54.4,13.9Z" transform="translate(-8813.075 -2115.228)" fill="#fff"/>
    <path id="A_bank_is_a_financia-2" data-name="A bank is a financia" d="M1.32,15V3.625H4.531a5.169,5.169,0,0,1,2.625.656A4.438,4.438,0,0,1,8.918,6.148,6.078,6.078,0,0,1,9.547,8.93v.727a6.1,6.1,0,0,1-.621,2.82,4.369,4.369,0,0,1-1.773,1.859A5.5,5.5,0,0,1,4.469,15ZM2.82,4.852v8.922H4.4a3.434,3.434,0,0,0,2.7-1.079,4.458,4.458,0,0,0,.965-3.073V8.957a4.529,4.529,0,0,0-.91-3.014A3.239,3.239,0,0,0,4.57,4.852Zm12.273,10.3a3.693,3.693,0,0,1-2.8-1.129,4.19,4.19,0,0,1-1.078-3.02v-.266A5.073,5.073,0,0,1,11.7,8.5a3.748,3.748,0,0,1,1.344-1.547,3.378,3.378,0,0,1,1.871-.559,3.166,3.166,0,0,1,2.563,1.086,4.7,4.7,0,0,1,.914,3.109v.6H12.664a3,3,0,0,0,.73,2.02,2.3,2.3,0,0,0,1.777.77,2.517,2.517,0,0,0,1.3-.312,3.259,3.259,0,0,0,.93-.828l.883.688A3.55,3.55,0,0,1,15.094,15.156Zm-.18-7.578a1.928,1.928,0,0,0-1.469.637A3.1,3.1,0,0,0,12.711,10h4.234V9.891a2.753,2.753,0,0,0-.594-1.707A1.815,1.815,0,0,0,14.914,7.578ZM20.547,15V7.664H19.211V6.547h1.336V5.828a2.937,2.937,0,0,1,.809-2.2,3.136,3.136,0,0,1,2.285-.789,6.881,6.881,0,0,1,2.211.477l-.242,1.219a5.008,5.008,0,0,0-1.859-.391,1.819,1.819,0,0,0-1.34.418A1.723,1.723,0,0,0,22,5.813v.734h1.727V7.664H22V15Zm6.023,0H25.117V6.547H26.57Zm3.719-8.453.047,1.063a3.08,3.08,0,0,1,2.531-1.219q2.68,0,2.7,3.023V15H34.125V9.406a1.946,1.946,0,0,0-.418-1.352,1.675,1.675,0,0,0-1.277-.437,2.086,2.086,0,0,0-1.234.375,2.546,2.546,0,0,0-.828.984V15H28.922V6.547ZM39.32,15H37.875V6.547H39.32ZM37.758,4.3a.863.863,0,0,1,.215-.594.807.807,0,0,1,.637-.242.819.819,0,0,1,.641.242.854.854,0,0,1,.219.594.826.826,0,0,1-.219.586.834.834,0,0,1-.641.234.821.821,0,0,1-.637-.234A.834.834,0,0,1,37.758,4.3Zm7.266,9.672a2.082,2.082,0,0,0,1.352-.469,1.649,1.649,0,0,0,.641-1.172h1.367a2.621,2.621,0,0,1-.5,1.383,3.293,3.293,0,0,1-1.23,1.047,3.55,3.55,0,0,1-1.629.391A3.482,3.482,0,0,1,42.277,14a4.59,4.59,0,0,1-1.02-3.152v-.242a5.089,5.089,0,0,1,.453-2.2,3.451,3.451,0,0,1,1.3-1.492,3.7,3.7,0,0,1,2-.531,3.39,3.39,0,0,1,2.363.852,3.043,3.043,0,0,1,1,2.211H47.016a1.992,1.992,0,0,0-.621-1.348,1.932,1.932,0,0,0-1.379-.527,2.023,2.023,0,0,0-1.707.793,3.724,3.724,0,0,0-.605,2.293v.273a3.65,3.65,0,0,0,.6,2.25A2.033,2.033,0,0,0,45.023,13.977ZM51.578,15H50.133V6.547h1.445ZM50.016,4.3a.863.863,0,0,1,.215-.594.807.807,0,0,1,.637-.242.819.819,0,0,1,.641.242.854.854,0,0,1,.219.594.826.826,0,0,1-.219.586.834.834,0,0,1-.641.234.821.821,0,0,1-.637-.234A.834.834,0,0,1,50.016,4.3ZM53.508,10.7A4.993,4.993,0,0,1,54,8.461,3.643,3.643,0,0,1,55.355,6.93a3.7,3.7,0,0,1,1.988-.539,3.565,3.565,0,0,1,2.793,1.2,4.6,4.6,0,0,1,1.066,3.18v.1a5.036,5.036,0,0,1-.473,2.215,3.589,3.589,0,0,1-1.352,1.527,3.743,3.743,0,0,1-2.02.547,3.556,3.556,0,0,1-2.785-1.2A4.575,4.575,0,0,1,53.508,10.8Zm1.453.172a3.616,3.616,0,0,0,.652,2.258,2.211,2.211,0,0,0,3.5-.012,3.955,3.955,0,0,0,.648-2.418,3.61,3.61,0,0,0-.66-2.254,2.1,2.1,0,0,0-1.754-.863,2.075,2.075,0,0,0-1.727.852A3.925,3.925,0,0,0,54.961,10.867ZM58,3.016h1.75l-2.094,2.3-1.164,0Zm6.383,3.531.047,1.063a3.08,3.08,0,0,1,2.531-1.219q2.68,0,2.7,3.023V15H68.219V9.406A1.946,1.946,0,0,0,67.8,8.055a1.675,1.675,0,0,0-1.277-.437,2.086,2.086,0,0,0-1.234.375,2.546,2.546,0,0,0-.828.984V15H63.016V6.547ZM75.453,10.7a4.952,4.952,0,0,1,.922-3.129,3.137,3.137,0,0,1,4.766-.168V3h1.445V15H81.258l-.07-.906a2.943,2.943,0,0,1-2.414,1.063,2.887,2.887,0,0,1-2.395-1.2,5.008,5.008,0,0,1-.926-3.141Zm1.445.164a3.749,3.749,0,0,0,.594,2.25,1.92,1.92,0,0,0,1.641.813A2.108,2.108,0,0,0,81.141,12.7V8.813a2.125,2.125,0,0,0-1.992-1.2,1.929,1.929,0,0,0-1.656.82A4.128,4.128,0,0,0,76.9,10.867Zm11.438,4.289a3.693,3.693,0,0,1-2.8-1.129,4.19,4.19,0,0,1-1.078-3.02v-.266a5.073,5.073,0,0,1,.48-2.246,3.748,3.748,0,0,1,1.344-1.547,3.378,3.378,0,0,1,1.871-.559,3.166,3.166,0,0,1,2.563,1.086,4.7,4.7,0,0,1,.914,3.109v.6H85.906a3,3,0,0,0,.73,2.02,2.3,2.3,0,0,0,1.777.77,2.517,2.517,0,0,0,1.3-.312,3.259,3.259,0,0,0,.93-.828l.883.688A3.55,3.55,0,0,1,88.336,15.156Zm-.18-7.578a1.928,1.928,0,0,0-1.469.637A3.1,3.1,0,0,0,85.953,10h4.234V9.891a2.753,2.753,0,0,0-.594-1.707A1.815,1.815,0,0,0,88.156,7.578Zm13.2.266a4.331,4.331,0,0,0-.711-.055A1.9,1.9,0,0,0,98.711,9v6H97.266V6.547h1.406l.023.977a2.251,2.251,0,0,1,2.016-1.133,1.477,1.477,0,0,1,.641.109Zm4.688,7.313a3.693,3.693,0,0,1-2.8-1.129,4.19,4.19,0,0,1-1.078-3.02v-.266a5.073,5.073,0,0,1,.48-2.246,3.748,3.748,0,0,1,1.344-1.547,3.378,3.378,0,0,1,1.871-.559,3.166,3.166,0,0,1,2.563,1.086,4.7,4.7,0,0,1,.914,3.109v.6h-5.727a3,3,0,0,0,.73,2.02,2.3,2.3,0,0,0,1.777.77,2.517,2.517,0,0,0,1.3-.312,3.259,3.259,0,0,0,.93-.828l.883.688A3.55,3.55,0,0,1,106.039,15.156Zm-.18-7.578a1.928,1.928,0,0,0-1.469.637A3.1,3.1,0,0,0,103.656,10h4.234V9.891a2.753,2.753,0,0,0-.594-1.707A1.815,1.815,0,0,0,105.859,7.578Zm4.8,3.125a4.961,4.961,0,0,1,.914-3.152,3.226,3.226,0,0,1,4.82-.152l.063-.852h1.328v11.7h-1.445V14.219a3.033,3.033,0,0,1-2.328.938,2.915,2.915,0,0,1-2.441-1.191,5.072,5.072,0,0,1-.91-3.16Zm1.445.164a3.761,3.761,0,0,0,.613,2.281,1.951,1.951,0,0,0,1.652.828,2.164,2.164,0,0,0,1.969-1.141V8.7a2.171,2.171,0,0,0-1.953-1.117,1.965,1.965,0,0,0-1.664.832A4.094,4.094,0,0,0,112.1,10.867Zm13.219,3.3a3.07,3.07,0,0,1-2.477.992,2.628,2.628,0,0,1-2.059-.785,3.4,3.4,0,0,1-.715-2.324v-5.5h1.445v5.461q0,1.922,1.563,1.922a2.163,2.163,0,0,0,2.2-1.234V6.547h1.445V15h-1.375Zm5.172.836h-1.445V6.547h1.445ZM128.93,4.3a.863.863,0,0,1,.215-.594.807.807,0,0,1,.637-.242.819.819,0,0,1,.641.242.854.854,0,0,1,.219.594.826.826,0,0,1-.219.586.834.834,0,0,1-.641.234.821.821,0,0,1-.637-.234A.834.834,0,0,1,128.93,4.3Zm8.8,8.453a1.064,1.064,0,0,0-.441-.91,4.249,4.249,0,0,0-1.539-.559A7.277,7.277,0,0,1,134,10.727a2.479,2.479,0,0,1-.953-.781,1.869,1.869,0,0,1-.309-1.078,2.193,2.193,0,0,1,.879-1.758,3.432,3.432,0,0,1,2.246-.719,3.532,3.532,0,0,1,2.332.742,2.357,2.357,0,0,1,.895,1.9h-1.453a1.3,1.3,0,0,0-.5-1.023,1.888,1.888,0,0,0-1.27-.43,1.976,1.976,0,0,0-1.234.344,1.082,1.082,0,0,0-.445.9.877.877,0,0,0,.414.789,5.1,5.1,0,0,0,1.5.508,7.8,7.8,0,0,1,1.754.578,2.558,2.558,0,0,1,1,.809,1.988,1.988,0,0,1,.324,1.152,2.163,2.163,0,0,1-.906,1.816,3.8,3.8,0,0,1-2.352.684,4.257,4.257,0,0,1-1.8-.359,2.922,2.922,0,0,1-1.223-1,2.42,2.42,0,0,1-.441-1.395H133.9a1.5,1.5,0,0,0,.582,1.152,2.258,2.258,0,0,0,1.434.426,2.331,2.331,0,0,0,1.316-.332A1.02,1.02,0,0,0,137.727,12.758Zm4.9,2.242H141.18V6.547h1.445ZM141.063,4.3a.863.863,0,0,1,.215-.594.807.807,0,0,1,.637-.242.819.819,0,0,1,.641.242.854.854,0,0,1,.219.594.826.826,0,0,1-.219.586.834.834,0,0,1-.641.234.821.821,0,0,1-.637-.234A.834.834,0,0,1,141.063,4.3Zm5.836.2V6.547h1.578V7.664H146.9v5.249a1.173,1.173,0,0,0,.211.763.888.888,0,0,0,.719.254,3.5,3.5,0,0,0,.688-.094V15a4.215,4.215,0,0,1-1.109.155,1.8,1.8,0,0,1-1.461-.586,2.517,2.517,0,0,1-.492-1.664V7.664h-1.539V6.547h1.539V4.5Zm2.727,6.2a4.993,4.993,0,0,1,.488-2.234,3.642,3.642,0,0,1,1.359-1.531,3.7,3.7,0,0,1,1.988-.539,3.565,3.565,0,0,1,2.793,1.2,4.6,4.6,0,0,1,1.066,3.18v.1a5.036,5.036,0,0,1-.473,2.215,3.589,3.589,0,0,1-1.352,1.527,3.743,3.743,0,0,1-2.02.547,3.556,3.556,0,0,1-2.785-1.2,4.575,4.575,0,0,1-1.066-3.164Zm1.453.172a3.616,3.616,0,0,0,.652,2.258,2.211,2.211,0,0,0,3.5-.012,3.954,3.954,0,0,0,.648-2.418,3.61,3.61,0,0,0-.66-2.254,2.1,2.1,0,0,0-1.754-.863,2.075,2.075,0,0,0-1.727.852A3.925,3.925,0,0,0,151.078,10.867Z" transform="translate(-9410.842 -2117.427)" fill="#fff"/>
    <path id="A_bank_is_a_financia-3" data-name="A bank is a financia" d="M9.688,11.391a4.185,4.185,0,0,1-1.332,2.785,4.365,4.365,0,0,1-2.98.98,4.008,4.008,0,0,1-3.23-1.445A5.815,5.815,0,0,1,.93,9.844V8.75A6.481,6.481,0,0,1,1.5,5.961,4.231,4.231,0,0,1,3.1,4.113a4.47,4.47,0,0,1,2.406-.645A4.11,4.11,0,0,1,8.414,4.48a4.235,4.235,0,0,1,1.273,2.8H8.18a3.268,3.268,0,0,0-.848-1.975A2.565,2.565,0,0,0,5.508,4.7,2.684,2.684,0,0,0,3.254,5.759a4.882,4.882,0,0,0-.816,3.026v1.1a5.018,5.018,0,0,0,.773,2.948A2.5,2.5,0,0,0,5.375,13.93a2.887,2.887,0,0,0,1.918-.566,3.143,3.143,0,0,0,.887-1.973Zm5.906-3.547a4.331,4.331,0,0,0-.711-.055A1.9,1.9,0,0,0,12.953,9v6H11.508V6.547h1.406l.023.977a2.251,2.251,0,0,1,2.016-1.133,1.477,1.477,0,0,1,.641.109Zm4.688,7.313a3.693,3.693,0,0,1-2.8-1.129,4.19,4.19,0,0,1-1.078-3.02v-.266a5.073,5.073,0,0,1,.48-2.246A3.748,3.748,0,0,1,18.23,6.949,3.378,3.378,0,0,1,20.1,6.391a3.166,3.166,0,0,1,2.563,1.086,4.7,4.7,0,0,1,.914,3.109v.6H17.852a3,3,0,0,0,.73,2.02,2.3,2.3,0,0,0,1.777.77,2.517,2.517,0,0,0,1.3-.312,3.259,3.259,0,0,0,.93-.828l.883.688A3.55,3.55,0,0,1,20.281,15.156ZM20.1,7.578a1.928,1.928,0,0,0-1.469.637A3.1,3.1,0,0,0,17.9,10h4.234V9.891a2.753,2.753,0,0,0-.594-1.707A1.815,1.815,0,0,0,20.1,7.578ZM30.469,15a3.036,3.036,0,0,1-.2-.891,3.225,3.225,0,0,1-2.406,1.047,2.984,2.984,0,0,1-2.051-.707,2.287,2.287,0,0,1-.8-1.793,2.39,2.39,0,0,1,1-2.051,4.733,4.733,0,0,1,2.824-.73h1.406V9.211A1.623,1.623,0,0,0,29.789,8a1.821,1.821,0,0,0-1.336-.449,2.108,2.108,0,0,0-1.3.391,1.151,1.151,0,0,0-.523.945H25.18a2,2,0,0,1,.449-1.223,3.066,3.066,0,0,1,1.219-.934,4.1,4.1,0,0,1,1.691-.344,3.342,3.342,0,0,1,2.289.73,2.635,2.635,0,0,1,.859,2.012v3.891a4.757,4.757,0,0,0,.3,1.852V15Zm-2.4-1.1a2.54,2.54,0,0,0,1.289-.352,2.127,2.127,0,0,0,.883-.914V10.9H29.109q-2.656,0-2.656,1.555a1.316,1.316,0,0,0,.453,1.063A1.742,1.742,0,0,0,28.07,13.9Zm9.273.078a2.082,2.082,0,0,0,1.352-.469,1.649,1.649,0,0,0,.641-1.172H40.7a2.621,2.621,0,0,1-.5,1.383,3.293,3.293,0,0,1-1.23,1.047,3.55,3.55,0,0,1-1.629.391A3.482,3.482,0,0,1,34.6,14a4.59,4.59,0,0,1-1.02-3.152v-.242a5.089,5.089,0,0,1,.453-2.2,3.451,3.451,0,0,1,1.3-1.492,3.7,3.7,0,0,1,2-.531,3.39,3.39,0,0,1,2.363.852,3.043,3.043,0,0,1,1,2.211H39.336a1.992,1.992,0,0,0-.621-1.348,1.932,1.932,0,0,0-1.379-.527,2.023,2.023,0,0,0-1.707.793,3.724,3.724,0,0,0-.605,2.293v.273a3.65,3.65,0,0,0,.6,2.25A2.033,2.033,0,0,0,37.344,13.977ZM43.9,15H42.453V6.547H43.9ZM42.336,4.3a.863.863,0,0,1,.215-.594.807.807,0,0,1,.637-.242.819.819,0,0,1,.641.242.854.854,0,0,1,.219.594.826.826,0,0,1-.219.586.834.834,0,0,1-.641.234.821.821,0,0,1-.637-.234A.834.834,0,0,1,42.336,4.3ZM45.828,10.7a4.993,4.993,0,0,1,.488-2.234A3.643,3.643,0,0,1,47.676,6.93a3.7,3.7,0,0,1,1.988-.539,3.565,3.565,0,0,1,2.793,1.2,4.6,4.6,0,0,1,1.066,3.18v.1a5.036,5.036,0,0,1-.473,2.215A3.589,3.589,0,0,1,51.7,14.609a3.743,3.743,0,0,1-2.02.547,3.556,3.556,0,0,1-2.785-1.2A4.575,4.575,0,0,1,45.828,10.8Zm1.453.172a3.616,3.616,0,0,0,.652,2.258,2.211,2.211,0,0,0,3.5-.012,3.955,3.955,0,0,0,.648-2.418,3.61,3.61,0,0,0-.66-2.254,2.1,2.1,0,0,0-1.754-.863,2.075,2.075,0,0,0-1.727.852A3.925,3.925,0,0,0,47.281,10.867ZM50.32,3.016h1.75l-2.094,2.3-1.164,0ZM56.7,6.547l.047,1.063a3.08,3.08,0,0,1,2.531-1.219q2.68,0,2.7,3.023V15H60.539V9.406a1.946,1.946,0,0,0-.418-1.352,1.675,1.675,0,0,0-1.277-.437,2.086,2.086,0,0,0-1.234.375,2.546,2.546,0,0,0-.828.984V15H55.336V6.547ZM67.773,10.7A4.952,4.952,0,0,1,68.7,7.574a3.137,3.137,0,0,1,4.766-.168V3h1.445V15H73.578l-.07-.906a2.943,2.943,0,0,1-2.414,1.063,2.887,2.887,0,0,1-2.395-1.2,5.008,5.008,0,0,1-.926-3.141Zm1.445.164a3.749,3.749,0,0,0,.594,2.25,1.92,1.92,0,0,0,1.641.813A2.108,2.108,0,0,0,73.461,12.7V8.813a2.125,2.125,0,0,0-1.992-1.2,1.929,1.929,0,0,0-1.656.82A4.128,4.128,0,0,0,69.219,10.867Zm11.438,4.289a3.693,3.693,0,0,1-2.8-1.129,4.19,4.19,0,0,1-1.078-3.02v-.266a5.073,5.073,0,0,1,.48-2.246,3.748,3.748,0,0,1,1.344-1.547,3.378,3.378,0,0,1,1.871-.559,3.166,3.166,0,0,1,2.563,1.086,4.7,4.7,0,0,1,.914,3.109v.6H78.227a3,3,0,0,0,.73,2.02,2.3,2.3,0,0,0,1.777.77,2.517,2.517,0,0,0,1.3-.312,3.259,3.259,0,0,0,.93-.828l.883.688A3.55,3.55,0,0,1,80.656,15.156Zm-.18-7.578a1.928,1.928,0,0,0-1.469.637A3.1,3.1,0,0,0,78.273,10h4.234V9.891a2.753,2.753,0,0,0-.594-1.707A1.815,1.815,0,0,0,80.477,7.578ZM87.2,15H85.75V3H87.2Zm13.414-4.133a5.062,5.062,0,0,1-.883,3.109,2.829,2.829,0,0,1-2.391,1.18,3.1,3.1,0,0,1-2.422-.977v4.07H93.469V6.547h1.32l.07.938a2.977,2.977,0,0,1,2.453-1.094,2.882,2.882,0,0,1,2.41,1.148,5.117,5.117,0,0,1,.887,3.2ZM99.164,10.7a3.735,3.735,0,0,0-.609-2.258,1.963,1.963,0,0,0-1.672-.828,2.125,2.125,0,0,0-1.969,1.164V12.82A2.129,2.129,0,0,0,96.9,13.977a1.954,1.954,0,0,0,1.652-.824A4.077,4.077,0,0,0,99.164,10.7Zm7.367-2.859a4.331,4.331,0,0,0-.711-.055A1.9,1.9,0,0,0,103.891,9v6h-1.445V6.547h1.406l.023.977a2.251,2.251,0,0,1,2.016-1.133,1.477,1.477,0,0,1,.641.109Zm.789,2.852a4.993,4.993,0,0,1,.488-2.234,3.643,3.643,0,0,1,1.359-1.531,3.7,3.7,0,0,1,1.988-.539,3.565,3.565,0,0,1,2.793,1.2,4.6,4.6,0,0,1,1.066,3.18v.1a5.036,5.036,0,0,1-.473,2.215,3.589,3.589,0,0,1-1.352,1.527,3.743,3.743,0,0,1-2.02.547,3.556,3.556,0,0,1-2.785-1.2A4.575,4.575,0,0,1,107.32,10.8Zm1.453.172a3.616,3.616,0,0,0,.652,2.258,2.211,2.211,0,0,0,3.5-.012,3.955,3.955,0,0,0,.648-2.418,3.61,3.61,0,0,0-.66-2.254,2.1,2.1,0,0,0-1.754-.863,2.075,2.075,0,0,0-1.727.852A3.925,3.925,0,0,0,108.773,10.867ZM118.789,4.5V6.547h1.578V7.664h-1.578v5.249a1.173,1.173,0,0,0,.211.763.888.888,0,0,0,.719.254,3.5,3.5,0,0,0,.688-.094V15a4.215,4.215,0,0,1-1.109.155,1.8,1.8,0,0,1-1.461-.586,2.517,2.517,0,0,1-.492-1.664V7.664H115.8V6.547h1.539V4.5Zm2.727,6.2A4.993,4.993,0,0,1,122,8.461a3.643,3.643,0,0,1,1.359-1.531,3.7,3.7,0,0,1,1.988-.539,3.565,3.565,0,0,1,2.793,1.2,4.6,4.6,0,0,1,1.066,3.18v.1a5.036,5.036,0,0,1-.473,2.215,3.589,3.589,0,0,1-1.352,1.527,3.743,3.743,0,0,1-2.02.547,3.556,3.556,0,0,1-2.785-1.2,4.575,4.575,0,0,1-1.066-3.164Zm1.453.172a3.616,3.616,0,0,0,.652,2.258,2.211,2.211,0,0,0,3.5-.012,3.955,3.955,0,0,0,.648-2.418,3.61,3.61,0,0,0-.66-2.254,2.1,2.1,0,0,0-1.754-.863,2.075,2.075,0,0,0-1.727.852A3.925,3.925,0,0,0,122.969,10.867ZM132.984,4.5V6.547h1.578V7.664h-1.578v5.249a1.173,1.173,0,0,0,.211.763.888.888,0,0,0,.719.254,3.5,3.5,0,0,0,.688-.094V15a4.215,4.215,0,0,1-1.109.155,1.8,1.8,0,0,1-1.461-.586,2.517,2.517,0,0,1-.492-1.664V7.664H130V6.547h1.539V4.5ZM137.82,15h-1.445V6.547h1.445ZM136.258,4.3a.863.863,0,0,1,.215-.594.807.807,0,0,1,.637-.242.819.819,0,0,1,.641.242.854.854,0,0,1,.219.594.826.826,0,0,1-.219.586.834.834,0,0,1-.641.234.821.821,0,0,1-.637-.234A.834.834,0,0,1,136.258,4.3Zm11.016,6.563a5.062,5.062,0,0,1-.883,3.109A2.829,2.829,0,0,1,144,15.156a3.1,3.1,0,0,1-2.422-.977v4.07h-1.445V6.547h1.32l.07.938a2.977,2.977,0,0,1,2.453-1.094,2.882,2.882,0,0,1,2.41,1.148,5.117,5.117,0,0,1,.887,3.2Zm-1.445-.164a3.735,3.735,0,0,0-.609-2.258,1.963,1.963,0,0,0-1.672-.828,2.125,2.125,0,0,0-1.969,1.164V12.82a2.129,2.129,0,0,0,1.984,1.156,1.954,1.954,0,0,0,1.652-.824A4.077,4.077,0,0,0,145.828,10.7Zm2.9-.008a4.993,4.993,0,0,1,.488-2.234,3.642,3.642,0,0,1,1.359-1.531,3.7,3.7,0,0,1,1.988-.539,3.565,3.565,0,0,1,2.793,1.2,4.6,4.6,0,0,1,1.066,3.18v.1a5.036,5.036,0,0,1-.473,2.215,3.589,3.589,0,0,1-1.352,1.527,3.743,3.743,0,0,1-2.02.547,3.556,3.556,0,0,1-2.785-1.2,4.575,4.575,0,0,1-1.066-3.164Zm1.453.172a3.616,3.616,0,0,0,.652,2.258,2.211,2.211,0,0,0,3.5-.012,3.954,3.954,0,0,0,.648-2.418,3.61,3.61,0,0,0-.66-2.254,2.1,2.1,0,0,0-1.754-.863,2.075,2.075,0,0,0-1.727.852A3.925,3.925,0,0,0,150.18,10.867Z" transform="translate(-9111.832 -2117.427)" fill="#fff"/>
    <g id="Grupo_77004" data-name="Grupo 77004" transform="translate(-8867.887 -2125.779)">
      <path id="Trazado_101230" data-name="Trazado 101230" d="M847.031,1000.732a.5.5,0,0,0,.992.075,1.456,1.456,0,0,0,.026-.373c0-2.563,0-5.126-.005-7.689,0-.251.052-.318.313-.318q8.629.013,17.258,0c.246,0,.324.045.321.31-.016,1.367-.01,2.734-.006,4.1a1.079,1.079,0,0,0,1.205,1.2c1.378,0,2.757.008,4.135-.007.263,0,.319.071.313.321-.018.717,0,1.435-.008,2.153a.53.53,0,0,0,.286.537c.369.183.734-.084.738-.551.007-.832-.014-1.664.009-2.495a1.46,1.46,0,0,0-.481-1.148q-2.5-2.475-4.98-4.976a1.68,1.68,0,0,0-.691-.464H847.718a1.139,1.139,0,0,0-.7,1.191c.02,2.608.009,5.217.009,7.826A2.739,2.739,0,0,0,847.031,1000.732Zm19.919-7.481,3.764,3.764h-2.64c-.308,0-.615,0-.923,0-.139,0-.2-.03-.2-.187C866.953,995.628,866.951,994.425,866.951,993.251Z" transform="translate(-847.017 -991.408)" fill="#fff"/>
      <path id="Trazado_101231" data-name="Trazado 101231" d="M919.253,1020.621q-.273-.14-.55-.271a1.37,1.37,0,0,0-1.971.67q-5.024,10.194-10.043,20.39a1.114,1.114,0,0,0-.117.593c.024.307.03.615.043.922h-.008c.019.33.048.66.054.99a.736.736,0,0,0,.4.733.765.765,0,0,0,.83-.112q.764-.545,1.539-1.075a1.389,1.389,0,0,0,.475-.565c.6-1.246,1.222-2.488,1.835-3.731.286-.581.578-1.159.857-1.743a.523.523,0,0,0-.255-.765c-.273-.1-.513.019-.68.355-.484.977-.968,1.954-1.443,2.936-.087.179-.158.235-.35.12a5.5,5.5,0,0,0-.824-.406c-.237-.092-.268-.181-.15-.417.979-1.961,1.942-3.931,2.91-5.9q1.888-3.837,3.771-7.677c.108-.221.195-.28.42-.14a5.61,5.61,0,0,0,.8.389c.21.088.254.177.142.4-.525,1.032-1.03,2.075-1.542,3.114q-1.332,2.706-2.663,5.412c-.179.365-.11.642.183.789s.551.022.737-.34c.021-.04.041-.081.061-.122l3.131-6.359q1.536-3.118,3.069-6.237A1.371,1.371,0,0,0,919.253,1020.621Zm-11.6,22.824v-1.277l1.075.528Zm1.832-2.429a1.084,1.084,0,0,1,.149.113c-.122.235-.223.449-.346.649-.043.069-.124-.009-.178-.036-.326-.156-.643-.33-.974-.472-.182-.078-.161-.16-.091-.306.255-.534.25-.537.773-.278C909.043,1040.795,909.267,1040.9,909.487,1041.016Zm8.038-15.937c-.036.066-.106.017-.152,0-.357-.174-.71-.357-1.069-.525-.112-.053-.11-.1-.07-.205.233-.621.238-.627.836-.332.2.1.4.206.609.3.071.034.139.063.163.137C917.732,1024.674,917.635,1024.88,917.526,1025.078Zm1.526-3.131a1.68,1.68,0,0,1-.074.2c-.182.377-.375.748-.549,1.129-.08.176-.159.2-.331.106-.3-.165-.6-.31-.913-.448-.155-.069-.205-.129-.114-.3.209-.388.4-.786.591-1.184a.377.377,0,0,1,.584-.192c.191.1.385.19.577.288A.369.369,0,0,1,919.051,1021.948Z" transform="translate(-889.834 -1012.086)" fill="#fff"/>
      <path id="Trazado_101232" data-name="Trazado 101232" d="M872.586,1043.434a.467.467,0,0,0-.479-.364.46.46,0,0,0-.475.322,1.315,1.315,0,0,0-.035.4c0,3.077-.007,6.153.007,9.23,0,.325-.068.407-.4.407q-11.367-.016-22.733,0c-.319,0-.409-.057-.409-.4q.018-10.922.008-21.844a1.686,1.686,0,0,0-.027-.406.5.5,0,0,0-.991.076c-.008.09,0,.182,0,.273q0,11.076,0,22.152c0,.844.327,1.164,1.183,1.164h23.211c.842,0,1.179-.336,1.179-1.177q0-4.735,0-9.469A1.418,1.418,0,0,0,872.586,1043.434Z" transform="translate(-847.038 -1019.441)" fill="#fff"/>
      <path id="Trazado_101233" data-name="Trazado 101233" d="M855.779,1057.518a.98.98,0,0,0,1.008,1.021q1.349.023,2.7,0a1,1,0,0,0,1.02-1.052q.01-1.315,0-2.63a.961.961,0,0,0-.948-1.04q-1.416-.045-2.834,0a.942.942,0,0,0-.944,1c-.011.444,0,.888,0,1.332S855.768,1057.063,855.779,1057.518Zm1.017-2.481c0-.162.05-.217.214-.215q1.142.01,2.285,0c.152,0,.191.056.19.2-.005.762-.009,1.523,0,2.285,0,.2-.087.217-.245.214-.375-.008-.75,0-1.125,0s-.728-.009-1.091,0c-.183.007-.232-.059-.23-.233Q856.807,1056.163,856.8,1055.037Z" transform="translate(-853.313 -1036.265)" fill="#fff"/>
      <path id="Trazado_101234" data-name="Trazado 101234" d="M855.778,1035.54a.958.958,0,0,0,.969,1.019c.933.025,1.867.025,2.8,0a.968.968,0,0,0,.958-1.033q.011-1.315,0-2.631a.994.994,0,0,0-1.01-1.059c-.91-.017-1.822-.018-2.733,0a.967.967,0,0,0-.984,1.007c-.012.455,0,.911,0,1.366S855.768,1035.1,855.778,1035.54Zm1.018-2.482c0-.165.051-.214.215-.212.751.008,1.5.01,2.253,0,.189,0,.224.067.223.236q-.011,1.126,0,2.253c0,.162-.044.22-.211.215-.375-.01-.751,0-1.126,0s-.728-.007-1.092,0c-.178,0-.266-.026-.262-.238C856.807,1034.56,856.8,1033.809,856.8,1033.058Z" transform="translate(-853.313 -1020.464)" fill="#fff"/>
      <path id="Trazado_101235" data-name="Trazado 101235" d="M855.781,1079.535a.972.972,0,0,0,1,.984q1.349.012,2.7,0a.989.989,0,0,0,1.02-1.012q.016-1.349,0-2.7a.976.976,0,0,0-1.013-1.012q-1.349-.014-2.7,0a.963.963,0,0,0-1.014,1.006c-.011.444,0,.888,0,1.332h0C855.778,1078.6,855.766,1079.068,855.781,1079.535Zm1.014-2.492c0-.175.04-.24.225-.232.375.014.751,0,1.127,0s.751.007,1.126,0c.161,0,.215.041.213.208-.009.762-.007,1.525,0,2.287,0,.146-.036.2-.189.195q-1.143-.011-2.287,0c-.158,0-.216-.035-.214-.205Q856.808,1078.169,856.795,1077.043Z" transform="translate(-853.312 -1052.078)" fill="#fff"/>
      <path id="Trazado_101236" data-name="Trazado 101236" d="M860.5,1010.876a.971.971,0,0,0-.978-.981q-1.383-.023-2.767,0a.955.955,0,0,0-.975.976q-.022,1.383,0,2.767a.96.96,0,0,0,1,.98c.444.008.888,0,1.333,0h1.4a.98.98,0,0,0,.982-.975Q860.52,1012.26,860.5,1010.876Zm-1.226,2.721c-.375-.011-.751,0-1.126,0s-.774-.006-1.16,0c-.146,0-.2-.039-.2-.191q.011-1.143,0-2.286c0-.165.048-.21.21-.209.762.008,1.524.007,2.286,0,.145,0,.2.035.195.189q-.011,1.143,0,2.286C859.483,1013.549,859.438,1013.6,859.272,1013.6Z" transform="translate(-853.308 -1004.692)" fill="#fff"/>
      <path id="Trazado_101237" data-name="Trazado 101237" d="M887.281,1043.1a.461.461,0,0,0-.34-.524,1.23,1.23,0,0,0-.369-.038q-5.275,0-10.551,0a1.428,1.428,0,0,0-.305.016.5.5,0,0,0-.393.618.542.542,0,0,0,.6.391c1.8-.006,3.6,0,5.395,0h5.224a1.9,1.9,0,0,0,.307-.007A.47.47,0,0,0,887.281,1043.1Z" transform="translate(-867.355 -1028.172)" fill="#fff"/>
      <path id="Trazado_101238" data-name="Trazado 101238" d="M876.112,1034.4a2.561,2.561,0,0,0-.341.011.467.467,0,0,0-.439.482.46.46,0,0,0,.379.5,1.584,1.584,0,0,0,.372.033q5.231,0,10.461,0a1.459,1.459,0,0,0,.438-.049.5.5,0,0,0-.069-.956,1.932,1.932,0,0,0-.375-.019H876.112Z" transform="translate(-867.375 -1022.318)" fill="#fff"/>
      <path id="Trazado_101239" data-name="Trazado 101239" d="M886.28,1065.513a.49.49,0,0,0,.536-.559c-.029-.319-.245-.462-.712-.462q-5.025,0-10.049,0a1.267,1.267,0,0,0-.4.047.459.459,0,0,0-.325.5.466.466,0,0,0,.394.452,1.919,1.919,0,0,0,.374.02h8.443C885.118,1065.517,885.7,1065.525,886.28,1065.513Z" transform="translate(-867.37 -1043.955)" fill="#fff"/>
      <path id="Trazado_101240" data-name="Trazado 101240" d="M875.894,1057.37c.057,0,.114,0,.171,0h9.3a1.1,1.1,0,0,0,.406-.036.5.5,0,0,0,.3-.691.569.569,0,0,0-.6-.3c-1.584,0-3.168,0-4.752,0h-2.051c-.923,0-1.846,0-2.769,0a.518.518,0,0,0-.583.488C875.3,1057.145,875.53,1057.354,875.894,1057.37Z" transform="translate(-867.364 -1038.096)" fill="#fff"/>
      <path id="Trazado_101241" data-name="Trazado 101241" d="M884.474,1079.305a.5.5,0,0,0,.478-.489.5.5,0,0,0-.475-.527,2.738,2.738,0,0,0-.307,0h-8.03a3.214,3.214,0,0,0-.341,0,.5.5,0,0,0-.477.524.493.493,0,0,0,.474.492,2.121,2.121,0,0,0,.273.005H884.2A2.262,2.262,0,0,0,884.474,1079.305Z" transform="translate(-867.367 -1053.871)" fill="#fff"/>
      <path id="Trazado_101242" data-name="Trazado 101242" d="M875.964,1021.625q3.947,0,7.895,0c.422,0,.67-.194.67-.516s-.244-.509-.67-.509q-1.965,0-3.93,0-1.982,0-3.965,0c-.406,0-.638.18-.648.493S875.548,1021.624,875.964,1021.625Z" transform="translate(-867.363 -1012.396)" fill="#fff"/>
      <path id="Trazado_101243" data-name="Trazado 101243" d="M875.731,1013.422a1.939,1.939,0,0,0,.341.014h5.842c.695,0,1.39.005,2.084,0a.506.506,0,0,0,.535-.5.529.529,0,0,0-.5-.512,1.155,1.155,0,0,0-.136,0q-3.98,0-7.96,0a.818.818,0,0,0-.3.048.5.5,0,0,0,.094.956Z" transform="translate(-867.368 -1006.512)" fill="#fff"/>
      <path id="Trazado_101244" data-name="Trazado 101244" d="M882.987,1086.493a1.989,1.989,0,0,0-.374-.019q-1.622,0-3.245,0-1.366,0-2.732,0c-.285,0-.57-.007-.853.013a.458.458,0,0,0-.45.469.468.468,0,0,0,.4.517,1.378,1.378,0,0,0,.3.025q3.33,0,6.66,0a1.1,1.1,0,0,0,.369-.048.5.5,0,0,0-.076-.956Z" transform="translate(-867.375 -1059.759)" fill="#fff"/>
    </g>
    <path id="Trazado_101245" data-name="Trazado 101245" d="M-9644.469-1781.694s49.26,86.917,330.707,84.138,339.5-87.257,339.5-87.257" transform="translate(372.887 -304.083)" fill="none" stroke="#f26d3d" stroke-width="3"/>
    <path id="Trazado_101246" data-name="Trazado 101246" d="M-9316-1782s48.355,55.463,178.788,56.89,221.1-56.89,221.1-56.89" transform="translate(313.131 -304.595)" fill="none" stroke="#f26d3d" stroke-width="3"/>
    <path id="Trazado_101247" data-name="Trazado 101247" d="M-9328.652-1849.569s26.949-66.833,111.646-70c1.187-.044-1.359.017,0,0,92.206,3.6,102.309,70,102.309,70" transform="translate(317.951 -279.565)" fill="none" stroke="#f26d3d" stroke-width="3"/>
    <path id="Trazado_101248" data-name="Trazado 101248" d="M-9328.652-1849.569s25.627-66.833,106.169-70c1.129-.044-1.292.017,0,0,87.684,3.6,97.291,70,97.291,70" transform="translate(531.905 -279.565)" fill="none" stroke="#f26d3d" stroke-width="3"/>
    <path id="Trazado_141166" data-name="Trazado 141166" d="M9,0l9,16.362H0Z" transform="matrix(-0.035, 0.999, -0.999, -0.035, -8885.884, -2207.856)" fill="#f26d3d"/>
    <path id="Trazado_141167" data-name="Trazado 141167" d="M9,0l9,16.362H0Z" transform="matrix(-0.035, 0.999, -0.999, -0.035, -8677.783, -2207.856)" fill="#f26d3d"/>
    <path id="Trazado_141168" data-name="Trazado 141168" d="M10.226,0,20.452,18.816H0Z" transform="translate(-9183.664 -2020.466) rotate(-72)" fill="#f26d3d"/>
    <path id="Trazado_141169" data-name="Trazado 141169" d="M31.848,2.215a3,3,0,0,1,4.3,0l26.9,27.695A3,3,0,0,1,60.9,35H7.1a3,3,0,0,1-2.152-5.09Z" transform="translate(-9208.664 -2141.047) rotate(90)" fill="url(#linear-gradient-4)"/>
    <path id="Trazado_141170" data-name="Trazado 141170" d="M31.848,2.215a3,3,0,0,1,4.3,0l26.9,27.695A3,3,0,0,1,60.9,35H7.1a3,3,0,0,1-2.152-5.09Z" transform="translate(-8906.441 -2144.779) rotate(90)" fill="url(#linear-gradient-4)"/>
    <path id="Trazado_141171" data-name="Trazado 141171" d="M31.848,2.215a3,3,0,0,1,4.3,0l26.9,27.695A3,3,0,0,1,60.9,35H7.1a3,3,0,0,1-2.152-5.09Z" transform="translate(-8701.749 -2141.747) rotate(90)" fill="url(#linear-gradient-4)"/>
    <path id="Trazado_141172" data-name="Trazado 141172" d="M21.679,0H133.258a21.679,21.679,0,1,1,0,43.358H21.679A21.679,21.679,0,0,1,21.679,0Z" transform="translate(-8663.193 -2129.953)" fill="url(#linear-gradient)"/>
    <path id="Trazado_141173" data-name="Trazado 141173" d="M31.087,0H62.174V31.087A31.087,31.087,0,1,1,31.087,0Z" transform="translate(-8681.191 -2138.952)" fill="#419ca6"/>
    <path id="A_bank_is_a_financia-4" data-name="A bank is a financia" d="M16.219,9.742h-4.93v4.031h5.727V15H9.789V3.625h7.148V4.852H11.289V8.516h4.93Zm5.023,3.3,2.094-6.492h1.477L21.781,15h-1.1L17.617,6.547h1.477ZM25.7,10.7a4.993,4.993,0,0,1,.488-2.234A3.643,3.643,0,0,1,27.551,6.93a3.7,3.7,0,0,1,1.988-.539,3.565,3.565,0,0,1,2.793,1.2,4.6,4.6,0,0,1,1.066,3.18v.1a5.036,5.036,0,0,1-.473,2.215,3.589,3.589,0,0,1-1.352,1.527,3.743,3.743,0,0,1-2.02.547,3.556,3.556,0,0,1-2.785-1.2A4.575,4.575,0,0,1,25.7,10.8Zm1.453.172a3.616,3.616,0,0,0,.652,2.258,2.211,2.211,0,0,0,3.5-.012,3.955,3.955,0,0,0,.648-2.418,3.61,3.61,0,0,0-.66-2.254,2.1,2.1,0,0,0-1.754-.863,2.075,2.075,0,0,0-1.727.852A3.925,3.925,0,0,0,27.156,10.867ZM36.781,15H35.336V3h1.445Zm7.531-.836a3.07,3.07,0,0,1-2.477.992,2.628,2.628,0,0,1-2.059-.785,3.4,3.4,0,0,1-.715-2.324v-5.5h1.445v5.461q0,1.922,1.563,1.922a2.163,2.163,0,0,0,2.2-1.234V6.547h1.445V15H44.344Zm6.992-.187a2.082,2.082,0,0,0,1.352-.469,1.649,1.649,0,0,0,.641-1.172h1.367a2.621,2.621,0,0,1-.5,1.383,3.293,3.293,0,0,1-1.23,1.047,3.55,3.55,0,0,1-1.629.391A3.482,3.482,0,0,1,48.559,14a4.59,4.59,0,0,1-1.02-3.152v-.242a5.089,5.089,0,0,1,.453-2.2,3.451,3.451,0,0,1,1.3-1.492,3.7,3.7,0,0,1,2-.531,3.39,3.39,0,0,1,2.363.852,3.043,3.043,0,0,1,1,2.211H53.3a1.992,1.992,0,0,0-.621-1.348A1.932,1.932,0,0,0,51.3,7.578a2.023,2.023,0,0,0-1.707.793,3.724,3.724,0,0,0-.605,2.293v.273a3.65,3.65,0,0,0,.6,2.25A2.033,2.033,0,0,0,51.3,13.977ZM57.859,15H56.414V6.547h1.445ZM56.3,4.3a.863.863,0,0,1,.215-.594.807.807,0,0,1,.637-.242.819.819,0,0,1,.641.242.854.854,0,0,1,.219.594.826.826,0,0,1-.219.586.834.834,0,0,1-.641.234.821.821,0,0,1-.637-.234A.834.834,0,0,1,56.3,4.3ZM59.789,10.7a4.993,4.993,0,0,1,.488-2.234A3.643,3.643,0,0,1,61.637,6.93a3.7,3.7,0,0,1,1.988-.539,3.565,3.565,0,0,1,2.793,1.2,4.6,4.6,0,0,1,1.066,3.18v.1a5.036,5.036,0,0,1-.473,2.215,3.589,3.589,0,0,1-1.352,1.527,3.743,3.743,0,0,1-2.02.547,3.556,3.556,0,0,1-2.785-1.2A4.575,4.575,0,0,1,59.789,10.8Zm1.453.172a3.616,3.616,0,0,0,.652,2.258,2.211,2.211,0,0,0,3.5-.012,3.955,3.955,0,0,0,.648-2.418,3.61,3.61,0,0,0-.66-2.254,2.1,2.1,0,0,0-1.754-.863A2.075,2.075,0,0,0,61.9,8.43,3.925,3.925,0,0,0,61.242,10.867Zm3.039-7.852h1.75l-2.094,2.3-1.164,0Zm6.383,3.531.047,1.063a3.08,3.08,0,0,1,2.531-1.219q2.68,0,2.7,3.023V15H74.5V9.406a1.946,1.946,0,0,0-.418-1.352A1.675,1.675,0,0,0,72.8,7.617a2.086,2.086,0,0,0-1.234.375,2.546,2.546,0,0,0-.828.984V15H69.3V6.547Z" transform="translate(-8608.383 -2115.228)" fill="#fff"/>
    <path id="Trazado_141174" data-name="Trazado 141174" d="M31.848,2.215a3,3,0,0,1,4.3,0l26.9,27.695A3,3,0,0,1,60.9,35H7.1a3,3,0,0,1-2.152-5.09Z" transform="translate(-8490.756 -2141.747) rotate(90)" fill="url(#linear-gradient-4)"/>
    <g id="Sh4WNf" transform="translate(-10117 -3889.227)">
      <g id="Grupo_78892" data-name="Grupo 78892" transform="translate(940 1759.037)">
        <path id="Trazado_140786" data-name="Trazado 140786" d="M940,1792.814v-29.206a2.425,2.425,0,0,0,.079-.24,3.842,3.842,0,0,1,7.6.837c.009.4,0,.794,0,1.2h15.33a.336.336,0,0,0,.035-.09c0-.95,0-1.9.009-2.851a3.679,3.679,0,0,1,.483-1.9,3.238,3.238,0,0,1,3.429-1.455,3.148,3.148,0,0,1,2.455,2.784c.052,1.023.034,2.05.047,3.075,0,.144,0,.288,0,.46h.469c1.513,0,3.027-.007,4.54,0a3.875,3.875,0,0,1,3.157,1.522,5.029,5.029,0,0,1,.8,1.835v24.026a9.685,9.685,0,0,1-.76,1.766,3.735,3.735,0,0,1-3.286,1.613q-15.172-.008-30.344,0c-.125,0-.25,0-.375-.007a3.843,3.843,0,0,1-2.742-1.356A4.4,4.4,0,0,1,940,1792.814Zm16.661-12.309v-.453c0-1.364.013-2.728-.008-4.092a1.054,1.054,0,0,1,.5-.968c1.89-1.333,3.766-2.687,5.654-4.025a.526.526,0,0,0,.253-.491c-.011-1.139,0-2.277-.006-3.416,0-.107-.017-.214-.029-.348H948.177c-.494,0-.494,0-.494.515q0,11.073,0,22.147a3.815,3.815,0,0,1-.019.487.621.621,0,0,1-1.215.088c-.037-.131-.025-.278-.071-.4a5.459,5.459,0,0,0-.518-1.3,2.461,2.461,0,0,0-2.8-.894,2.56,2.56,0,0,0-1.775,2.44c-.02.763-.005,1.526,0,2.29a2.607,2.607,0,0,0,2.826,2.83h30.214a2.61,2.61,0,0,0,2.839-2.854q0-11.242,0-22.484a2.609,2.609,0,0,0-2.834-2.858q-2.214-.005-4.429,0c-.131,0-.263.013-.425.022v.412c0,1.088.008,2.177-.006,3.266a.623.623,0,0,0,.3.585c1.889,1.335,3.767,2.686,5.655,4.024a.954.954,0,0,1,.466.837q-.011,4.936,0,9.872a.963.963,0,0,1-.443.851q-4.325,3.079-8.642,6.168a.741.741,0,0,1-1.056.006q-4.321-3.084-8.641-6.168a.978.978,0,0,1-.445-.887c.016-1.051-.005-2.1.012-3.153a.736.736,0,0,0-.316-.658c-2.3-1.828-4.591-3.672-6.9-5.5a1.184,1.184,0,0,1-.5-1.022c.015-1.714.005-3.428.008-5.143a1.946,1.946,0,0,1,.043-.484.622.622,0,0,1,1.193-.007,2,2,0,0,1,.046.521c0,1.589.006,3.178,0,4.767a.628.628,0,0,0,.265.571c.519.391,1.019.808,1.527,1.214Zm-10.26,6.377v-.43q0-11.013,0-22.026c0-.2-.006-.4-.025-.6a2.561,2.561,0,0,0-5.094.5q0,11.125,0,22.251c0,.092.014.185.023.3A3.976,3.976,0,0,1,946.4,1786.882Zm11.6-9.9c-.027.041-.049.06-.049.079,0,1.426-.01,2.853,0,4.278a.566.566,0,0,0,.21.355c.449.379.919.734,1.371,1.109a.669.669,0,0,1,.188.954c-.239.312-.612.329-.994.038-.244-.186-.483-.38-.784-.618,0,.746.013,1.417-.007,2.086a.582.582,0,0,0,.29.549q3.883,2.76,7.753,5.539a.413.413,0,0,0,.578,0q3.882-2.794,7.783-5.562a.56.56,0,0,0,.268-.522c-.009-2.653-.005-5.3-.006-7.957,0-.105-.014-.21-.023-.343a1.573,1.573,0,0,0-.163.086c-1.578,1.125-3.159,2.247-4.728,3.385a.667.667,0,0,0-.206.431,9.727,9.727,0,0,1-.155,1.7c-.557,1.853-1.19,3.684-1.795,5.522a1.29,1.29,0,0,1-2.529-.009c-.506-1.543-.991-3.092-1.525-4.625a5.852,5.852,0,0,1-.416-2.562.514.514,0,0,0-.271-.519c-1.512-1.068-3.015-2.147-4.522-3.222C958.178,1777.1,958.086,1777.046,958,1776.986Zm7.623,4.447v-.478q0-3.753,0-7.506c0-.64.214-.96.641-.963s.641.311.641.955q0,3.772,0,7.543v.45h1.257v-13.4H966.9c0,.272,0,.51,0,.746,0,.613.006,1.226-.019,1.838a.575.575,0,0,1-.585.571.6.6,0,0,1-.64-.508,2.739,2.739,0,0,1-.037-.521c0-.708,0-1.417,0-2.129h-1.262v13.4Zm-7.219-5.747,4.631,3.309v-6.618ZM969.49,1779l4.641-3.316-4.641-3.314Zm-1.33-14.877c0-.715.034-1.413-.008-2.107a1.869,1.869,0,0,0-1.79-1.7,1.847,1.847,0,0,0-1.95,1.515,19.781,19.781,0,0,0-.018,2.3Zm-.227,18.639H964.6l1.627,4.951.076.006Zm-3.576-16.087h3.827c0-.333-.012-.633,0-.931.013-.243-.072-.324-.32-.322-1.1.011-2.2,0-3.292.007a1.355,1.355,0,0,0-.218.037Z" transform="translate(-940 -1759.037)" fill="#fff"/>
        <path id="Trazado_140787" data-name="Trazado 140787" d="M978.876,1800.647c-.612,0-1.224.014-1.835,0-.536-.015-.853-.43-.68-.868a.638.638,0,0,1,.653-.409c1.236,0,2.473-.005,3.709,0a.639.639,0,0,1,.706.618.653.653,0,0,1-.68.653c-.624.02-1.249.005-1.873.005Z" transform="translate(-964.778 -1786.553)" fill="#fff"/>
        <path id="Trazado_140788" data-name="Trazado 140788" d="M990.995,1791.295c.649,0,1.3-.016,1.947.006a.6.6,0,0,1,.6.6.633.633,0,0,1-.557.643.989.989,0,0,1-.185.023c-1.211,0-2.422.009-3.633,0-.459,0-.726-.259-.729-.635s.27-.633.757-.641c.6-.01,1.2,0,1.8,0Z" transform="translate(-973.053 -1781.038)" fill="#fff"/>
        <path id="Trazado_140789" data-name="Trazado 140789" d="M977.622,1792.607c-.26-.016-.512-.012-.757-.053a.579.579,0,0,1-.51-.634.549.549,0,0,1,.524-.581,12.276,12.276,0,0,1,1.5,0,.547.547,0,0,1,.511.594.562.562,0,0,1-.491.613C978.137,1792.592,977.873,1792.59,977.622,1792.607Z" transform="translate(-964.806 -1781.064)" fill="#fff"/>
      </g>
    </g>
    <g id="Grupo_78893" data-name="Grupo 78893" transform="translate(-10590.977 -3881.021)">
      <path id="Trazado_140790" data-name="Trazado 140790" d="M1149.284,1771.467c1.748.131,2.51.721,2.511,1.905s-.781,1.8-2.511,1.907v.408c0,1.23.036,2.462-.016,3.69a1.259,1.259,0,0,0,.638,1.222c.638-.444.777-.432,1.327.117,1.129,1.129,2.265,2.25,3.384,3.389a2.869,2.869,0,0,1,.751,3.2,2.831,2.831,0,0,1-4.616.97c-.481-.438-.906-.938-1.356-1.41l-.113.051c0,.488,0,.976,0,1.464a3.131,3.131,0,0,1-2.7,3.171,3.87,3.87,0,0,1-.625.036q-12.385,0-24.77,0a3.148,3.148,0,0,1-3.315-3.332q0-1.708,0-3.416c0-.568.218-.786.779-.79s1.121,0,1.733,0v-29.179c0-.825.153-.977.986-.977H1148.3c.826,0,.98.154.98.983v16.584Zm-15.865-5h-.487q-3.376,0-6.752,0c-.484,0-.775-.254-.763-.647s.289-.608.762-.607q4.4,0,8.793.008a1.073,1.073,0,0,0,.365-.1c.765-.3,1.519-.628,2.3-.88a.407.407,0,0,0,.346-.481c-.009-1.754-.006-3.507,0-5.261,0-.616.207-.823.824-.823q2.3,0,4.593,0c.668,0,.864.2.864.864,0,2.055.005,4.109-.006,6.164a.513.513,0,0,0,.3.519,9.342,9.342,0,0,1,3.278,3.149,1.822,1.822,0,0,0,.175.2v-13.382h-26.328v28.848H1131.7c0-.6,0-1.168,0-1.742,0-.515.229-.743.742-.747.772-.006,1.544,0,2.316,0a1.047,1.047,0,0,0,.181-.019l-2.6-2.328c0,.008-.006.081-.008.154-.012.78-.17.937-.949.937q-2.885,0-5.771,0c-.611,0-.818-.211-.818-.83q0-2.277,0-4.554c0-.718.182-.9.908-.9h2.3a1.558,1.558,0,0,0-.01-.165,1.878,1.878,0,0,1,1.927-2.347c.232,0,.464,0,.645,0l.9-2.513h-4.917c-.826,0-1.133-.175-1.126-.638s.3-.618,1.145-.618h.824c1.544,0,3.088,0,4.632-.006a.63.63,0,0,0,.411-.138C1132.758,1767.243,1133.057,1766.878,1133.419,1766.465Zm-14.259,18.862a.809.809,0,0,0-.024.117c0,.956-.005,1.911,0,2.866a1.891,1.891,0,0,0,2.041,2.027q11.032,0,22.064,0c.108,0,.217-.016.278-.02a12.251,12.251,0,0,1-.453-1.345,5.569,5.569,0,0,1-.058-1.132c-.007-.833,0-1.666,0-2.512Zm15.049-11.944a5.653,5.653,0,1,0,5.7-5.661A5.663,5.663,0,0,0,1134.209,1773.382Zm7.537,10.673c.536,0,1.122,0,1.709,0s.8.215.8.8c0,1.2-.009,2.406,0,3.608a1.881,1.881,0,0,0,3.762,0,13.624,13.624,0,0,1,.013-1.45,2.4,2.4,0,0,0-.981-2.441c-.406-.3-.377-.626-.059-1.016a1.349,1.349,0,0,0,.079-.112l-2.144-2.143a9.828,9.828,0,0,1-2.978,1.26.387.387,0,0,0-.2.294C1141.732,1783.241,1141.746,1783.618,1141.746,1784.055Zm6.6.034c1.085,1.089,2.159,2.195,3.264,3.267a1.58,1.58,0,1,0,2.25-2.217c-1.07-1.109-2.175-2.182-3.268-3.269-.015-.015-.049-.01-.026-.006Zm-22.272-8.829V1779h4.982a7.912,7.912,0,0,0-.378-3.5c-.044-.1-.176-.231-.268-.232C1128.97,1775.256,1127.534,1775.26,1126.07,1775.26Zm16.9-10.788v-5.514h-3.709v2.554a1.922,1.922,0,0,1,2.481,2.088c0,.179,0,.358,0,.54.234.056.424.1.612.149S1142.755,1764.406,1142.975,1764.472Zm-4.868,15.6a6.992,6.992,0,0,1-4.944-4.939l-1.2.167a7.946,7.946,0,0,0,5.977,5.956Zm-.174-14.613a8.024,8.024,0,0,0-5.973,6.041,4.917,4.917,0,0,1,.59.005,5.687,5.687,0,0,1,.607.14,7.012,7.012,0,0,1,4.947-4.972Zm9.854,6.041a8.033,8.033,0,0,0-6-6.021l-.171,1.2a7.008,7.008,0,0,1,4.953,4.972,5.372,5.372,0,0,1,.6-.144A5.3,5.3,0,0,1,1147.787,1771.5Zm-1.23,3.632a6.992,6.992,0,0,1-4.941,4.939l.175,1.211a8.04,8.04,0,0,0,5.973-5.982Zm-13.585,8.9h5.059c-.028-.42-.055-.818-.082-1.216h-4.978Zm7.518-19.439c0-.406.008-.811,0-1.217a.628.628,0,1,0-1.251.01q-.012,1.2,0,2.395a.627.627,0,0,0,.61.679.634.634,0,0,0,.641-.69C1140.5,1765.379,1140.49,1764.987,1140.489,1764.594Zm-9.447,9.409c.406,0,.811.007,1.217,0a.633.633,0,0,0,.689-.641.627.627,0,0,0-.679-.61q-1.2-.013-2.394,0a.628.628,0,1,0-.011,1.251C1130.257,1774.011,1130.65,1774,1131.042,1774Zm17.611,0c.406,0,.811.009,1.217,0a.627.627,0,0,0,.667-.623.62.62,0,0,0-.662-.626q-1.216-.015-2.433,0a.626.626,0,1,0,0,1.249C1147.842,1774.012,1148.248,1774,1148.653,1774Zm-8.164,8.173c0-.406.009-.812,0-1.217a.627.627,0,0,0-.62-.67.618.618,0,0,0-.629.659q-.016,1.217,0,2.434a.626.626,0,1,0,1.249.011C1140.5,1782.987,1140.489,1782.582,1140.489,1782.176Zm6.511-2.555-.892.857,1.956,1.951.893-.86Z" transform="translate(0 0)" fill="#fff"/>
      <path id="Trazado_140791" data-name="Trazado 140791" d="M1151.368,1770.614h-.707q-1.825,0-3.651,0c-.322,0-.606.12-.654.439a.91.91,0,0,0,.2.654.849.849,0,0,0,.576.157c1.963.011,3.926.007,5.888.007.877,0,1.753.005,2.63,0a.637.637,0,0,0,.7-.7c-.046-.345-.308-.547-.74-.548C1154.194,1770.612,1152.781,1770.614,1151.368,1770.614Zm2.5,2.513c-.6,0-1.2,0-1.806,0-.458,0-.739.254-.732.637a.635.635,0,0,0,.714.616q1.786.009,3.572,0c.457,0,.74-.256.733-.637s-.287-.613-.753-.617C1155.022,1773.124,1154.446,1773.127,1153.871,1773.127Zm-4.444-3.77c.406,0,.811.007,1.217,0a.628.628,0,1,0,0-1.251q-1.2-.013-2.394,0a.628.628,0,1,0,0,1.251C1148.641,1769.364,1149.034,1769.357,1149.426,1769.356Zm5.079,0c.38,0,.759.005,1.138,0a.638.638,0,0,0,.708-.623.63.63,0,0,0-.7-.629q-1.178-.011-2.355,0a.63.63,0,1,0-.008,1.252C1153.694,1769.363,1154.1,1769.357,1154.505,1769.357Zm-6.332,5.025c.406,0,.812.007,1.217,0a.628.628,0,1,0-.009-1.251q-1.2-.012-2.394,0a.628.628,0,1,0,.009,1.251C1147.388,1774.39,1147.78,1774.382,1148.173,1774.382Z" transform="translate(-20.89 -10.431)" fill="#fff"/>
      <path id="Trazado_140792" data-name="Trazado 140792" d="M1151.489,1777.582c1.413,0,2.826,0,4.24,0,.431,0,.693.2.74.548a.638.638,0,0,1-.7.7c-.877.007-1.753,0-2.63,0-1.963,0-3.926,0-5.888-.007a.849.849,0,0,1-.576-.157.909.909,0,0,1-.2-.654c.048-.319.331-.44.654-.439q1.825,0,3.651,0Z" transform="translate(-21.011 -17.399)" fill="#fff"/>
      <path id="Trazado_140793" data-name="Trazado 140793" d="M1167.79,1787.053c.576,0,1.151,0,1.727,0,.466,0,.747.238.753.617s-.276.635-.733.637q-1.786.007-3.572,0a.635.635,0,0,1-.713-.616c-.007-.382.274-.632.732-.636C1166.586,1787.048,1167.188,1787.053,1167.79,1787.053Z" transform="translate(-34.809 -24.357)" fill="#fff"/>
      <path id="Trazado_140794" data-name="Trazado 140794" d="M1152.906,1769.357c-.393,0-.785.007-1.177,0a.628.628,0,1,1,0-1.251q1.2-.012,2.394,0a.628.628,0,1,1,0,1.251C1153.717,1769.364,1153.311,1769.356,1152.906,1769.357Z" transform="translate(-24.369 -10.431)" fill="#fff"/>
      <path id="Trazado_140795" data-name="Trazado 140795" d="M1171.9,1769.358c-.406,0-.811.006-1.217,0a.63.63,0,1,1,.008-1.252q1.177-.01,2.355,0a.631.631,0,0,1,.7.629.638.638,0,0,1-.708.623C1172.663,1769.363,1172.284,1769.358,1171.9,1769.358Z" transform="translate(-38.289 -10.432)" fill="#fff"/>
      <path id="Trazado_140796" data-name="Trazado 140796" d="M1148.173,1788.3c-.393,0-.785.007-1.177,0a.628.628,0,1,1-.009-1.251q1.2-.013,2.394,0a.628.628,0,1,1,.009,1.251C1148.984,1788.31,1148.579,1788.3,1148.173,1788.3Z" transform="translate(-20.89 -24.352)" fill="#fff"/>
      <path id="Trazado_140797" data-name="Trazado 140797" d="M1195.207,1818.686a.613.613,0,0,1-.547.572,1.2,1.2,0,0,1-.352.008.574.574,0,0,0-.65.339,2.307,2.307,0,0,1-.724.688.417.417,0,0,0-.24.428,2.442,2.442,0,0,1,0,.47.623.623,0,0,1-.622.586.576.576,0,0,1-.61-.585,1,1,0,0,0-.613-1.141.714.714,0,0,1-.333-.374c-.146-.406-.436-.433-.8-.417-.493.022-.781-.23-.781-.622s.287-.641.781-.621c.362.015.621-.021.81-.411a1.81,1.81,0,0,1,.68-.622.408.408,0,0,0,.241-.427,2.057,2.057,0,0,1,.008-.509.587.587,0,0,1,.616-.542c.347,0,.634.213.6.539a1.084,1.084,0,0,0,.652,1.2.622.622,0,0,1,.282.318c.152.43.467.47.858.452A.638.638,0,0,1,1195.207,1818.686Zm-2.513-.053a.625.625,0,1,0-.61.633A.631.631,0,0,0,1192.695,1818.632Z" transform="translate(-52.208 -45.264)" fill="#fff"/>
    </g>
    <g id="Grupo_78894" data-name="Grupo 78894" transform="translate(-9984.057 -3882.953)">
      <path id="Trazado_140798" data-name="Trazado 140798" d="M1365.642,1774.831c.018.115.032.237.058.358.13.6.254,1.2.4,1.789a.348.348,0,0,1-.252.487,6.077,6.077,0,0,0-2.411,1.762,6.277,6.277,0,0,0,2.173,9.762,18.744,18.744,0,0,0,2,.655v2.5h-1.215v1.246h2.464v1.266H1364.5v1.255h1.869v2.543h1.269v2.5l-1.637-.479-.53,1.059a6.12,6.12,0,0,0,3.893.586,6.353,6.353,0,0,0,4.567-3.432.714.714,0,0,1,.42-.3,1.879,1.879,0,0,0,1.466-2.078,6.188,6.188,0,0,0-.4-1.1,1.884,1.884,0,0,0,.011-2.384.364.364,0,0,1,.037-.327c.4-.556.8-1.122,1.245-1.641a11.232,11.232,0,0,0,2.476-10.731,10.079,10.079,0,0,0-1.57-3.3l-1.026.708c.114.181.21.331.3.483a9.744,9.744,0,0,1,1.453,4.617,10.038,10.038,0,0,1-2.592,7.411,22.072,22.072,0,0,0-1.384,1.822.5.5,0,0,1-.48.266c-.812-.02-1.624-.007-2.455-.007v1.25h.395c.625,0,1.25-.006,1.874,0a1.334,1.334,0,0,1,.521.088.562.562,0,0,1,.325.664.6.6,0,0,1-.624.512c-.4.021-.806.005-1.213.005v1.255c.39,0,.758-.01,1.124,0,.467.017.744.276.73.657s-.286.6-.737.612c-.37.009-.74,0-1.109,0h-1.28v1.268h1.129a4.662,4.662,0,0,1-3.656,2.4v-2.436h1.217v-1.249h-2.466v-1.274h3.722v-1.246h-1.238v-2.53h-1.241v-2.529c2.131-.52,3.283-1.124,4.033-2.125l-.893-.8a5.123,5.123,0,0,1-7.358.188,5.059,5.059,0,0,1-.352-6.756,4.894,4.894,0,0,1,3.064-1.8,5.08,5.08,0,0,1,4.639,1.6l.916-.825c-.068-.077-.114-.135-.166-.188a6.233,6.233,0,0,0-4.406-1.912c-.336-.009-.8.1-.975-.074-.214-.208-.187-.663-.263-1.011a.4.4,0,0,1,0-.09,7.483,7.483,0,0,1,2.861.093l.268-1.192A8.818,8.818,0,0,0,1365.642,1774.831Z" transform="translate(-31.642 -15.106)" fill="#fff"/>
      <path id="Trazado_140799" data-name="Trazado 140799" d="M1425.535,1754.818l-5.131.733c.063.431.122.828.183,1.246l2.646-.372a.6.6,0,0,1-.051.132c-1.172,1.51-2.342,3.021-3.525,4.522a.558.558,0,0,1-.39.151c-1.134.011-2.268.007-3.4.007h-.4v1.252c1.464,0,2.9-.008,4.341.007a.674.674,0,0,0,.6-.3q1.759-2.288,3.537-4.561c.082-.105.172-.2.331-.391v2.689h1.255Z" transform="translate(-69.34 -1.281)" fill="#fff"/>
      <path id="Trazado_140800" data-name="Trazado 140800" d="M1317.03,1868.959c.139.011.277.032.416.032,3.405,0,6.81,0,10.215.007a.7.7,0,0,0,.661-.328c.657-.956,1.343-1.891,2.017-2.836.079-.112.152-.229.259-.391l-2.73.385-.183-1.247,5.114-.733v5.109h-1.234v-2.642c-.149.2-.233.3-.311.41-.778,1.089-1.562,2.174-2.328,3.271a.566.566,0,0,1-.533.269q-5.681-.012-11.363-.005Z" transform="translate(0 -78.081)" fill="#fff"/>
      <path id="Trazado_140801" data-name="Trazado 140801" d="M1318.378,1790.505l-1.348.037v-1.3h1.219c.044.458.083.863.121,1.27Z" transform="translate(0 -25.528)" fill="#fff"/>
      <path id="Trazado_140802" data-name="Trazado 140802" d="M1350.341,1753l-.01,1.313.015-.017h-1.235l.013.017-.008-1.314Z" transform="translate(-22.598)" fill="#fff"/>
      <path id="Trazado_140803" data-name="Trazado 140803" d="M1352.735,1783.99l-.58,1.1a8.9,8.9,0,0,1-4.745-7.183h-1.226a9.648,9.648,0,0,0,.912,3.622,11.008,11.008,0,0,0,1.763,2.622c.485.553.888,1.176,1.344,1.755a.53.53,0,0,0,.352.191c.827.017,1.654.009,2.506.009v1.249c-.666,0-1.324,0-1.982,0a4.367,4.367,0,0,0-.609.028.588.588,0,0,0-.538.6.605.605,0,0,0,.55.629,6.411,6.411,0,0,0,.676.034v1.24c-.173,0-.336-.007-.5,0-.466.025-.743.28-.727.661s.287.6.739.609c.727.009,1.454,0,2.18,0,.062,0,.124.012.21.021v1.211h-1.218l.607.885-.959.862c-.317-.506-.61-.988-.918-1.46-.075-.115-.189-.266-.3-.284a1.893,1.893,0,0,1-1.18-3.066.319.319,0,0,0,.029-.086,1.948,1.948,0,0,1,.093-2.611c-.385-.5-.754-1.032-1.179-1.516a13.1,13.1,0,0,1-1.862-2.6,11.308,11.308,0,0,1-1.272-4.716,10.774,10.774,0,0,1,2.064-7.085,11.1,11.1,0,0,1,9.6-4.808,11.215,11.215,0,0,1,7.629,3.253l-.878.841-1.77-1.385-.639,1.1a8.751,8.751,0,0,1,4.014,9.133,8.557,8.557,0,0,1-4.59,6.25l-.592-1.116a7.7,7.7,0,0,0,3.3-3.383l-2.179-1.127.424-1.586c-.439,0-.793-.019-1.143.013-.086.008-.2.168-.229.278a3.678,3.678,0,0,1-2.187,2.544,3.571,3.571,0,0,1-4.041-.707,3.51,3.51,0,0,1-1.075-3.758,3.734,3.734,0,0,1,6.43-1.514,5.34,5.34,0,0,1,.842,1.558c.1.244.183.347.446.327.29-.022.583-.005.958-.005l-.47-1.635,1.075-.537a6.343,6.343,0,0,1,.477,4.374l1.137.584a7.492,7.492,0,0,0-.425-5.4,7.828,7.828,0,0,0-3.918-3.775l1.248-2.183a9.772,9.772,0,0,0-8.537.108,10,10,0,0,0-5.734,8.44h1.275a8.907,8.907,0,0,1,4.74-7.184l.584,1.107a7.62,7.62,0,0,0,0,13.467Zm3.51-4.217a2.523,2.523,0,1,0-2.529-2.522A2.53,2.53,0,0,0,1356.245,1779.773Z" transform="translate(-19.62 -9.09)" fill="#fff"/>
      <path id="Trazado_140804" data-name="Trazado 140804" d="M1365.642,1774.831a8.818,8.818,0,0,1,4.64-.138l-.268,1.192a7.483,7.483,0,0,0-2.861-.093.4.4,0,0,0,0,.09c.076.348.05.8.263,1.011.179.174.639.065.975.074a6.233,6.233,0,0,1,4.406,1.912c.052.052.1.111.166.188l-.916.825a5.08,5.08,0,0,0-4.639-1.6,4.894,4.894,0,0,0-3.064,1.8,5.059,5.059,0,0,0,.352,6.756,5.123,5.123,0,0,0,7.358-.188l.893.8c-.75,1-1.9,1.606-4.033,2.125v2.529h1.241v2.53h1.238v1.246h-3.722v1.274h2.466v1.249h-1.217c0,.847,0,1.641,0,2.436a4.662,4.662,0,0,0,3.656-2.4h-1.129v-1.268h1.28c.37,0,.74.007,1.109,0,.451-.011.723-.243.737-.612s-.263-.641-.73-.657c-.366-.013-.734,0-1.124,0v-1.255c.407,0,.811.016,1.213-.005a.6.6,0,0,0,.624-.512.562.562,0,0,0-.325-.664,1.334,1.334,0,0,0-.521-.088c-.625-.01-1.25,0-1.874,0h-.395v-1.25c.831,0,1.643-.012,2.455.007a.5.5,0,0,0,.48-.266,22.072,22.072,0,0,1,1.384-1.822,10.038,10.038,0,0,0,2.592-7.411,9.744,9.744,0,0,0-1.453-4.617c-.093-.152-.189-.3-.3-.483l1.026-.708a10.079,10.079,0,0,1,1.57,3.3,11.232,11.232,0,0,1-2.476,10.731c-.447.52-.841,1.086-1.245,1.641a.364.364,0,0,0-.037.327,1.884,1.884,0,0,1-.011,2.384,6.188,6.188,0,0,1,.4,1.1,1.879,1.879,0,0,1-1.466,2.078.714.714,0,0,0-.42.3,6.353,6.353,0,0,1-4.567,3.432,6.12,6.12,0,0,1-3.893-.586l.53-1.059,1.637.479v-2.5h-1.269v-2.543H1364.5v-1.255h4.356v-1.266h-2.464v-1.246h1.215v-2.5a18.744,18.744,0,0,1-2-.655,6.277,6.277,0,0,1-2.173-9.762,6.077,6.077,0,0,1,2.411-1.762.348.348,0,0,0,.252-.487c-.146-.593-.27-1.192-.4-1.789C1365.674,1775.068,1365.66,1774.945,1365.642,1774.831Z" transform="translate(-31.642 -15.106)" fill="#fff"/>
      <path id="Trazado_140805" data-name="Trazado 140805" d="M1425.535,1754.818v5.114h-1.255v-2.689c-.158.186-.249.286-.331.391q-1.772,2.278-3.537,4.561a.674.674,0,0,1-.6.3c-1.438-.014-2.877-.007-4.341-.007v-1.252h.4c1.135,0,2.269,0,3.4-.007a.558.558,0,0,0,.39-.151c1.184-1.5,2.354-3.012,3.525-4.522a.6.6,0,0,0,.051-.132l-2.646.372c-.062-.418-.12-.815-.183-1.246Z" transform="translate(-69.34 -1.281)" fill="#fff"/>
      <path id="Trazado_140806" data-name="Trazado 140806" d="M1434.546,1805.64v-1.276h1.292v1.276l.009-.011h-1.312Z" transform="translate(-82.771 -36.181)" fill="#fff"/>
      <path id="Trazado_140807" data-name="Trazado 140807" d="M1435.839,1812.776v1.271h-1.292v-1.271l-.01.011h1.312Z" transform="translate(-82.771 -42.106)" fill="#fff"/>
      <path id="Trazado_140808" data-name="Trazado 140808" d="M1329.042,1822.623h-1.269v-1.292h1.269l-.011-.01v1.312Z" transform="translate(-7.567 -48.125)" fill="#fff"/>
      <path id="Trazado_140809" data-name="Trazado 140809" d="M1336.161,1821.332h1.273v1.293h-1.273l.011.01v-1.312Z" transform="translate(-13.476 -48.126)" fill="#fff"/>
      <path id="Trazado_140810" data-name="Trazado 140810" d="M1325.607,1789.121l1.221.085v1.249h-1.241l.012.011.017-1.354Z" transform="translate(-6.028 -25.438)" fill="#fff"/>
      <path id="Trazado_140811" data-name="Trazado 140811" d="M1346.162,1758.5h-1.255v-1.266l1.256.061-.013-.017v1.234Z" transform="translate(-19.636 -2.986)" fill="#fff"/>
      <path id="Trazado_140812" data-name="Trazado 140812" d="M1353.235,1757.288l1.275-.065v1.27h-1.277l.015.013v-1.234Z" transform="translate(-25.502 -2.975)" fill="#fff"/>
      <path id="Trazado_140813" data-name="Trazado 140813" d="M1350.33,1761.518v1.257h-1.207v-1.257l-.012.012h1.234Z" transform="translate(-22.598 -6)" fill="#fff"/>
      <path id="Trazado_140814" data-name="Trazado 140814" d="M1423.936,1839.834v-1.267h1.207v1.267l.015-.014h-1.234Z" transform="translate(-75.296 -60.273)" fill="#fff"/>
      <path id="Trazado_140815" data-name="Trazado 140815" d="M1420.955,1844.029h-1.264v-1.207h1.264l-.012-.013q0,.617,0,1.234Z" transform="translate(-72.314 -63.261)" fill="#fff"/>
      <path id="Trazado_140816" data-name="Trazado 140816" d="M1428.045,1842.822h1.279v1.207h-1.281l.016.015v-1.235Z" transform="translate(-78.198 -63.261)" fill="#fff"/>
      <path id="Trazado_140817" data-name="Trazado 140817" d="M1425.141,1846.936v1.279h-1.205v-1.279l-.013.014h1.235Z" transform="translate(-75.295 -66.168)" fill="#fff"/>
      <path id="Trazado_140818" data-name="Trazado 140818" d="M1322.674,1786.338l-1.263.085v-1.25h1.253c0,.4,0,.785,0,1.173Z" transform="translate(-3.087 -22.663)" fill="#fff"/>
      <path id="Trazado_140819" data-name="Trazado 140819" d="M1322.511,1793.559v1.227h-1.291c.037-.434.073-.85.109-1.266l-.007.005,1.2.046Z" transform="translate(-2.951 -28.542)" fill="#fff"/>
      <path id="Trazado_140820" data-name="Trazado 140820" d="M1438.942,1808.654h1.207v1.211h-1.207l.01.01q0-.616,0-1.232Z" transform="translate(-85.875 -39.195)" fill="#fff"/>
      <path id="Trazado_140821" data-name="Trazado 140821" d="M1332.04,1818.473v-1.21h1.211v1.209l.011-.01h-1.233Z" transform="translate(-10.565 -45.267)" fill="#fff"/>
      <path id="Trazado_140822" data-name="Trazado 140822" d="M1333.251,1825.726v1.211h-1.211v-1.211l-.011.01h1.233Z" transform="translate(-10.565 -51.228)" fill="#fff"/>
      <path id="Trazado_140823" data-name="Trazado 140823" d="M1431.68,1809.864h-1.213v-1.211h1.213l-.01-.011v1.233Z" transform="translate(-79.905 -39.194)" fill="#fff"/>
    </g>
  </g>
</svg>
